<svg width="100" height="100" viewBox="0 0 100 100" fill="none" xmlns="http://www.w3.org/2000/svg">
<mask id="mask0_329_2481" style="mask-type:luminance" maskUnits="userSpaceOnUse" x="0" y="0" width="100" height="100">
<path d="M100 0H0V100H100V0Z" fill="white"/>
</mask>
<g mask="url(#mask0_329_2481)">
<path d="M87.163 65.4893C93.5613 48.0125 85.0051 42.0196 79.6196 32.8473C74.234 23.6751 65.5891 20.2852 64.2356 22.789C61.2497 16.7774 56.7593 15.166 48.7729 15.166C38.9621 15.166 26.8181 20.8176 24.7189 28.2453C21.9338 38.1 19.3879 39.2085 15.4614 46.2495C12.8536 50.9258 11.8836 61.1131 15.4614 67.3217C20.9241 76.8016 31.8237 84.9222 51.3732 84.9222C62.9644 84.9222 82.0036 79.582 87.163 65.4893Z" fill="#C93305"/>
<path d="M49.7622 40.6279C66.6144 41.1236 68.0824 56.5968 68.3732 63.2124C68.4642 65.2824 68.9164 67.1067 69.364 68.9126C69.8933 71.0485 70.4164 73.1584 70.3276 75.6184C70.4122 78.0071 69.9681 80.6945 68.3732 84.0675C66.2924 88.4683 57.8576 93.2102 49.7622 93.2135C41.2437 93.2171 33.0492 88.2278 30.8757 82.5814C29.3788 78.6927 28.9506 75.7851 29.0291 73.3654C28.9411 70.6285 29.5227 68.5265 30.0933 66.4638C30.3884 65.397 30.6805 64.3406 30.8757 63.2124C30.9949 62.5229 31.0899 61.6703 31.1977 60.7038C31.9811 53.6749 33.4352 40.6279 49.7622 40.6279Z" fill="#DA9969"/>
<path d="M29.0958 72.3184C28.847 74.9434 29.1566 78.1155 30.8756 82.5814C33.0492 88.2279 41.2436 93.217 49.7621 93.2136C57.8575 93.2102 66.2923 88.4685 68.3731 84.0676C70.2811 80.0323 70.5422 76.9784 70.2213 74.243C70.0268 76.0862 69.4745 78.1369 68.3413 80.5336C66.2606 84.9345 57.8257 89.6763 49.7303 89.6796C41.2119 89.6832 33.0172 84.6939 30.8439 79.0473C29.8255 76.4022 29.3019 74.2108 29.0958 72.3184Z" fill="black" fill-opacity="0.19"/>
<path d="M55.0726 80.3715C55.0726 83.1665 52.8068 85.4324 50.0116 85.4324C47.2166 85.4324 44.9507 83.1665 44.9507 80.3715C44.9507 77.5763 47.2166 75.3105 50.0116 75.3105C52.8068 75.3105 55.0726 77.5763 55.0726 80.3715Z" fill="#DE8383"/>
<path d="M81.6248 64.1159C81.6248 60.1422 78.4035 56.9209 74.4299 56.9209C70.4562 56.9209 67.2349 60.1422 67.2349 64.1159C67.2349 68.0896 70.4562 71.3109 74.4299 71.3109C78.4035 71.3109 81.6248 68.0896 81.6248 64.1159Z" fill="#DA9969"/>
<path d="M78.0133 60.5137L70.7461 67.291" stroke="black" stroke-opacity="0.19" stroke-width="0.816545" stroke-linecap="round" stroke-linejoin="round"/>
<path d="M18.8766 64.1159C18.8766 60.1422 22.0979 56.9209 26.0716 56.9209C30.0453 56.9209 33.2666 60.1422 33.2666 64.1159C33.2666 68.0896 30.0453 71.3109 26.0716 71.3109C22.0979 71.3109 18.8766 68.0896 18.8766 64.1159Z" fill="#DA9969"/>
<path d="M22.4881 60.5137L29.7554 67.291" stroke="black" stroke-opacity="0.19" stroke-width="0.816545" stroke-linecap="round" stroke-linejoin="round"/>
<path d="M38.3384 61.2363C37.7001 61.9505 37.3479 62.8751 37.3494 63.8329C37.3494 65.9881 39.0965 67.7352 41.2518 67.7352C43.0183 67.7352 44.5106 66.5615 44.9914 64.9513L38.3382 61.2367L38.3384 61.2363ZM60.5571 61.2363C61.1953 61.9504 61.5475 62.875 61.5461 63.8328C61.5461 65.988 59.799 67.7351 57.6438 67.7351C55.8773 67.7351 54.3848 66.5613 53.904 64.9511L60.5571 61.2363Z" fill="white"/>
<path d="M38.2476 57.5537C39.4724 58.3703 44.7799 61.7997 46.2497 62.6979M60.8659 57.6354C59.6411 58.4519 54.3335 61.8814 52.8637 62.7796" stroke="black" stroke-width="0.600324" stroke-linecap="round"/>
<path d="M38.3293 57.6357C39.5542 58.4523 44.8617 61.8818 46.3315 62.78M60.9477 57.7174C59.7228 58.5339 54.4153 61.9634 52.9455 62.8616" stroke="black" stroke-width="0.600324" stroke-linecap="round"/>
<path d="M50.239 68.0635C49.6441 68.1909 48.4543 68.7134 48.4543 69.7843C48.4543 71.1227 49.6441 71.5052 50.239 71.6963" stroke="black" stroke-opacity="0.5" stroke-width="0.653236" stroke-linecap="round" stroke-linejoin="round"/>
<path d="M31.7942 66.0167C28.8957 66.0167 28.2365 59.4842 28.525 56.1035H31.7942C31.054 57.9952 31.4077 59.6426 31.6118 61.6834C31.8492 64.0578 34.1448 62.2936 34.6299 61.3571C34.6885 63.2207 33.2024 66.0167 31.7942 66.0167Z" fill="#C93305"/>
<path d="M67.8762 66.0167C70.7747 66.0167 71.4339 59.4842 71.1454 56.1035H67.8762C68.6164 57.9952 68.2627 59.6426 68.0586 61.6834C67.8212 64.0578 65.5256 62.2936 65.0405 61.3571C64.9819 63.2207 66.468 66.0167 67.8762 66.0167Z" fill="#C93305"/>
<path d="M57.4728 56.4091C57.4728 55.4191 57.2778 54.4388 56.8989 53.5242C56.5201 52.6095 55.9648 51.7784 55.2647 51.0784C54.5647 50.3783 53.7337 43.8277 52.8189 43.4489C51.9043 43.07 50.924 42.875 49.934 42.875C48.944 42.875 47.9637 43.07 47.0491 43.4489C46.1344 43.8276 45.3033 50.3783 44.6033 51.0784C43.9033 51.7784 43.3479 52.6095 42.9692 53.5242C42.5902 54.4388 42.3952 55.4191 42.3953 56.4091H57.4728Z" fill="#C93305"/>
<path d="M69.1074 48.7514C69.8847 50.6333 70.4726 52.8472 70.4726 57.0618C69.1667 57.0618 65.9019 58.3677 59.491 54.9248C52.9799 51.4282 51.312 47.861 49.7559 45.5459C48.2126 48.7514 45.3633 51.6409 41.1487 54.2719C36.9341 56.9028 31.1366 56.765 29.2173 57.0618C29.2173 54.3178 29.4595 51.6008 30.5066 49.0657C31.5529 46.5318 33.0875 44.2284 35.0231 42.2869C36.9566 40.3474 39.2535 38.8083 41.7825 37.7575C44.3097 36.7076 47.0193 36.1671 49.7559 36.167C52.4925 36.1671 55.2021 36.7076 57.7293 37.7575C60.2583 38.8083 62.5553 40.3474 64.4888 42.2869C66.4236 44.2272 68.0602 46.2163 69.1074 48.7514Z" fill="#C93305"/>
</g>
</svg>
