<svg width="100" height="100" viewBox="0 0 100 100" fill="none" xmlns="http://www.w3.org/2000/svg">
<mask id="mask0_329_2062" style="mask-type:luminance" maskUnits="userSpaceOnUse" x="0" y="0" width="100" height="100">
<path d="M100 0H0V100H100V0Z" fill="white"/>
</mask>
<g mask="url(#mask0_329_2062)">
<path d="M77.0514 46.4069C75.0242 43.4175 78.3362 41.827 77.0514 35.6983C75.7664 29.5695 70.4601 32.4375 67.8615 29.5695C65.2629 26.7014 65.2235 24.1519 61.1507 22.9643C54.0124 20.8827 49.4862 26.4073 43.2324 22.9643C36.9785 19.5212 29.8711 24.7644 28.7571 29.5695C27.9756 32.9404 27.4117 35.6559 22.6336 39.2396C17.0686 43.4133 17.3635 52.0986 21.2986 56.8768C25.2335 61.6551 24.0389 63.7631 23.8984 68.2603C23.7579 72.7574 28.0442 77.3951 34.4386 75.7789C40.833 74.1627 40.9764 79.4862 48.0105 81.357C55.5892 83.3725 53.7725 78.3354 61.1507 78.1949C68.5288 78.0544 70.0748 73.8383 71.4098 69.6925C72.7449 65.5467 71.9719 64.2117 75.7664 59.9954C79.561 55.7794 80.8155 51.958 77.0514 46.4069Z" fill="#E8E1E1"/>
<path d="M20.7271 39.9141C23.331 37.5246 26.7909 37.9038 28.1952 38.3921L52.1744 67.663C52.4114 68.0774 51.5896 70.6114 48.9146 74.0312C43.9693 80.3537 41.2437 78.6837 40.5422 80.1449C39.9811 81.3138 42.2669 83.3139 43.4799 84.168C42.5531 84.4832 40.0359 84.5817 37.3812 82.4531C34.7266 80.3246 34.3829 75.4468 34.5427 73.274C34.1392 73.2298 33.144 73.7803 32.3909 76.3365C31.6378 78.8928 28.6029 79.9385 27.1796 80.142C27.7778 79.7954 28.7123 78.2229 27.663 74.7052C26.647 71.2987 27.7542 68.9768 28.8277 67.3012C28.6327 67.3566 28.0376 67.4003 26.078 68.6777C23.3092 70.4827 19.6344 67.3277 18.1432 65.5246C19.2892 65.6593 21.9524 65.4137 23.4353 63.3548C24.9183 61.2957 24.9587 60.209 24.7935 59.9228C23.7358 59.6105 21.0743 59.4935 18.8887 61.5232C16.7034 63.5529 13.8243 60.5669 12.6582 58.8203C13.0554 59.0951 14.1571 59.4202 15.3874 58.5219C16.9251 57.399 15.1024 56.6966 15.7332 53.5246C16.0759 51.8024 17.4801 50.8868 18.7663 50.4525C17.4164 50.4266 15.5014 49.8108 13.3888 47.7127C10.1477 44.4941 11.529 41.7278 12.6247 40.7468C12.7089 41.3406 13.2464 42.7465 14.7231 43.6205C16.5687 44.7129 17.4721 42.9009 20.7271 39.9141Z" fill="#E8E1E1"/>
<path d="M58.562 22.0043C60.702 24.8168 60.0063 28.2271 59.3911 29.5807L28.0397 50.7676C27.6054 50.9655 25.1576 49.9142 21.9981 46.9361C16.1571 41.4307 18.0704 38.8701 16.68 38.0374C15.5676 37.3711 13.3658 39.4633 12.404 40.5927C12.1752 39.6408 12.3088 37.1252 14.6722 34.6774C17.0357 32.2298 21.9245 32.3358 24.0733 32.6947C24.1544 32.297 23.6977 31.2554 21.2217 30.2705C18.7454 29.2857 17.9829 26.1674 17.9114 24.7314C18.2014 25.359 19.6814 26.4341 23.2807 25.7126C26.7659 25.0141 28.9763 26.3301 30.5461 27.5529C30.509 27.3537 30.5201 26.7572 29.4282 24.6883C27.8855 21.7653 31.3648 18.3962 33.2973 17.0769C33.058 18.2059 33.0577 20.8802 34.9716 22.5463C36.8855 24.2122 37.964 24.3522 38.264 24.214C38.6722 23.1896 39.0335 20.5502 37.2133 18.1874C35.3931 15.8245 38.6311 13.2323 40.4775 12.2314C40.1673 12.6017 39.7423 13.669 40.5239 14.9765C41.5006 16.6111 42.3675 14.8605 45.4681 15.7805C47.1515 16.2799 47.9342 17.7622 48.2484 19.0831C48.3982 17.7414 49.1875 15.8907 51.4709 13.98C54.9737 11.0487 57.6015 12.6782 58.4775 13.8596C57.8786 13.8888 56.4292 14.2949 55.4231 15.6849C54.1657 17.4223 55.887 18.4885 58.562 22.0043Z" fill="#E8E1E1"/>
<path d="M78.5799 59.1545C75.7807 61.3121 72.3661 60.6376 71.0087 60.0308L49.627 28.8121C49.4263 28.3789 50.4623 25.9247 53.4205 22.7467C58.8895 16.8714 61.4621 18.7689 62.2861 17.3732C62.9454 16.2567 60.8395 14.0679 59.7042 13.1131C60.6546 12.8785 63.171 12.9962 65.6333 15.3445C68.0958 17.6928 68.0202 22.582 67.6746 24.733C68.0728 24.8118 69.1116 24.3487 70.0811 21.8664C71.0505 19.3841 74.1639 18.6022 75.5994 18.5216C74.9735 18.8157 73.9078 20.3022 74.6517 23.8969C75.3719 27.3779 74.0698 29.5964 72.8566 31.1738C73.0557 31.1354 73.6524 31.1428 75.7142 30.038C78.6275 28.4771 82.0184 31.9355 83.3496 33.8598C82.2191 33.6274 79.5448 33.6437 77.8908 35.568C76.2367 37.4923 76.1035 38.5717 76.2435 38.8708C77.2705 39.2725 79.9122 39.6174 82.2637 37.7824C84.6151 35.9476 87.2275 39.1693 88.2398 41.0095C87.8676 40.7017 86.7977 40.2833 85.4949 41.0729C83.8666 42.0598 85.6225 42.916 84.722 46.0222C84.233 47.7086 82.7555 48.5005 81.4366 48.823C82.7793 48.9644 84.6346 49.7422 86.5597 52.0135C89.5128 55.4981 87.8996 58.1359 86.7237 59.0193C86.6908 58.4206 86.2756 56.9738 84.8795 55.9764C83.1343 54.7298 82.0788 56.4577 78.5799 59.1545Z" fill="#E8E1E1"/>
<path d="M42.9456 78.2365C40.3849 75.8007 40.5285 72.3231 40.9204 70.8889L68.4969 44.979C68.8942 44.7143 71.4781 45.3623 75.0715 47.7991C81.715 52.304 80.2338 55.1367 81.7392 55.7374C82.9435 56.2178 84.784 53.8017 85.5537 52.5335C85.9311 53.4367 86.2001 55.9415 84.2566 58.7345C82.3131 61.5273 77.4699 62.2013 75.2913 62.1892C75.2745 62.5948 75.8912 63.5504 78.4927 64.1283C81.0942 64.7062 82.3435 67.6631 82.643 69.0694C82.2566 68.496 80.6243 67.6704 77.1859 68.9559C73.8563 70.2007 71.4646 69.2536 69.72 68.2963C69.7885 68.4871 69.8724 69.0778 71.2798 70.9464C73.2685 73.5863 70.3703 77.4666 68.6724 79.0768C68.7291 77.9242 68.3033 75.2838 66.1484 73.9441C63.9935 72.6042 62.9065 72.6376 62.6323 72.8219C62.3925 73.8982 62.4563 76.5616 64.6296 78.6044C66.803 80.6472 64.0192 83.7221 62.3557 85.0042C62.6029 84.5892 62.8526 83.4678 61.8729 82.3014C60.6482 80.8433 60.0711 82.7096 56.8636 82.2953C55.1221 82.0704 54.1134 80.7316 53.5928 79.4776C53.6586 80.8261 53.1741 82.7788 51.2243 85.0289C48.2328 88.4807 45.3791 87.2905 44.3262 86.2637C44.9128 86.1395 46.279 85.5076 47.0509 83.9753C48.0155 82.0597 46.1463 81.2813 42.9456 78.2365Z" fill="#E8E1E1"/>
<path d="M49.5157 88.6416C61.5565 88.6416 71.3175 78.8806 71.3175 66.8399C71.3175 54.7991 61.5565 45.0381 49.5157 45.0381C37.4749 45.0381 27.7139 54.7991 27.7139 66.8399C27.7139 78.8806 37.4749 88.6416 49.5157 88.6416Z" fill="#DA9969"/>
<path d="M71.3682 65.6641C70.7736 77.1956 61.2352 86.3628 49.5557 86.3628C37.8763 86.3628 28.3379 77.1956 27.7433 65.6641C27.7237 66.0448 27.7139 66.426 27.7139 66.8072C27.7139 78.8702 37.4929 88.649 49.5557 88.649C61.6187 88.649 71.3976 78.8702 71.3976 66.8072C71.3976 66.4238 71.3877 66.0426 71.3682 65.6641Z" fill="black" fill-opacity="0.19"/>
<path d="M55.2956 79.8622C55.2956 82.6171 52.8786 84.8504 49.8972 84.8504C46.9158 84.8504 44.499 82.6171 44.499 79.8622C44.499 77.1072 45.2187 77.4404 49.8972 77.4404C54.2159 77.4404 55.2956 77.1072 55.2956 79.8622Z" fill="#F9F9F9"/>
<path d="M81.6249 64.1159C81.6249 60.1422 78.4036 56.9209 74.4299 56.9209C70.4562 56.9209 67.2349 60.1422 67.2349 64.1159C67.2349 68.0896 70.4562 71.3109 74.4299 71.3109C78.4036 71.3109 81.6249 68.0896 81.6249 64.1159Z" fill="#DA9969"/>
<path d="M78.0133 60.5137L70.7461 67.291" stroke="black" stroke-opacity="0.19" stroke-width="0.816545" stroke-linecap="round" stroke-linejoin="round"/>
<path d="M18.8767 64.1159C18.8767 60.1422 22.098 56.9209 26.0717 56.9209C30.0454 56.9209 33.2667 60.1422 33.2667 64.1159C33.2667 68.0896 30.0454 71.3109 26.0717 71.3109C22.098 71.3109 18.8767 68.0896 18.8767 64.1159Z" fill="#DA9969"/>
<path d="M22.4882 60.5137L29.7555 67.291" stroke="black" stroke-opacity="0.19" stroke-width="0.816545" stroke-linecap="round" stroke-linejoin="round"/>
<path d="M38.3291 57.536C38.9098 57.0794 39.8033 56.166 41.5456 56.166C43.0259 56.166 44.2706 57.1707 44.494 57.536M55.4075 57.536C55.9882 57.0794 56.8817 56.166 58.624 56.166C60.1042 56.166 61.349 57.1707 61.5724 57.536" stroke="black" stroke-width="0.684918" stroke-linecap="round"/>
<path d="M43.2194 58.8379H40.5294C39.0436 58.8379 37.8392 60.0423 37.8392 61.5281V66.0116C37.8392 67.4973 39.0436 68.7018 40.5294 68.7018H43.2194C44.7051 68.7018 45.9096 67.4973 45.9096 66.0116V61.5281C45.9096 60.0423 44.7051 58.8379 43.2194 58.8379Z" fill="white"/>
<path d="M59.8086 58.8379H57.1186C55.6328 58.8379 54.4284 60.0423 54.4284 61.5281V66.0116C54.4284 67.4973 55.6328 68.7018 57.1186 68.7018H59.8086C61.2944 68.7018 62.4988 67.4973 62.4988 66.0116V61.5281C62.4988 60.0423 61.2944 58.8379 59.8086 58.8379Z" fill="white"/>
<path d="M44.3129 62.6769C44.3129 61.315 43.2089 60.2109 41.8469 60.2109C40.485 60.2109 39.381 61.315 39.381 62.6769V65.3671C39.381 66.729 40.485 67.8331 41.8469 67.8331C43.2089 67.8331 44.3129 66.729 44.3129 65.3671V62.6769Z" fill="#757575"/>
<path d="M60.8881 62.6769C60.8881 61.315 59.7841 60.2109 58.4221 60.2109C57.0602 60.2109 55.9562 61.315 55.9562 62.6769V65.3671C55.9562 66.729 57.0602 67.8331 58.4221 67.8331C59.7841 67.8331 60.8881 66.729 60.8881 65.3671V62.6769Z" fill="#757575"/>
<path d="M41.8866 61.7793H41.8864C41.1414 61.7793 40.5374 62.3833 40.5374 63.1284V64.6704C40.5374 65.4154 41.1414 66.0195 41.8864 66.0195H41.8866C42.6317 66.0195 43.2357 65.4154 43.2357 64.6704V63.1284C43.2357 62.3833 42.6317 61.7793 41.8866 61.7793Z" fill="black"/>
<path d="M58.4619 61.7793H58.4617C57.7166 61.7793 57.1126 62.3833 57.1126 63.1284V64.6704C57.1126 65.4154 57.7166 66.0195 58.4617 66.0195H58.4619C59.207 66.0195 59.811 65.4154 59.811 64.6704V63.1284C59.811 62.3833 59.207 61.7793 58.4619 61.7793Z" fill="black"/>
<path d="M39.5377 71.7714C39.5377 69.8142 37.9511 68.2275 35.9938 68.2275C34.0366 68.2275 32.45 69.8142 32.45 71.7714C32.45 73.7287 34.0366 75.3153 35.9938 75.3153C37.9511 75.3153 39.5377 73.7287 39.5377 71.7714Z" fill="#FFC6C6"/>
<path d="M67.7902 71.7714C67.7902 69.8142 66.2036 68.2275 64.2463 68.2275C62.2891 68.2275 60.7025 69.8142 60.7025 71.7714C60.7025 73.7287 62.2891 75.3153 64.2463 75.3153C66.2036 75.3153 67.7902 73.7287 67.7902 71.7714Z" fill="#FFC6C6"/>
<path d="M44.7945 69.1162C44.7303 69.3527 44.6979 69.5967 44.6981 69.8418C44.6981 71.3643 45.9324 72.5988 47.4551 72.5988H52.9689C54.4916 72.5988 55.7259 71.3643 55.7259 69.8418C55.7259 69.5906 55.6924 69.3475 55.6295 69.1162C55.3111 70.2868 54.2404 71.1478 52.9689 71.1478H47.4551C46.1836 71.1478 45.1129 70.2868 44.7945 69.1162Z" fill="black" fill-opacity="0.19"/>
<path d="M33.0537 60.9737C33.0209 59.408 32.8566 55.7462 30.9681 55.6289C28.887 55.6289 28.9622 59.624 28.8515 60.9737C28.7535 62.1702 28.4371 63.0248 28.8515 65.2928C29.0952 66.626 30.0135 66.7895 30.9682 66.7886C31.8754 66.7878 32.8206 66.6827 33.0538 65.6437C33.5323 63.5111 33.0862 62.5394 33.0537 60.9737Z" fill="#E8E1E1"/>
<path d="M66.6165 60.9737C66.6493 59.408 66.8136 55.7462 68.7021 55.6289C70.7833 55.6289 70.708 59.624 70.8188 60.9737C70.9167 62.1702 71.2331 63.0248 70.8188 65.2928C70.575 66.626 69.6567 66.7895 68.702 66.7886C67.7948 66.7878 66.8496 66.6827 66.6164 65.6437C66.138 63.5111 66.584 62.5394 66.6165 60.9737Z" fill="#E8E1E1"/>
<path d="M72.0754 57.2406C72.0753 51.3998 69.755 45.7983 65.6251 41.6682C62.5452 38.5882 58.6211 36.4907 54.3492 35.6409C50.0772 34.7912 45.6491 35.2273 41.625 36.8943C37.6009 38.5611 34.1614 41.3838 31.7415 45.0054C29.3216 48.627 28.03 52.8849 28.0301 57.2406H72.0754Z" fill="#E8E1E1"/>
</g>
</svg>
