<svg width="100" height="100" viewBox="0 0 100 100" fill="none" xmlns="http://www.w3.org/2000/svg">
<mask id="mask0_329_2556" style="mask-type:luminance" maskUnits="userSpaceOnUse" x="0" y="0" width="100" height="100">
<path d="M100 0H0V100H100V0Z" fill="white"/>
</mask>
<g mask="url(#mask0_329_2556)">
<path d="M17.2429 55.5973C9.0214 63.5189 19.7765 70.7758 26.1231 70.7758C26.1231 76.4273 38.7996 79.0916 45.6622 76.4273C48.0027 80.6256 53.4947 83.5872 62.5361 79.0916C77.067 79.9098 74.9155 70.1478 78.4649 68.1922C83.4468 65.4472 88.6133 59.1651 83.4468 53.8211C83.4468 47.1977 83.1963 41.0002 78.4649 36.6572C80.378 30.1654 75.4519 23.6257 66.0069 23.6257C59.7101 18.1701 55.9643 22.0097 50.9899 20.5578C36.0537 16.198 31.7474 23.6529 29.1104 28.4699C25.4803 25.976 17.3229 31.7181 18.2917 38.6427C11.3492 42.9329 20.2413 52.7084 17.2429 55.5973Z" fill="#D6B370"/>
<path d="M29.5141 21.365C32.7435 22.8506 34.0623 27.0704 34.439 28.7928L27.092 34.7673C27.6034 33.1256 27.1727 28.7443 26.5268 25.6441C25.8809 22.5438 21.6289 21.4727 18.5339 21.365C20.5523 20.5039 24.9121 19.2481 29.5141 21.365ZM55.9875 15.4848C52.6701 16.7618 51.0854 20.889 50.5997 22.5838L57.5514 29.0142C57.1456 27.3432 57.8543 22.9982 58.6962 19.9454C59.5383 16.8926 63.85 16.0942 66.9454 16.184C64.9859 15.196 60.715 13.6652 55.9875 15.4848ZM86.3938 40.4703C83.7342 38.1119 79.3405 38.6031 77.6121 38.9514L75.0998 48.0815C76.3969 46.9528 80.581 45.5837 83.679 44.9271C86.777 44.2706 89.4689 47.7321 90.813 50.5218C90.7891 48.3276 90.1839 43.8311 86.3938 40.4703ZM13.3603 52.3927C16.02 54.7511 20.4136 54.2599 22.142 53.9116L24.6544 44.7815C23.3573 45.9102 19.1732 47.2795 16.0752 47.9359C12.9772 48.5924 10.2853 45.1309 8.94116 42.3412C8.96506 44.5354 9.57026 49.0319 13.3603 52.3927ZM33.3776 80.3572C36.741 79.206 38.4797 75.1413 39.0289 73.4658L32.324 66.7788C32.6667 68.4637 31.7949 72.7789 30.8386 75.798C29.8824 78.817 25.5438 79.4524 22.4538 79.2464C24.3749 80.3074 28.5851 81.9977 33.3776 80.3572ZM79.1427 71.568C75.6438 70.9404 73.3086 67.1865 72.5117 65.6137L78.1245 57.9869C78.0415 59.7043 79.5575 63.8374 80.9607 66.6764C82.3639 69.5154 86.7487 69.4854 89.7717 68.813C88.0339 70.1531 84.1287 72.4626 79.1427 71.568Z" fill="#D6B370"/>
<path d="M69.1944 54.3662H30.4558V81.531H30.4583C30.4566 81.5795 30.456 81.6282 30.456 81.677C30.456 86.7586 39.1279 94.8471 49.8251 94.8471C60.5225 94.8471 69.1944 86.7586 69.1944 81.677C69.1944 81.6282 69.1935 81.5795 69.1919 81.531H69.1944V54.3662Z" fill="#A66637"/>
<path d="M30.4558 78.335V78.4656C30.4561 78.422 30.457 78.3784 30.4583 78.335H30.4558ZM30.4558 78.4965V81.5309H30.4583C30.4566 81.5794 30.456 81.6283 30.456 81.6771C30.456 86.7586 39.1279 94.847 49.8251 94.847C60.5225 94.847 69.1944 86.7586 69.1944 81.6771C69.1944 81.6283 69.1935 81.5794 69.1919 81.5309H69.1944V78.335H69.1919C69.1935 78.3836 69.1944 78.4323 69.1944 78.481C69.1944 83.5625 60.5225 91.651 49.8251 91.651C39.1386 91.651 30.4733 83.579 30.4558 78.4965Z" fill="black" fill-opacity="0.19"/>
<path d="M49.679 72.4736C60.4571 72.4736 69.1944 64.7964 69.1944 55.3262C69.1944 45.8559 60.4571 38.1787 49.679 38.1787C38.9009 38.1787 30.1636 45.8559 30.1636 55.3262C30.1636 64.7964 38.9009 72.4736 49.679 72.4736Z" fill="#A66637"/>
<path d="M59.0801 81.7725C59.0801 84.529 55.1158 82.438 50.2256 82.438C45.3355 82.438 41.3713 84.529 41.3713 81.7725C41.3713 79.0158 45.3355 76.7812 50.2256 76.7812C55.1158 76.7812 59.0801 79.016 59.0801 81.7725Z" fill="#F9F9F9"/>
<path d="M67.7251 60.5664C67.7251 58.6431 69.2842 57.084 71.2075 57.084H77.2855C79.2088 57.084 80.7679 58.6431 80.7679 60.5664V66.6608C80.7679 68.584 79.2088 70.1432 77.2855 70.1432H71.2075C69.2842 70.1432 67.7251 68.584 67.7251 66.6608V60.5664Z" fill="#A66637"/>
<path d="M69.1743 63.6136C69.1743 60.8123 71.4453 58.5352 74.2465 58.5352C77.0479 58.5352 79.3189 60.8123 79.3189 63.6137C79.3189 66.415 77.0479 68.6923 74.2465 68.6923C71.4453 68.6923 69.1743 66.4148 69.1743 63.6136Z" fill="black" fill-opacity="0.19"/>
<path d="M32.7769 60.5664C32.7769 58.6431 31.2177 57.084 29.2945 57.084H23.2164C21.2931 57.084 19.734 58.6431 19.734 60.5664V66.6608C19.734 68.584 21.2931 70.1432 23.2164 70.1432H29.2945C31.2177 70.1432 32.7769 68.584 32.7769 66.6608V60.5664Z" fill="#A66637"/>
<path d="M31.3276 63.6136C31.3276 60.8123 29.0567 58.5352 26.2554 58.5352C23.454 58.5352 21.183 60.8123 21.183 63.6137C21.183 66.415 23.454 68.6923 26.2554 68.6923C29.0567 68.6923 31.3276 66.4148 31.3276 63.6136Z" fill="black" fill-opacity="0.19"/>
<path d="M38.5017 61.3174C37.8634 62.0315 37.5112 62.9562 37.5127 63.914C37.5127 66.0692 39.2598 67.8164 41.4151 67.8164C43.1816 67.8164 44.674 66.6426 45.1549 65.0323L38.5017 61.3177V61.3174ZM60.7204 61.3174C61.3586 62.0315 61.7108 62.9561 61.7094 63.9138C61.7094 66.069 59.9623 67.8163 57.807 67.8163C56.0404 67.8163 54.5481 66.6424 54.0673 65.0322L60.7204 61.3174Z" fill="white"/>
<path d="M38.2476 57.5537C39.4724 58.3703 44.7799 61.7997 46.2497 62.6979M60.8659 57.6354C59.6411 58.4519 54.3335 61.8814 52.8637 62.7796" stroke="black" stroke-width="0.600324" stroke-linecap="round"/>
<path d="M40.1484 62.2373C39.8889 62.433 39.6784 62.6864 39.5335 62.9774C39.3887 63.2684 39.3134 63.5891 39.3137 63.9142C39.3137 65.0746 40.2544 66.0155 41.415 66.0155C42.5085 66.0155 43.4071 65.18 43.507 64.1126L40.1484 62.2373ZM59.0733 62.2373C59.3328 62.433 59.5434 62.6864 59.6882 62.9774C59.8331 63.2684 59.9084 63.5891 59.9081 63.9142C59.9081 65.0746 58.9673 66.0155 57.8068 66.0155C56.7132 66.0155 55.8148 65.18 55.7147 64.1126L59.0733 62.2373Z" fill="black"/>
<path d="M46.6857 69.1213C46.6672 69.2515 46.6579 69.3829 46.658 69.5145V70.0516C46.658 71.5742 47.8922 72.8086 49.4149 72.8086H51.0866C52.6093 72.8086 53.8436 71.5742 53.8436 70.0515V69.5142C53.8436 69.3808 53.8341 69.2496 53.8158 69.1211C53.6247 70.4575 52.4757 71.4847 51.0866 71.4847H49.4149C48.0258 71.4847 46.8766 70.4576 46.6857 69.1213Z" fill="black" fill-opacity="0.19"/>
<path d="M34.1048 56.5781H29.2373V67.9753H34.1048V56.5781Z" fill="#D6B370"/>
<path d="M65.5656 56.5781H70.4331V67.9753H65.5656V56.5781Z" fill="#D6B370"/>
<path d="M40.3857 43.1958C40.7028 40.7005 45.0045 40.2934 47.1993 40.5122C49.3942 40.731 49.7805 40.8651 52.4364 41.7866C55.0924 42.7081 60.764 45.7071 59.4709 48.8406C58.4364 51.3474 55.6535 50.3021 54.3914 49.4662C54.6792 50.7782 54.9683 53.6067 53.8224 54.425C52.6764 55.2431 51.2235 53.7041 50.6403 52.8324C50.3204 53.5535 49.1049 55.0352 46.8027 55.1916C44.5006 55.348 44.9705 52.2401 45.4932 50.6666C44.4862 50.661 42.3148 50.2586 41.6851 48.6941C41.0553 47.1296 43.0363 46.1778 44.1055 45.8975C42.8337 45.9808 40.1433 45.104 40.3857 43.1958Z" fill="#D6B370"/>
<path d="M69.2263 48.6332C70.0036 50.5152 70.5915 52.7291 70.5915 56.9436C69.2856 56.9436 66.0208 58.2496 59.6099 54.8067C53.0988 51.31 51.4309 47.7428 49.8748 45.4277C48.3315 48.6332 45.4822 51.5227 41.2676 54.1537C37.053 56.7847 31.2555 56.6468 29.3362 56.9436C29.3362 54.1996 29.5784 51.4826 30.6255 48.9476C31.6718 46.4136 33.2064 44.1102 35.142 42.1687C37.0755 40.2293 39.3724 38.6901 41.9014 37.6393C44.4286 36.5894 47.1382 36.0489 49.8748 36.0488C52.6114 36.0489 55.321 36.5894 57.8482 37.6393C60.3772 38.6901 62.6742 40.2293 64.6077 42.1687C66.5425 44.109 68.1791 46.0982 69.2263 48.6332Z" fill="#D6B370"/>
</g>
</svg>
