<svg width="100" height="100" viewBox="0 0 100 100" fill="none" xmlns="http://www.w3.org/2000/svg">
<mask id="mask0_329_1028" style="mask-type:luminance" maskUnits="userSpaceOnUse" x="0" y="0" width="100" height="100">
<path d="M100 0H0V100H100V0Z" fill="white"/>
</mask>
<g mask="url(#mask0_329_1028)">
<path d="M18.9456 54.9065C20.7633 66.7748 23.3498 70.0325 28.1495 75.9787C35.7832 87.633 64.0635 93.0512 74.8354 73.5284C92.4157 41.6658 70.8147 43.9264 52.1282 43.9264C36.6198 43.9264 30.7869 38.7593 28.1495 43.9264C22.0136 39.4051 17.5731 45.9448 18.9456 54.9065Z" fill="#B58143"/>
<path d="M21.5784 40.006C20.1586 47.4829 20.9868 50.5983 21.5784 51.2215C29.1621 62.4369 65.7086 72.0945 75.8738 54.0253C84.006 39.5699 74.798 25.5713 69.1777 20.379C69.5003 20.7943 70.4011 22.3869 69.9266 25.1559C69.606 27.0252 68.9853 27.9598 67.7483 28.9983C67.9634 27.0944 68.7391 22.4559 67.2642 19.3406C65.3974 15.3976 63.4186 13.9752 61.3748 13.006C62.3428 16.0175 62.7028 17.4712 62.4236 19.3406C62.1442 21.2098 60.4646 24.4636 59.1738 25.1559C59.7901 22.8182 59.9516 19.3406 58.8213 16.1979C56.996 11.1229 53.7415 8.74815 51.5902 8.0212C51.7515 8.47122 52.5518 11.951 52.2816 14.9791C51.8555 19.7559 50.1018 21.365 49.4559 22.1723C50.1018 20.6384 50.4247 18.1355 50.1018 15.229C49.5421 10.1924 44.5941 6.77511 43.0612 5.94434C43.3033 7.01748 43.4013 11.9287 42.4158 16.2251C41.463 20.379 39.5253 22.576 37.4261 25.1559C37.9913 23.6219 37.7491 21.2842 36.7803 18.5392C35.9508 16.189 35.0246 15.7406 34.3254 14.9789C34.3522 16.1213 33.9703 19.4236 32.2277 23.4943C30.0494 28.5828 29.2427 32.6329 29.2427 30.4522V23.4943C27.2795 25.8828 22.9984 32.529 21.5784 40.006Z" fill="#B58143"/>
<path d="M66.4407 48.7429C60.6956 40.5823 46.5929 38.4054 38.2119 43.7517C29.8308 49.0979 27.9639 57.9769 29.2054 67.7099C29.7075 71.6462 30.3389 74.7356 30.6841 78.0668C31.7553 88.4035 45.8568 93.5399 50.041 93.5399C56.6277 93.5399 67.7256 86.3025 69.1099 78.0668C70.3713 70.5624 70.2415 71.1554 70.339 67.7099C70.4363 64.2643 72.1857 56.9034 66.4407 48.7429Z" fill="#DA9969"/>
<path d="M31.0144 79.9381C34.6991 87.7136 46.1425 91.5804 49.8866 91.5804C56.2475 91.5804 66.6876 85.2338 69.1614 77.6641L69.085 78.1197C67.7016 86.367 56.6107 93.6145 50.028 93.6145C46.0989 93.6145 33.4195 89.0733 31.0144 79.9381Z" fill="black" fill-opacity="0.19"/>
<path d="M41.4434 79.9169C41.4434 78.3862 42.6842 77.1455 44.2147 77.1455H54.9311C56.4616 77.1455 57.7024 78.3862 57.7024 79.9169C57.7024 81.4476 56.4616 82.6882 54.9311 82.6882H44.2147C42.6842 82.6882 41.4434 81.4476 41.4434 79.9169Z" fill="#DE8383"/>
<path fill-rule="evenodd" clip-rule="evenodd" d="M57.0689 81.4723C56.659 82.1638 55.905 82.6272 55.0429 82.6272H43.9852C43.123 82.6272 42.3691 82.1638 41.9592 81.4723C42.3691 80.781 43.1231 80.3174 43.9852 80.3174H55.0429C55.9052 80.3174 56.6588 80.781 57.0689 81.4723Z" fill="#C06E6E"/>
<path fill-rule="evenodd" clip-rule="evenodd" d="M57.7002 79.6406H41.4456C41.5043 78.162 42.7217 76.9814 44.2148 76.9814H54.9311C56.4241 76.9814 57.6414 78.1622 57.7002 79.6406Z" fill="#F9F9F9"/>
<path d="M81.6248 64.1159C81.6248 60.1422 78.4035 56.9209 74.4299 56.9209C70.4562 56.9209 67.2349 60.1422 67.2349 64.1159C67.2349 68.0896 70.4562 71.3109 74.4299 71.3109C78.4035 71.3109 81.6248 68.0896 81.6248 64.1159Z" fill="#DA9969"/>
<path d="M78.0133 60.5137L70.7461 67.291" stroke="black" stroke-opacity="0.19" stroke-width="0.816545" stroke-linecap="round" stroke-linejoin="round"/>
<path d="M18.8766 64.1159C18.8766 60.1422 22.0979 56.9209 26.0716 56.9209C30.0453 56.9209 33.2666 60.1422 33.2666 64.1159C33.2666 68.0896 30.0453 71.3109 26.0716 71.3109C22.0979 71.3109 18.8766 68.0896 18.8766 64.1159Z" fill="#DA9969"/>
<path d="M22.4881 60.5137L29.7554 67.291" stroke="black" stroke-opacity="0.19" stroke-width="0.816545" stroke-linecap="round" stroke-linejoin="round"/>
<path d="M38.3381 61.2363C37.6999 61.9505 37.3477 62.8751 37.3491 63.8329C37.3491 65.9881 39.0962 67.7352 41.2516 67.7352C43.0181 67.7352 44.5104 66.5615 44.9912 64.9513L38.338 61.2367L38.3381 61.2363ZM60.5568 61.2363C61.1951 61.9504 61.5472 62.875 61.5458 63.8328C61.5458 65.988 59.7987 67.7351 57.6435 67.7351C55.877 67.7351 54.3846 66.5613 53.9038 64.9511L60.5568 61.2363Z" fill="white"/>
<path d="M38.2473 57.5537C39.4721 58.3703 44.7797 61.7997 46.2495 62.6979M60.8656 57.6354C59.6408 58.4519 54.3333 61.8814 52.8635 62.7796" stroke="black" stroke-width="0.600324" stroke-linecap="round"/>
<path d="M38.3291 57.6357C39.5539 58.4523 44.8615 61.8818 46.3312 62.78M60.9474 57.7174C59.7226 58.5339 54.415 61.9634 52.9453 62.8616" stroke="black" stroke-width="0.600324" stroke-linecap="round"/>
<path d="M46.6857 69.1213C46.6672 69.2515 46.6579 69.3829 46.658 69.5145V70.0516C46.658 71.5742 47.8922 72.8086 49.4149 72.8086H51.0866C52.6093 72.8086 53.8436 71.5742 53.8436 70.0515V69.5142C53.8436 69.3808 53.8341 69.2496 53.8158 69.1211C53.6247 70.4575 52.4757 71.4847 51.0866 71.4847H49.4149C48.0258 71.4847 46.8766 70.4576 46.6857 69.1213Z" fill="black" fill-opacity="0.19"/>
<path d="M30.0763 59.4048C29.9761 57.0806 29.6956 55.9029 31.7254 55.6279C34.0561 56.0528 33.4007 58.3051 33.15 59.4048C32.8995 60.5044 34.2866 61.6541 34.036 64.0782C33.7854 66.5025 31.064 67.6392 29.7666 65.6004C28.1045 62.9886 30.1767 61.729 30.0765 59.4048H30.0763Z" fill="#B58143"/>
<path d="M69.5941 59.4048C69.6943 57.0806 69.9748 55.9029 67.945 55.6279C65.6143 56.0528 66.2697 58.3051 66.5204 59.4048C66.7709 60.5044 65.3838 61.6541 65.6344 64.0782C65.885 66.5025 68.6064 67.6392 69.9038 65.6004C71.5659 62.9886 69.4938 61.729 69.594 59.4048H69.5941Z" fill="#B58143"/>
<path d="M69.1074 48.5141C69.8847 50.396 70.4726 52.6099 70.4726 56.8245C69.1667 56.8245 61.7276 57.5368 56.8792 55.6373C52.0307 53.7378 51.312 52.2537 49.7559 49.9387C48.2126 53.1442 45.3633 54.4501 41.03 55.6373C36.6967 56.8245 31.1366 56.5277 29.2173 56.8245C29.2173 54.0805 29.4595 51.3635 30.5066 48.8284C31.5529 46.2944 33.0875 43.9911 35.0231 42.0496C36.9566 40.1101 39.2535 38.571 41.7825 37.5202C44.3097 36.4703 47.0193 35.9298 49.7559 35.9297C52.4925 35.9298 55.2021 36.4703 57.7293 37.5202C60.2583 38.571 62.5553 40.1101 64.4888 42.0496C66.4236 43.9899 68.0602 45.979 69.1074 48.5141Z" fill="#B58143"/>
</g>
</svg>
