<svg width="100" height="100" viewBox="0 0 100 100" fill="none" xmlns="http://www.w3.org/2000/svg">
<mask id="mask0_329_1458" style="mask-type:luminance" maskUnits="userSpaceOnUse" x="0" y="0" width="100" height="100">
<path d="M100 0H0V100H100V0Z" fill="white"/>
</mask>
<g mask="url(#mask0_329_1458)">
<path d="M87.163 65.4893C93.5613 48.0125 85.0051 42.0196 79.6196 32.8473C74.234 23.6751 65.5891 20.2852 64.2356 22.789C61.2497 16.7774 56.7593 15.166 48.7729 15.166C38.9621 15.166 26.8181 20.8176 24.7189 28.2453C21.9338 38.1 19.3879 39.2085 15.4614 46.2495C12.8536 50.9258 11.8836 61.1131 15.4614 67.3217C20.9241 76.8016 31.8237 84.9222 51.3732 84.9222C62.9644 84.9222 82.0036 79.582 87.163 65.4893Z" fill="#2C1B18"/>
<path d="M49.679 40.3008C38.2696 40.3008 29.0204 50.9384 29.0204 64.0605C29.0204 64.1411 29.0207 64.2218 29.0214 64.3025C29.0207 64.383 29.0204 64.4635 29.0204 64.5442C29.0204 77.6692 38.2696 93.2129 49.679 93.2129C61.0884 93.2129 70.3376 77.6692 70.3376 64.5442C70.3376 64.4635 70.3373 64.383 70.3366 64.3025C70.3373 64.2218 70.3376 64.1411 70.3376 64.0605C70.3376 50.9384 61.0884 40.3008 49.679 40.3008Z" fill="#A66637"/>
<path d="M29.0279 63.8984C29.023 64.1129 29.0204 64.3281 29.0204 64.544C29.0204 77.669 38.2696 93.2127 49.679 93.2127C61.0884 93.2127 70.3376 77.669 70.3376 64.544C70.3376 64.3281 70.3351 64.1129 70.3301 63.8984C70.0329 76.881 60.9008 91.9179 49.679 91.9179C38.4572 91.9179 29.3253 76.881 29.0279 63.8984Z" fill="black" fill-opacity="0.19"/>
<path d="M41.6821 79.8602C41.6821 78.3297 42.923 77.0889 44.4535 77.0889H55.1698C56.7005 77.0889 57.9412 78.3297 57.9412 79.8602C57.9412 81.3909 56.7005 82.6317 55.1698 82.6317H44.4535C42.923 82.6317 41.6821 81.3908 41.6821 79.8602Z" fill="#F9F9F9"/>
<path d="M81.625 64.1159C81.625 60.1422 78.4037 56.9209 74.43 56.9209C70.4563 56.9209 67.235 60.1422 67.235 64.1159C67.235 68.0896 70.4563 71.3109 74.43 71.3109C78.4037 71.3109 81.625 68.0896 81.625 64.1159Z" fill="#A66637"/>
<path d="M78.0133 60.5137L70.7461 67.291" stroke="black" stroke-opacity="0.19" stroke-width="0.816545" stroke-linecap="round" stroke-linejoin="round"/>
<path d="M18.8767 64.1159C18.8767 60.1422 22.098 56.9209 26.0717 56.9209C30.0454 56.9209 33.2667 60.1422 33.2667 64.1159C33.2667 68.0896 30.0454 71.3109 26.0717 71.3109C22.098 71.3109 18.8767 68.0896 18.8767 64.1159Z" fill="#A66637"/>
<path d="M22.4884 60.5137L29.7556 67.291" stroke="black" stroke-opacity="0.19" stroke-width="0.816545" stroke-linecap="round" stroke-linejoin="round"/>
<path d="M43.4057 56.002C42.8044 56.4747 41.8792 57.4205 40.0753 57.4205C38.5427 57.4205 37.2538 56.3802 37.0226 56.002M56.2744 56.002C56.8757 56.4747 57.8007 57.4205 59.6046 57.4205C61.1373 57.4205 62.4261 56.3802 62.6574 56.002" stroke="black" stroke-width="1.14316" stroke-linecap="round"/>
<path d="M38.0024 61.0645L43.7999 63.5957L38.0024 66.9436M62.0905 61.0645L56.2931 63.5957L62.0905 66.9436" stroke="black" stroke-width="0.653236" stroke-linecap="round" stroke-linejoin="round"/>
<path d="M36.5098 72.9456C36.5098 72.3656 36.0397 71.8955 35.4597 71.8955C34.8798 71.8955 34.4097 72.3656 34.4097 72.9456C34.4097 73.5255 34.8798 73.9957 35.4597 73.9957C36.0397 73.9957 36.5098 73.5255 36.5098 72.9456Z" fill="black" fill-opacity="0.4"/>
<path d="M40.4476 70.5833C40.4476 70.0033 39.9774 69.5332 39.3975 69.5332C38.8175 69.5332 38.3474 70.0033 38.3474 70.5833V70.8457C38.3474 71.4257 38.8175 71.8958 39.3975 71.8958C39.9774 71.8958 40.4476 71.4257 40.4476 70.8457V70.5833Z" fill="black" fill-opacity="0.4"/>
<path d="M43.5976 72.9456C43.5976 72.3656 43.1275 71.8955 42.5475 71.8955C41.9676 71.8955 41.4974 72.3656 41.4974 72.9456C41.4974 73.5255 41.9676 73.9957 42.5475 73.9957C43.1275 73.9957 43.5976 73.5255 43.5976 72.9456Z" fill="black" fill-opacity="0.4"/>
<path d="M58.2984 72.9456C58.2984 72.3656 57.8283 71.8955 57.2483 71.8955C56.6684 71.8955 56.1982 72.3656 56.1982 72.9456C56.1982 73.5255 56.6684 73.9957 57.2483 73.9957C57.8283 73.9957 58.2984 73.5255 58.2984 72.9456Z" fill="black" fill-opacity="0.4"/>
<path d="M62.2361 70.5833C62.2361 70.0033 61.766 69.5332 61.1861 69.5332C60.6061 69.5332 60.136 70.0033 60.136 70.5833V70.8457C60.136 71.4257 60.6061 71.8958 61.1861 71.8958C61.766 71.8958 62.2361 71.4257 62.2361 70.8457V70.5833Z" fill="black" fill-opacity="0.4"/>
<path d="M65.3863 72.9456C65.3863 72.3656 64.9162 71.8955 64.3362 71.8955C63.7563 71.8955 63.2861 72.3656 63.2861 72.9456C63.2861 73.5255 63.7563 73.9957 64.3362 73.9957C64.9162 73.9957 65.3863 73.5255 65.3863 72.9456Z" fill="black" fill-opacity="0.4"/>
<path d="M47.9017 69.916L47.8611 70.3411C47.7265 71.7469 48.8318 72.963 50.2441 72.963C51.6864 72.963 52.8013 71.6969 52.6186 70.2662L52.5786 69.9519C52.3377 71.0048 51.3953 71.8112 50.2441 71.8112C49.0833 71.8112 48.1297 70.9894 47.9017 69.916Z" fill="black" fill-opacity="0.19"/>
<path d="M29.1185 66.7881V56.5781H32.9176L32.4834 65.7019L29.1185 66.7881Z" fill="#2C1B18"/>
<path d="M70.5516 66.7881V56.5781H66.7526L67.1867 65.7019L70.5516 66.7881Z" fill="#2C1B18"/>
<path d="M41.7205 49.3118C41.2974 47.2806 44.5557 45.7995 46.3329 45.3762C48.1102 44.9531 48.4486 44.9531 50.7759 44.9531C53.1032 44.9531 58.3504 45.7572 58.1811 48.5501C58.0457 50.7844 55.5857 50.7225 54.3728 50.4121C54.9511 51.3571 55.9385 53.4844 55.2614 54.4322C54.5843 55.3802 53.0328 54.5733 52.3416 54.0514C52.2852 54.7003 51.7323 56.1842 49.972 56.9291C48.2117 57.6738 47.7434 55.1234 47.7293 53.7552C46.9395 54.0232 45.1311 54.2969 44.2171 53.2474C43.3032 52.1979 44.5979 50.9199 45.3596 50.4121C44.3864 50.8211 42.0441 50.8653 41.7205 49.3118Z" fill="#2C1B18"/>
<path d="M69.1074 48.6332C69.8847 50.5152 70.4726 52.7291 70.4726 56.9436C69.1667 56.9436 65.9019 58.2496 59.491 54.8067C52.9799 51.31 51.312 47.7428 49.7559 45.4277C48.2126 48.6332 45.3633 51.5227 41.1487 54.1537C36.9341 56.7847 31.1366 56.6468 29.2173 56.9436C29.2173 54.1996 29.4595 51.4826 30.5066 48.9476C31.5529 46.4136 33.0875 44.1102 35.0231 42.1687C36.9566 40.2293 39.2535 38.6901 41.7825 37.6393C44.3097 36.5894 47.0193 36.0489 49.7559 36.0488C52.4925 36.0489 55.2021 36.5894 57.7293 37.6393C60.2583 38.6901 62.5553 40.2293 64.4888 42.1687C66.4236 44.109 68.0602 46.0982 69.1074 48.6332Z" fill="#2C1B18"/>
</g>
</svg>
