<svg width="100" height="100" viewBox="0 0 100 100" fill="none" xmlns="http://www.w3.org/2000/svg">
<mask id="mask0_329_1774" style="mask-type:luminance" maskUnits="userSpaceOnUse" x="0" y="0" width="100" height="100">
<path d="M100 0H0V100H100V0Z" fill="white"/>
</mask>
<g mask="url(#mask0_329_1774)">
<path d="M52.766 32.2646H47.1145C34.8079 32.2646 24.8313 42.2412 24.8313 54.5479C24.8313 66.8545 34.8079 76.8311 47.1145 76.8311H52.766C65.0727 76.8311 75.0493 66.8545 75.0493 54.5479C75.0493 42.2412 65.0727 32.2646 52.766 32.2646Z" fill="#B58143"/>
<path d="M49.5974 91.5808C61.5028 91.5808 71.1542 80.4306 71.1542 66.6761C71.1542 52.9217 61.5028 41.7715 49.5974 41.7715C37.6919 41.7715 28.0406 52.9217 28.0406 66.6761C28.0406 80.4306 37.6919 91.5808 49.5974 91.5808Z" fill="#89532C"/>
<path d="M71.1597 65.6855C70.7271 79.009 61.2436 89.6567 49.6078 89.6567C37.9724 89.6567 28.4887 79.0093 28.0559 65.686C28.0457 66.003 28.0405 66.32 28.0406 66.6371C28.0406 80.4013 37.6965 91.5594 49.6078 91.5594C61.5192 91.5594 71.1752 80.4013 71.1752 66.6371C71.1752 66.3185 71.17 66.0014 71.1597 65.6855Z" fill="black" fill-opacity="0.19"/>
<path d="M54.976 78.2184C54.976 81.0136 52.7102 83.2794 49.915 83.2794C47.1202 83.2794 44.8542 81.0136 44.8542 78.2184C44.8542 75.4234 47.1202 77.5438 49.9152 77.5438C52.7102 77.5438 54.9761 75.4234 54.9761 78.2186L54.976 78.2184Z" fill="#DE8383"/>
<path fill-rule="evenodd" clip-rule="evenodd" d="M54.5447 76.9053C53.7549 78.672 51.9824 79.9028 49.9222 79.9028C47.8621 79.9028 46.0894 78.672 45.2996 76.9053C45.718 76.6334 46.4122 76.8287 47.2789 77.0725C48.0481 77.2891 48.9535 77.5438 49.9222 77.5438C50.891 77.5438 51.7962 77.2891 52.5655 77.0725C53.4321 76.8287 54.1261 76.6332 54.5447 76.9053Z" fill="#F9F9F9"/>
<path d="M81.7882 63.7897C81.7882 59.816 78.5669 56.5947 74.5932 56.5947C70.6196 56.5947 67.3983 59.816 67.3983 63.7897C67.3983 67.7634 70.6196 70.9847 74.5932 70.9847C78.5669 70.9847 81.7882 67.7634 81.7882 63.7897Z" fill="#89532C"/>
<path d="M76.7069 59.7793L70.3378 64.5153L77.4418 67.6998" stroke="black" stroke-opacity="0.19" stroke-width="0.816545" stroke-linecap="round" stroke-linejoin="round"/>
<path d="M18.7134 63.7897C18.7134 59.816 21.9347 56.5947 25.9083 56.5947C29.882 56.5947 33.1033 59.816 33.1033 63.7897C33.1033 67.7634 29.882 70.9847 25.9083 70.9847C21.9347 70.9847 18.7134 67.7634 18.7134 63.7897Z" fill="#89532C"/>
<path d="M23.7947 59.7793L30.1638 64.5153L23.0598 67.6998" stroke="black" stroke-opacity="0.19" stroke-width="0.816545" stroke-linecap="round" stroke-linejoin="round"/>
<path d="M55.221 57.5948C55.8267 57.1184 56.7584 56.166 58.5753 56.166C60.1193 56.166 61.4174 57.2138 61.6503 57.5948M37.0855 57.5948C37.691 57.1184 38.6229 56.166 40.4399 56.166C41.9836 56.166 43.2818 57.2138 43.5148 57.5948" stroke="black" stroke-width="0.600324" stroke-linecap="round"/>
<path d="M40.5228 68.4459C43.0873 68.4459 45.1662 66.367 45.1662 63.8025C45.1662 61.2381 43.0873 59.1592 40.5228 59.1592C37.9584 59.1592 35.8795 61.2381 35.8795 63.8025C35.8795 66.367 37.9584 68.4459 40.5228 68.4459Z" fill="white"/>
<path d="M58.5254 68.4459C61.0898 68.4459 63.1687 66.367 63.1687 63.8025C63.1687 61.2381 61.0898 59.1592 58.5254 59.1592C55.9609 59.1592 53.882 61.2381 53.882 63.8025C53.882 66.367 55.9609 68.4459 58.5254 68.4459Z" fill="white"/>
<path d="M40.5228 66.3033C41.9037 66.3033 43.0231 65.1839 43.0231 63.803C43.0231 62.4221 41.9037 61.3027 40.5228 61.3027C39.142 61.3027 38.0226 62.4221 38.0226 63.803C38.0226 65.1839 39.142 66.3033 40.5228 66.3033Z" fill="#757575"/>
<path d="M58.5254 66.3033C59.9062 66.3033 61.0256 65.1839 61.0256 63.803C61.0256 62.4221 59.9062 61.3027 58.5254 61.3027C57.1445 61.3027 56.0251 62.4221 56.0251 63.803C56.0251 65.1839 57.1445 66.3033 58.5254 66.3033Z" fill="#757575"/>
<path d="M47.5707 69.1154C47.5066 69.3519 47.4742 69.5958 47.4744 69.8408C47.4744 71.3633 48.7087 72.5978 50.2314 72.5978C51.7539 72.5978 52.9883 71.3633 52.9883 69.8408C52.9883 69.5896 52.9547 69.3465 52.8918 69.1152C52.5734 70.286 51.5029 71.1468 50.2314 71.1468C48.9598 71.1468 47.8892 70.2862 47.5707 69.1154Z" fill="black" fill-opacity="0.19"/>
<path d="M31.7942 66.0167C28.8956 66.0167 28.2365 59.4842 28.525 56.1035H31.7942C31.0539 57.9952 31.4076 59.6426 31.6117 61.6834C31.8491 64.0578 34.1447 62.2936 34.6298 61.3571C34.6885 63.2207 33.2023 66.0167 31.7942 66.0167Z" fill="#B58143"/>
<path d="M67.876 66.0167C70.7746 66.0167 71.4337 59.4842 71.1452 56.1035H67.876C68.6163 57.9952 68.2626 59.6426 68.0585 61.6834C67.8211 64.0578 65.5255 62.2936 65.0404 61.3571C64.9818 63.2207 66.4679 66.0167 67.876 66.0167Z" fill="#B58143"/>
<path d="M69.1074 48.8705C69.8847 50.7525 70.4726 52.9664 70.4726 57.1809C69.1667 57.1809 65.9019 58.4869 59.491 55.044C52.9799 51.5473 51.312 47.9801 49.7559 45.665C48.2126 48.8705 45.3633 51.76 41.1487 54.391C36.9341 57.022 31.1366 56.8841 29.2173 57.1809C29.2173 54.4369 29.4595 51.7199 30.5066 49.1849C31.5529 46.6509 33.0875 44.3475 35.0231 42.4061C36.9566 40.4666 39.2535 38.9274 41.7825 37.8766C44.3097 36.8267 47.0193 36.2862 49.7559 36.2861C52.4925 36.2862 55.2021 36.8267 57.7293 37.8766C60.2583 38.9274 62.5553 40.4666 64.4888 42.4061C66.4236 44.3463 68.0602 46.3355 69.1074 48.8705Z" fill="#B58143"/>
</g>
</svg>
