<svg width="100" height="100" viewBox="0 0 100 100" fill="none" xmlns="http://www.w3.org/2000/svg">
<mask id="mask0_329_1381" style="mask-type:luminance" maskUnits="userSpaceOnUse" x="0" y="0" width="100" height="100">
<path d="M100 0H0V100H100V0Z" fill="white"/>
</mask>
<g mask="url(#mask0_329_1381)">
<path d="M17.5819 33.4215C16.4478 28.5318 21.0197 28.9997 27.5469 22.8639C34.0741 16.728 41.6525 13.358 54.8444 13.5604C68.0364 13.7625 76.7667 22.4835 78.6837 24.2365C84.5252 31.9064 80.4183 30.7785 84.7654 33.4215C90.1993 36.7254 91.6429 41.6796 87.3903 46.6353C83.1376 51.5912 86.5868 49.1115 92.0207 53.9021C97.4548 58.6926 90.2783 63.0854 88.6245 67.2152C86.9707 71.345 93.0703 69.1144 93.0703 77.4771C93.0703 80.6258 89.0206 83.7745 80.3139 86.0351C70.1568 88.6725 51.814 91.1215 27.5469 86.0351C24.031 85.2982 17.0859 82.2405 14.0294 79.5762C10.973 76.9119 10.0607 68.7773 15.9671 64.3171C21.8736 59.8569 18.4788 58.0319 15.1713 53.9021C11.8637 49.7722 13.3706 45.4089 19.2769 41.4443C25.1833 37.4797 18.9994 39.5337 17.5818 33.4215H17.5819Z" fill="#724133"/>
<path d="M52.9443 95.2392C75.2836 95.2392 93.3932 86.3109 93.3932 75.2973C93.3932 64.2838 75.2836 55.3555 52.9443 55.3555C30.605 55.3555 12.4954 64.2838 12.4954 75.2973C12.4954 86.3109 30.605 95.2392 52.9443 95.2392Z" fill="#724133"/>
<path d="M69.1945 54.3662H30.4559V81.531H30.4584C30.4567 81.5795 30.4561 81.6282 30.4561 81.677C30.4561 86.7586 39.128 94.8471 49.8252 94.8471C60.5226 94.8471 69.1945 86.7586 69.1945 81.677C69.1945 81.6282 69.1937 81.5795 69.192 81.531H69.1945V54.3662Z" fill="#DA9969"/>
<path d="M30.4559 78.335V78.4656C30.4563 78.422 30.4571 78.3784 30.4584 78.335H30.4559ZM30.4559 78.4965V81.5309H30.4584C30.4567 81.5794 30.4561 81.6283 30.4561 81.6771C30.4561 86.7586 39.128 94.847 49.8252 94.847C60.5226 94.847 69.1945 86.7586 69.1945 81.6771C69.1945 81.6283 69.1937 81.5794 69.192 81.5309H69.1945V78.335H69.192C69.1937 78.3836 69.1945 78.4323 69.1945 78.481C69.1945 83.5625 60.5226 91.651 49.8252 91.651C39.1388 91.651 30.4734 83.579 30.4559 78.4965Z" fill="black" fill-opacity="0.19"/>
<path d="M49.679 72.4736C60.4571 72.4736 69.1944 64.7964 69.1944 55.3262C69.1944 45.8559 60.4571 38.1787 49.679 38.1787C38.9009 38.1787 30.1636 45.8559 30.1636 55.3262C30.1636 64.7964 38.9009 72.4736 49.679 72.4736Z" fill="#DA9969"/>
<path d="M55.1143 80.4799C55.1143 83.2751 52.8484 85.5408 50.0534 85.5408C47.2583 85.5408 44.9924 83.2751 44.9924 80.4799C44.9924 77.6849 47.2583 75.4189 50.0534 75.4189C52.8484 75.4189 55.1143 77.6849 55.1143 80.4799Z" fill="#DE8383"/>
<path fill-rule="evenodd" clip-rule="evenodd" d="M46.2697 83.8477C47.1935 82.6251 48.6595 81.835 50.3099 81.835C51.8117 81.835 53.1606 82.4889 54.0874 83.5277C53.1636 84.7504 51.6976 85.5404 50.0472 85.5404C48.5454 85.5404 47.1964 84.8864 46.2697 83.8477Z" fill="#C06E6E"/>
<path fill-rule="evenodd" clip-rule="evenodd" d="M54.7237 78.4501H45.4286C46.2125 76.6656 47.9984 75.4189 50.0762 75.4189C52.154 75.4189 53.9399 76.6656 54.7237 78.4501Z" fill="#F9F9F9"/>
<path d="M81.625 64.1159C81.625 60.1422 78.4037 56.9209 74.43 56.9209C70.4563 56.9209 67.235 60.1422 67.235 64.1159C67.235 68.0896 70.4563 71.3109 74.43 71.3109C78.4037 71.3109 81.625 68.0896 81.625 64.1159Z" fill="#DA9969"/>
<path d="M78.0133 60.5137L70.7461 67.291" stroke="black" stroke-opacity="0.19" stroke-width="0.816545" stroke-linecap="round" stroke-linejoin="round"/>
<path d="M18.8766 64.1159C18.8766 60.1422 22.0979 56.9209 26.0716 56.9209C30.0453 56.9209 33.2666 60.1422 33.2666 64.1159C33.2666 68.0896 30.0453 71.3109 26.0716 71.3109C22.0979 71.3109 18.8766 68.0896 18.8766 64.1159Z" fill="#DA9969"/>
<path d="M22.4882 60.5137L29.7555 67.291" stroke="black" stroke-opacity="0.19" stroke-width="0.816545" stroke-linecap="round" stroke-linejoin="round"/>
<path d="M38.329 57.536C38.9097 57.0794 39.8032 56.166 41.5455 56.166C43.0257 56.166 44.2705 57.1707 44.4939 57.536M55.4074 57.536C55.9881 57.0794 56.8815 56.166 58.6239 56.166C60.1041 56.166 61.3489 57.1707 61.5723 57.536" stroke="black" stroke-width="0.684918" stroke-linecap="round"/>
<path d="M43.2193 58.8379H40.5293C39.0436 58.8379 37.8391 60.0423 37.8391 61.5281V66.0116C37.8391 67.4973 39.0436 68.7018 40.5293 68.7018H43.2193C44.7051 68.7018 45.9095 67.4973 45.9095 66.0116V61.5281C45.9095 60.0423 44.7051 58.8379 43.2193 58.8379Z" fill="white"/>
<path d="M59.8086 58.8379H57.1185C55.6328 58.8379 54.4283 60.0423 54.4283 61.5281V66.0116C54.4283 67.4973 55.6328 68.7018 57.1185 68.7018H59.8086C61.2943 68.7018 62.4988 67.4973 62.4988 66.0116V61.5281C62.4988 60.0423 61.2943 58.8379 59.8086 58.8379Z" fill="white"/>
<path d="M44.3128 62.6769C44.3128 61.315 43.2087 60.2109 41.8468 60.2109C40.4849 60.2109 39.3809 61.315 39.3809 62.6769V65.3671C39.3809 66.729 40.4849 67.8331 41.8468 67.8331C43.2087 67.8331 44.3128 66.729 44.3128 65.3671V62.6769Z" fill="#757575"/>
<path d="M60.8881 62.6769C60.8881 61.315 59.7841 60.2109 58.4221 60.2109C57.0602 60.2109 55.9562 61.315 55.9562 62.6769V65.3671C55.9562 66.729 57.0602 67.8331 58.4221 67.8331C59.7841 67.8331 60.8881 66.729 60.8881 65.3671V62.6769Z" fill="#757575"/>
<path d="M41.8866 61.7793H41.8864C41.1414 61.7793 40.5374 62.3833 40.5374 63.1284V64.6704C40.5374 65.4154 41.1414 66.0195 41.8864 66.0195H41.8866C42.6317 66.0195 43.2357 65.4154 43.2357 64.6704V63.1284C43.2357 62.3833 42.6317 61.7793 41.8866 61.7793Z" fill="black"/>
<path d="M58.4618 61.7793H58.4616C57.7166 61.7793 57.1125 62.3833 57.1125 63.1284V64.6704C57.1125 65.4154 57.7166 66.0195 58.4616 66.0195H58.4618C59.2069 66.0195 59.8109 65.4154 59.8109 64.6704V63.1284C59.8109 62.3833 59.2069 61.7793 58.4618 61.7793Z" fill="black"/>
<path d="M39.5377 71.7714C39.5377 69.8142 37.9511 68.2275 35.9938 68.2275C34.0366 68.2275 32.45 69.8142 32.45 71.7714C32.45 73.7287 34.0366 75.3153 35.9938 75.3153C37.9511 75.3153 39.5377 73.7287 39.5377 71.7714Z" fill="#F88888"/>
<path d="M67.7902 71.7714C67.7902 69.8142 66.2035 68.2275 64.2463 68.2275C62.289 68.2275 60.7024 69.8142 60.7024 71.7714C60.7024 73.7287 62.289 75.3153 64.2463 75.3153C66.2035 75.3153 67.7902 73.7287 67.7902 71.7714Z" fill="#F88888"/>
<path d="M49.9122 65.7773V70.1749C49.3173 70.3026 48.1276 70.8252 48.1276 71.8959C48.1276 73.2342 49.3173 73.6167 49.9122 73.8079" stroke="black" stroke-opacity="0.5" stroke-width="0.653236" stroke-linecap="round" stroke-linejoin="round"/>
<path d="M29.1185 66.7881V56.5781H32.9176L32.4834 65.7019L29.1185 66.7881Z" fill="#724133"/>
<path d="M70.5516 66.7881V56.5781H66.7526L67.1867 65.7019L70.5516 66.7881Z" fill="#724133"/>
<path d="M40.3853 43.1958C40.7024 40.7005 45.0042 40.2934 47.199 40.5122C49.3939 40.731 49.7802 40.8651 52.4361 41.7866C55.0921 42.7081 60.7636 45.7071 59.4705 48.8406C58.4361 51.3474 55.6532 50.3021 54.391 49.4662C54.6788 50.7782 54.9679 53.6067 53.822 54.425C52.676 55.2431 51.2231 53.7041 50.6399 52.8324C50.32 53.5535 49.1045 55.0352 46.8023 55.1916C44.5002 55.348 44.9701 52.2401 45.4928 50.6666C44.4858 50.661 42.3144 50.2586 41.6847 48.6941C41.0549 47.1296 43.0359 46.1778 44.1051 45.8975C42.8334 45.9808 40.1429 45.104 40.3853 43.1958Z" fill="#724133"/>
<path d="M69.226 48.6332C70.0034 50.5152 70.5913 52.7291 70.5913 56.9436C69.2854 56.9436 66.0206 58.2496 59.6097 54.8067C53.0985 51.31 51.4306 47.7428 49.8746 45.4277C48.3312 48.6332 45.4819 51.5227 41.2673 54.1537C37.0528 56.7847 31.2553 56.6468 29.3359 56.9436C29.3359 54.1996 29.5781 51.4826 30.6252 48.9476C31.6715 46.4136 33.2062 44.1102 35.1417 42.1687C37.0752 40.2293 39.3722 38.6901 41.9012 37.6393C44.4284 36.5894 47.138 36.0489 49.8746 36.0488C52.6112 36.0489 55.3208 36.5894 57.848 37.6393C60.377 38.6901 62.6739 40.2293 64.6074 42.1687C66.5422 44.109 68.1789 46.0982 69.226 48.6332Z" fill="#724133"/>
</g>
</svg>
