<svg width="100" height="100" viewBox="0 0 100 100" fill="none" xmlns="http://www.w3.org/2000/svg">
<mask id="mask0_329_1700" style="mask-type:luminance" maskUnits="userSpaceOnUse" x="0" y="0" width="100" height="100">
<path d="M100 0H0V100H100V0Z" fill="white"/>
</mask>
<g mask="url(#mask0_329_1700)">
<path d="M46.3622 25.6702C58.7452 25.1984 63.2545 31.3416 64.207 34.6449C71.8274 34.6449 77.3199 40.2984 78.2724 47.8483C79.0346 53.8884 77.1034 56.9627 74.4287 60.3424C72.9676 62.1887 71.4281 62.8141 69.4833 63.3841C66.792 64.1727 66.5608 64.398 60.2666 64.398H49.364C41.0237 64.398 37.7757 63.2595 33.9656 61.5816C29.6792 59.6941 21.6018 56.3994 21.6018 44.4581C21.6018 34.9124 33.979 26.142 46.3622 25.6702Z" fill="#C93305"/>
<path d="M66.4407 48.7439C60.6957 40.5833 46.5929 38.4064 38.2119 43.7526C29.8309 49.0989 27.9639 57.9778 29.2054 67.7109C29.7076 71.6471 30.3389 74.7366 30.6842 78.0678C31.7553 88.4045 45.8569 93.5409 50.041 93.5409C56.6278 93.5409 67.7256 86.3035 69.11 78.0678C70.3714 70.5634 70.2416 71.1564 70.3391 67.7109C70.4364 64.2652 72.1858 56.9044 66.4407 48.7439Z" fill="#C07F50"/>
<path d="M31.0144 79.9391C34.6991 87.7146 46.1425 91.5814 49.8866 91.5814C56.2475 91.5814 66.6876 85.2347 69.1614 77.665L69.085 78.1207C67.7016 86.3679 56.6107 93.6154 50.028 93.6154C46.0989 93.6154 33.4195 89.0743 31.0144 79.9391Z" fill="black" fill-opacity="0.19"/>
<path d="M41.4434 79.3319C41.4434 77.8014 42.6842 76.5605 44.2147 76.5605H54.9311C56.4616 76.5605 57.7024 77.8014 57.7024 79.3319C57.7024 80.8626 56.4616 82.1033 54.9311 82.1033H44.2147C42.6842 82.1033 41.4434 80.8626 41.4434 79.3319Z" fill="#DE8383"/>
<path d="M77.7916 56.9209H71.6972C69.7739 56.9209 68.2148 58.48 68.2148 60.4033V66.4977C68.2148 68.4209 69.7739 69.9801 71.6972 69.9801H77.7916C79.7148 69.9801 81.274 68.4209 81.274 66.4977V60.4033C81.274 58.48 79.7148 56.9209 77.7916 56.9209Z" fill="#C07F50"/>
<path d="M77.7915 58.3721H71.6972C70.5753 58.3721 69.6658 59.2816 69.6658 60.4035V66.4978C69.6658 67.6198 70.5753 68.5292 71.6972 68.5292H77.7915C78.9135 68.5292 79.8229 67.6198 79.8229 66.4978V60.4035C79.8229 59.2816 78.9135 58.3721 77.7915 58.3721Z" fill="black" fill-opacity="0.19"/>
<path d="M70.5364 60.6934H69.3756C68.8948 60.6934 68.505 61.0831 68.505 61.564V65.6269C68.505 66.1077 68.8948 66.4975 69.3756 66.4975H70.5364C71.0172 66.4975 71.407 66.1077 71.407 65.6269V61.564C71.407 61.0831 71.0172 60.6934 70.5364 60.6934Z" fill="#C07F50"/>
<path d="M22.71 56.9209H28.8044C30.7276 56.9209 32.2868 58.48 32.2868 60.4033V66.4977C32.2868 68.4209 30.7276 69.9801 28.8044 69.9801H22.71C20.7867 69.9801 19.2276 68.4209 19.2276 66.4977V60.4033C19.2276 58.48 20.7867 56.9209 22.71 56.9209Z" fill="#C07F50"/>
<path d="M22.71 58.3721H28.8044C29.9263 58.3721 30.8358 59.2816 30.8358 60.4035V66.4978C30.8358 67.6198 29.9263 68.5292 28.8044 68.5292H22.71C21.5881 68.5292 20.6786 67.6198 20.6786 66.4978V60.4035C20.6786 59.2816 21.5881 58.3721 22.71 58.3721Z" fill="black" fill-opacity="0.19"/>
<path d="M29.9652 60.6934H31.126C31.6068 60.6934 31.9966 61.0831 31.9966 61.564V65.6269C31.9966 66.1077 31.6068 66.4975 31.126 66.4975H29.9652C29.4844 66.4975 29.0946 66.1077 29.0946 65.6269V61.564C29.0946 61.0831 29.4844 60.6934 29.9652 60.6934Z" fill="#C07F50"/>
<path d="M38.3382 61.2373C37.6999 61.9515 37.3478 62.8761 37.3492 63.8339C37.3492 65.9891 39.0963 67.7362 41.2517 67.7362C43.0182 67.7362 44.5105 66.5625 44.9913 64.9523L38.3381 61.2376L38.3382 61.2373ZM60.5569 61.2373C61.1952 61.9514 61.5473 62.876 61.5459 63.8338C61.5459 65.9889 59.7988 67.736 57.6436 67.736C55.8771 67.736 54.3846 66.5623 53.9039 64.9521L60.5569 61.2373Z" fill="white"/>
<path d="M38.2474 57.5547C39.4723 58.3712 44.7798 61.8007 46.2496 62.6989M60.8657 57.6363C59.6409 58.4529 54.3334 61.8824 52.8636 62.7806" stroke="black" stroke-width="0.600324" stroke-linecap="round"/>
<path d="M38.3291 57.6367C39.5539 58.4533 44.8614 61.8828 46.3312 62.781M60.9474 57.7184C59.7226 58.5349 54.415 61.9644 52.9452 62.8626" stroke="black" stroke-width="0.600324" stroke-linecap="round"/>
<path d="M36.5098 72.9466C36.5098 72.3666 36.0397 71.8965 35.4597 71.8965C34.8798 71.8965 34.4096 72.3666 34.4096 72.9466C34.4096 73.5265 34.8798 73.9966 35.4597 73.9966C36.0397 73.9966 36.5098 73.5265 36.5098 72.9466Z" fill="black" fill-opacity="0.19"/>
<path d="M40.4475 70.5843C40.4475 70.0043 39.9774 69.5342 39.3974 69.5342C38.8175 69.5342 38.3474 70.0043 38.3474 70.5843V70.8467C38.3474 71.4266 38.8175 71.8968 39.3974 71.8968C39.9774 71.8968 40.4475 71.4266 40.4475 70.8467V70.5843Z" fill="black" fill-opacity="0.19"/>
<path d="M43.5976 72.9466C43.5976 72.3666 43.1274 71.8965 42.5475 71.8965C41.9675 71.8965 41.4974 72.3666 41.4974 72.9466C41.4974 73.5265 41.9675 73.9966 42.5475 73.9966C43.1274 73.9966 43.5976 73.5265 43.5976 72.9466Z" fill="black" fill-opacity="0.19"/>
<path d="M58.2983 72.9466C58.2983 72.3666 57.8282 71.8965 57.2483 71.8965C56.6683 71.8965 56.1982 72.3666 56.1982 72.9466C56.1982 73.5265 56.6683 73.9966 57.2483 73.9966C57.8282 73.9966 58.2983 73.5265 58.2983 72.9466Z" fill="black" fill-opacity="0.19"/>
<path d="M62.236 70.5843C62.236 70.0043 61.7659 69.5342 61.186 69.5342C60.606 69.5342 60.1359 70.0043 60.1359 70.5843V70.8467C60.1359 71.4266 60.606 71.8968 61.186 71.8968C61.7659 71.8968 62.236 71.4266 62.236 70.8467V70.5843Z" fill="black" fill-opacity="0.19"/>
<path d="M65.3863 72.9466C65.3863 72.3666 64.9162 71.8965 64.3362 71.8965C63.7563 71.8965 63.2861 72.3666 63.2861 72.9466C63.2861 73.5265 63.7563 73.9966 64.3362 73.9966C64.9162 73.9966 65.3863 73.5265 65.3863 72.9466Z" fill="black" fill-opacity="0.19"/>
<path d="M49.33 67.084C48.1719 68.6292 47.3636 72.2256 48.0584 72.5627C48.7532 72.8999 49.7643 72.5627 50.85 72.5627" stroke="black" stroke-opacity="0.5" stroke-width="0.653236" stroke-linecap="round" stroke-linejoin="round"/>
<path d="M31.0181 55.6289H30.6619C29.4162 55.6289 28.4062 56.6389 28.4062 57.8846V64.0581C28.4062 65.3038 29.4162 66.3137 30.6619 66.3137H31.0181C32.2638 66.3137 33.2738 65.3038 33.2738 64.0581V57.8846C33.2738 56.6389 32.2638 55.6289 31.0181 55.6289Z" fill="#C93305"/>
<path d="M68.6521 55.6289H69.0083C70.254 55.6289 71.264 56.6389 71.264 57.8846V64.0581C71.264 65.3038 70.254 66.3137 69.0083 66.3137H68.6521C67.4064 66.3137 66.3964 65.3038 66.3964 64.0581V57.8846C66.3964 56.6389 67.4064 55.6289 68.6521 55.6289Z" fill="#C93305"/>
<path d="M41.7204 49.3118C41.2973 47.2806 44.5556 45.7995 46.3328 45.3762C48.1101 44.9531 48.4486 44.9531 50.7758 44.9531C53.1031 44.9531 58.3503 45.7572 58.181 48.5501C58.0457 50.7844 55.5857 50.7225 54.3727 50.4121C54.951 51.3571 55.9384 53.4844 55.2613 54.4322C54.5843 55.3802 53.0327 54.5733 52.3415 54.0514C52.2851 54.7003 51.7323 56.1842 49.972 56.9291C48.2116 57.6738 47.7434 55.1234 47.7292 53.7552C46.9394 54.0232 45.131 54.2969 44.217 53.2474C43.3031 52.1979 44.5979 50.9199 45.3596 50.4121C44.3863 50.8211 42.0441 50.8653 41.7204 49.3118Z" fill="#C93305"/>
<path d="M69.1074 48.6332C69.8847 50.5152 70.4726 52.7291 70.4726 56.9436C69.1667 56.9436 65.9019 58.2496 59.491 54.8067C52.9799 51.31 51.312 47.7428 49.7559 45.4277C48.2126 48.6332 45.3633 51.5227 41.1487 54.1537C36.9341 56.7847 31.1366 56.6468 29.2173 56.9436C29.2173 54.1996 29.4595 51.4826 30.5066 48.9476C31.5529 46.4136 33.0875 44.1102 35.0231 42.1687C36.9566 40.2293 39.2535 38.6901 41.7825 37.6393C44.3097 36.5894 47.0193 36.0489 49.7559 36.0488C52.4925 36.0489 55.2021 36.5894 57.7293 37.6393C60.2583 38.6901 62.5553 40.2293 64.4888 42.1687C66.4236 44.109 68.0602 46.0982 69.1074 48.6332Z" fill="#C93305"/>
</g>
</svg>
