<svg width="100" height="100" viewBox="0 0 100 100" fill="none" xmlns="http://www.w3.org/2000/svg">
<mask id="mask0_329_2169" style="mask-type:luminance" maskUnits="userSpaceOnUse" x="0" y="0" width="100" height="100">
<path d="M100 0H0V100H100V0Z" fill="white"/>
</mask>
<g mask="url(#mask0_329_2169)">
<path d="M51.9597 12.2598H50.3162C33.9598 12.2598 20.7003 27.4485 20.7003 46.1849V82.079H81.5755V46.1849C81.5755 27.4485 68.316 12.2598 51.9597 12.2598Z" fill="#B58143"/>
<path d="M71.6425 69.0432C71.6436 68.9552 71.6441 68.8669 71.6441 68.7785C71.6441 57.0872 61.7734 43.2412 49.5974 43.2412C37.4214 43.2412 27.5507 57.0872 27.5507 68.7785C27.5507 68.8669 27.5513 68.9552 27.5523 69.0432C27.5513 69.1317 27.5507 69.2201 27.5507 69.3083C27.5507 80.9831 37.4214 90.4475 49.5974 90.4475C61.7734 90.4475 71.6441 80.9831 71.6441 69.3083C71.6441 69.2201 71.6436 69.1317 71.6425 69.0432Z" fill="#F8B788"/>
<path d="M71.5837 67.7061C70.7428 78.6447 61.2204 87.2689 49.5974 87.2689C37.9744 87.2689 28.4521 78.6447 27.6111 67.7061C27.5711 68.2438 27.5507 68.7785 27.5507 69.3086C27.5507 80.9836 37.4214 90.4478 49.5974 90.4478C61.7734 90.4478 71.6441 80.9836 71.6441 69.3086C71.6441 68.7785 71.6237 68.2438 71.5837 67.7061Z" fill="black" fill-opacity="0.19"/>
<path d="M55.0954 79.4148C55.0954 82.2098 52.8295 84.4757 50.0345 84.4757C47.2394 84.4757 44.9735 82.2098 44.9735 79.4148C44.9735 76.6197 47.2394 78.74 50.0345 78.74C52.8295 78.74 55.0954 76.6197 55.0954 79.4148Z" fill="#DE8383"/>
<path d="M78.2815 57.248H72.1871C70.2638 57.248 68.7047 58.8072 68.7047 60.7305V66.8248C68.7047 68.7481 70.2638 70.3072 72.1871 70.3072H78.2815C80.2048 70.3072 81.7639 68.7481 81.7639 66.8248V60.7305C81.7639 58.8072 80.2048 57.248 78.2815 57.248Z" fill="#F8B788"/>
<path d="M75.0893 58.6992H72.1872C71.0653 58.6992 70.1558 59.6087 70.1558 60.7306V66.825C70.1558 67.9469 71.0653 68.8564 72.1872 68.8564H75.0893C76.2112 68.8564 77.1207 67.9469 77.1207 66.825V60.7306C77.1207 59.6087 76.2112 58.6992 75.0893 58.6992Z" fill="black" fill-opacity="0.19"/>
<path d="M71.6067 62.4715C71.6067 61.6701 70.9571 61.0205 70.1557 61.0205C69.3543 61.0205 68.7047 61.6701 68.7047 62.4715V65.3737C68.7047 66.175 69.3543 66.8247 70.1557 66.8247C70.9571 66.8247 71.6067 66.175 71.6067 65.3737V62.4715Z" fill="#F8B788"/>
<path d="M22.2201 57.248H28.3145C30.2377 57.248 31.7969 58.8072 31.7969 60.7305V66.8248C31.7969 68.7481 30.2377 70.3072 28.3145 70.3072H22.2201C20.2968 70.3072 18.7377 68.7481 18.7377 66.8248V60.7305C18.7377 58.8072 20.2968 57.248 22.2201 57.248Z" fill="#F8B788"/>
<path d="M25.4123 58.6992H28.3144C29.4363 58.6992 30.3458 59.6087 30.3458 60.7306V66.825C30.3458 67.9469 29.4363 68.8564 28.3144 68.8564H25.4123C24.2903 68.8564 23.3809 67.9469 23.3809 66.825V60.7306C23.3809 59.6087 24.2903 58.6992 25.4123 58.6992Z" fill="black" fill-opacity="0.19"/>
<path d="M28.8949 62.4715C28.8949 61.6701 29.5445 61.0205 30.3459 61.0205C31.1472 61.0205 31.7969 61.6701 31.7969 62.4715V65.3737C31.7969 66.175 31.1472 66.8247 30.3459 66.8247C29.5445 66.8247 28.8949 66.175 28.8949 65.3737V62.4715Z" fill="#F8B788"/>
<path d="M62.3444 56.9824C61.6429 57.5341 60.5637 58.6372 58.4593 58.6372C56.6714 58.6372 55.168 57.4238 54.8982 56.9824" stroke="black" stroke-width="1.35138" stroke-linecap="round"/>
<path d="M62.3444 63.5146C61.6429 64.0663 60.5637 65.1693 58.4593 65.1695C56.6714 65.1695 55.168 63.9561 54.8982 63.5146" stroke="black" stroke-width="0.675773" stroke-linecap="round"/>
<path d="M44.1423 56.9824C43.4409 57.5339 42.3617 58.6371 40.2572 58.6372C38.4696 58.6372 36.966 57.4237 36.696 56.9824" stroke="black" stroke-width="1.35138" stroke-linecap="round"/>
<path d="M44.1423 63.5146C43.4409 64.0663 42.3617 65.1693 40.2572 65.1695C38.4696 65.1695 36.966 63.9561 36.696 63.5146" stroke="black" stroke-width="0.675773" stroke-linecap="round"/>
<path d="M47.5707 69.1154C47.5065 69.3519 47.4741 69.5958 47.4744 69.8408C47.4744 71.3633 48.7087 72.5978 50.2314 72.5978C51.7539 72.5978 52.9883 71.3633 52.9883 69.8408C52.9883 69.5896 52.9547 69.3465 52.8918 69.1152C52.5734 70.286 51.5029 71.1468 50.2314 71.1468C48.9598 71.1468 47.8892 70.2862 47.5707 69.1154Z" fill="black" fill-opacity="0.19"/>
<path d="M33.0537 60.9737C33.0209 59.408 32.8566 55.7462 30.9681 55.6289C28.887 55.6289 28.9622 59.624 28.8515 60.9737C28.7535 62.1702 28.4371 63.0248 28.8515 65.2928C29.0952 66.626 30.0135 66.7895 30.9682 66.7886C31.8754 66.7878 32.8206 66.6827 33.0538 65.6437C33.5323 63.5111 33.0862 62.5394 33.0537 60.9737Z" fill="#B58143"/>
<path d="M66.6165 60.9737C66.6492 59.408 66.8136 55.7462 68.702 55.6289C70.7832 55.6289 70.7079 59.624 70.8187 60.9737C70.9166 62.1702 71.233 63.0248 70.8187 65.2928C70.575 66.626 69.6567 66.7895 68.7019 66.7886C67.7948 66.7878 66.8495 66.6827 66.6164 65.6437C66.1379 63.5111 66.5839 62.5394 66.6165 60.9737Z" fill="#B58143"/>
<path d="M41.7205 49.3118C41.2974 47.2806 44.5557 45.7995 46.3329 45.3762C48.1102 44.9531 48.4486 44.9531 50.7759 44.9531C53.1032 44.9531 58.3504 45.7572 58.1811 48.5501C58.0457 50.7844 55.5857 50.7225 54.3728 50.4121C54.9511 51.3571 55.9385 53.4844 55.2614 54.4322C54.5843 55.3802 53.0328 54.5733 52.3416 54.0514C52.2852 54.7003 51.7323 56.1842 49.972 56.9291C48.2117 57.6738 47.7434 55.1234 47.7293 53.7552C46.9395 54.0232 45.1311 54.2969 44.2171 53.2474C43.3032 52.1979 44.5979 50.9199 45.3596 50.4121C44.3864 50.8211 42.0441 50.8653 41.7205 49.3118Z" fill="#B58143"/>
<path d="M69.1074 48.6332C69.8847 50.5152 70.4726 52.7291 70.4726 56.9436C69.1667 56.9436 65.9019 58.2496 59.491 54.8067C52.9799 51.31 51.312 47.7428 49.7559 45.4277C48.2126 48.6332 45.3633 51.5227 41.1487 54.1537C36.9341 56.7847 31.1366 56.6468 29.2173 56.9436C29.2173 54.1996 29.4595 51.4826 30.5066 48.9476C31.5529 46.4136 33.0875 44.1102 35.0231 42.1687C36.9566 40.2293 39.2535 38.6901 41.7825 37.6393C44.3097 36.5894 47.0193 36.0489 49.7559 36.0488C52.4925 36.0489 55.2021 36.5894 57.7293 37.6393C60.2583 38.6901 62.5553 40.2293 64.4888 42.1687C66.4236 44.109 68.0602 46.0982 69.1074 48.6332Z" fill="#B58143"/>
</g>
</svg>
