<svg width="100" height="100" viewBox="0 0 100 100" fill="none" xmlns="http://www.w3.org/2000/svg">
<mask id="mask0_329_1859" style="mask-type:luminance" maskUnits="userSpaceOnUse" x="0" y="0" width="100" height="100">
<path d="M100 0H0V100H100V0Z" fill="white"/>
</mask>
<g mask="url(#mask0_329_1859)">
<path d="M75.0493 51.7221V50.4303C75.0493 36.563 63.8076 25.3213 49.9403 25.3213C36.073 25.3213 24.8313 36.563 24.8313 50.4303V51.7221C24.8313 65.5894 36.073 76.8311 49.9403 76.8311C63.8076 76.8311 75.0493 65.5894 75.0493 51.7221Z" fill="#C93305"/>
<path d="M20.7137 47.0389C21.4629 51.9301 23.2611 62.5686 28.0607 68.5148C35.6945 80.1691 69.9038 86.5344 74.7627 64.7727C81.0296 36.7047 78.0729 22.7373 59.3864 22.7373C43.8779 22.7373 36.7534 25.886 34.116 31.0532C27.98 26.5319 19.3412 38.0772 20.7137 47.0389Z" fill="#C93305"/>
<path d="M49.7623 40.6279C66.6145 41.1236 68.0825 56.5968 68.3733 63.2124C68.4643 65.2824 68.9165 67.1067 69.3641 68.9126C69.8934 71.0485 70.4165 73.1584 70.3277 75.6184C70.4123 78.0071 69.9682 80.6945 68.3733 84.0675C66.2925 88.4683 57.8577 93.2102 49.7623 93.2135C41.2438 93.2171 33.0493 88.2278 30.8758 82.5814C29.3789 78.6927 28.9507 75.7851 29.0292 73.3654C28.9412 70.6285 29.5228 68.5265 30.0934 66.4638C30.3885 65.397 30.6806 64.3406 30.8758 63.2124C30.995 62.5229 31.09 61.6703 31.1978 60.7038C31.9812 53.6749 33.4353 40.6279 49.7623 40.6279Z" fill="#89532C"/>
<path d="M29.096 72.3184C28.8471 74.9434 29.1568 78.1155 30.8758 82.5814C33.0494 88.2279 41.2438 93.217 49.7623 93.2136C57.8577 93.2102 66.2925 88.4685 68.3733 84.0676C70.2813 80.0323 70.5424 76.9784 70.2215 74.243C70.027 76.0862 69.4747 78.1369 68.3415 80.5336C66.2608 84.9345 57.8259 89.6763 49.7305 89.6796C41.2121 89.6832 33.0174 84.6939 30.8441 79.0473C29.8257 76.4022 29.3021 74.2108 29.096 72.3184Z" fill="black" fill-opacity="0.19"/>
<path d="M55.104 79.4892C54.7666 79.7309 52.8381 80.9342 50.0431 80.9342C47.248 80.9342 44.6447 79.7311 44.9821 79.4894C44.9821 76.6942 45.5001 79.4894 49.8863 79.4894C54.6098 79.4894 55.104 76.694 55.104 79.4892Z" fill="black"/>
<path d="M75.3826 56.1045C71.0608 56.1045 69.2389 59.515 68.868 61.2203V71.2922C72.8404 70.7594 79.9172 67.2954 80.9439 63.9381C81.9707 60.5808 80.785 56.1045 75.3826 56.1045Z" fill="#89532C"/>
<path d="M75.1275 58.0225C72.0291 58.0225 70.7227 60.4639 70.4569 61.6843V68.8938C73.305 68.5123 78.3783 66.0329 79.1144 63.6298C79.8504 61.2267 79.0006 58.0225 75.1275 58.0225Z" fill="black" fill-opacity="0.19"/>
<path d="M72.3637 63.7293C72.3637 61.8896 71.0926 61.2903 70.457 61.2207V66.6561C71.0926 66.4471 72.3637 65.5691 72.3637 63.7293Z" fill="#89532C"/>
<path d="M25.119 56.1045C29.4408 56.1045 31.2627 59.515 31.6336 61.2203V71.2922C27.6612 70.7594 20.5844 67.2954 19.5577 63.9381C18.5309 60.5808 19.7166 56.1045 25.119 56.1045Z" fill="#89532C"/>
<path d="M25.3741 58.0225C28.4725 58.0225 29.7789 60.4639 30.0447 61.6843V68.8938C27.1966 68.5123 22.1233 66.0329 21.3872 63.6298C20.6512 61.2267 21.501 58.0225 25.3741 58.0225Z" fill="black" fill-opacity="0.19"/>
<path d="M28.1379 63.7293C28.1379 61.8896 29.409 61.2903 30.0446 61.2207V66.6561C29.409 66.4471 28.1379 65.5691 28.1379 63.7293Z" fill="#89532C"/>
<path d="M38.3291 57.535C38.9098 57.0784 39.8033 56.165 41.5456 56.165C43.0259 56.165 44.2706 57.1697 44.494 57.535M55.4075 57.535C55.9882 57.0784 56.8817 56.165 58.624 56.165C60.1042 56.165 61.349 57.1697 61.5724 57.535" stroke="black" stroke-width="0.684918" stroke-linecap="round"/>
<path d="M43.2194 58.8369H40.5294C39.0436 58.8369 37.8392 60.0414 37.8392 61.5271V66.0106C37.8392 67.4963 39.0436 68.7008 40.5294 68.7008H43.2194C44.7051 68.7008 45.9096 67.4963 45.9096 66.0106V61.5271C45.9096 60.0414 44.7051 58.8369 43.2194 58.8369Z" fill="white"/>
<path d="M59.8087 58.8369H57.1186C55.6329 58.8369 54.4284 60.0414 54.4284 61.5271V66.0106C54.4284 67.4963 55.6329 68.7008 57.1186 68.7008H59.8087C61.2944 68.7008 62.4988 67.4963 62.4988 66.0106V61.5271C62.4988 60.0414 61.2944 58.8369 59.8087 58.8369Z" fill="white"/>
<path d="M44.3129 62.6759C44.3129 61.314 43.2089 60.21 41.8469 60.21C40.485 60.21 39.381 61.314 39.381 62.6759V65.3661C39.381 66.728 40.485 67.8321 41.8469 67.8321C43.2089 67.8321 44.3129 66.728 44.3129 65.3661V62.6759Z" fill="#757575"/>
<path d="M60.8881 62.6759C60.8881 61.314 59.7841 60.21 58.4222 60.21C57.0602 60.21 55.9562 61.314 55.9562 62.6759V65.3661C55.9562 66.728 57.0602 67.8321 58.4222 67.8321C59.7841 67.8321 60.8881 66.728 60.8881 65.3661V62.6759Z" fill="#757575"/>
<path d="M41.8866 61.7783H41.8865C41.1414 61.7783 40.5374 62.3823 40.5374 63.1274V64.6694C40.5374 65.4145 41.1414 66.0185 41.8865 66.0185H41.8866C42.6317 66.0185 43.2357 65.4145 43.2357 64.6694V63.1274C43.2357 62.3823 42.6317 61.7783 41.8866 61.7783Z" fill="black"/>
<path d="M58.4618 61.7783H58.4617C57.7166 61.7783 57.1126 62.3823 57.1126 63.1274V64.6694C57.1126 65.4145 57.7166 66.0185 58.4617 66.0185H58.4618C59.2069 66.0185 59.8109 65.4145 59.8109 64.6694V63.1274C59.8109 62.3823 59.2069 61.7783 58.4618 61.7783Z" fill="black"/>
<path d="M36.5098 72.9456C36.5098 72.3656 36.0397 71.8955 35.4597 71.8955C34.8798 71.8955 34.4097 72.3656 34.4097 72.9456C34.4097 73.5255 34.8798 73.9957 35.4597 73.9957C36.0397 73.9957 36.5098 73.5255 36.5098 72.9456Z" fill="black" fill-opacity="0.19"/>
<path d="M40.4475 70.5833C40.4475 70.0033 39.9774 69.5332 39.3974 69.5332C38.8175 69.5332 38.3474 70.0033 38.3474 70.5833V70.8457C38.3474 71.4257 38.8175 71.8958 39.3974 71.8958C39.9774 71.8958 40.4475 71.4257 40.4475 70.8457V70.5833Z" fill="black" fill-opacity="0.19"/>
<path d="M43.5976 72.9456C43.5976 72.3656 43.1275 71.8955 42.5475 71.8955C41.9676 71.8955 41.4974 72.3656 41.4974 72.9456C41.4974 73.5255 41.9676 73.9957 42.5475 73.9957C43.1275 73.9957 43.5976 73.5255 43.5976 72.9456Z" fill="black" fill-opacity="0.19"/>
<path d="M58.2983 72.9456C58.2983 72.3656 57.8282 71.8955 57.2483 71.8955C56.6683 71.8955 56.1982 72.3656 56.1982 72.9456C56.1982 73.5255 56.6683 73.9957 57.2483 73.9957C57.8282 73.9957 58.2983 73.5255 58.2983 72.9456Z" fill="black" fill-opacity="0.19"/>
<path d="M62.236 70.5833C62.236 70.0033 61.7659 69.5332 61.186 69.5332C60.606 69.5332 60.1359 70.0033 60.1359 70.5833V70.8457C60.1359 71.4257 60.606 71.8958 61.186 71.8958C61.7659 71.8958 62.236 71.4257 62.236 70.8457V70.5833Z" fill="black" fill-opacity="0.19"/>
<path d="M65.3863 72.9456C65.3863 72.3656 64.9162 71.8955 64.3362 71.8955C63.7563 71.8955 63.2861 72.3656 63.2861 72.9456C63.2861 73.5255 63.7563 73.9957 64.3362 73.9957C64.9162 73.9957 65.3863 73.5255 65.3863 72.9456Z" fill="black" fill-opacity="0.19"/>
<path d="M47.5707 69.1154C47.5066 69.3519 47.4742 69.5958 47.4744 69.8408C47.4744 71.3633 48.7087 72.5978 50.2314 72.5978C51.7539 72.5978 52.9884 71.3633 52.9884 69.8408C52.9884 69.5896 52.9547 69.3465 52.8918 69.1152C52.5734 70.286 51.5029 71.1468 50.2314 71.1468C48.9599 71.1468 47.8892 70.2862 47.5707 69.1154Z" fill="black" fill-opacity="0.19"/>
<path d="M30.0763 59.4048C29.9761 57.0806 29.6956 55.9029 31.7253 55.6279C34.056 56.0528 33.4007 58.3051 33.15 59.4048C32.8995 60.5044 34.2866 61.6541 34.036 64.0782C33.7854 66.5025 31.0639 67.6392 29.7665 65.6004C28.1045 62.9886 30.1766 61.729 30.0764 59.4048H30.0763Z" fill="#C93305"/>
<path d="M69.594 59.4048C69.6942 57.0806 69.9747 55.9029 67.9449 55.6279C65.6142 56.0528 66.2695 58.3051 66.5203 59.4048C66.7708 60.5044 65.3837 61.6541 65.6343 64.0782C65.8849 66.5025 68.6063 67.6392 69.9037 65.6004C71.5658 62.9886 69.4936 61.729 69.5938 59.4048H69.594Z" fill="#C93305"/>
<path d="M41.7205 49.3109C41.2973 47.2797 44.5556 45.7985 46.3329 45.3753C48.1101 44.9521 48.4486 44.9521 50.7759 44.9521C53.1031 44.9521 58.3503 45.7562 58.181 48.5491C58.0457 50.7835 55.5857 50.7215 54.3727 50.4112C54.951 51.3562 55.9384 53.4834 55.2614 54.4313C54.5843 55.3792 53.0327 54.5723 52.3415 54.0504C52.2852 54.6993 51.7323 56.1832 49.972 56.9281C48.2116 57.6728 47.7434 55.1225 47.7293 53.7542C46.9394 54.0223 45.1311 54.2959 44.217 53.2464C43.3031 52.1969 44.5979 50.9189 45.3596 50.4112C44.3863 50.8201 42.0441 50.8643 41.7205 49.3109Z" fill="#C93305"/>
<path d="M69.1074 48.6322C69.8847 50.5142 70.4726 52.7281 70.4726 56.9427C69.1667 56.9427 65.9019 58.2486 59.491 54.8057C52.9799 51.309 51.312 47.7418 49.7559 45.4268C48.2126 48.6322 45.3633 51.5218 41.1487 54.1527C36.9341 56.7837 31.1366 56.6459 29.2173 56.9427C29.2173 54.1987 29.4595 51.4816 30.5066 48.9466C31.5529 46.4126 33.0875 44.1093 35.0231 42.1678C36.9566 40.2283 39.2535 38.6891 41.7825 37.6383C44.3097 36.5884 47.0193 36.0479 49.7559 36.0479C52.4925 36.0479 55.2021 36.5884 57.7293 37.6383C60.2583 38.6891 62.5553 40.2283 64.4888 42.1678C66.4236 44.108 68.0602 46.0972 69.1074 48.6322Z" fill="#C93305"/>
</g>
</svg>
