<svg width="100" height="100" viewBox="0 0 100 100" fill="none" xmlns="http://www.w3.org/2000/svg">
<mask id="mask0_329_1261" style="mask-type:luminance" maskUnits="userSpaceOnUse" x="0" y="0" width="100" height="100">
<path d="M100 0H0V100H100V0Z" fill="white"/>
</mask>
<g mask="url(#mask0_329_1261)">
<path d="M26.5979 22.5612C20.947 23.9411 24.336 55.6912 27.1375 63.8496C33.7989 72.1385 69.314 70.0371 72.5264 64.7721C74.667 61.2636 80.0093 23.2523 73.029 22.0603C58.9743 19.66 32.2486 21.1812 26.5979 22.5612Z" fill="#2C1B18"/>
<path d="M69.0314 58.4287H30.1638V78.679H30.2066C30.2031 78.748 30.2014 78.8171 30.2014 78.8861C30.2014 83.7645 38.9095 91.5297 49.6515 91.5297C60.3933 91.5297 69.1014 83.7645 69.1014 78.8861C69.1014 78.6317 69.0778 78.3799 69.0314 78.131V58.4287Z" fill="#A66637"/>
<path d="M30.2014 75.6777V75.8148C30.2014 75.769 30.2022 75.7233 30.2039 75.6777H30.2014ZM30.2014 75.8214V78.7458H30.2039C30.2022 78.7925 30.2014 78.8392 30.2014 78.8861C30.2014 83.7645 38.9095 91.5297 49.6514 91.5297C60.3933 91.5297 69.1015 83.7645 69.1015 78.8861C69.1015 78.8392 69.1007 78.7925 69.099 78.7458H69.1015V75.6777H69.099C69.1007 75.7244 69.1015 75.7711 69.1015 75.818C69.1015 80.6965 60.3933 88.4616 49.6514 88.4616C38.912 88.4616 30.2053 80.7 30.2014 75.8214Z" fill="black" fill-opacity="0.19"/>
<path d="M69.0314 59.1635C69.0314 68.2858 60.1807 75.7858 49.4429 75.7858C38.7052 75.7858 30.0005 68.3907 30.0005 59.2684C30.0005 50.1459 38.7052 42.751 49.4429 42.751C60.1807 42.751 69.0314 50.0411 69.0314 59.1635Z" fill="#A66637"/>
<path d="M44.9585 79.5984C45.2959 79.3567 47.2244 78.1533 50.0194 78.1533C52.8145 78.1533 55.4178 79.3566 55.0804 79.5984C55.0804 82.3935 54.743 79.0192 50.3568 79.0192C45.6333 79.0192 44.9585 82.3935 44.9585 79.5984Z" fill="black"/>
<path d="M78.2816 57.2471H72.1872C70.264 57.2471 68.7048 58.8062 68.7048 60.7295V66.8238C68.7048 68.7471 70.264 70.3062 72.1872 70.3062H78.2816C80.2049 70.3062 81.764 68.7471 81.764 66.8238V60.7295C81.764 58.8062 80.2049 57.2471 78.2816 57.2471Z" fill="#A66637"/>
<path d="M75.0893 58.6982H72.1872C71.0653 58.6982 70.1558 59.6077 70.1558 60.7296V66.824C70.1558 67.9459 71.0653 68.8554 72.1872 68.8554H75.0893C76.2112 68.8554 77.1207 67.9459 77.1207 66.824V60.7296C77.1207 59.6077 76.2112 58.6982 75.0893 58.6982Z" fill="black" fill-opacity="0.19"/>
<path d="M71.6068 62.4705C71.6068 61.6692 70.9572 61.0195 70.1558 61.0195C69.3545 61.0195 68.7048 61.6692 68.7048 62.4705V65.3727C68.7048 66.1741 69.3545 66.8237 70.1558 66.8237C70.9572 66.8237 71.6068 66.1741 71.6068 65.3727V62.4705Z" fill="#A66637"/>
<path d="M22.2201 57.2471H28.3145C30.2377 57.2471 31.7969 58.8062 31.7969 60.7295V66.8238C31.7969 68.7471 30.2377 70.3062 28.3145 70.3062H22.2201C20.2968 70.3062 18.7377 68.7471 18.7377 66.8238V60.7295C18.7377 58.8062 20.2968 57.2471 22.2201 57.2471Z" fill="#A66637"/>
<path d="M25.4124 58.6982H28.3145C29.4365 58.6982 30.3459 59.6077 30.3459 60.7296V66.824C30.3459 67.9459 29.4365 68.8554 28.3145 68.8554H25.4124C24.2905 68.8554 23.381 67.9459 23.381 66.824V60.7296C23.381 59.6077 24.2905 58.6982 25.4124 58.6982Z" fill="black" fill-opacity="0.19"/>
<path d="M28.8949 62.4705C28.8949 61.6692 29.5445 61.0195 30.3459 61.0195C31.1472 61.0195 31.7969 61.6692 31.7969 62.4705V65.3727C31.7969 66.1741 31.1472 66.8237 30.3459 66.8237C29.5445 66.8237 28.8949 66.1741 28.8949 65.3727V62.4705Z" fill="#A66637"/>
<path d="M62.3444 56.9824C61.6429 57.5341 60.5637 58.6372 58.4593 58.6372C56.6714 58.6372 55.168 57.4238 54.8982 56.9824" stroke="black" stroke-width="1.35138" stroke-linecap="round"/>
<path d="M62.3444 63.5146C61.6429 64.0663 60.5637 65.1693 58.4593 65.1695C56.6714 65.1695 55.168 63.9561 54.8982 63.5146" stroke="black" stroke-width="0.675773" stroke-linecap="round"/>
<path d="M44.1423 56.9824C43.4409 57.5339 42.3617 58.6371 40.2572 58.6372C38.4696 58.6372 36.966 57.4237 36.696 56.9824" stroke="black" stroke-width="1.35138" stroke-linecap="round"/>
<path d="M44.1423 63.5146C43.4409 64.0663 42.3617 65.1693 40.2572 65.1695C38.4696 65.1695 36.966 63.9561 36.696 63.5146" stroke="black" stroke-width="0.675773" stroke-linecap="round"/>
<path d="M46.591 71.0355C46.5269 71.2256 46.4944 71.4249 46.4946 71.6255C46.4946 72.6441 47.3203 73.4699 48.339 73.4699C48.3929 73.4699 48.446 73.4675 48.4988 73.4631C48.7094 74.2496 49.4273 74.8288 50.2805 74.8288C51.1334 74.8288 51.8513 74.2496 52.0622 73.4631C52.1147 73.4675 52.168 73.4698 52.2217 73.4698C53.2404 73.4698 54.0661 72.6441 54.0661 71.6255C54.0661 71.4191 54.0322 71.2205 53.9698 71.0353C53.7235 71.7645 53.034 72.2895 52.2217 72.2895C52.1678 72.2895 52.1147 72.2871 52.062 72.2825C51.8513 73.0692 51.1334 73.6484 50.2803 73.6484C49.4273 73.6484 48.7094 73.0692 48.4986 72.2825C48.446 72.2871 48.3928 72.2894 48.339 72.2894C47.5267 72.2894 46.8373 71.7645 46.5911 71.0352L46.591 71.0355Z" fill="black" fill-opacity="0.19"/>
<path d="M33.0537 60.9727C33.0209 59.407 32.8566 55.7452 30.9681 55.6279C28.887 55.6279 28.9622 59.623 28.8515 60.9727C28.7535 62.1692 28.4371 63.0239 28.8515 65.2918C29.0952 66.625 30.0135 66.7885 30.9682 66.7877C31.8754 66.7868 32.8206 66.6818 33.0538 65.6427C33.5323 63.5101 33.0862 62.5384 33.0537 60.9727Z" fill="#2C1B18"/>
<path d="M66.6167 60.9727C66.6495 59.407 66.8138 55.7452 68.7023 55.6279C70.7835 55.6279 70.7082 59.623 70.8189 60.9727C70.9169 62.1692 71.2333 63.0239 70.8189 65.2918C70.5752 66.625 69.6569 66.7885 68.7022 66.7877C67.795 66.7868 66.8498 66.6818 66.6166 65.6427C66.1382 63.5101 66.5842 62.5384 66.6167 60.9727Z" fill="#2C1B18"/>
<path d="M70.3992 48.8127C71.5059 51.4846 72.0756 54.3484 72.0756 57.2404H42.6923L39.843 51.6606L36.9937 57.2404H28.0303C28.0303 52.8848 29.3219 48.6269 31.7418 45.0053C34.1617 41.3837 37.6011 38.561 41.6252 36.8941C47.0214 34.659 53.0844 34.659 58.4806 36.8942C63.8768 39.1293 68.164 43.4166 70.3992 48.8127Z" fill="#2C1B18"/>
</g>
</svg>
