<svg width="100" height="100" viewBox="0 0 100 100" fill="none" xmlns="http://www.w3.org/2000/svg">
<mask id="mask0_329_2321" style="mask-type:luminance" maskUnits="userSpaceOnUse" x="0" y="0" width="100" height="100">
<path d="M100 0H0V100H100V0Z" fill="white"/>
</mask>
<g mask="url(#mask0_329_2321)">
<path d="M17.5819 33.4215C16.4478 28.5318 21.0197 28.9997 27.5469 22.8639C34.0741 16.728 41.6525 13.358 54.8444 13.5604C68.0364 13.7625 76.7667 22.4835 78.6837 24.2365C84.5252 31.9064 80.4183 30.7785 84.7654 33.4215C90.1993 36.7254 91.6429 41.6796 87.3903 46.6353C83.1376 51.5912 86.5868 49.1115 92.0207 53.9021C97.4548 58.6926 90.2783 63.0854 88.6245 67.2152C86.9707 71.345 93.0703 69.1144 93.0703 77.4771C93.0703 80.6258 89.0206 83.7745 80.3139 86.0351C70.1568 88.6725 51.814 91.1215 27.5469 86.0351C24.031 85.2982 17.0859 82.2405 14.0294 79.5762C10.973 76.9119 10.0607 68.7773 15.9671 64.3171C21.8736 59.8569 18.4788 58.0319 15.1713 53.9021C11.8637 49.7722 13.3706 45.4089 19.2769 41.4443C25.1833 37.4797 18.9994 39.5337 17.5818 33.4215H17.5819Z" fill="#ECDCBF"/>
<path d="M52.9443 95.2392C75.2836 95.2392 93.3932 86.3109 93.3932 75.2973C93.3932 64.2838 75.2836 55.3555 52.9443 55.3555C30.605 55.3555 12.4954 64.2838 12.4954 75.2973C12.4954 86.3109 30.605 95.2392 52.9443 95.2392Z" fill="#ECDCBF"/>
<path d="M49.679 40.3018C38.2696 40.3018 29.0204 50.9394 29.0204 64.0614C29.0204 64.1421 29.0207 64.2228 29.0214 64.3035C29.0207 64.384 29.0204 64.4645 29.0204 64.5452C29.0204 77.6701 38.2696 93.2139 49.679 93.2139C61.0884 93.2139 70.3376 77.6701 70.3376 64.5452C70.3376 64.4645 70.3373 64.384 70.3366 64.3035C70.3373 64.2228 70.3376 64.1421 70.3376 64.0614C70.3376 50.9394 61.0884 40.3018 49.679 40.3018Z" fill="#DA9969"/>
<path d="M29.0279 63.8994C29.023 64.1138 29.0204 64.3291 29.0204 64.545C29.0204 77.67 38.2696 93.2137 49.679 93.2137C61.0884 93.2137 70.3376 77.67 70.3376 64.545C70.3376 64.3291 70.3351 64.1138 70.3301 63.8994C70.0329 76.882 60.9008 91.9188 49.679 91.9188C38.4572 91.9188 29.3253 76.882 29.0279 63.8994Z" fill="black" fill-opacity="0.19"/>
<path d="M58.59 81.832C58.59 84.5885 54.6259 82.4975 49.7357 82.4975C44.8454 82.4975 40.8811 84.5885 40.8811 81.832C40.8811 79.0754 44.8454 76.8408 49.7357 76.8408C54.6259 76.8408 58.59 79.0755 58.59 81.832Z" fill="#DE8383"/>
<path fill-rule="evenodd" clip-rule="evenodd" d="M57.4618 79.3922H42.0095C43.5258 77.8695 46.4176 76.8408 49.7357 76.8408C53.0536 76.8408 55.9453 77.8697 57.4618 79.392V79.3922Z" fill="#F9F9F9"/>
<path d="M67.7249 60.5664C67.7249 58.6431 69.284 57.084 71.2073 57.084H77.2853C79.2086 57.084 80.7677 58.6431 80.7677 60.5664V66.6608C80.7677 68.584 79.2086 70.1432 77.2853 70.1432H71.2073C69.284 70.1432 67.7249 68.584 67.7249 66.6608V60.5664Z" fill="#DA9969"/>
<path d="M69.1741 63.6136C69.1741 60.8123 71.445 58.5352 74.2463 58.5352C77.0477 58.5352 79.3187 60.8123 79.3187 63.6137C79.3187 66.415 77.0477 68.6923 74.2463 68.6923C71.445 68.6923 69.1741 66.4148 69.1741 63.6136Z" fill="black" fill-opacity="0.19"/>
<path d="M32.7767 60.5664C32.7767 58.6431 31.2176 57.084 29.2943 57.084H23.2163C21.293 57.084 19.7339 58.6431 19.7339 60.5664V66.6608C19.7339 68.584 21.293 70.1432 23.2163 70.1432H29.2943C31.2176 70.1432 32.7767 68.584 32.7767 66.6608V60.5664Z" fill="#DA9969"/>
<path d="M31.3275 63.6136C31.3275 60.8123 29.0565 58.5352 26.2553 58.5352C23.4539 58.5352 21.1829 60.8123 21.1829 63.6137C21.1829 66.415 23.4539 68.6923 26.2553 68.6923C29.0565 68.6923 31.3275 66.4148 31.3275 63.6136Z" fill="black" fill-opacity="0.19"/>
<path d="M41.1558 69.5558C42.9335 69.5558 44.3747 67.2044 44.3747 64.3038C44.3747 61.4032 42.9335 59.0518 41.1558 59.0518C39.378 59.0518 37.9368 61.4032 37.9368 64.3038C37.9368 67.2044 39.378 69.5558 41.1558 69.5558Z" fill="white"/>
<path d="M58.0813 69.5558C59.7655 69.5558 61.1308 67.2044 61.1308 64.3038C61.1308 61.4032 59.7655 59.0518 58.0813 59.0518C56.3972 59.0518 55.0319 61.4032 55.0319 64.3038C55.0319 67.2044 56.3972 69.5558 58.0813 69.5558Z" fill="white"/>
<path d="M41.8335 68.5392C43.237 68.5392 44.3747 66.6429 44.3747 64.3038C44.3747 61.9646 43.237 60.0684 41.8335 60.0684C40.43 60.0684 39.2922 61.9646 39.2922 64.3038C39.2922 66.6429 40.43 68.5392 41.8335 68.5392Z" fill="black"/>
<path d="M57.4036 68.2005C58.7136 68.2005 59.7755 66.3801 59.7755 64.1344C59.7755 61.8888 58.7136 60.0684 57.4036 60.0684C56.0937 60.0684 55.0317 61.8888 55.0317 64.1344C55.0317 66.3801 56.0937 68.2005 57.4036 68.2005Z" fill="black"/>
<path d="M36.3694 56.8649C36.6851 56.6389 38.4898 55.5127 41.1053 55.5127C43.7211 55.5127 46.1572 56.6387 45.8415 56.8649C45.8415 59.4806 45.3568 56.8649 41.2522 56.8649C36.8319 56.8649 36.3694 59.4806 36.3694 56.8649ZM53.3535 56.8649C53.6694 56.6387 55.4739 55.5127 58.0897 55.5127C60.7052 55.5127 63.1413 56.6387 62.8256 56.8649C62.8256 59.4806 62.3409 56.8649 58.2363 56.8649C53.816 56.8649 53.3535 59.4806 53.3535 56.8649Z" fill="black"/>
<path d="M39.5377 71.7714C39.5377 69.8142 37.9511 68.2275 35.9938 68.2275C34.0366 68.2275 32.45 69.8142 32.45 71.7714C32.45 73.7287 34.0366 75.3153 35.9938 75.3153C37.9511 75.3153 39.5377 73.7287 39.5377 71.7714Z" fill="#F88888"/>
<path d="M67.7902 71.7714C67.7902 69.8142 66.2035 68.2275 64.2463 68.2275C62.289 68.2275 60.7024 69.8142 60.7024 71.7714C60.7024 73.7287 62.289 75.3153 64.2463 75.3153C66.2035 75.3153 67.7902 73.7287 67.7902 71.7714Z" fill="#F88888"/>
<path d="M46.6856 69.1213C46.6671 69.2515 46.6578 69.3829 46.6578 69.5145V70.0516C46.6578 71.5742 47.8921 72.8086 49.4148 72.8086H51.0865C52.6091 72.8086 53.8434 71.5742 53.8434 70.0515V69.5142C53.8434 69.3808 53.834 69.2496 53.8157 69.1211C53.6246 70.4575 52.4756 71.4847 51.0865 71.4847H49.4148C48.0257 71.4847 46.8765 70.4576 46.6856 69.1213Z" fill="black" fill-opacity="0.19"/>
<path d="M31.7941 66.0167C28.8956 66.0167 28.2364 59.4842 28.5249 56.1035H31.7941C31.0539 57.9952 31.4076 59.6426 31.6116 61.6834C31.8491 64.0578 34.1447 62.2936 34.6298 61.3571C34.6884 63.2207 33.2023 66.0167 31.7941 66.0167Z" fill="#ECDCBF"/>
<path d="M67.876 66.0167C70.7746 66.0167 71.4337 59.4842 71.1452 56.1035H67.876C68.6163 57.9952 68.2626 59.6426 68.0585 61.6834C67.8211 64.0578 65.5255 62.2936 65.0404 61.3571C64.9818 63.2207 66.4679 66.0167 67.876 66.0167Z" fill="#ECDCBF"/>
<path d="M59.4316 47.229L54.8015 42.3408H43.5231L39.2491 48.1953L44.176 46.7174L43.5231 55.4707L47.5002 52.6855L49.4591 57.0622L52.1303 52.6855L56.0481 55.2434L54.8015 47.229H59.4316Z" fill="#ECDCBF"/>
<path d="M69.1073 48.5141C69.8847 50.396 70.4726 52.6099 70.4726 56.8245C69.1667 56.8245 65.9019 58.1304 59.491 54.6875C52.9799 51.1908 51.312 47.6237 49.7559 45.3086C48.2125 48.5141 45.3632 51.4036 41.1487 54.0346C36.9341 56.6655 31.196 56.7058 29.2766 57.0026C29.2766 54.2586 29.4594 51.3635 30.5066 48.8284C31.5528 46.2944 33.0875 43.9911 35.023 42.0496C36.9565 40.1101 39.2535 38.571 41.7825 37.5202C44.3097 36.4703 47.0193 35.9298 49.7559 35.9297C52.4925 35.9298 55.2021 36.4703 57.7293 37.5202C60.2583 38.571 62.5552 40.1101 64.4887 42.0496C66.4235 43.9899 68.0602 45.979 69.1073 48.5141Z" fill="#ECDCBF"/>
</g>
</svg>
