<svg width="100" height="100" viewBox="0 0 100 100" fill="none" xmlns="http://www.w3.org/2000/svg">
<mask id="mask0_329_2362" style="mask-type:luminance" maskUnits="userSpaceOnUse" x="0" y="0" width="100" height="100">
<path d="M100 0H0V100H100V0Z" fill="white"/>
</mask>
<g mask="url(#mask0_329_2362)">
<path d="M49.9403 8.68945L56.4465 16.5956L65.739 12.2955L68.1704 22.2417L78.4084 22.399L76.2836 32.4153L85.4394 36.9992L79.1791 45.1016L85.4394 53.2039L76.2836 57.7878L78.4084 67.8041L68.1704 67.9614L65.739 77.9076L56.4465 73.6075L49.9403 81.5137L43.4341 73.6075L34.1416 77.9076L31.7102 67.9614L21.4722 67.8041L23.597 57.7878L14.4412 53.2039L20.7015 45.1016L14.4412 36.9992L23.597 32.4153L21.4722 22.399L31.7102 22.2417L34.1416 12.2955L43.4341 16.5958L49.9403 8.68945Z" fill="#C93305"/>
<path d="M29.8369 52.4282C29.8369 49.7894 31.9759 47.6504 34.6147 47.6504H64.9066C67.5453 47.6504 69.6843 49.7894 69.6843 52.4282V91.8653C69.6843 94.5041 67.5453 96.6431 64.9066 96.6431H34.6147C31.9759 96.6431 29.8369 94.5041 29.8369 91.8653V52.4282Z" fill="#DA9969"/>
<path d="M29.8369 88.2734V91.8661C29.8369 94.5048 31.9759 96.644 34.6147 96.644H64.9066C67.5453 96.644 69.6843 94.5048 69.6843 91.8661V88.2734C69.6843 90.9122 67.5453 93.0512 64.9066 93.0512H34.6147C31.9759 93.0512 29.8369 90.9122 29.8369 88.2734Z" fill="black" fill-opacity="0.19"/>
<path fill-rule="evenodd" clip-rule="evenodd" d="M45.1091 80.3164C44.8703 80.5096 44.6221 80.71 44.3716 80.8914C44.3163 80.9315 44.2537 80.9602 44.1873 80.9761C44.1209 80.9919 44.052 80.9945 43.9846 80.9837C43.8485 80.9619 43.7266 80.887 43.6457 80.7753C43.5648 80.6637 43.5316 80.5244 43.5534 80.3883C43.5752 80.2522 43.6501 80.1303 43.7618 80.0494C43.9906 79.8836 44.2011 79.7135 44.4265 79.5312C44.5445 79.4357 44.6667 79.3369 44.798 79.2335C45.1671 78.9428 45.5762 78.6432 46.0681 78.3761C47.0636 77.8353 48.3477 77.4551 50.2886 77.4551C53.4609 77.4551 55.7474 79.2139 56.5249 80.1351C56.6138 80.2405 56.6572 80.3769 56.6456 80.5143C56.634 80.6517 56.5682 80.7788 56.4628 80.8677C56.3575 80.9567 56.2211 81.0001 56.0837 80.9884C55.9463 80.9768 55.8192 80.9111 55.7302 80.8057C55.1038 80.0635 53.0892 78.4949 50.2886 78.4949C48.4963 78.4949 47.3873 78.8427 46.5642 79.2897C46.1466 79.5165 45.7901 79.7757 45.4413 80.0504C45.3332 80.1353 45.2221 80.225 45.1091 80.3164Z" fill="black"/>
<path d="M74.2579 57.084H74.2577C70.289 57.084 67.0718 60.3012 67.0718 64.2699V64.288C67.0718 68.2567 70.289 71.474 74.2577 71.474H74.2579C78.2265 71.474 81.4438 68.2567 81.4438 64.288V64.2699C81.4438 60.3012 78.2265 57.084 74.2579 57.084Z" fill="#DA9969"/>
<path d="M79.8469 64.2717C79.8469 61.1849 77.3446 58.6826 74.2578 58.6826C71.171 58.6826 68.6687 61.1849 68.6687 64.2717V64.2858C68.6687 67.3725 71.171 69.8748 74.2578 69.8748C77.3446 69.8748 79.8469 67.3725 79.8469 64.2858V64.2717Z" fill="black" fill-opacity="0.19"/>
<path d="M73.7787 64.5947C73.7787 62.919 72.4203 61.5605 70.7446 61.5605C69.0689 61.5605 67.7104 62.919 67.7104 64.5947V64.6022C67.7104 66.2779 69.0689 67.6363 70.7446 67.6363C72.4203 67.6363 73.7787 66.2779 73.7787 64.6022V64.5947Z" fill="#DA9969"/>
<path d="M26.2438 57.084H26.244C30.2127 57.084 33.4299 60.3012 33.4299 64.2699V64.288C33.4299 68.2567 30.2127 71.474 26.244 71.474H26.2438C22.2752 71.474 19.0579 68.2567 19.0579 64.288V64.2699C19.0579 60.3012 22.2752 57.084 26.2438 57.084Z" fill="#DA9969"/>
<path d="M20.6548 64.2717C20.6548 61.1849 23.1571 58.6826 26.2439 58.6826C29.3307 58.6826 31.833 61.1849 31.833 64.2717V64.2858C31.833 67.3725 29.3307 69.8748 26.2439 69.8748C23.1571 69.8748 20.6548 67.3725 20.6548 64.2858V64.2717Z" fill="black" fill-opacity="0.19"/>
<path d="M26.723 64.5947C26.723 62.919 28.0814 61.5605 29.7571 61.5605C31.4328 61.5605 32.7913 62.919 32.7913 64.5947V64.6022C32.7913 66.2779 31.4328 67.6363 29.7571 67.6363C28.0814 67.6363 26.723 66.2779 26.723 64.6022V64.5947Z" fill="#DA9969"/>
<path d="M43.4058 56.002C42.8045 56.4747 41.8794 57.4205 40.0754 57.4205C38.5428 57.4205 37.254 56.3802 37.0227 56.002M56.2746 56.002C56.8759 56.4747 57.8008 57.4205 59.6048 57.4205C61.1374 57.4205 62.4263 56.3802 62.6575 56.002" stroke="black" stroke-width="1.14316" stroke-linecap="round"/>
<path d="M38.0024 61.0645L43.7999 63.5957L38.0024 66.9436M62.0905 61.0645L56.2931 63.5957L62.0905 66.9436" stroke="black" stroke-width="0.653236" stroke-linecap="round" stroke-linejoin="round"/>
<path d="M39.5377 71.7714C39.5377 69.8142 37.9511 68.2275 35.9938 68.2275C34.0366 68.2275 32.45 69.8142 32.45 71.7714C32.45 73.7287 34.0366 75.3153 35.9938 75.3153C37.9511 75.3153 39.5377 73.7287 39.5377 71.7714Z" fill="#FFC6C6"/>
<path d="M67.7902 71.7714C67.7902 69.8142 66.2035 68.2275 64.2463 68.2275C62.289 68.2275 60.7024 69.8142 60.7024 71.7714C60.7024 73.7287 62.289 75.3153 64.2463 75.3153C66.2035 75.3153 67.7902 73.7287 67.7902 71.7714Z" fill="#FFC6C6"/>
<path d="M48.1089 70.7118V71.1699C48.1089 71.5707 48.4337 71.8955 48.8344 71.8955C49.2351 71.8955 49.5599 71.5707 49.5599 71.1699V70.7118C49.5599 70.3111 49.2351 69.9863 48.8344 69.9863C48.4337 69.9863 48.1089 70.3111 48.1089 70.7118Z" fill="black" fill-opacity="0.19"/>
<path d="M51.0112 70.7118V71.1699C51.0112 71.5707 51.336 71.8955 51.7367 71.8955C52.1374 71.8955 52.4622 71.5707 52.4622 71.1699V70.7118C52.4622 70.3111 52.1374 69.9863 51.7367 69.9863C51.336 69.9863 51.0112 70.3111 51.0112 70.7118Z" fill="black" fill-opacity="0.19"/>
<path d="M53.8831 70.2492C53.9028 70.116 53.9131 69.9798 53.9131 69.841C53.9131 68.3183 52.6787 67.084 51.1561 67.084H49.4149C47.8922 67.084 46.658 68.3183 46.658 69.841C46.658 69.9798 46.6682 70.116 46.688 70.2492C46.8853 68.9202 48.0311 67.9005 49.4149 67.9005H51.1561C52.54 67.9005 53.6858 68.9202 53.8831 70.2492Z" fill="black" fill-opacity="0.19"/>
<path d="M34.1048 56.5781H29.2373V67.9753H34.1048V56.5781Z" fill="#C93305"/>
<path d="M65.5653 56.5781H70.4329V67.9753H65.5653V56.5781Z" fill="#C93305"/>
<path d="M41.7204 49.3118C41.2973 47.2806 44.5555 45.7995 46.3328 45.3762C48.11 44.9531 48.4485 44.9531 50.7758 44.9531C53.1031 44.9531 58.3503 45.7572 58.181 48.5501C58.0456 50.7844 55.5856 50.7225 54.3727 50.4121C54.9509 51.3571 55.9383 53.4844 55.2613 54.4322C54.5842 55.3802 53.0327 54.5733 52.3415 54.0514C52.2851 54.7003 51.7322 56.1842 49.9719 56.9291C48.2115 57.6738 47.7433 55.1234 47.7292 53.7552C46.9393 54.0232 45.131 54.2969 44.217 53.2474C43.303 52.1979 44.5978 50.9199 45.3595 50.4121C44.3862 50.8211 42.044 50.8653 41.7204 49.3118Z" fill="#C93305"/>
<path d="M69.1074 48.6332C69.8847 50.5152 70.4726 52.7291 70.4726 56.9436C69.1667 56.9436 65.9019 58.2496 59.491 54.8067C52.9799 51.31 51.312 47.7428 49.7559 45.4277C48.2126 48.6332 45.3633 51.5227 41.1487 54.1537C36.9341 56.7847 31.1366 56.6468 29.2173 56.9436C29.2173 54.1996 29.4595 51.4826 30.5066 48.9476C31.5529 46.4136 33.0875 44.1102 35.0231 42.1687C36.9566 40.2293 39.2535 38.6901 41.7825 37.6393C44.3097 36.5894 47.0193 36.0489 49.7559 36.0488C52.4925 36.0489 55.2021 36.5894 57.7293 37.6393C60.2583 38.6901 62.5553 40.2293 64.4888 42.1687C66.4236 44.109 68.0602 46.0982 69.1074 48.6332Z" fill="#C93305"/>
</g>
</svg>
