<svg width="100" height="100" viewBox="0 0 100 100" fill="none" xmlns="http://www.w3.org/2000/svg">
<mask id="mask0_329_1904" style="mask-type:luminance" maskUnits="userSpaceOnUse" x="0" y="0" width="100" height="100">
<path d="M100 0H0V100H100V0Z" fill="white"/>
</mask>
<g mask="url(#mask0_329_1904)">
<path d="M75.0493 51.7221V50.4303C75.0493 36.563 63.8076 25.3213 49.9403 25.3213C36.073 25.3213 24.8313 36.563 24.8313 50.4303V51.7221C24.8313 65.5894 36.073 76.8311 49.9403 76.8311C63.8076 76.8311 75.0493 65.5894 75.0493 51.7221Z" fill="#E8E1E1"/>
<path d="M20.7137 47.0389C21.4629 51.9301 23.2611 62.5686 28.0607 68.5148C35.6945 80.1691 69.9038 86.5344 74.7627 64.7727C81.0296 36.7047 78.0729 22.7373 59.3864 22.7373C43.8779 22.7373 36.7534 25.886 34.1159 31.0532C27.98 26.5319 19.3412 38.0772 20.7137 47.0389Z" fill="#E8E1E1"/>
<path d="M69.1945 54.3652H30.4559V81.5301H30.4584C30.4567 81.5786 30.4561 81.6272 30.4561 81.6761C30.4561 86.7576 39.1279 94.8461 49.8252 94.8461C60.5226 94.8461 69.1945 86.7576 69.1945 81.6761C69.1945 81.6272 69.1936 81.5786 69.192 81.5301H69.1945V54.3652Z" fill="#DA9969"/>
<path d="M30.4559 78.334V78.4646C30.4562 78.421 30.457 78.3774 30.4584 78.334H30.4559ZM30.4559 78.4955V81.5299H30.4584C30.4567 81.5784 30.4561 81.6273 30.4561 81.6761C30.4561 86.7576 39.1279 94.846 49.8252 94.846C60.5226 94.846 69.1945 86.7576 69.1945 81.6761C69.1945 81.6273 69.1936 81.5784 69.192 81.5299H69.1945V78.334H69.192C69.1936 78.3827 69.1945 78.4313 69.1945 78.48C69.1945 83.5615 60.5226 91.65 49.8252 91.65C39.1387 91.65 30.4734 83.578 30.4559 78.4955Z" fill="black" fill-opacity="0.19"/>
<path d="M49.679 72.4726C60.4571 72.4726 69.1944 64.7955 69.1944 55.3252C69.1944 45.8549 60.4571 38.1777 49.679 38.1777C38.9009 38.1777 30.1636 45.8549 30.1636 55.3252C30.1636 64.7955 38.9009 72.4726 49.679 72.4726Z" fill="#DA9969"/>
<path d="M41.4434 79.9169C41.4434 78.3862 42.6842 77.1455 44.2147 77.1455H54.9311C56.4616 77.1455 57.7024 78.3862 57.7024 79.9169C57.7024 81.4476 56.4616 82.6882 54.9311 82.6882H44.2147C42.6842 82.6882 41.4434 81.4476 41.4434 79.9169Z" fill="#DE8383"/>
<path fill-rule="evenodd" clip-rule="evenodd" d="M57.0689 81.4723C56.659 82.1638 55.905 82.6272 55.0429 82.6272H43.9853C43.123 82.6272 42.3692 82.1638 41.9593 81.4723C42.3692 80.781 43.1232 80.3174 43.9853 80.3174H55.0429C55.9052 80.3174 56.6589 80.781 57.0689 81.4723Z" fill="#C06E6E"/>
<path fill-rule="evenodd" clip-rule="evenodd" d="M57.7001 79.6406H41.4455C41.5043 78.162 42.7216 76.9814 44.2147 76.9814H54.9311C56.424 76.9814 57.6413 78.1622 57.7001 79.6406Z" fill="#F9F9F9"/>
<path d="M74.2577 57.084H74.2576C70.2889 57.084 67.0716 60.3012 67.0716 64.2699V64.288C67.0716 68.2567 70.2889 71.474 74.2576 71.474H74.2577C78.2264 71.474 81.4436 68.2567 81.4436 64.288V64.2699C81.4436 60.3012 78.2264 57.084 74.2577 57.084Z" fill="#DA9969"/>
<path d="M79.8466 64.2717C79.8466 61.1849 77.3443 58.6826 74.2575 58.6826C71.1708 58.6826 68.6685 61.1849 68.6685 64.2717V64.2858C68.6685 67.3725 71.1708 69.8748 74.2575 69.8748C77.3443 69.8748 79.8466 67.3725 79.8466 64.2858V64.2717Z" fill="black" fill-opacity="0.19"/>
<path d="M73.7786 64.5947C73.7786 62.919 72.4201 61.5605 70.7444 61.5605C69.0687 61.5605 67.7103 62.919 67.7103 64.5947V64.6022C67.7103 66.2779 69.0687 67.6363 70.7444 67.6363C72.4201 67.6363 73.7786 66.2779 73.7786 64.6022V64.5947Z" fill="#DA9969"/>
<path d="M26.2438 57.084H26.244C30.2127 57.084 33.4299 60.3012 33.4299 64.2699V64.288C33.4299 68.2567 30.2127 71.474 26.244 71.474H26.2438C22.2752 71.474 19.0579 68.2567 19.0579 64.288V64.2699C19.0579 60.3012 22.2752 57.084 26.2438 57.084Z" fill="#DA9969"/>
<path d="M20.6549 64.2717C20.6549 61.1849 23.1572 58.6826 26.244 58.6826C29.3308 58.6826 31.8331 61.1849 31.8331 64.2717V64.2858C31.8331 67.3725 29.3308 69.8748 26.244 69.8748C23.1572 69.8748 20.6549 67.3725 20.6549 64.2858V64.2717Z" fill="black" fill-opacity="0.19"/>
<path d="M26.723 64.5947C26.723 62.919 28.0814 61.5605 29.7571 61.5605C31.4328 61.5605 32.7912 62.919 32.7912 64.5947V64.6022C32.7912 66.2779 31.4328 67.6363 29.7571 67.6363C28.0814 67.6363 26.723 66.2779 26.723 64.6022V64.5947Z" fill="#DA9969"/>
<path d="M59.0983 65.9821C60.1404 65.9821 60.9853 65.1372 60.9853 64.095C60.9853 63.0529 60.1404 62.208 59.0983 62.208C58.0561 62.208 57.2112 63.0529 57.2112 64.095C57.2112 65.1372 58.0561 65.9821 59.0983 65.9821Z" fill="#161616"/>
<path d="M40.6443 65.9821C41.6865 65.9821 42.5314 65.1372 42.5314 64.095C42.5314 63.0529 41.6865 62.208 40.6443 62.208C39.6021 62.208 38.7573 63.0529 38.7573 64.095C38.7573 65.1372 39.6021 65.9821 40.6443 65.9821Z" fill="#161616"/>
<path d="M54.9866 60.1249C55.6977 59.6217 56.7917 58.6152 58.9248 58.6152C60.7374 58.6152 62.2615 59.7225 62.5349 60.1249M36.5327 60.1249C37.2437 59.6217 38.3377 58.6152 40.4709 58.6152C42.2835 58.6152 43.8076 59.7225 44.081 60.1249" stroke="black" stroke-width="0.754815" stroke-linecap="round"/>
<path d="M56.4564 62.208C56.6001 62.6106 57.1034 63.4761 57.966 63.7176M38.0025 62.208C38.1462 62.6106 38.6495 63.4761 39.5121 63.7176" stroke="black" stroke-width="0.754815" stroke-linecap="round" stroke-linejoin="round"/>
<path d="M36.4608 68.2266H34.3608C32.4035 68.2266 30.8168 69.8132 30.8168 71.7705C30.8168 73.7277 32.4035 75.3143 34.3608 75.3143H36.4608C38.4181 75.3143 40.0048 73.7277 40.0048 71.7705C40.0048 69.8132 38.4181 68.2266 36.4608 68.2266Z" fill="#FFC6C6"/>
<path d="M65.8564 68.2266H63.7564C61.7992 68.2266 60.2125 69.8132 60.2125 71.7705C60.2125 73.7277 61.7992 75.3143 63.7564 75.3143H65.8564C67.8137 75.3143 69.4004 73.7277 69.4004 71.7705C69.4004 69.8132 67.8137 68.2266 65.8564 68.2266Z" fill="#FFC6C6"/>
<path d="M50.2389 68.0635C49.6439 68.1909 48.4542 68.7134 48.4542 69.7843C48.4542 71.1227 49.6439 71.5052 50.2389 71.6963" stroke="black" stroke-opacity="0.5" stroke-width="0.653236" stroke-linecap="round" stroke-linejoin="round"/>
<path d="M30.0763 59.4048C29.9761 57.0806 29.6955 55.9029 31.7253 55.6279C34.056 56.0528 33.4007 58.3051 33.1499 59.4048C32.8994 60.5044 34.2866 61.6541 34.036 64.0782C33.7853 66.5025 31.0639 67.6392 29.7665 65.6004C28.1044 62.9886 30.1766 61.729 30.0764 59.4048H30.0763Z" fill="#E8E1E1"/>
<path d="M69.5939 59.4048C69.6941 57.0806 69.9747 55.9029 67.9449 55.6279C65.6142 56.0528 66.2695 58.3051 66.5202 59.4048C66.7707 60.5044 65.3836 61.6541 65.6342 64.0782C65.8849 66.5025 68.6063 67.6392 69.9037 65.6004C71.5657 62.9886 69.4936 61.729 69.5938 59.4048H69.5939Z" fill="#E8E1E1"/>
<path d="M57.4727 56.4091C57.4728 55.4191 57.2778 54.4388 56.8988 53.5242C56.52 52.6095 55.9647 51.7784 55.2646 51.0784C54.5647 50.3783 53.7336 43.8277 52.8189 43.4489C51.9043 43.07 50.924 42.875 49.934 42.875C48.944 42.875 47.9637 43.07 47.0491 43.4489C46.1343 43.8276 45.3033 50.3783 44.6033 51.0784C43.9032 51.7784 43.3479 52.6095 42.9691 53.5242C42.5902 54.4388 42.3952 55.4191 42.3952 56.4091H57.4727Z" fill="#E8E1E1"/>
<path d="M69.1073 48.7514C69.8847 50.6333 70.4726 52.8472 70.4726 57.0618C69.1667 57.0618 65.9019 58.3677 59.491 54.9248C52.9799 51.4282 51.312 47.861 49.7559 45.5459C48.2125 48.7514 45.3632 51.6409 41.1487 54.2719C36.9341 56.9028 31.1366 56.765 29.2173 57.0618C29.2173 54.3178 29.4594 51.6008 30.5066 49.0657C31.5528 46.5318 33.0875 44.2284 35.023 42.2869C36.9565 40.3474 39.2535 38.8083 41.7825 37.7575C44.3097 36.7076 47.0193 36.1671 49.7559 36.167C52.4925 36.1671 55.2021 36.7076 57.7293 37.7575C60.2583 38.8083 62.5552 40.3474 64.4887 42.2869C66.4235 44.2272 68.0602 46.2163 69.1073 48.7514Z" fill="#E8E1E1"/>
</g>
</svg>
