<svg width="100" height="100" viewBox="0 0 100 100" fill="none" xmlns="http://www.w3.org/2000/svg">
<mask id="mask0_329_1500" style="mask-type:luminance" maskUnits="userSpaceOnUse" x="0" y="0" width="100" height="100">
<path d="M100 0H0V100H100V0Z" fill="white"/>
</mask>
<g mask="url(#mask0_329_1500)">
<path d="M12.2897 58.5376C13.5254 66.9744 24.1473 75.9072 39.798 72.3215C44.7405 69.3687 55.8608 69.5796 62.2448 70.845C68.6287 72.1106 76.0629 76.1794 87.5951 68.5863C99.1273 60.9931 94.2001 42.5719 83.2281 34.2626C76.0383 28.8179 71.7246 15.4893 52.2326 15.4893C34.0719 15.4893 28.9592 27.7402 21.5033 34.2626C13.877 40.9341 11.0541 50.1006 12.2897 58.5376Z" fill="#F59797"/>
<path d="M49.7623 40.6279C66.6145 41.1236 68.0825 56.5968 68.3734 63.2124C68.4643 65.2824 68.9165 67.1067 69.3642 68.9126C69.8935 71.0485 70.4165 73.1584 70.3277 75.6184C70.4123 78.0071 69.9682 80.6945 68.3734 84.0675C66.2925 88.4683 57.8577 93.2102 49.7623 93.2135C41.2438 93.2171 33.0493 88.2278 30.8758 82.5814C29.3789 78.6927 28.9507 75.7851 29.0293 73.3654C28.9412 70.6285 29.5228 68.5265 30.0934 66.4638C30.3885 65.397 30.6807 64.3406 30.8758 63.2124C30.995 62.5229 31.0901 61.6703 31.1979 60.7038C31.9812 53.6749 33.4354 40.6279 49.7623 40.6279Z" fill="#F8B788"/>
<path d="M29.0961 72.3184C28.8472 74.9434 29.1568 78.1155 30.8758 82.5814C33.0495 88.2279 41.2438 93.217 49.7624 93.2136C57.8578 93.2102 66.2925 88.4685 68.3734 84.0676C70.2813 80.0323 70.5425 76.9784 70.2216 74.243C70.0271 76.0862 69.4748 78.1369 68.3415 80.5336C66.2608 84.9345 57.8259 89.6763 49.7305 89.6796C41.2122 89.6832 33.0175 84.6939 30.8441 79.0473C29.8257 76.4022 29.3022 74.2108 29.0961 72.3184Z" fill="black" fill-opacity="0.19"/>
<path d="M54.976 78.9275C54.976 81.7225 52.7102 83.9884 49.915 83.9884C47.1202 83.9884 44.8542 81.7225 44.8542 78.9275C44.8542 76.1324 47.1202 78.2527 49.9152 78.2527C52.7102 78.2527 54.976 76.1324 54.976 78.9275Z" fill="#DE8383"/>
<path fill-rule="evenodd" clip-rule="evenodd" d="M54.7487 80.4319H45.0816C44.9304 79.9448 44.8538 79.4376 44.8543 78.9275C44.8543 77.1012 45.8215 77.3735 47.2719 77.7816C48.0411 77.998 48.9464 78.2527 49.9152 78.2527C50.8839 78.2527 51.7892 77.998 52.5585 77.7816C54.0087 77.3733 54.976 77.1012 54.976 78.9275C54.9765 79.4376 54.8998 79.9448 54.7487 80.4319Z" fill="#F9F9F9"/>
<path d="M74.7476 56.7578H74.7474C70.7788 56.7578 67.5615 59.9751 67.5615 63.9437V63.9619C67.5615 67.9305 70.7788 71.1478 74.7474 71.1478H74.7476C78.7163 71.1478 81.9335 67.9305 81.9335 63.9619V63.9437C81.9335 59.9751 78.7163 56.7578 74.7476 56.7578Z" fill="#F8B788"/>
<path d="M71.579 62.8816C71.9873 61.9018 74.5185 57.6633 77.2131 60.0742C79.2821 61.9253 74.7635 65.4944 74.5185 63.698C74.2736 61.9016 79.9894 61.9833 78.3563 66.311C77.6475 68.1892 73.947 68.3525 71.579 66.0662" stroke="black" stroke-opacity="0.19" stroke-width="0.653236" stroke-linecap="round" stroke-linejoin="round"/>
<path d="M25.754 56.7578H25.7541C29.7228 56.7578 32.9401 59.9751 32.9401 63.9437V63.9619C32.9401 67.9305 29.7228 71.1478 25.7541 71.1478H25.754C21.7853 71.1478 18.568 67.9305 18.568 63.9619V63.9437C18.568 59.9751 21.7853 56.7578 25.754 56.7578Z" fill="#F8B788"/>
<path d="M28.9226 62.8816C28.5143 61.9018 25.983 57.6633 23.2884 60.0742C21.2195 61.9253 25.7381 65.4944 25.983 63.698C26.228 61.9016 20.5122 61.9833 22.1453 66.311C22.854 68.1892 26.5546 68.3525 28.9226 66.0662" stroke="black" stroke-opacity="0.19" stroke-width="0.653236" stroke-linecap="round" stroke-linejoin="round"/>
<path d="M38.4924 57.5414C39.0754 57.083 39.9725 56.166 41.7217 56.166C43.2078 56.166 44.4575 57.1746 44.6817 57.5414M55.4766 57.5414C56.0596 57.083 56.9566 56.166 58.7059 56.166C60.192 56.166 61.4416 57.1746 61.6658 57.5414" stroke="black" stroke-width="0.600324" stroke-linecap="round"/>
<path d="M43.4205 59.0205H40.0338C38.7316 59.0205 37.6759 60.0762 37.6759 61.3784V66.5656C37.6759 67.8678 38.7316 68.9234 40.0338 68.9234H43.4205C44.7227 68.9234 45.7783 67.8678 45.7783 66.5656V61.3784C45.7783 60.0762 44.7227 59.0205 43.4205 59.0205Z" fill="white"/>
<path d="M60.0752 59.0205H56.6885C55.3863 59.0205 54.3307 60.0762 54.3307 61.3784V66.5656C54.3307 67.8678 55.3863 68.9234 56.6885 68.9234H60.0752C61.3775 68.9234 62.4331 67.8678 62.4331 66.5656V61.3784C62.4331 60.0762 61.3775 59.0205 60.0752 59.0205Z" fill="white"/>
<path d="M42.8561 60.3701H41.0483C40.1802 60.3701 39.4764 61.0739 39.4764 61.942V66.4506C39.4764 67.3187 40.1802 68.0225 41.0483 68.0225H42.8561C43.7242 68.0225 44.428 67.3187 44.428 66.4506V61.942C44.428 61.0739 43.7242 60.3701 42.8561 60.3701Z" fill="#757575"/>
<path d="M59.061 60.3701H57.2531C56.385 60.3701 55.6813 61.0739 55.6813 61.942V66.4506C55.6813 67.3187 56.385 68.0225 57.2531 68.0225H59.061C59.9291 68.0225 60.6328 67.3187 60.6328 66.4506V61.942C60.6328 61.0739 59.9291 60.3701 59.061 60.3701Z" fill="#757575"/>
<path d="M36.5098 72.9466C36.5098 72.3666 36.0397 71.8965 35.4597 71.8965C34.8798 71.8965 34.4097 72.3666 34.4097 72.9466C34.4097 73.5265 34.8798 73.9966 35.4597 73.9966C36.0397 73.9966 36.5098 73.5265 36.5098 72.9466Z" fill="black" fill-opacity="0.19"/>
<path d="M40.4476 70.5843C40.4476 70.0043 39.9774 69.5342 39.3975 69.5342C38.8175 69.5342 38.3474 70.0043 38.3474 70.5843V70.8467C38.3474 71.4266 38.8175 71.8968 39.3975 71.8968C39.9774 71.8968 40.4476 71.4266 40.4476 70.8467V70.5843Z" fill="black" fill-opacity="0.19"/>
<path d="M43.5976 72.9466C43.5976 72.3666 43.1275 71.8965 42.5475 71.8965C41.9676 71.8965 41.4974 72.3666 41.4974 72.9466C41.4974 73.5265 41.9676 73.9966 42.5475 73.9966C43.1275 73.9966 43.5976 73.5265 43.5976 72.9466Z" fill="black" fill-opacity="0.19"/>
<path d="M58.2984 72.9466C58.2984 72.3666 57.8283 71.8965 57.2483 71.8965C56.6684 71.8965 56.1982 72.3666 56.1982 72.9466C56.1982 73.5265 56.6684 73.9966 57.2483 73.9966C57.8283 73.9966 58.2984 73.5265 58.2984 72.9466Z" fill="black" fill-opacity="0.19"/>
<path d="M62.2361 70.5843C62.2361 70.0043 61.766 69.5342 61.1861 69.5342C60.6061 69.5342 60.136 70.0043 60.136 70.5843V70.8467C60.136 71.4266 60.6061 71.8968 61.1861 71.8968C61.766 71.8968 62.2361 71.4266 62.2361 70.8467V70.5843Z" fill="black" fill-opacity="0.19"/>
<path d="M65.3863 72.9466C65.3863 72.3666 64.9162 71.8965 64.3362 71.8965C63.7563 71.8965 63.2861 72.3666 63.2861 72.9466C63.2861 73.5265 63.7563 73.9966 64.3362 73.9966C64.9162 73.9966 65.3863 73.5265 65.3863 72.9466Z" fill="black" fill-opacity="0.19"/>
<path d="M49.3301 67.084C48.1719 68.6292 47.3637 72.2256 48.0584 72.5627C48.7533 72.8999 49.7643 72.5627 50.85 72.5627" stroke="black" stroke-opacity="0.5" stroke-width="0.653236" stroke-linecap="round" stroke-linejoin="round"/>
<path d="M30.0763 59.4058C29.9761 57.0816 29.6956 55.9039 31.7254 55.6289C34.0561 56.0538 33.4007 58.3061 33.15 59.4058C32.8995 60.5053 34.2866 61.655 34.036 64.0792C33.7854 66.5035 31.064 67.6402 29.7666 65.6014C28.1045 62.9896 30.1767 61.73 30.0765 59.4058H30.0763Z" fill="#F59797"/>
<path d="M69.594 59.4058C69.6942 57.0816 69.9747 55.9039 67.9449 55.6289C65.6142 56.0538 66.2695 58.3061 66.5203 59.4058C66.7708 60.5053 65.3837 61.655 65.6343 64.0792C65.8849 66.5035 68.6063 67.6402 69.9037 65.6014C71.5658 62.9896 69.4936 61.73 69.5938 59.4058H69.594Z" fill="#F59797"/>
<path d="M69.1074 48.8705C69.8847 50.7525 70.4726 52.9664 70.4726 57.1809C69.1667 57.1809 65.9019 58.4869 59.491 55.044C52.9799 51.5473 51.312 47.9801 49.7559 45.665C48.2126 48.8705 45.3633 51.76 41.1487 54.391C36.9341 57.022 31.1366 56.8841 29.2173 57.1809C29.2173 54.4369 29.4595 51.7199 30.5066 49.1849C31.5529 46.6509 33.0875 44.3475 35.0231 42.4061C36.9566 40.4666 39.2535 38.9274 41.7825 37.8766C44.3097 36.8267 47.0193 36.2862 49.7559 36.2861C52.4925 36.2862 55.2021 36.8267 57.7293 37.8766C60.2583 38.9274 62.5553 40.4666 64.4888 42.4061C66.4236 44.3463 68.0602 46.3355 69.1074 48.8705Z" fill="#F59797"/>
</g>
</svg>
