<svg width="100" height="100" viewBox="0 0 100 100" fill="none" xmlns="http://www.w3.org/2000/svg">
<mask id="mask0_329_1811" style="mask-type:luminance" maskUnits="userSpaceOnUse" x="0" y="0" width="100" height="100">
<path d="M100 0H0V100H100V0Z" fill="white"/>
</mask>
<g mask="url(#mask0_329_1811)">
<path d="M82.7523 48.4974C82.2603 37.2621 79.7783 10.9843 51.2824 10.1426C19.8787 10.1426 21.0152 38.8117 19.3467 48.4974C17.8676 57.0837 13.9138 55.7121 20.1654 71.9866C23.8406 81.5541 36.8783 74.2655 51.2824 74.2595C64.971 74.2539 78.3222 78.1462 82.7523 68.7573C87.1825 59.3685 83.2442 59.7326 82.7523 48.4974Z" fill="#C93305"/>
<path d="M13.7888 66.5728C13.1374 60.7669 17.0144 56.5174 19.0344 55.1184L81.4564 51.6406C82.2402 51.7281 84.8207 55.2956 86.7775 62.2009C90.3953 74.9668 85.5114 76.9778 86.7775 79.3387C87.7906 81.2273 92.6866 80.1255 95.008 79.3387C94.5257 80.8833 92.2043 84.3401 86.7775 85.8091C81.3509 87.278 74.5072 82.9818 71.7638 80.6502C71.3115 81.1457 71.0764 83.0111 73.7536 86.5086C76.4307 90.0061 74.8691 95.0774 73.7536 97.1759C73.8741 96.0392 72.6863 93.2588 66.9702 91.2302C61.4349 89.2659 59.4155 85.5239 58.2256 82.4572C58.1094 82.7718 57.588 83.6087 57.383 87.4703C57.0937 92.9265 49.3034 94.7567 45.4444 94.9899C46.7407 93.5909 49.0079 89.7961 47.7055 85.8091C46.4031 81.8218 44.9921 80.7085 44.4496 80.6502C43.0024 81.7577 40.2529 85.1969 40.8318 90.0934C41.4105 94.9899 34.6212 95.9226 31.1541 95.7769C31.9078 95.5145 33.4153 94.3605 33.4153 91.8422C33.4153 88.6944 30.7019 90.4432 27.0841 86.5086C25.12 84.3723 25.2663 81.6051 25.9403 79.4642C24.5907 81.2412 21.9026 83.1977 17.0447 83.9728C9.59212 85.162 7.24657 80.6211 7.00533 78.2019C7.8797 78.6683 10.2795 79.3212 12.8844 78.2019C16.1403 76.8029 14.6029 73.83 13.7888 66.5728Z" fill="#C93305"/>
<path d="M69.1945 54.3652H30.4559V81.5301H30.4584C30.4567 81.5786 30.4561 81.6272 30.4561 81.6761C30.4561 86.7576 39.1279 94.8461 49.8252 94.8461C60.5226 94.8461 69.1945 86.7576 69.1945 81.6761C69.1945 81.6272 69.1936 81.5786 69.192 81.5301H69.1945V54.3652Z" fill="#A66637"/>
<path d="M30.4559 78.334V78.4646C30.4562 78.421 30.457 78.3774 30.4584 78.334H30.4559ZM30.4559 78.4955V81.5299H30.4584C30.4567 81.5784 30.4561 81.6273 30.4561 81.6761C30.4561 86.7576 39.1279 94.846 49.8252 94.846C60.5226 94.846 69.1945 86.7576 69.1945 81.6761C69.1945 81.6273 69.1936 81.5784 69.192 81.5299H69.1945V78.334H69.192C69.1936 78.3827 69.1945 78.4313 69.1945 78.48C69.1945 83.5615 60.5226 91.65 49.8252 91.65C39.1387 91.65 30.4734 83.578 30.4559 78.4955Z" fill="black" fill-opacity="0.19"/>
<path d="M49.679 72.4726C60.4571 72.4726 69.1945 64.7955 69.1945 55.3252C69.1945 45.8549 60.4571 38.1777 49.679 38.1777C38.9009 38.1777 30.1636 45.8549 30.1636 55.3252C30.1636 64.7955 38.9009 72.4726 49.679 72.4726Z" fill="#A66637"/>
<path d="M58.7065 81.535C58.7065 84.2915 54.7421 82.2005 49.852 82.2005C44.9619 82.2005 40.9977 84.2915 40.9977 81.535C40.9977 78.7783 44.9619 76.5439 49.852 76.5439C54.7423 76.5439 58.7065 78.7785 58.7065 81.535Z" fill="#DE8383"/>
<path fill-rule="evenodd" clip-rule="evenodd" d="M41.4992 82.6982C42.7129 80.7578 45.9945 79.3672 49.852 79.3672C53.7097 79.3672 56.9912 80.7578 58.2049 82.6982C57.5244 83.1489 56.1941 82.9378 54.4766 82.6654C53.1308 82.4519 51.547 82.2006 49.852 82.2006C48.1572 82.2006 46.5734 82.4519 45.2274 82.6654C43.5101 82.9378 42.1797 83.1488 41.4992 82.6982Z" fill="#C06E6E"/>
<path fill-rule="evenodd" clip-rule="evenodd" d="M57.5581 79.0751H42.1461C43.6678 77.5636 46.5487 76.5439 49.852 76.5439C53.1554 76.5439 56.0362 77.5636 57.5581 79.0751Z" fill="#F9F9F9"/>
<path d="M81.7882 63.7887C81.7882 59.8151 78.5669 56.5938 74.5932 56.5938C70.6196 56.5938 67.3983 59.8151 67.3983 63.7887C67.3983 67.7624 70.6196 70.9837 74.5932 70.9837C78.5669 70.9837 81.7882 67.7624 81.7882 63.7887Z" fill="#A66637"/>
<path d="M76.7069 59.7783L70.3378 64.5143L77.4418 67.6988" stroke="black" stroke-opacity="0.19" stroke-width="0.816545" stroke-linecap="round" stroke-linejoin="round"/>
<path d="M18.7134 63.7887C18.7134 59.8151 21.9347 56.5938 25.9083 56.5938C29.882 56.5938 33.1033 59.8151 33.1033 63.7887C33.1033 67.7624 29.882 70.9837 25.9083 70.9837C21.9347 70.9837 18.7134 67.7624 18.7134 63.7887Z" fill="#A66637"/>
<path d="M23.7947 59.7783L30.1638 64.5143L23.0598 67.6988" stroke="black" stroke-opacity="0.19" stroke-width="0.816545" stroke-linecap="round" stroke-linejoin="round"/>
<path d="M58.1184 64.1852C59.1606 64.1852 60.0054 63.3404 60.0054 62.2982C60.0054 61.256 59.1606 60.4111 58.1184 60.4111C57.0762 60.4111 56.2314 61.256 56.2314 62.2982C56.2314 63.3404 57.0762 64.1852 58.1184 64.1852Z" fill="#161616"/>
<path d="M41.7875 64.1852C42.8297 64.1852 43.6745 63.3404 43.6745 62.2982C43.6745 61.256 42.8297 60.4111 41.7875 60.4111C40.7453 60.4111 39.9005 61.256 39.9005 62.2982C39.9005 63.3404 40.7453 64.1852 41.7875 64.1852Z" fill="#161616"/>
<path d="M55.4765 60.4111C55.6203 60.8137 56.1236 61.6792 56.9862 61.9208M39.1456 60.4111C39.2893 60.8137 39.7927 61.6792 40.6553 61.9208" stroke="black" stroke-width="0.754815" stroke-linecap="round" stroke-linejoin="round"/>
<path d="M50.7977 67.084C50.688 67.959 50.304 69.742 49.6456 69.8733C48.8228 70.0373 47.8353 68.5606 47.5062 69.5451C47.177 70.5295 49.4811 72.9905 51.1268 72.4983" stroke="black" stroke-opacity="0.5" stroke-width="0.608816" stroke-linecap="round" stroke-linejoin="round"/>
<path d="M29.1186 66.7881V56.5781H32.9176L32.4835 65.7019L29.1186 66.7881Z" fill="#C93305"/>
<path d="M70.5517 66.7881V56.5781H66.7526L67.1868 65.7019L70.5517 66.7881Z" fill="#C93305"/>
<path d="M69.1074 48.5141C69.8847 50.396 70.4726 52.6099 70.4726 56.8245C69.1667 56.8245 61.7276 57.5368 56.8792 55.6373C52.0307 53.7378 51.312 52.2537 49.7559 49.9387C48.2126 53.1442 45.3633 54.4501 41.03 55.6373C36.6967 56.8245 31.1366 56.5277 29.2173 56.8245C29.2173 54.0805 29.4595 51.3635 30.5066 48.8284C31.5529 46.2944 33.0875 43.9911 35.0231 42.0496C36.9566 40.1101 39.2535 38.571 41.7825 37.5202C44.3097 36.4703 47.0193 35.9298 49.7559 35.9297C52.4925 35.9298 55.2021 36.4703 57.7293 37.5202C60.2583 38.571 62.5553 40.1101 64.4888 42.0496C66.4236 43.9899 68.0602 45.979 69.1074 48.5141Z" fill="#C93305"/>
</g>
</svg>
