<svg width="100" height="100" viewBox="0 0 100 100" fill="none" xmlns="http://www.w3.org/2000/svg">
<mask id="mask0_329_1978" style="mask-type:luminance" maskUnits="userSpaceOnUse" x="0" y="0" width="100" height="100">
<path d="M100 0H0V100H100V0Z" fill="white"/>
</mask>
<g mask="url(#mask0_329_1978)">
<path d="M51.8284 14.4912H50.1851C33.8285 14.4912 20.569 29.68 20.569 48.4162C20.569 67.1525 33.8287 69.3112 50.1851 69.3112H51.8284C68.1849 69.3112 81.4444 67.1525 81.4444 48.4163C81.4444 29.68 68.1848 14.4912 51.8284 14.4912Z" fill="#724133"/>
<path d="M26.6243 12.473C37.346 11.4395 41.8027 22.1613 42.6908 27.6514C44.3593 31.1231 46.6953 44.606 42.6908 70.7646C37.6851 103.463 6.5209 89.2533 9.75035 87.4771C12.9798 85.7009 18.8736 73.8326 12.8183 54.2944C6.76311 34.7562 13.222 13.7648 26.6243 12.473Z" fill="#724133"/>
<path d="M49.7623 40.6279C66.6145 41.1236 68.0825 56.5968 68.3733 63.2124C68.4643 65.2824 68.9165 67.1067 69.3641 68.9126C69.8934 71.0485 70.4165 73.1584 70.3276 75.6184C70.4122 78.0071 69.9682 80.6945 68.3733 84.0675C66.2924 88.4683 57.8577 93.2102 49.7623 93.2135C41.2438 93.2171 33.0492 88.2278 30.8757 82.5814C29.3789 78.6927 28.9507 75.7851 29.0292 73.3654C28.9412 70.6285 29.5227 68.5265 30.0933 66.4638C30.3884 65.397 30.6806 64.3406 30.8757 63.2124C30.995 62.5229 31.09 61.6703 31.1978 60.7038C31.9812 53.6749 33.4353 40.6279 49.7623 40.6279Z" fill="#C07F50"/>
<path d="M29.096 72.3184C28.8471 74.9434 29.1568 78.1155 30.8758 82.5814C33.0494 88.2279 41.2438 93.217 49.7623 93.2136C57.8577 93.2102 66.2924 88.4685 68.3733 84.0676C70.2813 80.0323 70.5424 76.9784 70.2215 74.243C70.027 76.0862 69.4747 78.1369 68.3415 80.5336C66.2608 84.9345 57.8259 89.6763 49.7305 89.6796C41.2121 89.6832 33.0174 84.6939 30.8441 79.0473C29.8257 76.4022 29.3021 74.2108 29.096 72.3184Z" fill="black" fill-opacity="0.19"/>
<path d="M54.8875 81.7807C54.8875 84.5759 52.6215 82.4555 49.8265 82.4555C47.0315 82.4555 44.7656 84.5757 44.7656 81.7807C44.7656 78.9856 47.0315 76.7197 49.8265 76.7197C52.6215 76.7197 54.8875 78.9856 54.8875 81.7807Z" fill="#F9F9F9"/>
<path d="M81.6249 64.1159C81.6249 60.1422 78.4036 56.9209 74.4299 56.9209C70.4562 56.9209 67.2349 60.1422 67.2349 64.1159C67.2349 68.0896 70.4562 71.3109 74.4299 71.3109C78.4036 71.3109 81.6249 68.0896 81.6249 64.1159Z" fill="#C07F50"/>
<path d="M78.0133 60.5137L70.7461 67.291" stroke="black" stroke-opacity="0.19" stroke-width="0.816545" stroke-linecap="round" stroke-linejoin="round"/>
<path d="M18.8767 64.1159C18.8767 60.1422 22.098 56.9209 26.0717 56.9209C30.0454 56.9209 33.2667 60.1422 33.2667 64.1159C33.2667 68.0896 30.0454 71.3109 26.0717 71.3109C22.098 71.3109 18.8767 68.0896 18.8767 64.1159Z" fill="#C07F50"/>
<path d="M22.4882 60.5137L29.7555 67.291" stroke="black" stroke-opacity="0.19" stroke-width="0.816545" stroke-linecap="round" stroke-linejoin="round"/>
<path d="M34.4097 59.8611C35.5316 59.5001 37.2576 58.7783 40.6233 58.7783C43.483 58.7783 45.8877 59.5723 46.3191 59.8611M52.8636 59.8611C53.9855 59.5001 55.7115 58.7783 59.0772 58.7783C61.9369 58.7783 64.3416 59.5723 64.7731 59.8611" stroke="black" stroke-width="0.600324" stroke-linecap="round"/>
<path d="M45.7778 64.4621C45.7778 64.4621 41.8468 66.3568 39.9911 66.3568C38.1352 66.3568 34.9509 64.4621 34.9509 64.4621C34.9509 64.4621 38.5087 62.5674 40.3646 62.5674C42.2204 62.5674 45.7779 64.4621 45.7779 64.4621H45.7778ZM64.2319 64.4621C64.2319 64.4621 60.3008 66.3568 58.4452 66.3568C56.5893 66.3568 53.405 64.4621 53.405 64.4621C53.405 64.4621 56.9628 62.5674 58.8185 62.5674C60.6742 62.5674 64.2319 64.4621 64.2319 64.4621Z" fill="white"/>
<path d="M40.635 66.3568C41.6814 66.3568 42.5297 65.5085 42.5297 64.4621C42.5297 63.4157 41.6814 62.5674 40.635 62.5674C39.5886 62.5674 38.7403 63.4157 38.7403 64.4621C38.7403 65.5085 39.5886 66.3568 40.635 66.3568Z" fill="black"/>
<path d="M58.5477 66.3568C59.5941 66.3568 60.4424 65.5085 60.4424 64.4621C60.4424 63.4157 59.5941 62.5674 58.5477 62.5674C57.5013 62.5674 56.653 63.4157 56.653 64.4621C56.653 65.5085 57.5013 66.3568 58.5477 66.3568Z" fill="black"/>
<path d="M46.9242 69.7529C47.1473 70.3938 47.7569 70.8536 48.4738 70.8536C48.5217 70.8536 48.569 70.8515 48.6159 70.8476C48.8034 71.5472 49.4417 72.0624 50.2006 72.0624C50.9594 72.0624 51.5978 71.5472 51.7852 70.8474C51.8321 70.8515 51.8795 70.8536 51.9273 70.8536C52.6442 70.8536 53.2537 70.3938 53.477 69.7529C53.5373 69.9264 53.568 70.1088 53.5678 70.2925C53.5678 71.1985 52.8333 71.9329 51.9273 71.9329C51.8795 71.9329 51.8321 71.931 51.7852 71.9269C51.5978 72.6265 50.9594 73.1419 50.2006 73.1419C49.4417 73.1419 48.8034 72.6265 48.6159 71.9269C48.569 71.931 48.5217 71.9329 48.4738 71.9329C47.5678 71.9329 46.8334 71.1985 46.8334 70.2925C46.8334 70.1036 46.8654 69.9218 46.9242 69.7529Z" fill="black" fill-opacity="0.19"/>
<path d="M31.0181 55.6289H30.6619C29.4162 55.6289 28.4062 56.6389 28.4062 57.8846V64.0581C28.4062 65.3038 29.4162 66.3137 30.6619 66.3137H31.0181C32.2638 66.3137 33.2738 65.3038 33.2738 64.0581V57.8846C33.2738 56.6389 32.2638 55.6289 31.0181 55.6289Z" fill="#724133"/>
<path d="M68.6521 55.6289H69.0083C70.254 55.6289 71.264 56.6389 71.264 57.8846V64.0581C71.264 65.3038 70.254 66.3137 69.0083 66.3137H68.6521C67.4064 66.3137 66.3964 65.3038 66.3964 64.0581V57.8846C66.3964 56.6389 67.4064 55.6289 68.6521 55.6289Z" fill="#724133"/>
<path d="M72.0754 57.2406C72.0753 51.3998 69.755 45.7983 65.6251 41.6682C62.5452 38.5882 58.6211 36.4907 54.3492 35.6409C50.0772 34.7912 45.6491 35.2273 41.625 36.8943C37.6009 38.5611 34.1614 41.3838 31.7415 45.0054C29.3216 48.627 28.03 52.8849 28.0301 57.2406H72.0754Z" fill="#724133"/>
</g>
</svg>
