<svg width="100" height="100" viewBox="0 0 100 100" fill="none" xmlns="http://www.w3.org/2000/svg">
<mask id="mask0_329_2095" style="mask-type:luminance" maskUnits="userSpaceOnUse" x="0" y="0" width="100" height="100">
<path d="M100 0H0V100H100V0Z" fill="white"/>
</mask>
<g mask="url(#mask0_329_2095)">
<path d="M75.0493 56.3244V55.0326C75.0493 49.3403 73.1552 42.7439 69.9629 36.9446C65.378 28.6155 58.1154 21.9307 49.9402 21.9307C41.3455 21.9307 33.7594 29.3193 29.233 38.2394C26.4563 43.7116 24.8312 49.76 24.8312 55.0326V56.3244C24.8312 70.1916 36.073 81.4334 49.9402 81.4334C63.8075 81.4334 75.0493 70.1916 75.0493 56.3244Z" fill="#724133"/>
<path d="M66.4407 48.7439C60.6957 40.5833 46.5929 38.4064 38.2119 43.7526C29.8309 49.0989 27.9639 57.9778 29.2054 67.7109C29.7076 71.6471 30.3389 74.7366 30.6842 78.0678C31.7553 88.4045 45.8569 93.5409 50.041 93.5409C56.6278 93.5409 67.7256 86.3035 69.11 78.0678C70.3714 70.5634 70.2416 71.1564 70.3391 67.7109C70.4364 64.2652 72.1858 56.9044 66.4407 48.7439Z" fill="#C07F50"/>
<path d="M31.0144 79.9391C34.6991 87.7146 46.1425 91.5814 49.8866 91.5814C56.2475 91.5814 66.6876 85.2347 69.1614 77.665L69.085 78.1207C67.7016 86.3679 56.6107 93.6154 50.028 93.6154C46.0989 93.6154 33.4195 89.0743 31.0144 79.9391Z" fill="black" fill-opacity="0.19"/>
<path d="M55.0953 79.4157C55.0953 82.2108 52.8294 84.4767 50.0343 84.4767C47.2393 84.4767 44.9734 82.2108 44.9734 79.4157C44.9734 76.6207 47.2393 78.7409 50.0343 78.7409C52.8294 78.7409 55.0953 76.6207 55.0953 79.4157Z" fill="#DE8383"/>
<path d="M81.625 64.1159C81.625 60.1422 78.4037 56.9209 74.43 56.9209C70.4563 56.9209 67.235 60.1422 67.235 64.1159C67.235 68.0896 70.4563 71.3109 74.43 71.3109C78.4037 71.3109 81.625 68.0896 81.625 64.1159Z" fill="#C07F50"/>
<path d="M78.0133 60.5137L70.7461 67.291" stroke="black" stroke-opacity="0.19" stroke-width="0.816545" stroke-linecap="round" stroke-linejoin="round"/>
<path d="M18.8766 64.1159C18.8766 60.1422 22.0979 56.9209 26.0716 56.9209C30.0453 56.9209 33.2666 60.1422 33.2666 64.1159C33.2666 68.0896 30.0453 71.3109 26.0716 71.3109C22.0979 71.3109 18.8766 68.0896 18.8766 64.1159Z" fill="#C07F50"/>
<path d="M22.4882 60.5137L29.7554 67.291" stroke="black" stroke-opacity="0.19" stroke-width="0.816545" stroke-linecap="round" stroke-linejoin="round"/>
<path d="M38.4923 57.5414C39.0753 57.083 39.9724 56.166 41.7216 56.166C43.2077 56.166 44.4573 57.1746 44.6816 57.5414M55.4765 57.5414C56.0595 57.083 56.9565 56.166 58.7057 56.166C60.1918 56.166 61.4415 57.1746 61.6657 57.5414" stroke="black" stroke-width="0.600324" stroke-linecap="round"/>
<path d="M43.4203 59.0205H40.0336C38.7314 59.0205 37.6758 60.0762 37.6758 61.3784V66.5656C37.6758 67.8678 38.7314 68.9234 40.0336 68.9234H43.4203C44.7226 68.9234 45.7782 67.8678 45.7782 66.5656V61.3784C45.7782 60.0762 44.7226 59.0205 43.4203 59.0205Z" fill="white"/>
<path d="M60.0751 59.0205H56.6884C55.3862 59.0205 54.3306 60.0762 54.3306 61.3784V66.5656C54.3306 67.8678 55.3862 68.9234 56.6884 68.9234H60.0751C61.3773 68.9234 62.433 67.8678 62.433 66.5656V61.3784C62.433 60.0762 61.3773 59.0205 60.0751 59.0205Z" fill="white"/>
<path d="M42.856 60.3701H41.0482C40.1801 60.3701 39.4763 61.0739 39.4763 61.942V66.4506C39.4763 67.3187 40.1801 68.0225 41.0482 68.0225H42.856C43.7241 68.0225 44.4279 67.3187 44.4279 66.4506V61.942C44.4279 61.0739 43.7241 60.3701 42.856 60.3701Z" fill="black"/>
<path d="M59.0608 60.3701H57.253C56.3849 60.3701 55.6812 61.0739 55.6812 61.942V66.4506C55.6812 67.3187 56.3849 68.0225 57.253 68.0225H59.0608C59.9289 68.0225 60.6327 67.3187 60.6327 66.4506V61.942C60.6327 61.0739 59.9289 60.3701 59.0608 60.3701Z" fill="black"/>
<path d="M47.9017 69.917L47.8611 70.3421C47.7265 71.7479 48.8318 72.964 50.2441 72.964C51.6864 72.964 52.8013 71.6979 52.6186 70.2671L52.5786 69.9529C52.3377 71.0058 51.3953 71.8122 50.2441 71.8122C49.0833 71.8122 48.1297 70.9904 47.9017 69.917Z" fill="black" fill-opacity="0.19"/>
<path d="M31.0181 55.6289H30.6619C29.4162 55.6289 28.4062 56.6389 28.4062 57.8846V64.0581C28.4062 65.3038 29.4162 66.3137 30.6619 66.3137H31.0181C32.2638 66.3137 33.2738 65.3038 33.2738 64.0581V57.8846C33.2738 56.6389 32.2638 55.6289 31.0181 55.6289Z" fill="#724133"/>
<path d="M68.6521 55.6289H69.0082C70.254 55.6289 71.2639 56.6389 71.2639 57.8846V64.0581C71.2639 65.3038 70.254 66.3137 69.0082 66.3137H68.6521C67.4063 66.3137 66.3964 65.3038 66.3964 64.0581V57.8846C66.3964 56.6389 67.4063 55.6289 68.6521 55.6289Z" fill="#724133"/>
<path d="M69.1074 48.8705C69.8847 50.7525 70.4726 52.9664 70.4726 57.1809C69.1667 57.1809 65.9019 58.4869 59.491 55.044C52.9799 51.5473 51.312 47.9801 49.7559 45.665C48.2126 48.8705 45.3633 51.76 41.1487 54.391C36.9341 57.022 31.1366 56.8841 29.2173 57.1809C29.2173 54.4369 29.4595 51.7199 30.5066 49.1849C31.5529 46.6509 33.0875 44.3475 35.0231 42.4061C36.9566 40.4666 39.2535 38.9274 41.7825 37.8766C44.3097 36.8267 47.0193 36.2862 49.7559 36.2861C52.4925 36.2862 55.2021 36.8267 57.7293 37.8766C60.2583 38.9274 62.5553 40.4666 64.4888 42.4061C66.4236 44.3463 68.0602 46.3355 69.1074 48.8705Z" fill="#724133"/>
</g>
</svg>
