<svg width="100" height="100" viewBox="0 0 100 100" fill="none" xmlns="http://www.w3.org/2000/svg">
<mask id="mask0_329_1584" style="mask-type:luminance" maskUnits="userSpaceOnUse" x="0" y="0" width="100" height="100">
<path d="M100 0H0V100H100V0Z" fill="white"/>
</mask>
<g mask="url(#mask0_329_1584)">
<path d="M18.0783 36.6474C20.2646 17.8472 36.7164 8.45268 51.7127 9.0385C74.6782 9.93548 83.2375 25.9825 84.2624 36.6474C85.1392 45.7734 94.4836 55.116 88.1201 64.0569C77.6921 78.7087 20.9643 70.0095 16.6917 66.9475C5.38006 58.8406 16.5714 49.6046 18.0783 36.6474Z" fill="#E8E1E1"/>
<path d="M52.3018 68.0733C54.9395 63.0686 51.1738 60.9819 50.6228 60.5766C46.2064 58.4668 36.7415 59.5882 34.7203 61.517C34.1237 62.0865 31.8065 70.4172 32.8432 72.6598C33.5968 74.2897 36.8053 75.7258 38.285 76.6624C36.5971 76.4455 33.9947 76.353 34.7442 80.092C35.6992 84.8557 38.3569 82.2939 36.5459 85.8574C35.9985 86.9348 34.7308 88.8043 35.9706 89.7163C37.8498 90.3015 39.0904 90.3475 41.2262 89.8692C45.7457 88.8569 48.5878 87.3236 47.2358 83.8153C46.8686 82.8621 45.3084 82.8531 46.7079 82.0609C50.2944 80.031 50.7975 74.6764 48.4084 74.4315C47.1494 74.3023 49.664 73.078 52.3018 68.0733ZM28.0042 66.6368C32.5603 63.8918 30.3919 59.8537 30.1216 59.1765C27.4201 54.7315 18.9798 50.0689 16.384 50.5296C15.6176 50.6656 9.76746 56.4681 9.58112 59.0176C9.44548 60.8707 11.4536 64.0166 12.2507 65.704C10.9415 64.5133 8.80912 62.8858 7.67946 66.5545C6.24041 71.2283 9.66589 70.6008 6.4781 72.5955C5.51427 73.1985 3.57627 74.056 4.18454 75.5795C5.48084 77.2015 6.49651 77.979 8.50684 78.8368C12.761 80.6522 15.8572 81.0208 16.3748 77.1928C16.5154 76.1526 15.2154 75.217 16.7575 75.3667C20.7095 75.75 23.6451 71.4337 21.7628 69.8017C20.7707 68.9415 23.4482 69.3819 28.0042 66.6368Z" fill="#E8E1E1"/>
<path d="M19.7557 59.0664C18.3844 53.3746 22.4847 52.6361 23.108 52.4321C27.8383 51.8899 36.6665 56.1468 38.1593 58.6779C38.6002 59.4254 38.8915 68.203 37.3754 70.0081C36.2737 71.3199 32.8595 71.6209 31.2212 72.0231C32.8921 72.3819 35.4125 73.1673 33.8249 76.5059C31.8023 80.7593 29.8451 77.4063 30.7566 81.4365C31.0323 82.655 31.8156 84.8762 30.4133 85.3353C28.4732 85.2658 27.2712 84.8931 25.3315 83.7162C21.2268 81.2258 18.8537 78.7987 20.9661 75.8841C21.5401 75.0922 23.0402 75.6077 21.8801 74.3769C18.9074 71.2229 19.6675 65.9122 22.0184 66.4796C23.2573 66.7787 21.1269 64.7582 19.7557 59.0664ZM48.843 68.1898C45.9552 63.3892 49.6074 61.0286 50.1367 60.5833C54.4372 58.1515 63.9415 58.5726 66.0572 60.3487C66.6819 60.8731 69.4192 69.0172 68.4988 71.332C67.8298 73.0144 64.7005 74.6845 63.2713 75.7286C64.9449 75.3876 67.5377 75.1032 66.9801 78.8906C66.2698 83.7157 63.4867 81.3546 65.4757 84.778C66.077 85.8129 67.4377 87.5854 66.2466 88.5872C64.4009 89.3099 63.1648 89.4473 61.0087 89.1275C56.4463 88.4506 53.5314 87.1299 54.7019 83.5284C55.0198 82.5499 56.5766 82.4257 55.1393 81.7383C51.4561 79.977 50.6811 74.6695 53.0531 74.2487C54.3032 74.0268 51.731 72.9904 48.843 68.1898ZM75.7068 64.922C71.0641 62.5361 73.0274 58.3002 73.2643 57.5975C75.7374 52.909 83.8891 47.5324 86.4835 47.7828C87.2495 47.8568 93.3157 53.2096 93.618 55.7569C93.8377 57.608 91.9921 60.9342 91.2795 62.6952C92.5225 61.3914 94.5613 59.5812 95.85 63.1757C97.4917 67.7554 94.0675 67.4048 97.3192 69.1486C98.3023 69.6758 100.263 70.379 99.7302 71.96C98.52 73.6961 97.5489 74.5607 95.5957 75.5873C91.4623 77.7599 88.41 78.3839 87.7206 74.5791C87.5333 73.5452 88.7791 72.4985 87.2572 72.7751C83.3575 73.4838 80.2487 69.3861 82.0394 67.5918C82.9832 66.6463 80.3494 67.3078 75.7068 64.922Z" fill="#E8E1E1"/>
<path d="M63.6881 67.2895C59.5616 64.0534 62.2679 60.2745 62.6295 59.6305C65.9195 55.5057 74.9177 51.7997 77.4218 52.5454C78.1612 52.7655 83.1433 59.1878 82.9736 61.7456C82.8504 63.6048 80.4266 66.5135 79.4036 68.1046C80.8644 67.0646 83.2001 65.6807 83.8081 69.4568C84.5826 74.2677 81.281 73.264 84.1578 75.6018C85.0275 76.3085 86.826 77.3765 86.0125 78.8254C84.5048 80.2961 83.3918 80.9575 81.2837 81.5887C76.8227 82.9246 73.7081 82.9488 73.7276 79.0818C73.733 78.0311 75.1494 77.244 73.6026 77.2222C69.6395 77.1663 67.3346 72.5459 69.4236 71.13C70.5245 70.3836 67.8143 70.5256 63.6881 67.2895Z" fill="#E8E1E1"/>
<path d="M53.8382 69.8735C49.7118 66.6374 52.4181 62.8585 52.7796 62.2145C56.0696 58.0897 65.0678 54.3837 67.5719 55.1294C68.3113 55.3495 73.2934 61.7717 73.1237 64.3296C73.0005 66.1888 70.5768 69.0974 69.5537 70.6886C71.0145 69.6485 73.3503 68.2647 73.9582 72.0408C74.7328 76.8517 71.4311 75.848 74.3079 78.1858C75.1776 78.8925 76.9761 79.9605 76.1626 81.4094C74.6549 82.8801 73.5419 83.5415 71.4339 84.1727C66.9729 85.5086 63.8582 85.5328 63.8778 81.6658C63.8831 80.6151 65.2995 79.8279 63.7528 79.8061C59.7896 79.7503 57.4847 75.1299 59.5737 73.7139C60.6746 72.9676 57.9645 73.1096 53.8382 69.8735Z" fill="#E8E1E1"/>
<path d="M36.0762 71.1655C31.9498 67.9294 34.656 64.1504 35.0176 63.5065C38.3076 59.3817 47.3058 55.6757 49.8099 56.4214C50.5493 56.6415 55.5314 63.0637 55.3617 65.6216C55.2385 67.4808 52.8148 70.3894 51.7917 71.9806C53.2525 70.9405 55.5882 69.5567 56.1962 73.3328C56.9708 78.1437 53.6691 77.14 56.5459 79.4778C57.4156 80.1845 59.2141 81.2525 58.4006 82.7014C56.8929 84.1721 55.7799 84.8335 53.6719 85.4647C49.2109 86.8005 46.0962 86.8248 46.1158 82.9578C46.1211 81.9071 47.5375 81.1199 45.9908 81.0981C42.0276 81.0423 39.7227 76.4219 41.8117 75.0059C42.9126 74.2596 40.2025 74.4015 36.0762 71.1655Z" fill="#E8E1E1"/>
<path d="M17.1839 67.2895C13.0575 64.0534 15.7638 60.2745 16.1253 59.6305C19.4153 55.5057 28.4135 51.7997 30.9177 52.5454C31.657 52.7655 36.6391 59.1878 36.4694 61.7456C36.3462 63.6048 33.9225 66.5135 32.8994 68.1046C34.3603 67.0646 36.696 65.6807 37.3039 69.4568C38.0785 74.2677 34.7769 73.264 37.6537 75.6018C38.5233 76.3085 40.3218 77.3765 39.5083 78.8254C38.0007 80.2961 36.8876 80.9575 34.7796 81.5887C30.3186 82.9246 27.2039 82.9488 27.2235 79.0818C27.2288 78.0311 28.6453 77.244 27.0985 77.2222C23.1353 77.1663 20.8305 72.5459 22.9194 71.13C24.0203 70.3836 21.3102 70.5256 17.1839 67.2895Z" fill="#E8E1E1"/>
<path d="M71.6424 69.0432C71.6436 68.9552 71.6441 68.8669 71.6441 68.7785C71.6441 57.0872 61.7733 43.2412 49.5973 43.2412C37.4213 43.2412 27.5506 57.0872 27.5506 68.7785C27.5506 68.8669 27.5513 68.9552 27.5522 69.0432C27.5513 69.1317 27.5506 69.2201 27.5506 69.3083C27.5506 80.9831 37.4213 90.4475 49.5973 90.4475C61.7733 90.4475 71.6441 80.9831 71.6441 69.3083C71.6441 69.2201 71.6436 69.1317 71.6424 69.0432Z" fill="#89532C"/>
<path d="M71.5836 67.7061C70.7428 78.6447 61.2204 87.2689 49.5973 87.2689C37.9743 87.2689 28.4521 78.6447 27.611 67.7061C27.571 68.2438 27.5506 68.7785 27.5506 69.3086C27.5506 80.9836 37.4213 90.4478 49.5973 90.4478C61.7733 90.4478 71.6441 80.9836 71.6441 69.3086C71.6441 68.7785 71.6236 68.2438 71.5836 67.7061Z" fill="black" fill-opacity="0.19"/>
<path d="M55.2573 79.5048C55.2573 82.2598 52.8404 84.4929 49.8592 84.4929C46.8776 84.4929 44.4608 82.2597 44.4608 79.5048C44.4608 76.7499 45.1805 77.0829 49.8592 77.0829C55.4006 77.0829 55.2573 76.7499 55.2573 79.5048Z" fill="#DE8383"/>
<path fill-rule="evenodd" clip-rule="evenodd" d="M54.3562 77.1876C53.5345 77.9771 51.849 78.6713 49.9031 78.6713C48.0221 78.6713 46.3845 78.0226 45.5351 77.2662C45.9984 77.0624 46.9575 77.0656 48.8661 77.0725C49.2458 77.0738 49.6632 77.0753 50.122 77.0753C50.541 77.0753 50.9271 77.0736 51.2826 77.0725C52.8185 77.0668 53.7811 77.063 54.3562 77.1876Z" fill="#F9F9F9"/>
<path d="M81.7882 63.7897C81.7882 59.816 78.5669 56.5947 74.5932 56.5947C70.6196 56.5947 67.3983 59.816 67.3983 63.7897C67.3983 67.7634 70.6196 70.9847 74.5932 70.9847C78.5669 70.9847 81.7882 67.7634 81.7882 63.7897Z" fill="#89532C"/>
<path d="M76.7069 59.7793L70.3378 64.5153L77.4418 67.6998" stroke="black" stroke-opacity="0.19" stroke-width="0.816545" stroke-linecap="round" stroke-linejoin="round"/>
<path d="M18.7134 63.7897C18.7134 59.816 21.9347 56.5947 25.9083 56.5947C29.882 56.5947 33.1033 59.816 33.1033 63.7897C33.1033 67.7634 29.882 70.9847 25.9083 70.9847C21.9347 70.9847 18.7134 67.7634 18.7134 63.7897Z" fill="#89532C"/>
<path d="M23.7947 59.7793L30.1638 64.5153L23.0598 67.6998" stroke="black" stroke-opacity="0.19" stroke-width="0.816545" stroke-linecap="round" stroke-linejoin="round"/>
<path d="M38.1658 62.2227H44.7698V68.2265H38.1658V62.2227ZM38.1658 56.8193H44.7698V58.6205H38.1658V56.8193ZM54.3757 62.2227H60.9797V68.2265H54.3757V62.2227ZM54.3757 56.8193H60.9797V58.6205H54.3757V56.8193Z" fill="black"/>
<path d="M36.4608 68.2275H34.3608C32.4035 68.2275 30.8168 69.8142 30.8168 71.7714C30.8168 73.7287 32.4035 75.3153 34.3608 75.3153H36.4608C38.4181 75.3153 40.0048 73.7287 40.0048 71.7714C40.0048 69.8142 38.4181 68.2275 36.4608 68.2275Z" fill="#F88888"/>
<path d="M65.8564 68.2275H63.7564C61.7992 68.2275 60.2125 69.8142 60.2125 71.7714C60.2125 73.7287 61.7992 75.3153 63.7564 75.3153H65.8564C67.8137 75.3153 69.4004 73.7287 69.4004 71.7714C69.4004 69.8142 67.8137 68.2275 65.8564 68.2275Z" fill="#F88888"/>
<path d="M44.7945 69.1152C44.7303 69.3517 44.6979 69.5958 44.6981 69.8408C44.6981 71.3633 45.9324 72.5978 47.4551 72.5978H52.9689C54.4916 72.5978 55.7259 71.3633 55.7259 69.8408C55.7259 69.5896 55.6924 69.3465 55.6295 69.1152C55.3111 70.2858 54.2404 71.1468 52.9689 71.1468H47.4551C46.1836 71.1468 45.1129 70.2858 44.7945 69.1152Z" fill="black" fill-opacity="0.19"/>
<path d="M33.0536 60.9737C33.0209 59.408 32.8566 55.7462 30.9681 55.6289C28.8869 55.6289 28.9622 59.624 28.8514 60.9737C28.7535 62.1702 28.4371 63.0248 28.8514 65.2928C29.0951 66.626 30.0134 66.7895 30.9682 66.7886C31.8753 66.7878 32.8206 66.6827 33.0537 65.6437C33.5322 63.5111 33.0862 62.5394 33.0536 60.9737Z" fill="#E8E1E1"/>
<path d="M66.6165 60.9737C66.6493 59.408 66.8136 55.7462 68.7021 55.6289C70.7833 55.6289 70.708 59.624 70.8188 60.9737C70.9167 62.1702 71.2331 63.0248 70.8188 65.2928C70.575 66.626 69.6567 66.7895 68.702 66.7886C67.7948 66.7878 66.8496 66.6827 66.6164 65.6437C66.138 63.5111 66.584 62.5394 66.6165 60.9737Z" fill="#E8E1E1"/>
<path d="M69.2261 48.8705C70.0035 50.7525 70.5914 52.9664 70.5914 57.1809C69.2854 57.1809 64.9084 56.6348 57.848 54.4504C50.7876 52.2659 45.7915 48.5143 44.2354 46.1993C44.275 46.9116 44.2354 50.2358 41.9013 52.7289C39.3807 55.4211 35.1418 57.7745 29.336 57.1809C29.336 54.4369 29.5782 51.7199 30.6253 49.1849C31.6716 46.6509 33.2062 44.3475 35.1418 42.4061C37.0753 40.4666 39.3723 38.9274 41.9013 37.8766C44.4284 36.8267 47.1381 36.2862 49.8746 36.2861C52.6112 36.2862 55.3209 36.8267 57.848 37.8766C60.377 38.9274 62.674 40.4666 64.6075 42.4061C66.5423 44.3463 68.179 46.3355 69.2261 48.8705Z" fill="#E8E1E1"/>
</g>
</svg>
