<svg width="100" height="100" viewBox="0 0 100 100" fill="none" xmlns="http://www.w3.org/2000/svg">
<mask id="mask0_329_1944" style="mask-type:luminance" maskUnits="userSpaceOnUse" x="0" y="0" width="100" height="100">
<path d="M100 0H0V100H100V0Z" fill="white"/>
</mask>
<g mask="url(#mask0_329_1944)">
<path d="M51.8284 12.4033H50.1851C33.8285 12.4033 20.569 25.0185 20.569 40.5803C20.569 56.1421 33.8287 68.7573 50.1852 68.7573H51.8285C68.1851 68.7573 81.4446 56.1421 81.4446 40.5803C81.4446 25.0185 68.1847 12.4033 51.8284 12.4033Z" fill="#C93305"/>
<path d="M51.0066 24.3527C57.5613 24.3527 62.8749 19.0391 62.8749 12.4845C62.8749 5.92981 57.5613 0.616211 51.0066 0.616211C44.452 0.616211 39.1384 5.92981 39.1384 12.4845C39.1384 19.0391 44.452 24.3527 51.0066 24.3527Z" fill="#C93305"/>
<path d="M66.4407 48.7439C60.6957 40.5833 46.5929 38.4064 38.2119 43.7526C29.8309 49.0989 27.9639 57.9778 29.2054 67.7109C29.7076 71.6471 30.3389 74.7366 30.6842 78.0678C31.7553 88.4045 45.8569 93.5409 50.041 93.5409C56.6278 93.5409 67.7256 86.3035 69.11 78.0678C70.3714 70.5634 70.2416 71.1564 70.3391 67.7109C70.4364 64.2652 72.1858 56.9044 66.4407 48.7439Z" fill="#A66637"/>
<path d="M31.0144 79.9391C34.6991 87.7146 46.1425 91.5814 49.8866 91.5814C56.2475 91.5814 66.6876 85.2347 69.1614 77.665L69.085 78.1207C67.7016 86.3679 56.6107 93.6154 50.028 93.6154C46.0989 93.6154 33.4195 89.0743 31.0144 79.9391Z" fill="black" fill-opacity="0.19"/>
<path d="M58.8614 81.2236C58.8614 83.9801 54.8973 81.8891 50.0071 81.8891C45.117 81.8891 41.1527 83.9801 41.1527 81.2236C41.1527 78.467 45.117 76.2324 50.0071 76.2324C54.8973 76.2324 58.8614 78.4671 58.8614 81.2236Z" fill="#DE8383"/>
<path d="M74.2577 57.085H74.2576C70.2889 57.085 67.0716 60.3022 67.0716 64.2709V64.289C67.0716 68.2577 70.2889 71.4749 74.2576 71.4749H74.2577C78.2264 71.4749 81.4436 68.2577 81.4436 64.289V64.2709C81.4436 60.3022 78.2264 57.085 74.2577 57.085Z" fill="#A66637"/>
<path d="M79.8466 64.2727C79.8466 61.1859 77.3443 58.6836 74.2575 58.6836C71.1708 58.6836 68.6685 61.1859 68.6685 64.2727V64.2867C68.6685 67.3735 71.1708 69.8758 74.2575 69.8758C77.3443 69.8758 79.8466 67.3735 79.8466 64.2867V64.2727Z" fill="black" fill-opacity="0.19"/>
<path d="M73.7786 64.5956C73.7786 62.9199 72.4201 61.5615 70.7444 61.5615C69.0687 61.5615 67.7103 62.9199 67.7103 64.5956V64.6032C67.7103 66.2789 69.0687 67.6373 70.7444 67.6373C72.4201 67.6373 73.7786 66.2789 73.7786 64.6032V64.5956Z" fill="#A66637"/>
<path d="M26.2438 57.085H26.244C30.2127 57.085 33.4299 60.3022 33.4299 64.2709V64.289C33.4299 68.2577 30.2127 71.4749 26.244 71.4749H26.2438C22.2752 71.4749 19.0579 68.2577 19.0579 64.289V64.2709C19.0579 60.3022 22.2752 57.085 26.2438 57.085Z" fill="#A66637"/>
<path d="M20.6549 64.2727C20.6549 61.1859 23.1572 58.6836 26.244 58.6836C29.3308 58.6836 31.8331 61.1859 31.8331 64.2727V64.2867C31.8331 67.3735 29.3308 69.8758 26.244 69.8758C23.1572 69.8758 20.6549 67.3735 20.6549 64.2867V64.2727Z" fill="black" fill-opacity="0.19"/>
<path d="M26.723 64.5956C26.723 62.9199 28.0814 61.5615 29.7571 61.5615C31.4328 61.5615 32.7912 62.9199 32.7912 64.5956V64.6032C32.7912 66.2789 31.4328 67.6373 29.7571 67.6373C28.0814 67.6373 26.723 66.2789 26.723 64.6032V64.5956Z" fill="#A66637"/>
<path d="M37.6758 59.6356C38.3159 59.1325 39.3004 58.126 41.2203 58.126C42.8516 58.126 44.2232 59.2332 44.4693 59.6356M54.0068 59.6356C54.6468 59.1325 55.6314 58.126 57.5512 58.126C59.1825 58.126 60.5541 59.2332 60.8002 59.6356" stroke="black" stroke-width="0.754815" stroke-linecap="round"/>
<path d="M40.5671 63.6937C40.5671 63.3935 40.6864 63.1055 40.8987 62.8931C41.111 62.6808 41.399 62.5615 41.6993 62.5615C41.9996 62.5615 42.2876 62.6808 42.4999 62.8931C42.7122 63.1055 42.8315 63.3935 42.8315 63.6937V65.9582C42.8315 66.2585 42.7122 66.5465 42.4999 66.7588C42.2876 66.9711 41.9996 67.0904 41.6993 67.0904C41.399 67.0904 41.111 66.9711 40.8987 66.7588C40.6864 66.5465 40.5671 66.2585 40.5671 65.9582V63.6937ZM56.898 63.6937C56.898 63.3935 57.0173 63.1055 57.2296 62.8931C57.4419 62.6808 57.7299 62.5615 58.0302 62.5615C58.3305 62.5615 58.6185 62.6808 58.8308 62.8931C59.0431 63.1055 59.1624 63.3935 59.1624 63.6937V65.9582C59.1624 66.2585 59.0431 66.5465 58.8308 66.7588C58.6185 66.9711 58.3305 67.0904 58.0302 67.0904C57.7299 67.0904 57.4419 66.9711 57.2296 66.7588C57.0173 66.5465 56.898 66.2585 56.898 65.9582V63.6937Z" fill="black"/>
<path d="M39.0574 61.4287C38.9317 61.932 39.1329 63.0894 40.9445 63.6933M55.3884 61.4287C55.2626 61.932 55.4638 63.0894 57.2754 63.6933" stroke="black" stroke-width="0.754815" stroke-linecap="round" stroke-linejoin="round"/>
<path d="M48.1088 70.7118V71.1699C48.1088 71.5707 48.4336 71.8955 48.8343 71.8955C49.235 71.8955 49.5598 71.5707 49.5598 71.1699V70.7118C49.5598 70.3111 49.235 69.9863 48.8343 69.9863C48.4336 69.9863 48.1088 70.3111 48.1088 70.7118Z" fill="black" fill-opacity="0.19"/>
<path d="M51.011 70.7118V71.1699C51.011 71.5707 51.3358 71.8955 51.7365 71.8955C52.1372 71.8955 52.462 71.5707 52.462 71.1699V70.7118C52.462 70.3111 52.1372 69.9863 51.7365 69.9863C51.3358 69.9863 51.011 70.3111 51.011 70.7118Z" fill="black" fill-opacity="0.19"/>
<path d="M53.883 70.2492C53.9027 70.116 53.913 69.9798 53.913 69.841C53.913 68.3183 52.6786 67.084 51.156 67.084H49.4148C47.8921 67.084 46.6578 68.3183 46.6578 69.841C46.6578 69.9798 46.6681 70.116 46.6879 70.2492C46.8852 68.9202 48.0309 67.9005 49.4148 67.9005H51.156C52.5399 67.9005 53.6857 68.9202 53.883 70.2492Z" fill="black" fill-opacity="0.19"/>
<path d="M34.1048 56.5781H29.2373V67.9753H34.1048V56.5781Z" fill="#C93305"/>
<path d="M65.5654 56.5781H70.4329V67.9753H65.5654V56.5781Z" fill="#C93305"/>
<path d="M69.1073 48.8705C69.8847 50.7525 70.4726 52.9664 70.4726 57.1809C69.1667 57.1809 65.9019 58.4869 59.491 55.044C52.9799 51.5473 51.312 47.9801 49.7559 45.665C48.2125 48.8705 45.3632 51.76 41.1487 54.391C36.9341 57.022 31.1366 56.8841 29.2173 57.1809C29.2173 54.4369 29.4594 51.7199 30.5066 49.1849C31.5528 46.6509 33.0875 44.3475 35.023 42.4061C36.9565 40.4666 39.2535 38.9274 41.7825 37.8766C44.3097 36.8267 47.0193 36.2862 49.7559 36.2861C52.4925 36.2862 55.2021 36.8267 57.7293 37.8766C60.2583 38.9274 62.5552 40.4666 64.4887 42.4061C66.4235 44.3463 68.0602 46.3355 69.1073 48.8705Z" fill="#C93305"/>
<path d="M49.6372 50.6512C50.8719 47.9919 51.0618 45.9617 51.0618 45.012C50.5276 42.044 48.628 43.3499 48.45 44.1216C48.2719 44.8933 48.5093 46.1398 48.2719 49.2266C48.0819 51.6959 45.6205 54.6877 44.2354 55.6375C45.4819 55.2615 48.4025 53.3105 49.6372 50.6512Z" fill="#C93305"/>
</g>
</svg>
