<svg width="100" height="100" viewBox="0 0 100 100" fill="none" xmlns="http://www.w3.org/2000/svg">
<mask id="mask0_329_1064" style="mask-type:luminance" maskUnits="userSpaceOnUse" x="0" y="0" width="100" height="100">
<path d="M100 0H0V100H100V0Z" fill="white"/>
</mask>
<g mask="url(#mask0_329_1064)">
<path d="M51.9596 12.2598H50.3162C33.9598 12.2598 20.7004 27.4485 20.7004 46.1849V70.0513C20.7004 88.7877 33.9598 103.976 50.3162 103.976H51.9596C68.316 103.976 81.5755 88.7877 81.5755 70.0513V46.1849C81.5755 27.4485 68.316 12.2598 51.9596 12.2598Z" fill="#724133"/>
<path d="M49.7622 40.6279C66.6144 41.1236 68.0824 56.5968 68.3732 63.2124C68.4642 65.2824 68.9164 67.1067 69.364 68.9126C69.8933 71.0485 70.4164 73.1584 70.3276 75.6184C70.4122 78.0071 69.9681 80.6945 68.3732 84.0675C66.2924 88.4683 57.8576 93.2102 49.7622 93.2135C41.2437 93.2171 33.0492 88.2278 30.8757 82.5814C29.3788 78.6927 28.9506 75.7851 29.0291 73.3654C28.9411 70.6285 29.5227 68.5265 30.0933 66.4638C30.3884 65.397 30.6805 64.3406 30.8757 63.2124C30.9949 62.5229 31.0899 61.6703 31.1977 60.7038C31.9811 53.6749 33.4352 40.6279 49.7622 40.6279Z" fill="#89532C"/>
<path d="M29.0958 72.3184C28.847 74.9434 29.1566 78.1155 30.8756 82.5814C33.0492 88.2279 41.2436 93.217 49.7621 93.2136C57.8575 93.2102 66.2923 88.4685 68.3731 84.0676C70.2811 80.0323 70.5422 76.9784 70.2213 74.243C70.0268 76.0862 69.4745 78.1369 68.3413 80.5336C66.2606 84.9345 57.8257 89.6763 49.7303 89.6796C41.2119 89.6832 33.0172 84.6939 30.8439 79.0473C29.8255 76.4022 29.3019 74.2108 29.0958 72.3184Z" fill="black" fill-opacity="0.19"/>
<path d="M55.0267 80.9926C55.0267 83.7876 52.7609 81.6674 49.9657 81.6674C47.1707 81.6674 44.9048 83.7876 44.9048 80.9926C44.9048 78.1976 47.1707 75.9316 49.9657 75.9316C52.7609 75.9316 55.0267 78.1976 55.0267 80.9926Z" fill="#DE8383"/>
<path d="M77.7916 56.9209H71.6972C69.774 56.9209 68.2148 58.48 68.2148 60.4033V66.4977C68.2148 68.4209 69.774 69.9801 71.6972 69.9801H77.7916C79.7149 69.9801 81.274 68.4209 81.274 66.4977V60.4033C81.274 58.48 79.7149 56.9209 77.7916 56.9209Z" fill="#89532C"/>
<path d="M77.7915 58.3721H71.6972C70.5753 58.3721 69.6658 59.2816 69.6658 60.4035V66.4978C69.6658 67.6198 70.5753 68.5292 71.6972 68.5292H77.7915C78.9135 68.5292 79.8229 67.6198 79.8229 66.4978V60.4035C79.8229 59.2816 78.9135 58.3721 77.7915 58.3721Z" fill="black" fill-opacity="0.19"/>
<path d="M70.5365 60.6934H69.3757C68.8949 60.6934 68.5051 61.0831 68.5051 61.564V65.6269C68.5051 66.1077 68.8949 66.4975 69.3757 66.4975H70.5365C71.0173 66.4975 71.4071 66.1077 71.4071 65.6269V61.564C71.4071 61.0831 71.0173 60.6934 70.5365 60.6934Z" fill="#89532C"/>
<path d="M22.7098 56.9209H28.8042C30.7275 56.9209 32.2866 58.48 32.2866 60.4033V66.4977C32.2866 68.4209 30.7275 69.9801 28.8042 69.9801H22.7098C20.7866 69.9801 19.2274 68.4209 19.2274 66.4977V60.4033C19.2274 58.48 20.7866 56.9209 22.7098 56.9209Z" fill="#89532C"/>
<path d="M22.7099 58.3721H28.8043C29.9262 58.3721 30.8357 59.2816 30.8357 60.4035V66.4978C30.8357 67.6198 29.9262 68.5292 28.8043 68.5292H22.7099C21.588 68.5292 20.6785 67.6198 20.6785 66.4978V60.4035C20.6785 59.2816 21.588 58.3721 22.7099 58.3721Z" fill="black" fill-opacity="0.19"/>
<path d="M29.9649 60.6934H31.1257C31.6066 60.6934 31.9963 61.0831 31.9963 61.564V65.6269C31.9963 66.1077 31.6066 66.4975 31.1257 66.4975H29.9649C29.4841 66.4975 29.0943 66.1077 29.0943 65.6269V61.564C29.0943 61.0831 29.4841 60.6934 29.9649 60.6934Z" fill="#89532C"/>
<path d="M38.3381 61.2363C37.6999 61.9505 37.3477 62.8751 37.3491 63.8329C37.3491 65.9881 39.0962 67.7352 41.2516 67.7352C43.0181 67.7352 44.5104 66.5615 44.9912 64.9513L38.338 61.2367L38.3381 61.2363ZM60.5568 61.2363C61.1951 61.9504 61.5472 62.875 61.5458 63.8328C61.5458 65.988 59.7987 67.7351 57.6435 67.7351C55.877 67.7351 54.3846 66.5613 53.9038 64.9511L60.5568 61.2363Z" fill="white"/>
<path d="M38.2473 57.5537C39.4721 58.3703 44.7797 61.7997 46.2495 62.6979M60.8656 57.6354C59.6408 58.4519 54.3333 61.8814 52.8635 62.7796" stroke="black" stroke-width="0.600324" stroke-linecap="round"/>
<path d="M38.3291 57.6357C39.5539 58.4523 44.8615 61.8818 46.3312 62.78M60.9474 57.7174C59.7226 58.5339 54.415 61.9634 52.9453 62.8616" stroke="black" stroke-width="0.600324" stroke-linecap="round"/>
<path d="M46.5907 71.0355C46.5267 71.2256 46.4942 71.4249 46.4944 71.6255C46.4944 72.6441 47.3201 73.4699 48.3388 73.4699C48.3927 73.4699 48.4458 73.4675 48.4985 73.4631C48.7092 74.2496 49.4271 74.8288 50.2802 74.8288C51.1332 74.8288 51.8511 74.2496 52.0619 73.4631C52.1145 73.4675 52.1677 73.4698 52.2215 73.4698C53.2402 73.4698 54.0659 72.6441 54.0659 71.6255C54.0659 71.4191 54.0319 71.2205 53.9695 71.0353C53.7233 71.7645 53.0338 72.2895 52.2215 72.2895C52.1676 72.2895 52.1145 72.2871 52.0618 72.2825C51.8511 73.0692 51.1332 73.6484 50.2801 73.6484C49.4271 73.6484 48.7092 73.0692 48.4984 72.2825C48.4458 72.2871 48.3925 72.2894 48.3388 72.2894C47.5265 72.2894 46.837 71.7645 46.5909 71.0352L46.5907 71.0355Z" fill="black" fill-opacity="0.19"/>
<path d="M34.1048 56.5781H29.2373V67.9753H34.1048V56.5781Z" fill="#724133"/>
<path d="M65.5653 56.5781H70.4329V67.9753H65.5653V56.5781Z" fill="#724133"/>
<path d="M41.7204 49.3118C41.2973 47.2806 44.5555 45.7995 46.3328 45.3762C48.11 44.9531 48.4485 44.9531 50.7758 44.9531C53.1031 44.9531 58.3503 45.7572 58.181 48.5501C58.0456 50.7844 55.5856 50.7225 54.3727 50.4121C54.9509 51.3571 55.9383 53.4844 55.2613 54.4322C54.5842 55.3802 53.0327 54.5733 52.3415 54.0514C52.2851 54.7003 51.7322 56.1842 49.9719 56.9291C48.2115 57.6738 47.7433 55.1234 47.7292 53.7552C46.9393 54.0232 45.131 54.2969 44.217 53.2474C43.303 52.1979 44.5978 50.9199 45.3595 50.4121C44.3862 50.8211 42.044 50.8653 41.7204 49.3118Z" fill="#724133"/>
<path d="M69.1074 48.6332C69.8847 50.5152 70.4726 52.7291 70.4726 56.9436C69.1667 56.9436 65.9019 58.2496 59.491 54.8067C52.9799 51.31 51.312 47.7428 49.7559 45.4277C48.2126 48.6332 45.3633 51.5227 41.1487 54.1537C36.9341 56.7847 31.1366 56.6468 29.2173 56.9436C29.2173 54.1996 29.4595 51.4826 30.5066 48.9476C31.5529 46.4136 33.0875 44.1102 35.0231 42.1687C36.9566 40.2293 39.2535 38.6901 41.7825 37.6393C44.3097 36.5894 47.0193 36.0489 49.7559 36.0488C52.4925 36.0489 55.2021 36.5894 57.7293 37.6393C60.2583 38.6901 62.5553 40.2293 64.4888 42.1687C66.4236 44.109 68.0602 46.0982 69.1074 48.6332Z" fill="#724133"/>
</g>
</svg>
