<svg width="100" height="100" viewBox="0 0 100 100" fill="none" xmlns="http://www.w3.org/2000/svg">
<mask id="mask0_329_2519" style="mask-type:luminance" maskUnits="userSpaceOnUse" x="0" y="0" width="100" height="100">
<path d="M100 0H0V100H100V0Z" fill="white"/>
</mask>
<g mask="url(#mask0_329_2519)">
<path d="M51.079 8.5285C61.2518 4.57242 60.5251 11.8387 64.8042 15.0681C66.1499 14.2608 71.6098 13.782 73.6852 15.0681C79.4174 18.6205 75.3001 21.4119 80.7094 25.2409C87.8949 30.3273 83.8579 32.8494 83.4543 37.2091C83.0506 41.5689 86.6506 42.5217 88.9443 45.1213C92.5775 49.2388 91.6086 56.4244 88.9443 58.9272C86.28 61.43 90.9627 61.0264 90.5591 70.2303C90.1554 79.4342 83.7772 76.9314 80.7092 79.192C77.6413 81.4527 80.6285 84.5206 73.6852 86.9427C66.7418 89.3648 68.4373 85.5702 58.8297 85.4087C52.8552 85.3083 52.4515 91.0603 43.9742 88.8804C39.5996 87.7556 39.3073 81.6708 33.7291 85.4087C25.8976 90.6566 16.9359 84.0977 17.5818 78.1232C18.2277 72.1488 12.2012 74.519 11.1952 70.2303C8.97949 60.7841 15.2802 59.2119 14.1825 56.1014C12.7292 51.9839 11.0337 50.0462 12.8907 43.5873C14.9633 36.3779 20.6414 37.7743 18.5422 32.6072C16.4431 27.44 19.9147 24.2721 23.3864 22.0115C26.8581 19.7509 29.8453 20.4775 29.038 17.571C28.2306 14.6645 30.9532 8.5285 37.1923 8.5285C43.2476 8.5285 43.9742 11.2915 51.079 8.5285Z" fill="#C93305"/>
<path d="M29.8369 52.4282C29.8369 49.7894 31.9759 47.6504 34.6147 47.6504H64.9066C67.5453 47.6504 69.6843 49.7894 69.6843 52.4282V91.8653C69.6843 94.5041 67.5453 96.6431 64.9066 96.6431H34.6147C31.9759 96.6431 29.8369 94.5041 29.8369 91.8653V52.4282Z" fill="#C07F50"/>
<path d="M29.8369 88.2734V91.8661C29.8369 94.5048 31.9759 96.644 34.6147 96.644H64.9066C67.5453 96.644 69.6843 94.5048 69.6843 91.8661V88.2734C69.6843 90.9122 67.5453 93.0512 64.9066 93.0512H34.6147C31.9759 93.0512 29.8369 90.9122 29.8369 88.2734Z" fill="black" fill-opacity="0.19"/>
<path d="M54.8875 81.4233C54.8875 84.2183 52.6216 82.098 49.8266 82.098C47.0315 82.098 44.7656 84.2183 44.7656 81.4233C44.7656 78.6282 47.0315 76.3623 49.8266 76.3623C52.6216 76.3623 54.8875 78.6282 54.8875 81.4233Z" fill="#DE8383"/>
<path fill-rule="evenodd" clip-rule="evenodd" d="M53.764 78.1899C52.8524 78.7396 51.4151 79.0941 49.7982 79.0941C48.2379 79.0941 46.845 78.7639 45.9302 78.2469C46.8579 77.0977 48.2784 76.3623 49.8705 76.3623C51.436 76.3623 52.8355 77.0732 53.7638 78.1897L53.764 78.1899Z" fill="#F9F9F9"/>
<path d="M74.7476 56.7578H74.7474C70.7788 56.7578 67.5615 59.9751 67.5615 63.9437V63.9619C67.5615 67.9305 70.7788 71.1478 74.7474 71.1478H74.7476C78.7163 71.1478 81.9335 67.9305 81.9335 63.9619V63.9437C81.9335 59.9751 78.7163 56.7578 74.7476 56.7578Z" fill="#C07F50"/>
<path d="M71.5789 62.8816C71.9871 61.9018 74.5184 57.6633 77.213 60.0742C79.282 61.9253 74.7634 65.4944 74.5184 63.698C74.2735 61.9016 79.9893 61.9833 78.3562 66.311C77.6474 68.1892 73.9468 68.3525 71.5789 66.0662" stroke="black" stroke-opacity="0.19" stroke-width="0.653236" stroke-linecap="round" stroke-linejoin="round"/>
<path d="M25.7539 56.7578H25.754C29.7227 56.7578 32.9399 59.9751 32.9399 63.9437V63.9619C32.9399 67.9305 29.7227 71.1478 25.754 71.1478H25.7539C21.7852 71.1478 18.5679 67.9305 18.5679 63.9619V63.9437C18.5679 59.9751 21.7852 56.7578 25.7539 56.7578Z" fill="#C07F50"/>
<path d="M28.9226 62.8816C28.5143 61.9018 25.983 57.6633 23.2884 60.0742C21.2195 61.9253 25.7381 65.4944 25.983 63.698C26.228 61.9016 20.5122 61.9833 22.1453 66.311C22.854 68.1892 26.5546 68.3525 28.9226 66.0662" stroke="black" stroke-opacity="0.19" stroke-width="0.653236" stroke-linecap="round" stroke-linejoin="round"/>
<path d="M41.1755 62.0229C41.1755 61.7226 41.2948 61.4346 41.5072 61.2223C41.7195 61.0099 42.0075 60.8906 42.3078 60.8906C42.6081 60.8906 42.8962 61.0099 43.1085 61.2223C43.3208 61.4346 43.4401 61.7226 43.4401 62.0229V64.2875C43.4401 64.5878 43.3208 64.8758 43.1085 65.0882C42.8962 65.3005 42.6081 65.4198 42.3078 65.4198C42.0075 65.4198 41.7195 65.3005 41.5072 65.0882C41.2948 64.8758 41.1755 64.5878 41.1755 64.2875V62.0229ZM57.1797 62.0229C57.1832 61.725 57.3041 61.4404 57.5161 61.231C57.728 61.0216 58.014 60.9041 58.312 60.9041C58.6099 60.9041 58.8959 61.0216 59.1079 61.231C59.3198 61.4404 59.4407 61.725 59.4443 62.0229V64.2875C59.4443 64.5878 59.325 64.8758 59.1126 65.0882C58.9003 65.3005 58.6123 65.4198 58.312 65.4198C58.0117 65.4198 57.7237 65.3005 57.5113 65.0882C57.299 64.8758 57.1797 64.5878 57.1797 64.2875V62.0229Z" fill="black"/>
<path d="M39.6657 59.7588C39.5399 60.2619 39.7411 61.4195 41.5527 62.0232M55.67 59.7588C55.5442 60.2619 55.7454 61.4195 57.557 62.0232" stroke="black" stroke-width="0.754815" stroke-linecap="round" stroke-linejoin="round"/>
<path d="M36.4609 68.2275H34.3609C32.4036 68.2275 30.8169 69.8142 30.8169 71.7714C30.8169 73.7287 32.4036 75.3153 34.3609 75.3153H36.4609C38.4181 75.3153 40.0048 73.7287 40.0048 71.7714C40.0048 69.8142 38.4181 68.2275 36.4609 68.2275Z" fill="#FFC6C6"/>
<path d="M65.8566 68.2275H63.7566C61.7993 68.2275 60.2126 69.8142 60.2126 71.7714C60.2126 73.7287 61.7993 75.3153 63.7566 75.3153H65.8566C67.8139 75.3153 69.4006 73.7287 69.4006 71.7714C69.4006 69.8142 67.8139 68.2275 65.8566 68.2275Z" fill="#FFC6C6"/>
<path d="M50.239 68.0645C49.6441 68.1918 48.4543 68.7144 48.4543 69.7852C48.4543 71.1237 49.6441 71.5062 50.239 71.6973" stroke="black" stroke-opacity="0.5" stroke-width="0.653236" stroke-linecap="round" stroke-linejoin="round"/>
<path d="M34.1048 56.5791H29.2373V67.9763H34.1048V56.5791Z" fill="#C93305"/>
<path d="M65.5653 56.5791H70.4329V67.9763H65.5653V56.5791Z" fill="#C93305"/>
<path d="M69.1074 48.6332C69.8847 50.5152 70.4726 52.7291 70.4726 56.9436C69.1667 56.9436 65.9019 58.2496 59.491 54.8067C52.9799 51.31 51.312 47.7428 49.7559 45.4277C48.2126 48.6332 45.3633 51.5227 41.1487 54.1537C36.9341 56.7847 31.1366 56.6468 29.2173 56.9436C29.2173 54.1996 29.4595 51.4826 30.5066 48.9476C31.5529 46.4136 33.0875 44.1102 35.0231 42.1687C36.9566 40.2293 39.2535 38.6901 41.7825 37.6393C44.3097 36.5894 47.0193 36.0489 49.7559 36.0488C52.4925 36.0489 55.2021 36.5894 57.7293 37.6393C60.2583 38.6901 62.5553 40.2293 64.4888 42.1687C66.4236 44.109 68.0602 46.0982 69.1074 48.6332Z" fill="#C93305"/>
<path d="M42.4545 56.5878C44.9789 56.5878 47.0253 54.5414 47.0253 52.017C47.0253 49.4927 44.9789 47.4463 42.4545 47.4463C39.9302 47.4463 37.8838 49.4927 37.8838 52.017C37.8838 54.5414 39.9302 56.5878 42.4545 56.5878Z" fill="#C93305"/>
<path d="M54.5048 52.0171C54.5048 54.5414 52.4584 56.5878 49.934 56.5878C47.4097 56.5878 45.3633 54.5414 45.3633 52.0171C45.3633 49.4927 47.4097 44.4189 49.934 44.4189C52.4584 44.4189 54.5048 49.4927 54.5048 52.0171Z" fill="#C93305"/>
<path d="M57.2946 56.5878C59.819 56.5878 61.8654 54.5414 61.8654 52.017C61.8654 49.4927 59.819 47.4463 57.2946 47.4463C54.7703 47.4463 52.7239 49.4927 52.7239 52.017C52.7239 54.5414 54.7703 56.5878 57.2946 56.5878Z" fill="#C93305"/>
</g>
</svg>
