<svg width="100" height="100" viewBox="0 0 100 100" fill="none" xmlns="http://www.w3.org/2000/svg">
<mask id="mask0_329_1417" style="mask-type:luminance" maskUnits="userSpaceOnUse" x="0" y="0" width="100" height="100">
<path d="M100 0H0V100H100V0Z" fill="white"/>
</mask>
<g mask="url(#mask0_329_1417)">
<path d="M75.0493 56.3244V55.0326C75.0493 49.3403 73.1552 42.7439 69.9629 36.9446C65.3781 28.6155 58.1155 21.9307 49.9403 21.9307C41.3456 21.9307 33.7594 29.3193 29.233 38.2394C26.4564 43.7116 24.8313 49.76 24.8313 55.0326V56.3244C24.8313 70.1916 36.073 81.4334 49.9403 81.4334C63.8076 81.4334 75.0493 70.1916 75.0493 56.3244Z" fill="#A55728"/>
<path d="M69.1945 54.3662H30.4559V81.531H30.4584C30.4567 81.5795 30.4561 81.6282 30.4561 81.677C30.4561 86.7586 39.128 94.8471 49.8252 94.8471C60.5226 94.8471 69.1945 86.7586 69.1945 81.677C69.1945 81.6282 69.1937 81.5795 69.192 81.531H69.1945V54.3662Z" fill="#89532C"/>
<path d="M30.4559 78.335V78.4656C30.4563 78.422 30.4571 78.3784 30.4584 78.335H30.4559ZM30.4559 78.4965V81.5309H30.4584C30.4567 81.5794 30.4561 81.6283 30.4561 81.6771C30.4561 86.7586 39.128 94.847 49.8252 94.847C60.5226 94.847 69.1945 86.7586 69.1945 81.6771C69.1945 81.6283 69.1937 81.5794 69.192 81.5309H69.1945V78.335H69.192C69.1937 78.3836 69.1945 78.4323 69.1945 78.481C69.1945 83.5625 60.5226 91.651 49.8252 91.651C39.1388 91.651 30.4734 83.579 30.4559 78.4965Z" fill="black" fill-opacity="0.19"/>
<path d="M49.679 72.4736C60.4571 72.4736 69.1944 64.7964 69.1944 55.3262C69.1944 45.8559 60.4571 38.1787 49.679 38.1787C38.9009 38.1787 30.1636 45.8559 30.1636 55.3262C30.1636 64.7964 38.9009 72.4736 49.679 72.4736Z" fill="#89532C"/>
<path fill-rule="evenodd" clip-rule="evenodd" d="M45.1091 80.3174C44.8703 80.5106 44.6221 80.711 44.3716 80.8924C44.3163 80.9324 44.2537 80.9612 44.1873 80.977C44.1209 80.9929 44.052 80.9955 43.9846 80.9847C43.8485 80.9629 43.7266 80.888 43.6457 80.7763C43.5648 80.6646 43.5316 80.5254 43.5534 80.3893C43.5752 80.2532 43.6501 80.1312 43.7618 80.0504C43.9906 79.8846 44.2011 79.7145 44.4265 79.5322C44.5445 79.4367 44.6667 79.3379 44.798 79.2345C45.1671 78.9438 45.5762 78.6441 46.0681 78.3771C47.0636 77.8362 48.3477 77.4561 50.2886 77.4561C53.4609 77.4561 55.7474 79.2149 56.5249 80.1361C56.6138 80.2415 56.6572 80.3779 56.6456 80.5153C56.634 80.6527 56.5682 80.7798 56.4628 80.8687C56.3575 80.9576 56.2211 81.0011 56.0837 80.9894C55.9463 80.9778 55.8192 80.912 55.7302 80.8067C55.1038 80.0644 53.0892 78.4958 50.2886 78.4958C48.4963 78.4958 47.3873 78.8437 46.5642 79.2907C46.1466 79.5175 45.7901 79.7767 45.4413 80.0514C45.3332 80.1363 45.2221 80.2259 45.1091 80.3174Z" fill="black"/>
<path d="M77.7916 56.9209H71.6972C69.774 56.9209 68.2148 58.48 68.2148 60.4033V66.4977C68.2148 68.4209 69.774 69.9801 71.6972 69.9801H77.7916C79.7149 69.9801 81.274 68.4209 81.274 66.4977V60.4033C81.274 58.48 79.7149 56.9209 77.7916 56.9209Z" fill="#89532C"/>
<path d="M77.7917 58.3721H71.6973C70.5754 58.3721 69.6659 59.2816 69.6659 60.4035V66.4978C69.6659 67.6198 70.5754 68.5292 71.6973 68.5292H77.7917C78.9136 68.5292 79.8231 67.6198 79.8231 66.4978V60.4035C79.8231 59.2816 78.9136 58.3721 77.7917 58.3721Z" fill="black" fill-opacity="0.19"/>
<path d="M70.5364 60.6934H69.3756C68.8948 60.6934 68.505 61.0831 68.505 61.564V65.6269C68.505 66.1077 68.8948 66.4975 69.3756 66.4975H70.5364C71.0172 66.4975 71.407 66.1077 71.407 65.6269V61.564C71.407 61.0831 71.0172 60.6934 70.5364 60.6934Z" fill="#89532C"/>
<path d="M22.7101 56.9209H28.8045C30.7277 56.9209 32.2869 58.48 32.2869 60.4033V66.4977C32.2869 68.4209 30.7277 69.9801 28.8045 69.9801H22.7101C20.7868 69.9801 19.2277 68.4209 19.2277 66.4977V60.4033C19.2277 58.48 20.7868 56.9209 22.7101 56.9209Z" fill="#89532C"/>
<path d="M22.71 58.3721H28.8044C29.9263 58.3721 30.8358 59.2816 30.8358 60.4035V66.4978C30.8358 67.6198 29.9263 68.5292 28.8044 68.5292H22.71C21.5881 68.5292 20.6786 67.6198 20.6786 66.4978V60.4035C20.6786 59.2816 21.5881 58.3721 22.71 58.3721Z" fill="black" fill-opacity="0.19"/>
<path d="M29.9653 60.6934H31.1261C31.6069 60.6934 31.9967 61.0831 31.9967 61.564V65.6269C31.9967 66.1077 31.6069 66.4975 31.1261 66.4975H29.9653C29.4845 66.4975 29.0947 66.1077 29.0947 65.6269V61.564C29.0947 61.0831 29.4845 60.6934 29.9653 60.6934Z" fill="#89532C"/>
<path d="M35.1055 56.034C35.4558 55.7832 37.4588 54.5332 40.3619 54.5332C43.2649 54.5332 45.9688 55.783 45.6183 56.034C45.6183 58.9372 45.0804 56.034 40.5247 56.034C35.6186 56.034 35.1055 58.9372 35.1055 56.034ZM53.7225 56.034C54.073 55.783 56.076 54.5332 58.9791 54.5332C61.8821 54.5332 64.586 55.783 64.2356 56.034C64.2356 58.9372 63.6976 56.034 59.142 56.034C54.2358 56.034 53.7225 58.9372 53.7225 56.034Z" fill="black"/>
<path d="M40.322 58.2306L41.6495 62.3158H45.9451L42.4698 64.8407L43.7972 68.9261L40.322 66.4011L36.8468 68.9261L38.1743 64.8407L34.6991 62.316H38.9946L40.322 58.2306ZM58.9038 58.2306L60.2312 62.3158H64.5267L61.0515 64.8407L62.3788 68.9261L58.9038 66.4011L55.4286 68.9261L56.7559 64.8407L53.2807 62.316H57.5763L58.9038 58.2306Z" fill="#FFEBB7"/>
<path d="M47.9019 69.917L47.8612 70.3421C47.7266 71.7479 48.8319 72.964 50.2442 72.964C51.6866 72.964 52.8015 71.6979 52.6187 70.2671L52.5787 69.9529C52.3378 71.0058 51.3954 71.8122 50.2442 71.8122C49.0834 71.8122 48.1298 70.9904 47.9019 69.917Z" fill="black" fill-opacity="0.19"/>
<path d="M30.0763 59.4058C29.9761 57.0816 29.6956 55.9039 31.7254 55.6289C34.0561 56.0538 33.4007 58.3061 33.15 59.4058C32.8995 60.5053 34.2866 61.655 34.036 64.0792C33.7854 66.5035 31.064 67.6402 29.7666 65.6014C28.1045 62.9896 30.1767 61.73 30.0765 59.4058H30.0763Z" fill="#A55728"/>
<path d="M69.594 59.4058C69.6942 57.0816 69.9747 55.9039 67.9449 55.6289C65.6142 56.0538 66.2695 58.3061 66.5203 59.4058C66.7708 60.5053 65.3837 61.655 65.6343 64.0792C65.8849 66.5035 68.6063 67.6402 69.9037 65.6014C71.5658 62.9896 69.4936 61.73 69.5938 59.4058H69.594Z" fill="#A55728"/>
<path d="M69.1074 48.8705C69.8847 50.7525 70.4726 52.9664 70.4726 57.1809C69.1667 57.1809 65.9019 58.4869 59.491 55.044C52.9799 51.5473 51.312 47.9801 49.7559 45.665C48.2126 48.8705 45.3633 51.76 41.1487 54.391C36.9341 57.022 31.1366 56.8841 29.2173 57.1809C29.2173 54.4369 29.4595 51.7199 30.5066 49.1849C31.5529 46.6509 33.0875 44.3475 35.0231 42.4061C36.9566 40.4666 39.2535 38.9274 41.7825 37.8766C44.3097 36.8267 47.0193 36.2862 49.7559 36.2861C52.4925 36.2862 55.2021 36.8267 57.7293 37.8766C60.2583 38.9274 62.5553 40.4666 64.4888 42.4061C66.4236 44.3463 68.0602 46.3355 69.1074 48.8705Z" fill="#A55728"/>
<path d="M49.6373 50.6512C50.8719 47.9919 51.0619 45.9617 51.0619 45.012C50.5277 42.044 48.6281 43.3499 48.4501 44.1216C48.272 44.8933 48.5094 46.1398 48.272 49.2266C48.082 51.6959 45.6206 54.6877 44.2355 55.6375C45.482 55.2615 48.4026 53.3105 49.6373 50.6512Z" fill="#A55728"/>
</g>
</svg>
