<svg width="100" height="100" viewBox="0 0 100 100" fill="none" xmlns="http://www.w3.org/2000/svg">
<mask id="mask0_329_2280" style="mask-type:luminance" maskUnits="userSpaceOnUse" x="0" y="0" width="100" height="100">
<path d="M100 0H0V100H100V0Z" fill="white"/>
</mask>
<g mask="url(#mask0_329_2280)">
<path d="M17.8169 37.6566C20.0016 18.3897 36.4395 8.76203 51.4229 9.36238C74.3688 10.2816 82.9209 26.727 83.9448 37.6566C84.821 47.0091 94.1573 56.5836 87.7992 65.7464C77.3801 80.7617 45.949 78.9198 33.8909 72.391C21.6188 65.7464 16.3116 50.9355 17.8172 37.6566H17.8169Z" fill="#F59797"/>
<path d="M88.872 73.7633C93.4353 61.323 87.7052 47.9543 83.1005 41.7094C80.6634 38.2046 71.2368 60.1203 53.8924 65.8575C36.5479 71.5947 36.881 86.6198 48.4233 90.9602C59.9654 95.3004 84.3116 86.1967 88.872 73.7633Z" fill="#F59797"/>
<path d="M69.1945 54.3662H30.4559V81.531H30.4584C30.4567 81.5795 30.4561 81.6282 30.4561 81.677C30.4561 86.7586 39.128 94.8471 49.8252 94.8471C60.5226 94.8471 69.1945 86.7586 69.1945 81.677C69.1945 81.6282 69.1937 81.5795 69.192 81.531H69.1945V54.3662Z" fill="#DA9969"/>
<path d="M30.4559 78.335V78.4656C30.4563 78.422 30.4571 78.3784 30.4584 78.335H30.4559ZM30.4559 78.4965V81.5309H30.4584C30.4567 81.5794 30.4561 81.6283 30.4561 81.6771C30.4561 86.7586 39.128 94.847 49.8252 94.847C60.5226 94.847 69.1945 86.7586 69.1945 81.6771C69.1945 81.6283 69.1937 81.5794 69.192 81.5309H69.1945V78.335H69.192C69.1937 78.3836 69.1945 78.4323 69.1945 78.481C69.1945 83.5625 60.5226 91.651 49.8252 91.651C39.1388 91.651 30.4734 83.579 30.4559 78.4965Z" fill="black" fill-opacity="0.19"/>
<path d="M49.679 72.4736C60.4571 72.4736 69.1944 64.7964 69.1944 55.3262C69.1944 45.8559 60.4571 38.1787 49.679 38.1787C38.9009 38.1787 30.1636 45.8559 30.1636 55.3262C30.1636 64.7964 38.9009 72.4736 49.679 72.4736Z" fill="#DA9969"/>
<path d="M54.976 78.3132C54.976 81.1082 52.7102 83.3741 49.915 83.3741C47.1202 83.3741 44.8542 81.1082 44.8542 78.3132C44.8542 75.5182 47.1202 77.6384 49.9152 77.6384C52.7102 77.6384 54.976 75.5182 54.976 78.3132Z" fill="#F9F9F9"/>
<path d="M74.7476 56.7578H74.7474C70.7788 56.7578 67.5615 59.9751 67.5615 63.9437V63.9619C67.5615 67.9305 70.7788 71.1478 74.7474 71.1478H74.7476C78.7163 71.1478 81.9335 67.9305 81.9335 63.9619V63.9437C81.9335 59.9751 78.7163 56.7578 74.7476 56.7578Z" fill="#DA9969"/>
<path d="M71.579 62.8816C71.9873 61.9018 74.5185 57.6633 77.2131 60.0742C79.2821 61.9253 74.7635 65.4944 74.5185 63.698C74.2736 61.9016 79.9894 61.9833 78.3563 66.311C77.6475 68.1892 73.947 68.3525 71.579 66.0662" stroke="black" stroke-opacity="0.19" stroke-width="0.653236" stroke-linecap="round" stroke-linejoin="round"/>
<path d="M25.754 56.7578H25.7541C29.7228 56.7578 32.9401 59.9751 32.9401 63.9437V63.9619C32.9401 67.9305 29.7228 71.1478 25.7541 71.1478H25.754C21.7853 71.1478 18.568 67.9305 18.568 63.9619V63.9437C18.568 59.9751 21.7853 56.7578 25.754 56.7578Z" fill="#DA9969"/>
<path d="M28.9226 62.8816C28.5143 61.9018 25.983 57.6633 23.2884 60.0742C21.2195 61.9253 25.7381 65.4944 25.983 63.698C26.228 61.9016 20.5122 61.9833 22.1453 66.311C22.854 68.1892 26.5546 68.3525 28.9226 66.0662" stroke="black" stroke-opacity="0.19" stroke-width="0.653236" stroke-linecap="round" stroke-linejoin="round"/>
<path d="M38.8527 57.3667C39.3617 56.9666 40.1448 56.166 41.672 56.166C42.9694 56.166 44.0604 57.0466 44.2561 57.3667M55.3402 57.3667C55.8492 56.9666 56.6323 56.166 58.1592 56.166C59.4567 56.166 60.5478 57.0466 60.7434 57.3667" stroke="black" stroke-width="0.600324" stroke-linecap="round"/>
<path d="M42.5547 59.5518H40.197C38.8948 59.5518 37.8391 60.6074 37.8391 61.9096V65.8392C37.8391 67.1414 38.8948 68.197 40.197 68.197H42.5547C43.8569 68.197 44.9125 67.1414 44.9125 65.8392V61.9096C44.9125 60.6074 43.8569 59.5518 42.5547 59.5518Z" fill="white"/>
<path d="M59.0489 59.5518H56.6912C55.389 59.5518 54.3334 60.6074 54.3334 61.9096V65.8392C54.3334 67.1414 55.389 68.197 56.6912 68.197H59.0489C60.3511 68.197 61.4068 67.1414 61.4068 65.8392V61.9096C61.4068 60.6074 60.3511 59.5518 59.0489 59.5518Z" fill="white"/>
<path d="M56.1297 61.5027C56.1297 60.409 57.0248 59.5272 58.1182 59.5432L59.7513 59.5672C60.8222 59.583 61.6822 60.4556 61.6822 61.5267V66.2913C61.6822 67.3735 60.8048 68.251 59.7225 68.251H58.0894C57.0072 68.251 56.1297 67.3735 56.1297 66.2913V61.5027ZM39.6355 61.5027C39.6355 60.409 40.5304 59.5272 41.6241 59.5432L43.257 59.5672C44.328 59.583 45.188 60.4556 45.188 61.5267V66.2913C45.188 67.3735 44.3105 68.251 43.2283 68.251H41.5952C40.513 68.251 39.6355 67.3735 39.6355 66.2913V61.5027Z" fill="#757575"/>
<path d="M42.4002 61.4307H42.4C41.5604 61.4307 40.8798 62.1113 40.8798 62.9509V64.6403C40.8798 65.4799 41.5604 66.1606 42.4 66.1606H42.4002C43.2398 66.1606 43.9204 65.4799 43.9204 64.6403V62.9509C43.9204 62.1113 43.2398 61.4307 42.4002 61.4307Z" fill="black"/>
<path d="M58.8944 61.4307H58.8943C58.0547 61.4307 57.374 62.1113 57.374 62.9509V64.6403C57.374 65.4799 58.0547 66.1606 58.8943 66.1606H58.8944C59.734 66.1606 60.4147 65.4799 60.4147 64.6403V62.9509C60.4147 62.1113 59.734 61.4307 58.8944 61.4307Z" fill="black"/>
<path d="M36.5098 72.9466C36.5098 72.3666 36.0397 71.8965 35.4597 71.8965C34.8798 71.8965 34.4097 72.3666 34.4097 72.9466C34.4097 73.5265 34.8798 73.9966 35.4597 73.9966C36.0397 73.9966 36.5098 73.5265 36.5098 72.9466Z" fill="black" fill-opacity="0.19"/>
<path d="M40.4476 70.5843C40.4476 70.0043 39.9774 69.5342 39.3975 69.5342C38.8175 69.5342 38.3474 70.0043 38.3474 70.5843V70.8467C38.3474 71.4266 38.8175 71.8968 39.3975 71.8968C39.9774 71.8968 40.4476 71.4266 40.4476 70.8467V70.5843Z" fill="black" fill-opacity="0.19"/>
<path d="M43.5976 72.9466C43.5976 72.3666 43.1275 71.8965 42.5475 71.8965C41.9676 71.8965 41.4974 72.3666 41.4974 72.9466C41.4974 73.5265 41.9676 73.9966 42.5475 73.9966C43.1275 73.9966 43.5976 73.5265 43.5976 72.9466Z" fill="black" fill-opacity="0.19"/>
<path d="M58.2984 72.9466C58.2984 72.3666 57.8283 71.8965 57.2483 71.8965C56.6684 71.8965 56.1982 72.3666 56.1982 72.9466C56.1982 73.5265 56.6684 73.9966 57.2483 73.9966C57.8283 73.9966 58.2984 73.5265 58.2984 72.9466Z" fill="black" fill-opacity="0.19"/>
<path d="M62.2361 70.5843C62.2361 70.0043 61.766 69.5342 61.1861 69.5342C60.6061 69.5342 60.136 70.0043 60.136 70.5843V70.8467C60.136 71.4266 60.6061 71.8968 61.1861 71.8968C61.766 71.8968 62.2361 71.4266 62.2361 70.8467V70.5843Z" fill="black" fill-opacity="0.19"/>
<path d="M65.3863 72.9466C65.3863 72.3666 64.9162 71.8965 64.3362 71.8965C63.7563 71.8965 63.2861 72.3666 63.2861 72.9466C63.2861 73.5265 63.7563 73.9966 64.3362 73.9966C64.9162 73.9966 65.3863 73.5265 65.3863 72.9466Z" fill="black" fill-opacity="0.19"/>
<path d="M47.5707 69.1164C47.5065 69.3528 47.4741 69.5968 47.4744 69.8418C47.4744 71.3643 48.7087 72.5988 50.2314 72.5988C51.7539 72.5988 52.9883 71.3643 52.9883 69.8418C52.9883 69.5906 52.9547 69.3475 52.8918 69.1162C52.5734 70.287 51.5029 71.1478 50.2314 71.1478C48.9598 71.1478 47.8892 70.2871 47.5707 69.1164Z" fill="black" fill-opacity="0.19"/>
<path d="M31.0181 55.6289H30.6619C29.4162 55.6289 28.4062 56.6389 28.4062 57.8846V64.0581C28.4062 65.3038 29.4162 66.3137 30.6619 66.3137H31.0181C32.2638 66.3137 33.2738 65.3038 33.2738 64.0581V57.8846C33.2738 56.6389 32.2638 55.6289 31.0181 55.6289Z" fill="#F59797"/>
<path d="M68.6521 55.6289H69.0082C70.254 55.6289 71.2639 56.6389 71.2639 57.8846V64.0581C71.2639 65.3038 70.254 66.3137 69.0082 66.3137H68.6521C67.4063 66.3137 66.3964 65.3038 66.3964 64.0581V57.8846C66.3964 56.6389 67.4063 55.6289 68.6521 55.6289Z" fill="#F59797"/>
<path d="M69.1074 48.515C69.8847 50.397 70.4726 52.6109 70.4726 56.8255C69.1667 56.8255 61.7276 57.5378 56.8792 55.6383C52.0307 53.7387 51.312 52.2547 49.7559 49.9397C48.2126 53.1451 45.3633 54.4511 41.03 55.6383C36.6967 56.8255 31.1366 56.5287 29.2173 56.8255C29.2173 54.0815 29.4595 51.3644 30.5066 48.8294C31.5529 46.2954 33.0875 43.9921 35.0231 42.0506C36.9566 40.1111 39.2535 38.572 41.7825 37.5212C44.3097 36.4713 47.0193 35.9308 49.7559 35.9307C52.4925 35.9308 55.2021 36.4713 57.7293 37.5212C60.2583 38.5719 62.5553 40.1111 64.4888 42.0506C66.4236 43.9908 68.0602 45.98 69.1074 48.515Z" fill="#F59797"/>
</g>
</svg>
