<svg width="100" height="100" viewBox="0 0 100 100" fill="none" xmlns="http://www.w3.org/2000/svg">
<mask id="mask0_329_1656" style="mask-type:luminance" maskUnits="userSpaceOnUse" x="0" y="0" width="100" height="100">
<path d="M100 0H0V100H100V0Z" fill="white"/>
</mask>
<g mask="url(#mask0_329_1656)">
<path d="M49.9403 8.68945L56.4465 16.5956L65.739 12.2955L68.1704 22.2417L78.4084 22.399L76.2836 32.4153L85.4394 36.9992L79.1791 45.1016L85.4394 53.2039L76.2836 57.7878L78.4084 67.8041L68.1704 67.9614L65.739 77.9076L56.4465 73.6075L49.9403 81.5137L43.4341 73.6075L34.1416 77.9076L31.7102 67.9614L21.4722 67.8041L23.597 57.7878L14.4412 53.2039L20.7015 45.1016L14.4412 36.9992L23.597 32.4153L21.4722 22.399L31.7102 22.2417L34.1416 12.2955L43.4341 16.5958L49.9403 8.68945Z" fill="#D6B370"/>
<path d="M49.5157 88.6406C61.5565 88.6406 71.3175 78.8797 71.3175 66.8389C71.3175 54.7981 61.5565 45.0371 49.5157 45.0371C37.4749 45.0371 27.7139 54.7981 27.7139 66.8389C27.7139 78.8797 37.4749 88.6406 49.5157 88.6406Z" fill="#A66637"/>
<path d="M71.3682 65.6631C70.7736 77.1947 61.2352 86.3619 49.5557 86.3619C37.8763 86.3619 28.3379 77.1947 27.7433 65.6631C27.7237 66.0438 27.7139 66.425 27.7139 66.8062C27.7139 78.8692 37.4929 88.648 49.5557 88.648C61.6187 88.648 71.3976 78.8692 71.3976 66.8062C71.3976 66.4228 71.3877 66.0416 71.3682 65.6631Z" fill="black" fill-opacity="0.19"/>
<path d="M54.8875 82.1889C54.8875 84.9839 52.6215 82.8637 49.8265 82.8637C47.0315 82.8637 44.7656 84.9839 44.7656 82.1889C44.7656 79.3938 47.0315 77.1279 49.8265 77.1279C52.6215 77.1279 54.8875 79.3938 54.8875 82.1889Z" fill="#DE8383"/>
<path fill-rule="evenodd" clip-rule="evenodd" d="M53.9646 79.4536H45.6399C46.5038 78.0294 48.0449 77.0811 49.8022 77.0811C51.5594 77.0811 53.1005 78.0294 53.9646 79.4536Z" fill="#F9F9F9"/>
<path d="M81.7882 63.7897C81.7882 59.816 78.5669 56.5947 74.5932 56.5947C70.6196 56.5947 67.3983 59.816 67.3983 63.7897C67.3983 67.7634 70.6196 70.9847 74.5932 70.9847C78.5669 70.9847 81.7882 67.7634 81.7882 63.7897Z" fill="#A66637"/>
<path d="M76.7069 59.7793L70.3378 64.5153L77.4418 67.6998" stroke="black" stroke-opacity="0.19" stroke-width="0.816545" stroke-linecap="round" stroke-linejoin="round"/>
<path d="M18.7134 63.7897C18.7134 59.816 21.9347 56.5947 25.9083 56.5947C29.882 56.5947 33.1033 59.816 33.1033 63.7897C33.1033 67.7634 29.882 70.9847 25.9083 70.9847C21.9347 70.9847 18.7134 67.7634 18.7134 63.7897Z" fill="#A66637"/>
<path d="M23.7947 59.7793L30.1638 64.5153L23.0598 67.6998" stroke="black" stroke-opacity="0.19" stroke-width="0.816545" stroke-linecap="round" stroke-linejoin="round"/>
<path d="M37.1859 58.8003C37.8877 58.2487 38.9666 57.1455 41.071 57.1455C42.8589 57.1455 44.3625 58.3589 44.6323 58.8003" stroke="black" stroke-width="1.35138" stroke-linecap="round"/>
<path d="M37.1859 64.8421C37.8873 64.2907 38.9665 63.1875 41.071 63.1875C42.8589 63.1875 44.3624 64.4009 44.6322 64.8421" stroke="black" stroke-width="0.675773" stroke-linecap="round"/>
<path d="M54.9866 58.8003C55.688 58.2487 56.7672 57.1455 58.8716 57.1455C60.6597 57.1455 62.1631 58.3589 62.4329 58.8003" stroke="black" stroke-width="1.35138" stroke-linecap="round"/>
<path d="M54.9866 64.8421C55.688 64.2907 56.7672 63.1875 58.8716 63.1875C60.6597 63.1875 62.1631 64.4009 62.4329 64.8421" stroke="black" stroke-width="0.675773" stroke-linecap="round"/>
<path d="M39.5377 71.7714C39.5377 69.8142 37.9511 68.2275 35.9938 68.2275C34.0366 68.2275 32.45 69.8142 32.45 71.7714C32.45 73.7287 34.0366 75.3153 35.9938 75.3153C37.9511 75.3153 39.5377 73.7287 39.5377 71.7714Z" fill="#F88888"/>
<path d="M67.7902 71.7714C67.7902 69.8142 66.2036 68.2275 64.2463 68.2275C62.2891 68.2275 60.7025 69.8142 60.7025 71.7714C60.7025 73.7287 62.2891 75.3153 64.2463 75.3153C66.2036 75.3153 67.7902 73.7287 67.7902 71.7714Z" fill="#F88888"/>
<path d="M49.3301 67.084C48.1719 68.6292 47.3637 72.2256 48.0584 72.5627C48.7533 72.8999 49.7643 72.5627 50.85 72.5627" stroke="black" stroke-opacity="0.5" stroke-width="0.653236" stroke-linecap="round" stroke-linejoin="round"/>
<path d="M30.0763 59.4058C29.9761 57.0816 29.6955 55.9039 31.7253 55.6289C34.056 56.0538 33.4007 58.3061 33.1499 59.4058C32.8994 60.5053 34.2866 61.655 34.036 64.0792C33.7853 66.5035 31.0639 67.6402 29.7665 65.6014C28.1044 62.9896 30.1766 61.73 30.0764 59.4058H30.0763Z" fill="#D6B370"/>
<path d="M69.594 59.4058C69.6942 57.0816 69.9747 55.9039 67.9449 55.6289C65.6142 56.0538 66.2695 58.3061 66.5203 59.4058C66.7708 60.5053 65.3837 61.655 65.6343 64.0792C65.8849 66.5035 68.6063 67.6402 69.9037 65.6014C71.5658 62.9896 69.4936 61.73 69.5938 59.4058H69.594Z" fill="#D6B370"/>
<path d="M69.1074 48.8705C69.8847 50.7525 70.4726 52.9664 70.4726 57.1809C69.1667 57.1809 65.9019 58.4869 59.491 55.044C52.9799 51.5473 51.312 47.9801 49.7559 45.665C48.2126 48.8705 45.3633 51.76 41.1487 54.391C36.9341 57.022 31.1366 56.8841 29.2173 57.1809C29.2173 54.4369 29.4595 51.7199 30.5066 49.1849C31.5529 46.6509 33.0875 44.3475 35.0231 42.4061C36.9566 40.4666 39.2535 38.9274 41.7825 37.8766C44.3097 36.8267 47.0193 36.2862 49.7559 36.2861C52.4925 36.2862 55.2021 36.8267 57.7293 37.8766C60.2583 38.9274 62.5553 40.4666 64.4888 42.4061C66.4236 44.3463 68.0602 46.3355 69.1074 48.8705Z" fill="#D6B370"/>
</g>
</svg>
