<svg width="100" height="100" viewBox="0 0 100 100" fill="none" xmlns="http://www.w3.org/2000/svg">
<mask id="mask0_329_1296" style="mask-type:luminance" maskUnits="userSpaceOnUse" x="0" y="0" width="100" height="100">
<path d="M100 0H0V100H100V0Z" fill="white"/>
</mask>
<g mask="url(#mask0_329_1296)">
<path d="M50.762 25.3213H49.1186C32.7622 25.3213 19.5027 40.5101 19.5027 59.2462V95.1405H80.3779V59.2462C80.3779 40.5101 67.1184 25.3213 50.762 25.3213Z" fill="#E8E1E1"/>
<path d="M69.1945 54.3662H30.4559V81.531H30.4584C30.4567 81.5795 30.4561 81.6282 30.4561 81.677C30.4561 86.7586 39.128 94.8471 49.8252 94.8471C60.5226 94.8471 69.1945 86.7586 69.1945 81.677C69.1945 81.6282 69.1937 81.5795 69.192 81.531H69.1945V54.3662Z" fill="#C07F50"/>
<path d="M30.4559 78.335V78.4656C30.4563 78.422 30.4571 78.3784 30.4584 78.335H30.4559ZM30.4559 78.4965V81.5309H30.4584C30.4567 81.5794 30.4561 81.6283 30.4561 81.6771C30.4561 86.7586 39.128 94.847 49.8252 94.847C60.5226 94.847 69.1945 86.7586 69.1945 81.6771C69.1945 81.6283 69.1937 81.5794 69.192 81.5309H69.1945V78.335H69.192C69.1937 78.3836 69.1945 78.4323 69.1945 78.481C69.1945 83.5625 60.5226 91.651 49.8252 91.651C39.1388 91.651 30.4734 83.579 30.4559 78.4965Z" fill="black" fill-opacity="0.19"/>
<path d="M49.679 72.4736C60.4571 72.4736 69.1944 64.7964 69.1944 55.3262C69.1944 45.8559 60.4571 38.1787 49.679 38.1787C38.9009 38.1787 30.1636 45.8559 30.1636 55.3262C30.1636 64.7964 38.9009 72.4736 49.679 72.4736Z" fill="#C07F50"/>
<path fill-rule="evenodd" clip-rule="evenodd" d="M45.0807 77.0799C45.197 77.0647 45.3146 77.0964 45.4075 77.1679C45.5005 77.2394 45.5612 77.3449 45.5764 77.4612C45.6868 78.3075 46.9426 80.5327 51.6456 80.762C51.7036 80.7648 51.7605 80.7791 51.813 80.8039C51.8655 80.8287 51.9126 80.8636 51.9516 80.9066C51.9907 80.9497 52.0208 80.9999 52.0404 81.0546C52.06 81.1093 52.0686 81.1673 52.0658 81.2253C52.063 81.2833 52.0487 81.3402 52.0239 81.3927C51.9991 81.4452 51.9642 81.4923 51.9212 81.5314C51.8781 81.5704 51.8279 81.6005 51.7732 81.6201C51.7185 81.6397 51.6605 81.6483 51.6025 81.6455C46.6353 81.4032 44.8839 78.9898 44.6994 77.5757C44.6919 77.5181 44.6958 77.4596 44.7109 77.4035C44.726 77.3474 44.752 77.2948 44.7874 77.2488C44.8228 77.2028 44.8669 77.1641 44.9172 77.1352C44.9676 77.1062 45.0231 77.0874 45.0807 77.0799Z" fill="black"/>
<path d="M74.7476 56.7578H74.7474C70.7788 56.7578 67.5615 59.9751 67.5615 63.9437V63.9619C67.5615 67.9305 70.7788 71.1478 74.7474 71.1478H74.7476C78.7163 71.1478 81.9335 67.9305 81.9335 63.9619V63.9437C81.9335 59.9751 78.7163 56.7578 74.7476 56.7578Z" fill="#C07F50"/>
<path d="M71.579 62.8816C71.9873 61.9018 74.5185 57.6633 77.2131 60.0742C79.2821 61.9253 74.7635 65.4944 74.5185 63.698C74.2736 61.9016 79.9894 61.9833 78.3563 66.311C77.6475 68.1892 73.947 68.3525 71.579 66.0662" stroke="black" stroke-opacity="0.19" stroke-width="0.653236" stroke-linecap="round" stroke-linejoin="round"/>
<path d="M25.754 56.7578H25.7541C29.7228 56.7578 32.9401 59.9751 32.9401 63.9437V63.9619C32.9401 67.9305 29.7228 71.1478 25.7541 71.1478H25.754C21.7853 71.1478 18.568 67.9305 18.568 63.9619V63.9437C18.568 59.9751 21.7853 56.7578 25.754 56.7578Z" fill="#C07F50"/>
<path d="M28.9226 62.8816C28.5143 61.9018 25.983 57.6633 23.2884 60.0742C21.2195 61.9253 25.7381 65.4944 25.983 63.698C26.228 61.9016 20.5122 61.9833 22.1453 66.311C22.854 68.1892 26.5546 68.3525 28.9226 66.0662" stroke="black" stroke-opacity="0.19" stroke-width="0.653236" stroke-linecap="round" stroke-linejoin="round"/>
<path d="M58.1184 64.1862C59.1605 64.1862 60.0054 63.3413 60.0054 62.2991C60.0054 61.257 59.1605 60.4121 58.1184 60.4121C57.0762 60.4121 56.2313 61.257 56.2313 62.2991C56.2313 63.3413 57.0762 64.1862 58.1184 64.1862Z" fill="#161616"/>
<path d="M41.7874 64.1862C42.8296 64.1862 43.6745 63.3413 43.6745 62.2991C43.6745 61.257 42.8296 60.4121 41.7874 60.4121C40.7452 60.4121 39.9004 61.257 39.9004 62.2991C39.9004 63.3413 40.7452 64.1862 41.7874 64.1862Z" fill="#161616"/>
<path d="M55.4765 60.4121C55.6203 60.8147 56.1236 61.6802 56.9862 61.9217M39.1456 60.4121C39.2893 60.8147 39.7927 61.6802 40.6553 61.9217" stroke="black" stroke-width="0.754815" stroke-linecap="round" stroke-linejoin="round"/>
<path d="M44.7945 69.1152C44.7303 69.3517 44.6979 69.5958 44.6981 69.8408C44.6981 71.3633 45.9324 72.5978 47.4551 72.5978H52.9689C54.4916 72.5978 55.7259 71.3633 55.7259 69.8408C55.7259 69.5896 55.6924 69.3465 55.6295 69.1152C55.3111 70.2858 54.2404 71.1468 52.9689 71.1468H47.4551C46.1836 71.1468 45.1129 70.2858 44.7945 69.1152Z" fill="black" fill-opacity="0.19"/>
<path d="M31.7941 66.0167C28.8956 66.0167 28.2364 59.4842 28.5249 56.1035H31.7941C31.0539 57.9952 31.4076 59.6426 31.6116 61.6834C31.8491 64.0578 34.1447 62.2936 34.6298 61.3571C34.6884 63.2207 33.2023 66.0167 31.7941 66.0167Z" fill="#E8E1E1"/>
<path d="M67.876 66.0167C70.7746 66.0167 71.4337 59.4842 71.1452 56.1035H67.876C68.6163 57.9952 68.2626 59.6426 68.0585 61.6834C67.8211 64.0578 65.5255 62.2936 65.0404 61.3571C64.9818 63.2207 66.4679 66.0167 67.876 66.0167Z" fill="#E8E1E1"/>
<path d="M69.1074 48.6332C69.8847 50.5152 70.4726 52.7291 70.4726 56.9436C69.1667 56.9436 65.9019 58.2496 59.491 54.8067C52.9799 51.31 51.312 47.7428 49.7559 45.4277C48.2126 48.6332 45.3633 51.5227 41.1487 54.1537C36.9341 56.7847 31.1366 56.6468 29.2173 56.9436C29.2173 54.1996 29.4595 51.4826 30.5066 48.9476C31.5529 46.4136 33.0875 44.1102 35.0231 42.1687C36.9566 40.2293 39.2535 38.6901 41.7825 37.6393C44.3097 36.5894 47.0193 36.0489 49.7559 36.0488C52.4925 36.0489 55.2021 36.5894 57.7293 37.6393C60.2583 38.6901 62.5553 40.2293 64.4888 42.1687C66.4236 44.109 68.0602 46.0982 69.1074 48.6332Z" fill="#E8E1E1"/>
<path d="M60.5612 42.2225C59.1874 38.8246 55.6635 36.7293 50.2283 37.5221C46.6447 37.959 44.4944 40.4102 42.2248 42.2223C39.9551 44.0346 36.9687 48.1121 39.3579 52.1328C41.747 56.1536 58.7694 60.7407 64.6226 52.9256C67.7801 48.7099 61.9349 45.6202 60.5612 42.2225Z" fill="#E8E1E1"/>
</g>
</svg>
