<svg width="100" height="100" viewBox="0 0 100 100" fill="none" xmlns="http://www.w3.org/2000/svg">
<mask id="mask0_329_1106" style="mask-type:luminance" maskUnits="userSpaceOnUse" x="0" y="0" width="100" height="100">
<path d="M100 0H0V100H100V0Z" fill="white"/>
</mask>
<g mask="url(#mask0_329_1106)">
<path d="M12.2896 58.5376C13.5253 66.9744 24.1472 75.9072 39.7979 72.3215C44.7404 69.3687 55.8607 69.5796 62.2447 70.845C68.6285 72.1106 76.0627 76.1794 87.595 68.5863C99.1272 60.9931 94.2 42.5719 83.2279 34.2626C76.0382 28.8179 71.7244 15.4893 52.2324 15.4893C34.0718 15.4893 28.959 27.7402 21.5032 34.2626C13.8768 40.9341 11.054 50.1006 12.2896 58.5376Z" fill="#724133"/>
<path d="M49.5156 88.6406C61.5564 88.6406 71.3174 78.8797 71.3174 66.8389C71.3174 54.7981 61.5564 45.0371 49.5156 45.0371C37.4748 45.0371 27.7139 54.7981 27.7139 66.8389C27.7139 78.8797 37.4748 88.6406 49.5156 88.6406Z" fill="#F8B788"/>
<path d="M71.3682 65.6631C70.7736 77.1947 61.2352 86.3619 49.5556 86.3619C37.8763 86.3619 28.3379 77.1947 27.7433 65.6631C27.7237 66.0438 27.7138 66.425 27.7139 66.8062C27.7139 78.8692 37.4928 88.648 49.5556 88.648C61.6186 88.648 71.3976 78.8692 71.3976 66.8062C71.3976 66.4228 71.3876 66.0416 71.3682 65.6631Z" fill="black" fill-opacity="0.19"/>
<path fill-rule="evenodd" clip-rule="evenodd" d="M45.0806 77.0799C45.1969 77.0647 45.3144 77.0964 45.4074 77.1679C45.5003 77.2394 45.5611 77.3449 45.5763 77.4612C45.6866 78.3075 46.9425 80.5327 51.6455 80.762C51.7035 80.7648 51.7604 80.7791 51.8129 80.8039C51.8654 80.8287 51.9125 80.8636 51.9515 80.9066C51.9905 80.9497 52.0207 80.9999 52.0403 81.0546C52.0599 81.1093 52.0685 81.1673 52.0657 81.2253C52.0628 81.2833 52.0486 81.3402 52.0238 81.3927C51.999 81.4452 51.9641 81.4923 51.921 81.5314C51.878 81.5704 51.8277 81.6005 51.773 81.6201C51.7184 81.6397 51.6604 81.6483 51.6024 81.6455C46.6351 81.4032 44.8838 78.9898 44.6993 77.5757C44.6918 77.5181 44.6957 77.4596 44.7107 77.4035C44.7258 77.3474 44.7518 77.2948 44.7872 77.2488C44.8227 77.2028 44.8668 77.1641 44.9171 77.1352C44.9675 77.1062 45.023 77.0874 45.0806 77.0799Z" fill="black"/>
<path d="M74.7476 56.7578H74.7474C70.7788 56.7578 67.5615 59.9751 67.5615 63.9437V63.9619C67.5615 67.9305 70.7788 71.1478 74.7474 71.1478H74.7476C78.7163 71.1478 81.9335 67.9305 81.9335 63.9619V63.9437C81.9335 59.9751 78.7163 56.7578 74.7476 56.7578Z" fill="#F8B788"/>
<path d="M71.5789 62.8816C71.9871 61.9018 74.5184 57.6633 77.213 60.0742C79.282 61.9253 74.7634 65.4944 74.5184 63.698C74.2735 61.9016 79.9893 61.9833 78.3562 66.311C77.6474 68.1892 73.9468 68.3525 71.5789 66.0662" stroke="black" stroke-opacity="0.19" stroke-width="0.653236" stroke-linecap="round" stroke-linejoin="round"/>
<path d="M25.7539 56.7578H25.754C29.7227 56.7578 32.9399 59.9751 32.9399 63.9437V63.9619C32.9399 67.9305 29.7227 71.1478 25.754 71.1478H25.7539C21.7852 71.1478 18.5679 67.9305 18.5679 63.9619V63.9437C18.5679 59.9751 21.7852 56.7578 25.7539 56.7578Z" fill="#F8B788"/>
<path d="M28.9226 62.8816C28.5143 61.9018 25.983 57.6633 23.2884 60.0742C21.2195 61.9253 25.7381 65.4944 25.983 63.698C26.228 61.9016 20.5122 61.9833 22.1453 66.311C22.854 68.1892 26.5546 68.3525 28.9226 66.0662" stroke="black" stroke-opacity="0.19" stroke-width="0.653236" stroke-linecap="round" stroke-linejoin="round"/>
<path d="M55.987 57.5845C56.5883 57.1116 57.5135 56.166 59.3174 56.166C60.8501 56.166 62.1389 57.2063 62.3701 57.5845M43.1185 57.5845C42.5171 57.1116 41.592 56.166 39.7881 56.166C38.2554 56.166 36.9666 57.2063 36.7354 57.5845" stroke="black" stroke-width="0.600324" stroke-linecap="round"/>
<path d="M40.3259 68.6224C42.8719 68.6224 44.9359 66.5585 44.9359 64.0124C44.9359 61.4663 42.8719 59.4023 40.3259 59.4023C37.7798 59.4023 35.7158 61.4663 35.7158 64.0124C35.7158 66.5585 37.7798 68.6224 40.3259 68.6224Z" fill="white"/>
<path d="M58.8686 68.6224C61.4147 68.6224 63.4787 66.5585 63.4787 64.0124C63.4787 61.4663 61.4147 59.4023 58.8686 59.4023C56.3225 59.4023 54.2585 61.4663 54.2585 64.0124C54.2585 66.5585 56.3225 68.6224 58.8686 68.6224Z" fill="white"/>
<path d="M40.326 66.4939C41.697 66.4939 42.8083 65.3825 42.8083 64.0116C42.8083 62.6407 41.697 61.5293 40.326 61.5293C38.9551 61.5293 37.8438 62.6407 37.8438 64.0116C37.8438 65.3825 38.9551 66.4939 40.326 66.4939Z" fill="black"/>
<path d="M58.8685 66.4939C60.2395 66.4939 61.3508 65.3825 61.3508 64.0116C61.3508 62.6407 60.2395 61.5293 58.8685 61.5293C57.4976 61.5293 56.3862 62.6407 56.3862 64.0116C56.3862 65.3825 57.4976 66.4939 58.8685 66.4939Z" fill="black"/>
<path d="M63.3584 63.129H54.2209C54.5232 60.8756 56.4535 59.1377 58.7897 59.1377C61.1258 59.1377 63.0561 60.8756 63.3584 63.129ZM44.8537 63.129H35.7161C36.0183 60.8756 37.9487 59.1377 40.2848 59.1377C42.6209 59.1377 44.5513 60.8756 44.8537 63.129Z" fill="#CD9166"/>
<path d="M36.5096 72.9466C36.5096 72.3666 36.0394 71.8965 35.4595 71.8965C34.8796 71.8965 34.4094 72.3666 34.4094 72.9466C34.4094 73.5265 34.8796 73.9966 35.4595 73.9966C36.0394 73.9966 36.5096 73.5265 36.5096 72.9466Z" fill="black" fill-opacity="0.19"/>
<path d="M40.4473 70.5843C40.4473 70.0043 39.9772 69.5342 39.3972 69.5342C38.8173 69.5342 38.3472 70.0043 38.3472 70.5843V70.8467C38.3472 71.4266 38.8173 71.8968 39.3972 71.8968C39.9772 71.8968 40.4473 71.4266 40.4473 70.8467V70.5843Z" fill="black" fill-opacity="0.19"/>
<path d="M43.5975 72.9466C43.5975 72.3666 43.1273 71.8965 42.5474 71.8965C41.9675 71.8965 41.4973 72.3666 41.4973 72.9466C41.4973 73.5265 41.9675 73.9966 42.5474 73.9966C43.1273 73.9966 43.5975 73.5265 43.5975 72.9466Z" fill="black" fill-opacity="0.19"/>
<path d="M58.2982 72.9466C58.2982 72.3666 57.828 71.8965 57.2481 71.8965C56.6681 71.8965 56.198 72.3666 56.198 72.9466C56.198 73.5265 56.6681 73.9966 57.2481 73.9966C57.828 73.9966 58.2982 73.5265 58.2982 72.9466Z" fill="black" fill-opacity="0.19"/>
<path d="M62.2359 70.5843C62.2359 70.0043 61.7658 69.5342 61.1858 69.5342C60.6059 69.5342 60.1357 70.0043 60.1357 70.5843V70.8467C60.1357 71.4266 60.6059 71.8968 61.1858 71.8968C61.7658 71.8968 62.2359 71.4266 62.2359 70.8467V70.5843Z" fill="black" fill-opacity="0.19"/>
<path d="M65.386 72.9466C65.386 72.3666 64.9159 71.8965 64.336 71.8965C63.756 71.8965 63.2859 72.3666 63.2859 72.9466C63.2859 73.5265 63.756 73.9966 64.336 73.9966C64.9159 73.9966 65.386 73.5265 65.386 72.9466Z" fill="black" fill-opacity="0.19"/>
<path d="M50.7976 67.084C50.6878 67.959 50.3039 69.742 49.6454 69.8733C48.8227 70.0373 47.8352 68.5606 47.5061 69.5451C47.1769 70.5295 49.481 72.9905 51.1267 72.4983" stroke="black" stroke-opacity="0.5" stroke-width="0.608816" stroke-linecap="round" stroke-linejoin="round"/>
<path d="M30.0761 59.4058C29.9759 57.0816 29.6954 55.9039 31.7251 55.6289C34.0558 56.0538 33.4005 58.3061 33.1498 59.4058C32.8993 60.5053 34.2864 61.655 34.0358 64.0792C33.7852 66.5035 31.0637 67.6402 29.7664 65.6014C28.1043 62.9896 30.1764 61.73 30.0762 59.4058H30.0761Z" fill="#724133"/>
<path d="M69.5938 59.4058C69.694 57.0816 69.9746 55.9039 67.9448 55.6289C65.6141 56.0538 66.2694 58.3061 66.5202 59.4058C66.7707 60.5053 65.3835 61.655 65.6341 64.0792C65.8848 66.5035 68.6062 67.6402 69.9036 65.6014C71.5657 62.9896 69.4935 61.73 69.5937 59.4058H69.5938Z" fill="#724133"/>
<path d="M72.0753 57.2406C72.0752 51.3998 69.755 45.7983 65.625 41.6682C62.5451 38.5882 58.6211 36.4907 54.3491 35.6409C50.0771 34.7912 45.649 35.2273 41.6249 36.8943C37.6008 38.5611 34.1613 41.3838 31.7414 45.0054C29.3216 48.627 28.03 52.8849 28.03 57.2406H72.0753Z" fill="#724133"/>
</g>
</svg>
