<svg width="100" height="100" viewBox="0 0 100 100" fill="none" xmlns="http://www.w3.org/2000/svg">
<mask id="mask0_329_1335" style="mask-type:luminance" maskUnits="userSpaceOnUse" x="0" y="0" width="100" height="100">
<path d="M100 0H0V100H100V0Z" fill="white"/>
</mask>
<g mask="url(#mask0_329_1335)">
<path d="M50.762 25.3213H49.1186C32.7622 25.3213 19.5027 40.5101 19.5027 59.2462V95.1405H80.3779V59.2462C80.3779 40.5101 67.1184 25.3213 50.762 25.3213Z" fill="#A55728"/>
<path d="M71.6425 69.0432C71.6436 68.9552 71.6441 68.8669 71.6441 68.7785C71.6441 57.0872 61.7734 43.2412 49.5974 43.2412C37.4214 43.2412 27.5507 57.0872 27.5507 68.7785C27.5507 68.8669 27.5513 68.9552 27.5523 69.0432C27.5513 69.1317 27.5507 69.2201 27.5507 69.3083C27.5507 80.9831 37.4214 90.4475 49.5974 90.4475C61.7734 90.4475 71.6441 80.9831 71.6441 69.3083C71.6441 69.2201 71.6436 69.1317 71.6425 69.0432Z" fill="#DA9969"/>
<path d="M71.5837 67.7061C70.7428 78.6447 61.2204 87.2689 49.5974 87.2689C37.9744 87.2689 28.4521 78.6447 27.6111 67.7061C27.5711 68.2438 27.5507 68.7785 27.5507 69.3086C27.5507 80.9836 37.4214 90.4478 49.5974 90.4478C61.7734 90.4478 71.6441 80.9836 71.6441 69.3086C71.6441 68.7785 71.6237 68.2438 71.5837 67.7061Z" fill="black" fill-opacity="0.19"/>
<path fill-rule="evenodd" clip-rule="evenodd" d="M48.0969 81.2123C48.1268 81.1669 48.1653 81.1277 48.2102 81.0972C48.2552 81.0666 48.3057 81.0452 48.3589 81.0342C48.4122 81.0232 48.4671 81.0227 48.5205 81.0329C48.5739 81.0431 48.6247 81.0637 48.6701 81.0936C49.3376 81.5321 51.6824 82.0004 54.7168 78.8056C54.7924 78.726 54.8965 78.6797 55.0062 78.6769C55.1159 78.6741 55.2223 78.7149 55.3019 78.7905C55.3815 78.8661 55.4278 78.9702 55.4306 79.0799C55.4334 79.1896 55.3926 79.296 55.317 79.3756C52.1119 82.75 49.3312 82.5181 48.2158 81.7854C48.1241 81.7251 48.06 81.6309 48.0378 81.5234C48.0155 81.416 48.0367 81.304 48.0969 81.2123Z" fill="black"/>
<path d="M75.3826 56.1045C71.0608 56.1045 69.2389 59.515 68.868 61.2203V71.2922C72.8404 70.7594 79.9172 67.2954 80.9439 63.9381C81.9707 60.5808 80.785 56.1045 75.3826 56.1045Z" fill="#DA9969"/>
<path d="M75.1275 58.0225C72.0291 58.0225 70.7228 60.4639 70.4569 61.6843V68.8938C73.305 68.5123 78.3784 66.0329 79.1144 63.6298C79.8504 61.2267 79.0006 58.0225 75.1275 58.0225Z" fill="black" fill-opacity="0.19"/>
<path d="M72.3637 63.7293C72.3637 61.8896 71.0926 61.2903 70.457 61.2207V66.6561C71.0926 66.4471 72.3637 65.5691 72.3637 63.7293Z" fill="#DA9969"/>
<path d="M25.119 56.1045C29.4408 56.1045 31.2627 59.515 31.6335 61.2203V71.2922C27.6612 70.7594 20.5844 67.2954 19.5577 63.9381C18.5309 60.5808 19.7166 56.1045 25.119 56.1045Z" fill="#DA9969"/>
<path d="M25.374 58.0225C28.4725 58.0225 29.7788 60.4639 30.0447 61.6843V68.8938C27.1966 68.5123 22.1232 66.0329 21.3872 63.6298C20.6511 61.2267 21.501 58.0225 25.374 58.0225Z" fill="black" fill-opacity="0.19"/>
<path d="M28.1379 63.7293C28.1379 61.8896 29.409 61.2903 30.0446 61.2207V66.6561C29.409 66.4471 28.1379 65.5691 28.1379 63.7293Z" fill="#DA9969"/>
<path d="M56.2744 57.4214C56.8757 56.9485 57.8007 56.0029 59.6046 56.0029C61.1373 56.0029 62.4261 57.0432 62.6574 57.4214M43.4057 57.4214C42.8044 56.9485 41.8792 56.0029 40.0753 56.0029C38.5427 56.0029 37.2538 57.0432 37.0226 57.4214" stroke="black" stroke-width="1.14316" stroke-linecap="round"/>
<path d="M38.0024 61.0654L43.7999 63.5967L38.0024 66.9446M62.0905 61.0654L56.2931 63.5967L62.0905 66.9446" stroke="black" stroke-width="0.653236" stroke-linecap="round" stroke-linejoin="round"/>
<path d="M39.5377 71.7714C39.5377 69.8142 37.9511 68.2275 35.9938 68.2275C34.0366 68.2275 32.45 69.8142 32.45 71.7714C32.45 73.7287 34.0366 75.3153 35.9938 75.3153C37.9511 75.3153 39.5377 73.7287 39.5377 71.7714Z" fill="#FFC6C6"/>
<path d="M67.7902 71.7714C67.7902 69.8142 66.2035 68.2275 64.2463 68.2275C62.289 68.2275 60.7024 69.8142 60.7024 71.7714C60.7024 73.7287 62.289 75.3153 64.2463 75.3153C66.2035 75.3153 67.7902 73.7287 67.7902 71.7714Z" fill="#FFC6C6"/>
<path d="M44.7945 69.1152C44.7303 69.3517 44.6979 69.5958 44.6981 69.8408C44.6981 71.3633 45.9324 72.5978 47.4551 72.5978H52.9689C54.4916 72.5978 55.7259 71.3633 55.7259 69.8408C55.7259 69.5896 55.6924 69.3465 55.6295 69.1152C55.3111 70.2858 54.2404 71.1468 52.9689 71.1468H47.4551C46.1836 71.1468 45.1129 70.2858 44.7945 69.1152Z" fill="black" fill-opacity="0.19"/>
<path d="M34.1048 56.5781H29.2373V67.9753H34.1048V56.5781Z" fill="#A55728"/>
<path d="M65.5654 56.5781H70.433V67.9753H65.5654V56.5781Z" fill="#A55728"/>
<path d="M40.3853 43.1958C40.7024 40.7005 45.0042 40.2934 47.199 40.5122C49.3939 40.731 49.7802 40.8651 52.4361 41.7866C55.0921 42.7081 60.7636 45.7071 59.4705 48.8406C58.4361 51.3474 55.6532 50.3021 54.391 49.4662C54.6788 50.7782 54.9679 53.6067 53.822 54.425C52.676 55.2431 51.2231 53.7041 50.6399 52.8324C50.32 53.5535 49.1045 55.0352 46.8023 55.1916C44.5002 55.348 44.9701 52.2401 45.4928 50.6666C44.4858 50.661 42.3144 50.2586 41.6847 48.6941C41.0549 47.1296 43.0359 46.1778 44.1051 45.8975C42.8334 45.9808 40.1429 45.104 40.3853 43.1958Z" fill="#A55728"/>
<path d="M69.226 48.6332C70.0034 50.5152 70.5913 52.7291 70.5913 56.9436C69.2854 56.9436 66.0206 58.2496 59.6097 54.8067C53.0985 51.31 51.4306 47.7428 49.8746 45.4277C48.3312 48.6332 45.4819 51.5227 41.2673 54.1537C37.0528 56.7847 31.2553 56.6468 29.3359 56.9436C29.3359 54.1996 29.5781 51.4826 30.6252 48.9476C31.6715 46.4136 33.2062 44.1102 35.1417 42.1687C37.0752 40.2293 39.3722 38.6901 41.9012 37.6393C44.4284 36.5894 47.138 36.0489 49.8746 36.0488C52.6112 36.0489 55.3208 36.5894 57.848 37.6393C60.377 38.6901 62.6739 40.2293 64.6074 42.1687C66.5422 44.109 68.1789 46.0982 69.226 48.6332Z" fill="#A55728"/>
</g>
</svg>
