<svg width="100" height="100" viewBox="0 0 100 100" fill="none" xmlns="http://www.w3.org/2000/svg">
<mask id="mask0_329_1185" style="mask-type:luminance" maskUnits="userSpaceOnUse" x="0" y="0" width="100" height="100">
<path d="M100 0H0V100H100V0Z" fill="white"/>
</mask>
<g mask="url(#mask0_329_1185)">
<path d="M17.5821 33.4215C16.4479 28.5318 21.0198 28.9997 27.547 22.8639C34.0743 16.728 41.6527 13.358 54.8445 13.5604C68.0365 13.7625 76.7668 22.4835 78.6838 24.2365C84.5253 31.9064 80.4184 30.7785 84.7655 33.4215C90.1994 36.7254 91.643 41.6796 87.3905 46.6353C83.1377 51.5912 86.587 49.1115 92.0208 53.9021C97.4549 58.6926 90.2784 63.0854 88.6246 67.2152C86.9708 71.345 93.0704 69.1144 93.0704 77.4771C93.0704 80.6258 89.0207 83.7745 80.3141 86.0351C70.157 88.6725 51.8141 91.1215 27.547 86.0351C24.0311 85.2982 17.086 82.2405 14.0295 79.5762C10.9732 76.9119 10.0608 68.7773 15.9672 64.3171C21.8737 59.8569 18.4789 58.0319 15.1714 53.9021C11.8638 49.7722 13.3707 45.4089 19.277 41.4443C25.1834 37.4797 18.9995 39.5337 17.5819 33.4215H17.5821Z" fill="#ECDCBF"/>
<path d="M52.9445 95.2392C75.2838 95.2392 93.3934 86.3109 93.3934 75.2973C93.3934 64.2838 75.2838 55.3555 52.9445 55.3555C30.6052 55.3555 12.4956 64.2838 12.4956 75.2973C12.4956 86.3109 30.6052 95.2392 52.9445 95.2392Z" fill="#ECDCBF"/>
<path d="M69.1944 54.3662H30.4558V81.531H30.4583C30.4566 81.5795 30.456 81.6282 30.456 81.677C30.456 86.7586 39.1279 94.8471 49.8251 94.8471C60.5225 94.8471 69.1944 86.7586 69.1944 81.677C69.1944 81.6282 69.1935 81.5795 69.1919 81.531H69.1944V54.3662Z" fill="#F8B788"/>
<path d="M30.4558 78.335V78.4656C30.4561 78.422 30.457 78.3784 30.4583 78.335H30.4558ZM30.4558 78.4965V81.5309H30.4583C30.4566 81.5794 30.456 81.6283 30.456 81.6771C30.456 86.7586 39.1279 94.847 49.8251 94.847C60.5225 94.847 69.1944 86.7586 69.1944 81.6771C69.1944 81.6283 69.1935 81.5794 69.1919 81.5309H69.1944V78.335H69.1919C69.1935 78.3836 69.1944 78.4323 69.1944 78.481C69.1944 83.5625 60.5225 91.651 49.8251 91.651C39.1386 91.651 30.4733 83.579 30.4558 78.4965Z" fill="black" fill-opacity="0.19"/>
<path d="M49.679 72.4736C60.4571 72.4736 69.1944 64.7964 69.1944 55.3262C69.1944 45.8559 60.4571 38.1787 49.679 38.1787C38.9009 38.1787 30.1636 45.8559 30.1636 55.3262C30.1636 64.7964 38.9009 72.4736 49.679 72.4736Z" fill="#F8B788"/>
<path d="M54.9835 78.8874C54.9835 81.6497 52.6854 83.889 49.8507 83.889C47.0156 83.889 44.7175 81.6497 44.7175 78.8874C44.7175 76.125 45.4018 76.459 49.8507 76.459C53.9571 76.459 54.9835 76.125 54.9835 78.8874Z" fill="#DE8383"/>
<path fill-rule="evenodd" clip-rule="evenodd" d="M54.9497 78.6584H44.7168C44.7516 76.3525 45.3841 76.3579 48.5588 76.3865C48.9478 76.39 49.3754 76.3938 49.845 76.3938C50.2742 76.3938 50.6697 76.39 51.0338 76.3866C54.0375 76.3579 54.899 76.3497 54.9497 78.6584Z" fill="#F9F9F9"/>
<path fill-rule="evenodd" clip-rule="evenodd" d="M54.1298 81.5973C53.2065 82.9185 51.6449 83.7868 49.874 83.7868C48.0711 83.7868 46.4853 82.8868 45.5688 81.525C46.4937 80.7829 48.0462 80.2959 49.8059 80.2959C51.6219 80.2959 53.2174 80.8146 54.1298 81.5973Z" fill="#C06E6E"/>
<path d="M81.6251 64.1159C81.6251 60.1422 78.4038 56.9209 74.4301 56.9209C70.4564 56.9209 67.2351 60.1422 67.2351 64.1159C67.2351 68.0896 70.4564 71.3109 74.4301 71.3109C78.4038 71.3109 81.6251 68.0896 81.6251 64.1159Z" fill="#F8B788"/>
<path d="M78.0136 60.5137L70.7463 67.291" stroke="black" stroke-opacity="0.19" stroke-width="0.816545" stroke-linecap="round" stroke-linejoin="round"/>
<path d="M18.8769 64.1159C18.8769 60.1422 22.0982 56.9209 26.0719 56.9209C30.0455 56.9209 33.2668 60.1422 33.2668 64.1159C33.2668 68.0896 30.0455 71.3109 26.0719 71.3109C22.0982 71.3109 18.8769 68.0896 18.8769 64.1159Z" fill="#F8B788"/>
<path d="M22.4884 60.5137L29.7556 67.291" stroke="black" stroke-opacity="0.19" stroke-width="0.816545" stroke-linecap="round" stroke-linejoin="round"/>
<path d="M41.1758 62.0229C41.1758 61.7226 41.2951 61.4346 41.5074 61.2223C41.7198 61.0099 42.0078 60.8906 42.3081 60.8906C42.6084 60.8906 42.8964 61.0099 43.1087 61.2223C43.3211 61.4346 43.4404 61.7226 43.4404 62.0229V64.2875C43.4404 64.5878 43.3211 64.8758 43.1087 65.0882C42.8964 65.3005 42.6084 65.4198 42.3081 65.4198C42.0078 65.4198 41.7198 65.3005 41.5074 65.0882C41.2951 64.8758 41.1758 64.5878 41.1758 64.2875V62.0229ZM57.1799 62.0229C57.1835 61.725 57.3044 61.4404 57.5163 61.231C57.7283 61.0216 58.0142 60.9041 58.3122 60.9041C58.6102 60.9041 58.8961 61.0216 59.1081 61.231C59.3201 61.4404 59.4409 61.725 59.4445 62.0229V64.2875C59.4445 64.5878 59.3252 64.8758 59.1129 65.0882C58.9005 65.3005 58.6125 65.4198 58.3122 65.4198C58.0119 65.4198 57.7239 65.3005 57.5116 65.0882C57.2992 64.8758 57.1799 64.5878 57.1799 64.2875V62.0229Z" fill="black"/>
<path d="M39.6659 59.7588C39.5402 60.2619 39.7414 61.4195 41.553 62.0232M55.6702 59.7588C55.5445 60.2619 55.7457 61.4195 57.5573 62.0232" stroke="black" stroke-width="0.754815" stroke-linecap="round" stroke-linejoin="round"/>
<path d="M49.3301 67.084C48.1719 68.6292 47.3637 72.2256 48.0584 72.5627C48.7533 72.8999 49.7643 72.5627 50.85 72.5627" stroke="black" stroke-opacity="0.5" stroke-width="0.653236" stroke-linecap="round" stroke-linejoin="round"/>
<path d="M29.1187 66.7881V56.5781H32.9177L32.4835 65.7019L29.1187 66.7881Z" fill="#ECDCBF"/>
<path d="M70.5518 66.7881V56.5781H66.7527L67.1869 65.7019L70.5518 66.7881Z" fill="#ECDCBF"/>
<path d="M69.1074 48.6332C69.8847 50.5152 70.4726 52.7291 70.4726 56.9436C69.1667 56.9436 65.9019 58.2496 59.491 54.8067C52.9799 51.31 51.312 47.7428 49.7559 45.4277C48.2126 48.6332 45.3633 51.5227 41.1487 54.1537C36.9341 56.7847 31.1366 56.6468 29.2173 56.9436C29.2173 54.1996 29.4595 51.4826 30.5066 48.9476C31.5529 46.4136 33.0875 44.1102 35.0231 42.1687C36.9566 40.2293 39.2535 38.6901 41.7825 37.6393C44.3097 36.5894 47.0193 36.0489 49.7559 36.0488C52.4925 36.0489 55.2021 36.5894 57.7293 37.6393C60.2583 38.6901 62.5553 40.2293 64.4888 42.1687C66.4236 44.109 68.0602 46.0982 69.1074 48.6332Z" fill="#ECDCBF"/>
<path d="M60.5613 42.2225C59.1875 38.8246 55.6636 36.7293 50.2284 37.5221C46.6448 37.959 44.4945 40.4102 42.225 42.2223C39.9553 44.0346 36.9689 48.1121 39.358 52.1328C41.7471 56.1536 58.7695 60.7407 64.6228 52.9256C67.7803 48.7099 61.9351 45.6202 60.5613 42.2225Z" fill="#ECDCBF"/>
</g>
</svg>
