<svg width="100" height="100" viewBox="0 0 100 100" fill="none" xmlns="http://www.w3.org/2000/svg">
<mask id="mask0_329_2019" style="mask-type:luminance" maskUnits="userSpaceOnUse" x="0" y="0" width="100" height="100">
<path d="M100 0H0V100H100V0Z" fill="white"/>
</mask>
<g mask="url(#mask0_329_2019)">
<path d="M46.3622 25.6702C58.7452 25.1984 63.2545 31.3416 64.207 34.6449C71.8274 34.6449 77.3199 40.2984 78.2724 47.8483C79.0346 53.8884 77.1034 56.9627 74.4287 60.3424C72.9676 62.1887 71.4281 62.8141 69.4833 63.3841C66.792 64.1727 66.5608 64.398 60.2666 64.398H49.364C41.0237 64.398 37.7757 63.2595 33.9656 61.5816C29.6792 59.6941 21.6018 56.3994 21.6018 44.4581C21.6018 34.9124 33.979 26.142 46.3622 25.6702Z" fill="#A55728"/>
<path d="M71.6424 69.0432C71.6436 68.9552 71.6441 68.8669 71.6441 68.7785C71.6441 57.0872 61.7733 43.2412 49.5973 43.2412C37.4213 43.2412 27.5506 57.0872 27.5506 68.7785C27.5506 68.8669 27.5513 68.9552 27.5522 69.0432C27.5513 69.1317 27.5506 69.2201 27.5506 69.3083C27.5506 80.9831 37.4213 90.4475 49.5973 90.4475C61.7733 90.4475 71.6441 80.9831 71.6441 69.3083C71.6441 69.2201 71.6436 69.1317 71.6424 69.0432Z" fill="#89532C"/>
<path d="M71.5836 67.7061C70.7428 78.6447 61.2204 87.2689 49.5973 87.2689C37.9743 87.2689 28.4521 78.6447 27.611 67.7061C27.571 68.2438 27.5506 68.7785 27.5506 69.3086C27.5506 80.9836 37.4213 90.4478 49.5973 90.4478C61.7733 90.4478 71.6441 80.9836 71.6441 69.3086C71.6441 68.7785 71.6236 68.2438 71.5836 67.7061Z" fill="black" fill-opacity="0.19"/>
<path d="M41.6821 79.8612C41.6821 78.3307 42.923 77.0898 44.4535 77.0898H55.1698C56.7005 77.0898 57.9412 78.3307 57.9412 79.8612C57.9412 81.3919 56.7005 82.6327 55.1698 82.6327H44.4535C42.923 82.6327 41.6821 81.3917 41.6821 79.8612Z" fill="#F9F9F9"/>
<path d="M75.3826 56.1045C71.0608 56.1045 69.2389 59.515 68.868 61.2203V71.2922C72.8404 70.7594 79.9172 67.2954 80.9439 63.9381C81.9707 60.5808 80.785 56.1045 75.3826 56.1045Z" fill="#89532C"/>
<path d="M75.1275 58.0225C72.029 58.0225 70.7227 60.4639 70.4568 61.6843V68.8938C73.305 68.5123 78.3783 66.0329 79.1144 63.6298C79.8504 61.2267 79.0005 58.0225 75.1275 58.0225Z" fill="black" fill-opacity="0.19"/>
<path d="M72.3637 63.7293C72.3637 61.8896 71.0926 61.2903 70.457 61.2207V66.6561C71.0926 66.4471 72.3637 65.5691 72.3637 63.7293Z" fill="#89532C"/>
<path d="M25.119 56.1045C29.4408 56.1045 31.2627 59.515 31.6335 61.2203V71.2922C27.6612 70.7594 20.5844 67.2954 19.5577 63.9381C18.5309 60.5808 19.7166 56.1045 25.119 56.1045Z" fill="#89532C"/>
<path d="M25.3741 58.0225C28.4726 58.0225 29.7789 60.4639 30.0447 61.6843V68.8938C27.1966 68.5123 22.1233 66.0329 21.3872 63.6298C20.6512 61.2267 21.5011 58.0225 25.3741 58.0225Z" fill="black" fill-opacity="0.19"/>
<path d="M28.1379 63.7293C28.1379 61.8896 29.409 61.2903 30.0446 61.2207V66.6561C29.409 66.4471 28.1379 65.5691 28.1379 63.7293Z" fill="#89532C"/>
<path d="M37.6758 59.6356C38.3159 59.1325 39.3004 58.126 41.2203 58.126C42.8516 58.126 44.2232 59.2332 44.4693 59.6356M54.0068 59.6356C54.6468 59.1325 55.6314 58.126 57.5512 58.126C59.1825 58.126 60.5541 59.2332 60.8002 59.6356" stroke="black" stroke-width="0.754815" stroke-linecap="round"/>
<path d="M40.5671 63.6937C40.5671 63.3935 40.6864 63.1055 40.8987 62.8931C41.111 62.6808 41.399 62.5615 41.6993 62.5615C41.9996 62.5615 42.2876 62.6808 42.4999 62.8931C42.7122 63.1055 42.8315 63.3935 42.8315 63.6937V65.9582C42.8315 66.2585 42.7122 66.5465 42.4999 66.7588C42.2876 66.9711 41.9996 67.0904 41.6993 67.0904C41.399 67.0904 41.111 66.9711 40.8987 66.7588C40.6864 66.5465 40.5671 66.2585 40.5671 65.9582V63.6937ZM56.898 63.6937C56.898 63.3935 57.0173 63.1055 57.2296 62.8931C57.4419 62.6808 57.7299 62.5615 58.0302 62.5615C58.3305 62.5615 58.6185 62.6808 58.8308 62.8931C59.0431 63.1055 59.1624 63.3935 59.1624 63.6937V65.9582C59.1624 66.2585 59.0431 66.5465 58.8308 66.7588C58.6185 66.9711 58.3305 67.0904 58.0302 67.0904C57.7299 67.0904 57.4419 66.9711 57.2296 66.7588C57.0173 66.5465 56.898 66.2585 56.898 65.9582V63.6937Z" fill="black"/>
<path d="M39.0574 61.4287C38.9317 61.932 39.1329 63.0894 40.9444 63.6933M55.3883 61.4287C55.2626 61.932 55.4638 63.0894 57.2754 63.6933" stroke="black" stroke-width="0.754815" stroke-linecap="round" stroke-linejoin="round"/>
<path d="M36.5098 72.9466C36.5098 72.3666 36.0397 71.8965 35.4597 71.8965C34.8798 71.8965 34.4097 72.3666 34.4097 72.9466C34.4097 73.5265 34.8798 73.9966 35.4597 73.9966C36.0397 73.9966 36.5098 73.5265 36.5098 72.9466Z" fill="black" fill-opacity="0.4"/>
<path d="M40.4475 70.5843C40.4475 70.0043 39.9774 69.5342 39.3974 69.5342C38.8175 69.5342 38.3474 70.0043 38.3474 70.5843V70.8467C38.3474 71.4266 38.8175 71.8968 39.3974 71.8968C39.9774 71.8968 40.4475 71.4266 40.4475 70.8467V70.5843Z" fill="black" fill-opacity="0.4"/>
<path d="M43.5976 72.9466C43.5976 72.3666 43.1275 71.8965 42.5475 71.8965C41.9676 71.8965 41.4974 72.3666 41.4974 72.9466C41.4974 73.5265 41.9676 73.9966 42.5475 73.9966C43.1275 73.9966 43.5976 73.5265 43.5976 72.9466Z" fill="black" fill-opacity="0.4"/>
<path d="M58.2983 72.9466C58.2983 72.3666 57.8282 71.8965 57.2483 71.8965C56.6683 71.8965 56.1982 72.3666 56.1982 72.9466C56.1982 73.5265 56.6683 73.9966 57.2483 73.9966C57.8282 73.9966 58.2983 73.5265 58.2983 72.9466Z" fill="black" fill-opacity="0.4"/>
<path d="M62.236 70.5843C62.236 70.0043 61.7659 69.5342 61.1859 69.5342C60.606 69.5342 60.1359 70.0043 60.1359 70.5843V70.8467C60.1359 71.4266 60.606 71.8968 61.1859 71.8968C61.7659 71.8968 62.236 71.4266 62.236 70.8467V70.5843Z" fill="black" fill-opacity="0.4"/>
<path d="M65.3863 72.9466C65.3863 72.3666 64.9162 71.8965 64.3362 71.8965C63.7563 71.8965 63.2861 72.3666 63.2861 72.9466C63.2861 73.5265 63.7563 73.9966 64.3362 73.9966C64.9162 73.9966 65.3863 73.5265 65.3863 72.9466Z" fill="black" fill-opacity="0.4"/>
<path d="M46.6856 69.1213C46.6671 69.2515 46.6578 69.3829 46.6578 69.5145V70.0516C46.6578 71.5742 47.8921 72.8086 49.4148 72.8086H51.0865C52.6091 72.8086 53.8434 71.5742 53.8434 70.0515V69.5142C53.8434 69.3808 53.834 69.2496 53.8157 69.1211C53.6246 70.4575 52.4756 71.4847 51.0865 71.4847H49.4148C48.0257 71.4847 46.8765 70.4576 46.6856 69.1213Z" fill="black" fill-opacity="0.19"/>
<path d="M31.7942 66.0167C28.8956 66.0167 28.2365 59.4842 28.525 56.1035H31.7942C31.054 57.9952 31.4076 59.6426 31.6117 61.6834C31.8492 64.0578 34.1447 62.2936 34.6298 61.3571C34.6885 63.2207 33.2023 66.0167 31.7942 66.0167Z" fill="#A55728"/>
<path d="M67.876 66.0167C70.7746 66.0167 71.4337 59.4842 71.1452 56.1035H67.876C68.6163 57.9952 68.2626 59.6426 68.0585 61.6834C67.8211 64.0578 65.5255 62.2936 65.0404 61.3571C64.9818 63.2207 66.4679 66.0167 67.876 66.0167Z" fill="#A55728"/>
<path d="M70.3991 48.8127C71.5058 51.4846 72.0754 54.3484 72.0754 57.2404H42.6921L39.8428 51.6606L36.9935 57.2404H28.0301C28.0301 52.8848 29.3217 48.6269 31.7416 45.0053C34.1615 41.3837 37.6009 38.561 41.625 36.8941C47.0212 34.659 53.0843 34.659 58.4804 36.8942C63.8766 39.1293 68.1639 43.4166 70.3991 48.8127Z" fill="#A55728"/>
</g>
</svg>
