<svg width="100" height="100" viewBox="0 0 100 100" fill="none" xmlns="http://www.w3.org/2000/svg">
<mask id="mask0_329_2234" style="mask-type:luminance" maskUnits="userSpaceOnUse" x="0" y="0" width="100" height="100">
<path d="M100 0H0V100H100V0Z" fill="white"/>
</mask>
<g mask="url(#mask0_329_2234)">
<path d="M51.079 8.5285C61.2518 4.57242 60.5251 11.8387 64.8042 15.0681C66.1499 14.2608 71.6098 13.782 73.6852 15.0681C79.4174 18.6205 75.3001 21.4119 80.7094 25.2409C87.8949 30.3273 83.8579 32.8494 83.4543 37.2091C83.0506 41.5689 86.6506 42.5217 88.9443 45.1213C92.5775 49.2388 91.6086 56.4244 88.9443 58.9272C86.28 61.43 90.9627 61.0264 90.5591 70.2303C90.1554 79.4342 83.7772 76.9314 80.7092 79.192C77.6413 81.4527 80.6285 84.5206 73.6852 86.9427C66.7418 89.3648 68.4373 85.5702 58.8297 85.4087C52.8552 85.3083 52.4515 91.0603 43.9742 88.8804C39.5996 87.7556 39.3073 81.6708 33.7291 85.4087C25.8976 90.6566 16.9359 84.0977 17.5818 78.1232C18.2277 72.1488 12.2012 74.519 11.1952 70.2303C8.97949 60.7841 15.2802 59.2119 14.1825 56.1014C12.7292 51.9839 11.0337 50.0462 12.8907 43.5873C14.9633 36.3779 20.6414 37.7743 18.5422 32.6072C16.4431 27.44 19.9147 24.2721 23.3864 22.0115C26.8581 19.7509 29.8453 20.4775 29.038 17.571C28.2306 14.6645 30.9532 8.5285 37.1923 8.5285C43.2476 8.5285 43.9742 11.2915 51.079 8.5285Z" fill="#E8E1E1"/>
<path d="M49.5973 91.5808C61.5028 91.5808 71.1541 80.4306 71.1541 66.6761C71.1541 52.9217 61.5028 41.7715 49.5973 41.7715C37.6918 41.7715 28.0405 52.9217 28.0405 66.6761C28.0405 80.4306 37.6918 91.5808 49.5973 91.5808Z" fill="#C07F50"/>
<path d="M71.1597 65.6855C70.7271 79.009 61.2436 89.6567 49.6078 89.6567C37.9723 89.6567 28.4886 79.0093 28.0559 65.686C28.0456 66.003 28.0405 66.32 28.0405 66.6371C28.0405 80.4013 37.6965 91.5594 49.6078 91.5594C61.5192 91.5594 71.1752 80.4013 71.1752 66.6371C71.1752 66.3185 71.17 66.0014 71.1597 65.6855Z" fill="black" fill-opacity="0.19"/>
<path d="M54.9835 78.7692C54.9835 81.5316 52.6854 83.7709 49.8507 83.7709C47.0156 83.7709 44.7175 81.5316 44.7175 78.7692C44.7175 76.0068 45.4018 76.3408 49.8505 76.3408C53.9569 76.3408 54.9835 76.0068 54.9835 78.7692Z" fill="#DE8383"/>
<path fill-rule="evenodd" clip-rule="evenodd" d="M54.9464 78.9767H44.7412C44.7391 78.9128 44.7379 78.8486 44.7379 78.7843C44.7379 76.1952 45.2817 76.2003 48.5579 76.2303C48.9467 76.2339 49.3743 76.2378 49.8438 76.2378C50.2399 76.2374 50.6361 76.2349 51.0322 76.2305C54.1318 76.2001 54.9496 76.1921 54.9496 78.7843C54.9496 78.8486 54.9485 78.9128 54.9464 78.9767Z" fill="#F9F9F9"/>
<path d="M81.625 64.1169C81.625 60.1432 78.4037 56.9219 74.43 56.9219C70.4563 56.9219 67.235 60.1432 67.235 64.1169C67.235 68.0905 70.4563 71.3119 74.43 71.3119C78.4037 71.3119 81.625 68.0905 81.625 64.1169Z" fill="#C07F50"/>
<path d="M78.0133 60.5146L70.7461 67.292" stroke="black" stroke-opacity="0.19" stroke-width="0.816545" stroke-linecap="round" stroke-linejoin="round"/>
<path d="M18.8766 64.1169C18.8766 60.1432 22.0979 56.9219 26.0716 56.9219C30.0453 56.9219 33.2666 60.1432 33.2666 64.1169C33.2666 68.0905 30.0453 71.3119 26.0716 71.3119C22.0979 71.3119 18.8766 68.0905 18.8766 64.1169Z" fill="#C07F50"/>
<path d="M22.4882 60.5146L29.7555 67.292" stroke="black" stroke-opacity="0.19" stroke-width="0.816545" stroke-linecap="round" stroke-linejoin="round"/>
<path d="M41.1757 62.0229C41.1757 61.7226 41.295 61.4346 41.5073 61.2223C41.7197 61.0099 42.0077 60.8906 42.308 60.8906C42.6083 60.8906 42.8963 61.0099 43.1086 61.2223C43.321 61.4346 43.4403 61.7226 43.4403 62.0229V64.2875C43.4403 64.5878 43.321 64.8758 43.1086 65.0882C42.8963 65.3005 42.6083 65.4198 42.308 65.4198C42.0077 65.4198 41.7197 65.3005 41.5073 65.0882C41.295 64.8758 41.1757 64.5878 41.1757 64.2875V62.0229ZM57.1798 62.0229C57.1834 61.725 57.3042 61.4404 57.5162 61.231C57.7282 61.0216 58.0141 60.9041 58.3121 60.9041C58.6101 60.9041 58.896 61.0216 59.108 61.231C59.3199 61.4404 59.4408 61.725 59.4444 62.0229V64.2875C59.4444 64.5878 59.3251 64.8758 59.1128 65.0882C58.9004 65.3005 58.6124 65.4198 58.3121 65.4198C58.0118 65.4198 57.7238 65.3005 57.5114 65.0882C57.2991 64.8758 57.1798 64.5878 57.1798 64.2875V62.0229Z" fill="black"/>
<path d="M39.6658 59.7588C39.5401 60.2619 39.7413 61.4195 41.5528 62.0232M55.6701 59.7588C55.5444 60.2619 55.7455 61.4195 57.5571 62.0232" stroke="black" stroke-width="0.754815" stroke-linecap="round" stroke-linejoin="round"/>
<path d="M46.9242 69.7529C47.1473 70.3938 47.7569 70.8536 48.4738 70.8536C48.5217 70.8536 48.569 70.8515 48.6159 70.8476C48.8034 71.5472 49.4417 72.0624 50.2006 72.0624C50.9594 72.0624 51.5978 71.5472 51.7852 70.8474C51.8321 70.8515 51.8795 70.8536 51.9273 70.8536C52.6442 70.8536 53.2537 70.3938 53.477 69.7529C53.5373 69.9264 53.568 70.1088 53.5678 70.2925C53.5678 71.1985 52.8333 71.9329 51.9273 71.9329C51.8795 71.9329 51.8321 71.931 51.7852 71.9269C51.5978 72.6265 50.9594 73.1419 50.2006 73.1419C49.4417 73.1419 48.8034 72.6265 48.6159 71.9269C48.569 71.931 48.5217 71.9329 48.4738 71.9329C47.5678 71.9329 46.8334 71.1985 46.8334 70.2925C46.8334 70.1036 46.8654 69.9218 46.9242 69.7529Z" fill="black" fill-opacity="0.19"/>
<path d="M30.0763 59.4058C29.9761 57.0816 29.6956 55.9039 31.7254 55.6289C34.0561 56.0538 33.4007 58.3061 33.15 59.4058C32.8995 60.5053 34.2866 61.655 34.036 64.0792C33.7854 66.5035 31.064 67.6402 29.7666 65.6014C28.1045 62.9896 30.1767 61.73 30.0765 59.4058H30.0763Z" fill="#E8E1E1"/>
<path d="M69.594 59.4058C69.6942 57.0816 69.9747 55.9039 67.9449 55.6289C65.6142 56.0538 66.2695 58.3061 66.5203 59.4058C66.7708 60.5053 65.3837 61.655 65.6343 64.0792C65.8849 66.5035 68.6063 67.6402 69.9037 65.6014C71.5658 62.9896 69.4936 61.73 69.5938 59.4058H69.594Z" fill="#E8E1E1"/>
<path d="M69.1074 48.8705C69.8847 50.7525 70.4726 52.9664 70.4726 57.1809C69.1667 57.1809 65.9019 58.4869 59.491 55.044C52.9799 51.5473 51.312 47.9801 49.7559 45.665C48.2126 48.8705 45.3633 51.76 41.1487 54.391C36.9341 57.022 31.1366 56.8841 29.2173 57.1809C29.2173 54.4369 29.4595 51.7199 30.5066 49.1849C31.5529 46.6509 33.0875 44.3475 35.0231 42.4061C36.9566 40.4666 39.2535 38.9274 41.7825 37.8766C44.3097 36.8267 47.0193 36.2862 49.7559 36.2861C52.4925 36.2862 55.2021 36.8267 57.7293 37.8766C60.2583 38.9274 62.5553 40.4666 64.4888 42.4061C66.4236 44.3463 68.0602 46.3355 69.1074 48.8705Z" fill="#E8E1E1"/>
</g>
</svg>
