<svg width="100" height="100" viewBox="0 0 100 100" fill="none" xmlns="http://www.w3.org/2000/svg">
<mask id="mask0_329_1619" style="mask-type:luminance" maskUnits="userSpaceOnUse" x="0" y="0" width="100" height="100">
<path d="M100 0H0V100H100V0Z" fill="white"/>
</mask>
<g mask="url(#mask0_329_1619)">
<path d="M50.762 25.3213H49.1186C32.7622 25.3213 19.5027 40.5101 19.5027 59.2462V95.1405H80.3779V59.2462C80.3779 40.5101 67.1184 25.3213 50.762 25.3213Z" fill="#2C1B18"/>
<path d="M49.679 40.3018C38.2696 40.3018 29.0204 50.9394 29.0204 64.0614C29.0204 64.1421 29.0207 64.2228 29.0214 64.3035C29.0207 64.384 29.0204 64.4645 29.0204 64.5452C29.0204 77.6701 38.2696 93.2139 49.679 93.2139C61.0884 93.2139 70.3376 77.6701 70.3376 64.5452C70.3376 64.4645 70.3373 64.384 70.3366 64.3035C70.3373 64.2228 70.3376 64.1421 70.3376 64.0614C70.3376 50.9394 61.0884 40.3018 49.679 40.3018Z" fill="#C07F50"/>
<path d="M29.0279 63.8994C29.023 64.1138 29.0204 64.3291 29.0204 64.545C29.0204 77.67 38.2696 93.2137 49.679 93.2137C61.0884 93.2137 70.3376 77.67 70.3376 64.545C70.3376 64.3291 70.3351 64.1138 70.3301 63.8994C70.0329 76.882 60.9008 91.9188 49.679 91.9188C38.4572 91.9188 29.3253 76.882 29.0279 63.8994Z" fill="black" fill-opacity="0.19"/>
<path d="M41.6821 79.8602C41.6821 78.3297 42.923 77.0889 44.4535 77.0889H55.1698C56.7005 77.0889 57.9412 78.3297 57.9412 79.8602C57.9412 81.3909 56.7005 82.6317 55.1698 82.6317H44.4535C42.923 82.6317 41.6821 81.3908 41.6821 79.8602Z" fill="#F9F9F9"/>
<path d="M75.3826 56.1045C71.0608 56.1045 69.2389 59.515 68.868 61.2203V71.2922C72.8404 70.7594 79.9172 67.2954 80.9439 63.9381C81.9707 60.5808 80.785 56.1045 75.3826 56.1045Z" fill="#C07F50"/>
<path d="M75.1275 58.0225C72.029 58.0225 70.7227 60.4639 70.4568 61.6843V68.8938C73.305 68.5123 78.3783 66.0329 79.1144 63.6298C79.8504 61.2267 79.0005 58.0225 75.1275 58.0225Z" fill="black" fill-opacity="0.19"/>
<path d="M72.3637 63.7293C72.3637 61.8896 71.0926 61.2903 70.457 61.2207V66.6561C71.0926 66.4471 72.3637 65.5691 72.3637 63.7293Z" fill="#C07F50"/>
<path d="M25.119 56.1045C29.4408 56.1045 31.2627 59.515 31.6335 61.2203V71.2922C27.6612 70.7594 20.5844 67.2954 19.5577 63.9381C18.5309 60.5808 19.7166 56.1045 25.119 56.1045Z" fill="#C07F50"/>
<path d="M25.3741 58.0225C28.4726 58.0225 29.7789 60.4639 30.0447 61.6843V68.8938C27.1966 68.5123 22.1233 66.0329 21.3872 63.6298C20.6512 61.2267 21.5011 58.0225 25.3741 58.0225Z" fill="black" fill-opacity="0.19"/>
<path d="M28.1379 63.7293C28.1379 61.8896 29.409 61.2903 30.0446 61.2207V66.6561C29.409 66.4471 28.1379 65.5691 28.1379 63.7293Z" fill="#C07F50"/>
<path d="M54.0376 59.3085C54.7487 58.8053 55.8427 57.7988 57.976 57.7988C59.7884 57.7988 61.3125 58.9061 61.5859 59.3085M37.6758 59.3085C38.3869 58.8053 39.4809 57.7988 41.614 57.7988C43.4266 57.7988 44.9508 58.9061 45.2242 59.3085" stroke="black" stroke-width="1.50963" stroke-linecap="round"/>
<path d="M56.7404 63.5853C56.7404 63.4366 56.7697 63.2894 56.8266 63.152C56.8835 63.0146 56.9669 62.8898 57.0721 62.7847C57.1772 62.6795 57.302 62.5962 57.4394 62.5393C57.5768 62.4824 57.7241 62.4531 57.8728 62.4531C58.173 62.4531 58.461 62.5724 58.6734 62.7847C58.8857 62.9971 59.005 63.2851 59.005 63.5853V65.85C59.005 66.1503 58.8857 66.4383 58.6733 66.6506C58.461 66.863 58.173 66.9823 57.8727 66.9823C57.5724 66.9823 57.2844 66.863 57.072 66.6506C56.8597 66.4383 56.7404 66.1503 56.7404 65.85V63.5853ZM40.3786 63.5853C40.3786 63.2851 40.4979 62.9971 40.7102 62.7847C40.9226 62.5724 41.2105 62.4531 41.5108 62.4531C41.8111 62.4531 42.0991 62.5724 42.3114 62.7847C42.5238 62.9971 42.643 63.2851 42.643 63.5853V65.85C42.643 66.1502 42.5238 66.4382 42.3114 66.6506C42.0991 66.8629 41.8111 66.9822 41.5108 66.9822C41.2105 66.9822 40.9226 66.8629 40.7102 66.6506C40.4979 66.4382 40.3786 66.1502 40.3786 65.85V63.5853Z" fill="black"/>
<path d="M36.4608 68.2275H34.3608C32.4035 68.2275 30.8168 69.8142 30.8168 71.7714C30.8168 73.7287 32.4035 75.3153 34.3608 75.3153H36.4608C38.4181 75.3153 40.0048 73.7287 40.0048 71.7714C40.0048 69.8142 38.4181 68.2275 36.4608 68.2275Z" fill="#FFC6C6"/>
<path d="M65.8564 68.2275H63.7564C61.7992 68.2275 60.2125 69.8142 60.2125 71.7714C60.2125 73.7287 61.7992 75.3153 63.7564 75.3153H65.8564C67.8137 75.3153 69.4004 73.7287 69.4004 71.7714C69.4004 69.8142 67.8137 68.2275 65.8564 68.2275Z" fill="#FFC6C6"/>
<path d="M44.7945 69.1152C44.7303 69.3517 44.6979 69.5958 44.6981 69.8408C44.6981 71.3633 45.9324 72.5978 47.4551 72.5978H52.9689C54.4916 72.5978 55.7259 71.3633 55.7259 69.8408C55.7259 69.5896 55.6924 69.3465 55.6295 69.1152C55.3111 70.2858 54.2404 71.1468 52.9689 71.1468H47.4551C46.1836 71.1468 45.1129 70.2858 44.7945 69.1152Z" fill="black" fill-opacity="0.19"/>
<path d="M30.0763 59.4058C29.9761 57.0816 29.6955 55.9039 31.7253 55.6289C34.056 56.0538 33.4007 58.3061 33.1499 59.4058C32.8994 60.5053 34.2866 61.655 34.036 64.0792C33.7853 66.5035 31.0639 67.6402 29.7665 65.6014C28.1044 62.9896 30.1766 61.73 30.0764 59.4058H30.0763Z" fill="#2C1B18"/>
<path d="M69.594 59.4058C69.6942 57.0816 69.9747 55.9039 67.9449 55.6289C65.6142 56.0538 66.2695 58.3061 66.5203 59.4058C66.7708 60.5053 65.3837 61.655 65.6343 64.0792C65.8849 66.5035 68.6063 67.6402 69.9037 65.6014C71.5658 62.9896 69.4936 61.73 69.5938 59.4058H69.594Z" fill="#2C1B18"/>
<path d="M69.1074 48.8705C69.8847 50.7525 70.4726 52.9664 70.4726 57.1809C69.1667 57.1809 65.9019 58.4869 59.491 55.044C52.9799 51.5473 51.312 47.9801 49.7559 45.665C48.2126 48.8705 45.3633 51.76 41.1487 54.391C36.9341 57.022 31.1366 56.8841 29.2173 57.1809C29.2173 54.4369 29.4595 51.7199 30.5066 49.1849C31.5529 46.6509 33.0875 44.3475 35.0231 42.4061C36.9566 40.4666 39.2535 38.9274 41.7825 37.8766C44.3097 36.8267 47.0193 36.2862 49.7559 36.2861C52.4925 36.2862 55.2021 36.8267 57.7293 37.8766C60.2583 38.9274 62.5553 40.4666 64.4888 42.4061C66.4236 44.3463 68.0602 46.3355 69.1074 48.8705Z" fill="#2C1B18"/>
</g>
</svg>
