<svg width="100" height="100" viewBox="0 0 100 100" fill="none" xmlns="http://www.w3.org/2000/svg">
<mask id="mask0_329_2446" style="mask-type:luminance" maskUnits="userSpaceOnUse" x="0" y="0" width="100" height="100">
<path d="M100 0H0V100H100V0Z" fill="white"/>
</mask>
<g mask="url(#mask0_329_2446)">
<path d="M51.8284 12.2422H50.1851C33.8286 12.2422 20.5691 27.431 20.5691 46.1671V68.9191L81.4443 82.0614V46.1671C81.4443 27.431 68.1848 12.2422 51.8284 12.2422Z" fill="#724133"/>
<path d="M49.6288 81.3553C60.5596 81.3553 69.4207 72.4942 69.4207 61.5634C69.4207 50.6326 60.5596 41.7715 49.6288 41.7715C38.6981 41.7715 29.8369 50.6326 29.8369 61.5634C29.8369 72.4942 38.6981 81.3553 49.6288 81.3553Z" fill="#F8B788"/>
<path d="M29.8369 61.123H69.4206V92.3502H29.8369V61.123Z" fill="#F8B788"/>
<path d="M29.8369 89.1309H69.3577V92.397H29.8369V89.1309Z" fill="black" fill-opacity="0.19"/>
<path d="M54.9835 78.8874C54.9835 81.6497 52.6854 83.889 49.8507 83.889C47.0156 83.889 44.7175 81.6497 44.7175 78.8874C44.7175 76.125 45.4018 76.459 49.8507 76.459C53.9571 76.459 54.9835 76.125 54.9835 78.8874Z" fill="#DE8383"/>
<path fill-rule="evenodd" clip-rule="evenodd" d="M54.9497 78.6584H44.7168C44.7516 76.3525 45.3841 76.3579 48.5588 76.3865C48.9478 76.39 49.3754 76.3938 49.845 76.3938C50.2742 76.3938 50.6697 76.39 51.0338 76.3866C54.0375 76.3579 54.899 76.3497 54.9497 78.6584Z" fill="#F9F9F9"/>
<path fill-rule="evenodd" clip-rule="evenodd" d="M54.1298 81.5973C53.2065 82.9185 51.6449 83.7868 49.874 83.7868C48.0711 83.7868 46.4853 82.8868 45.5688 81.525C46.4937 80.7829 48.0462 80.2959 49.8059 80.2959C51.6219 80.2959 53.2174 80.8146 54.1298 81.5973Z" fill="#C06E6E"/>
<path d="M81.7882 63.7897C81.7882 59.816 78.5669 56.5947 74.5932 56.5947C70.6195 56.5947 67.3982 59.816 67.3982 63.7897C67.3982 67.7634 70.6195 70.9847 74.5932 70.9847C78.5669 70.9847 81.7882 67.7634 81.7882 63.7897Z" fill="#F8B788"/>
<path d="M76.7067 59.7793L70.3376 64.5153L77.4416 67.6998" stroke="black" stroke-opacity="0.19" stroke-width="0.816545" stroke-linecap="round" stroke-linejoin="round"/>
<path d="M18.7133 63.7897C18.7133 59.816 21.9346 56.5947 25.9083 56.5947C29.882 56.5947 33.1033 59.816 33.1033 63.7897C33.1033 67.7634 29.882 70.9847 25.9083 70.9847C21.9346 70.9847 18.7133 67.7634 18.7133 63.7897Z" fill="#F8B788"/>
<path d="M23.7948 59.7793L30.1638 64.5153L23.0599 67.6998" stroke="black" stroke-opacity="0.19" stroke-width="0.816545" stroke-linecap="round" stroke-linejoin="round"/>
<path d="M35.6643 56.3834C36.0198 56.1283 38.0538 54.8594 41.0016 54.8594C43.9493 54.8594 46.6947 56.1283 46.3388 56.3834C46.3388 59.3311 45.7926 56.3834 41.1668 56.3834C36.1854 56.3834 35.6643 59.3311 35.6643 56.3834ZM53.1384 56.3834C53.4942 56.1283 55.5279 54.8594 58.4756 54.8594C61.4234 54.8594 64.1688 56.1283 63.8129 56.3834C63.8129 59.3311 63.2666 56.3834 58.6409 56.3834C53.6595 56.3834 53.1384 59.3311 53.1384 56.3834Z" fill="black"/>
<path d="M40.3326 60.2666C40.5349 59.6442 41.4157 59.6442 41.6178 60.2666L42.151 61.9073C42.1951 62.0431 42.2811 62.1613 42.3965 62.2452C42.5119 62.3291 42.651 62.3742 42.7937 62.3742H44.5187C45.1732 62.3742 45.4453 63.2119 44.9159 63.5966L43.5202 64.6106C43.4048 64.6945 43.3189 64.8128 43.2748 64.9485C43.2307 65.0842 43.2307 65.2304 43.2748 65.3661L43.8078 67.0067C44.0102 67.6292 43.2976 68.1469 42.768 67.7621L41.3724 66.7482C41.257 66.6642 41.1179 66.619 40.9752 66.619C40.8325 66.619 40.6935 66.6642 40.578 66.7482L39.1826 67.7621C38.653 68.1469 37.9404 67.6292 38.1428 67.0067L38.6758 65.3661C38.7199 65.2304 38.7199 65.0842 38.6758 64.9485C38.6317 64.8128 38.5458 64.6945 38.4304 64.6106L37.0347 63.5965C36.5051 63.2119 36.7774 62.3742 37.4319 62.3742H39.1569C39.2996 62.3743 39.4387 62.3291 39.5541 62.2452C39.6696 62.1613 39.7555 62.0431 39.7996 61.9073L40.3326 60.2666ZM57.9009 60.2666C58.1031 59.6442 58.9838 59.6442 59.1861 60.2666L59.7192 61.9073C59.7633 62.0431 59.8492 62.1613 59.9646 62.2452C60.0801 62.3291 60.2191 62.3743 60.3618 62.3742H62.0868C62.7414 62.3742 63.0136 63.2119 62.484 63.5966L61.0884 64.6106C60.9729 64.6945 60.887 64.8128 60.8429 64.9485C60.7988 65.0842 60.7988 65.2304 60.8429 65.3661L61.3759 67.0067C61.5783 67.6292 60.8658 68.1469 60.3362 67.7621L58.9407 66.7482C58.8253 66.6642 58.6862 66.619 58.5435 66.619C58.4008 66.619 58.2618 66.6642 58.1464 66.7482L56.7507 67.7621C56.2211 68.1469 55.5086 67.6292 55.7109 67.0067L56.244 65.3661C56.2881 65.2304 56.288 65.0842 56.244 64.9485C56.1999 64.8128 56.1139 64.6945 55.9985 64.6106L54.6029 63.5965C54.0733 63.2119 54.3455 62.3742 55 62.3742H56.7251C56.8678 62.3743 57.0068 62.3291 57.1222 62.2452C57.2377 62.1613 57.3236 62.0431 57.3677 61.9073L57.9009 60.2666Z" fill="#FFEBB7"/>
<path d="M36.4609 68.2275H34.3609C32.4036 68.2275 30.8169 69.8142 30.8169 71.7714C30.8169 73.7287 32.4036 75.3153 34.3609 75.3153H36.4609C38.4181 75.3153 40.0048 73.7287 40.0048 71.7714C40.0048 69.8142 38.4181 68.2275 36.4609 68.2275Z" fill="#FFC6C6"/>
<path d="M65.8566 68.2275H63.7566C61.7993 68.2275 60.2126 69.8142 60.2126 71.7714C60.2126 73.7287 61.7993 75.3153 63.7566 75.3153H65.8566C67.8139 75.3153 69.4006 73.7287 69.4006 71.7714C69.4006 69.8142 67.8139 68.2275 65.8566 68.2275Z" fill="#FFC6C6"/>
<path d="M48.1089 70.7118V71.1699C48.1089 71.5707 48.4337 71.8955 48.8344 71.8955C49.2351 71.8955 49.5599 71.5707 49.5599 71.1699V70.7118C49.5599 70.3111 49.2351 69.9863 48.8344 69.9863C48.4337 69.9863 48.1089 70.3111 48.1089 70.7118Z" fill="black" fill-opacity="0.19"/>
<path d="M51.0112 70.7118V71.1699C51.0112 71.5707 51.336 71.8955 51.7367 71.8955C52.1374 71.8955 52.4622 71.5707 52.4622 71.1699V70.7118C52.4622 70.3111 52.1374 69.9863 51.7367 69.9863C51.336 69.9863 51.0112 70.3111 51.0112 70.7118Z" fill="black" fill-opacity="0.19"/>
<path d="M53.8831 70.2492C53.9028 70.116 53.9131 69.9798 53.9131 69.841C53.9131 68.3183 52.6787 67.084 51.1561 67.084H49.4149C47.8922 67.084 46.658 68.3183 46.658 69.841C46.658 69.9798 46.6682 70.116 46.688 70.2492C46.8853 68.9202 48.0311 67.9005 49.4149 67.9005H51.1561C52.54 67.9005 53.6858 68.9202 53.8831 70.2492Z" fill="black" fill-opacity="0.19"/>
<path d="M31.0181 55.6289H30.6619C29.4162 55.6289 28.4062 56.6389 28.4062 57.8846V64.0581C28.4062 65.3038 29.4162 66.3137 30.6619 66.3137H31.0181C32.2638 66.3137 33.2738 65.3038 33.2738 64.0581V57.8846C33.2738 56.6389 32.2638 55.6289 31.0181 55.6289Z" fill="#724133"/>
<path d="M68.6521 55.6289H69.0082C70.254 55.6289 71.2639 56.6389 71.2639 57.8846V64.0581C71.2639 65.3038 70.254 66.3137 69.0082 66.3137H68.6521C67.4063 66.3137 66.3964 65.3038 66.3964 64.0581V57.8846C66.3964 56.6389 67.4063 55.6289 68.6521 55.6289Z" fill="#724133"/>
<path d="M59.4315 47.229L54.8014 42.3408H43.523L39.249 48.1953L44.1759 46.7174L43.523 55.4707L47.5001 52.6855L49.459 57.0622L52.1302 52.6855L56.048 55.2434L54.8014 47.229H59.4315Z" fill="#724133"/>
<path d="M69.1073 48.5141C69.8847 50.396 70.4726 52.6099 70.4726 56.8245C69.1667 56.8245 65.9019 58.1304 59.491 54.6875C52.9799 51.1908 51.312 47.6237 49.7559 45.3086C48.2125 48.5141 45.3632 51.4036 41.1487 54.0346C36.9341 56.6655 31.196 56.7058 29.2766 57.0026C29.2766 54.2586 29.4594 51.3635 30.5066 48.8284C31.5528 46.2944 33.0875 43.9911 35.023 42.0496C36.9565 40.1101 39.2535 38.571 41.7825 37.5202C44.3097 36.4703 47.0193 35.9298 49.7559 35.9297C52.4925 35.9298 55.2021 36.4703 57.7293 37.5202C60.2583 38.571 62.5552 40.1101 64.4887 42.0496C66.4235 43.9899 68.0602 45.979 69.1073 48.5141Z" fill="#724133"/>
</g>
</svg>
