<svg width="100" height="100" viewBox="0 0 100 100" fill="none" xmlns="http://www.w3.org/2000/svg">
<mask id="mask0_329_1543" style="mask-type:luminance" maskUnits="userSpaceOnUse" x="0" y="0" width="100" height="100">
<path d="M100 0H0V100H100V0Z" fill="white"/>
</mask>
<g mask="url(#mask0_329_1543)">
<path d="M18.0784 36.6474C20.2647 17.8472 36.7165 8.45268 51.7128 9.0385C74.6783 9.93548 83.2377 25.9825 84.2625 36.6474C85.1393 45.7734 94.4837 55.116 88.1203 64.0569C77.6922 78.7087 20.9644 70.0095 16.6918 66.9475C5.38019 58.8406 16.5715 49.6046 18.0784 36.6474Z" fill="#F59797"/>
<path d="M52.3019 68.0733C54.9395 63.0686 51.1738 60.9819 50.6229 60.5766C46.2064 58.4668 36.7415 59.5882 34.7204 61.517C34.1237 62.0865 31.8066 70.4172 32.8433 72.6598C33.5969 74.2897 36.8053 75.7258 38.2851 76.6624C36.5972 76.4455 33.9947 76.353 34.7443 80.092C35.6992 84.8557 38.3569 82.2939 36.546 85.8574C35.9986 86.9348 34.7309 88.8043 35.9707 89.7163C37.8499 90.3015 39.0905 90.3475 41.2263 89.8692C45.7457 88.8569 48.5878 87.3236 47.2358 83.8153C46.8686 82.8621 45.3085 82.8531 46.708 82.0609C50.2944 80.031 50.7976 74.6764 48.4084 74.4315C47.1494 74.3023 49.664 73.078 52.3019 68.0733ZM28.0042 66.6368C32.5604 63.8918 30.3919 59.8537 30.1216 59.1765C27.4202 54.7315 18.9799 50.0689 16.384 50.5296C15.6177 50.6656 9.76752 56.4681 9.58118 59.0176C9.44554 60.8707 11.4536 64.0166 12.2508 65.704C10.9416 64.5133 8.80918 62.8858 7.67952 66.5545C6.24047 71.2283 9.66595 70.6008 6.47816 72.5955C5.51433 73.1985 3.57633 74.056 4.1846 75.5795C5.4809 77.2015 6.49657 77.979 8.5069 78.8368C12.7611 80.6522 15.8573 81.0208 16.3748 77.1928C16.5155 76.1526 15.2154 75.217 16.7575 75.3667C20.7096 75.75 23.6451 71.4337 21.7628 69.8017C20.7708 68.9415 23.4483 69.3819 28.0042 66.6368Z" fill="#F59797"/>
<path d="M19.7557 59.0664C18.3845 53.3746 22.4848 52.6361 23.108 52.4321C27.8384 51.8899 36.6666 56.1468 38.1594 58.6779C38.6002 59.4254 38.8915 68.203 37.3755 70.0081C36.2737 71.3199 32.8595 71.6209 31.2212 72.0231C32.8922 72.3819 35.4126 73.1673 33.825 76.5059C31.8024 80.7593 29.8452 77.4063 30.7567 81.4365C31.0323 82.655 31.8156 84.8762 30.4134 85.3353C28.4733 85.2658 27.2713 84.8931 25.3315 83.7162C21.2269 81.2258 18.8537 78.7987 20.9661 75.8841C21.5401 75.0922 23.0402 75.6077 21.8802 74.3769C18.9075 71.2229 19.6675 65.9122 22.0184 66.4796C23.2574 66.7787 21.1269 64.7582 19.7557 59.0664ZM48.8431 68.1898C45.9553 63.3892 49.6075 61.0286 50.1368 60.5833C54.4373 58.1515 63.9416 58.5726 66.0572 60.3487C66.6819 60.8731 69.4192 69.0172 68.4988 71.332C67.8299 73.0144 64.7005 74.6845 63.2713 75.7286C64.945 75.3876 67.5378 75.1032 66.9802 78.8906C66.2699 83.7157 63.4867 81.3546 65.4757 84.778C66.0771 85.8129 67.4378 87.5854 66.2466 88.5872C64.401 89.3099 63.1649 89.4473 61.0088 89.1275C56.4464 88.4506 53.5314 87.1299 54.702 83.5284C55.0199 82.5499 56.5767 82.4257 55.1394 81.7383C51.4562 79.977 50.6811 74.6695 53.0532 74.2487C54.3033 74.0268 51.731 72.9904 48.8431 68.1898ZM75.7068 64.922C71.0642 62.5361 73.0275 58.3002 73.2644 57.5975C75.7375 52.909 83.8891 47.5324 86.4835 47.7828C87.2495 47.8568 93.3157 53.2096 93.618 55.7569C93.8378 57.608 91.9921 60.9342 91.2796 62.6952C92.5226 61.3914 94.5613 59.5812 95.8501 63.1757C97.4917 67.7554 94.0676 67.4048 97.3193 69.1486C98.3023 69.6758 100.263 70.379 99.7302 71.96C98.52 73.6961 97.5489 74.5607 95.5957 75.5873C91.4624 77.7599 88.41 78.3839 87.7207 74.5791C87.5334 73.5452 88.7792 72.4985 87.2573 72.7751C83.3576 73.4838 80.2487 69.3861 82.0395 67.5918C82.9833 66.6463 80.3495 67.3078 75.7068 64.922Z" fill="#F59797"/>
<path d="M63.6881 67.2895C59.5616 64.0534 62.2679 60.2745 62.6295 59.6305C65.9195 55.5057 74.9177 51.7997 77.4218 52.5454C78.1612 52.7655 83.1433 59.1878 82.9736 61.7456C82.8504 63.6048 80.4266 66.5135 79.4036 68.1046C80.8644 67.0646 83.2001 65.6807 83.8081 69.4568C84.5826 74.2677 81.281 73.264 84.1578 75.6018C85.0275 76.3085 86.826 77.3765 86.0125 78.8254C84.5048 80.2961 83.3918 80.9575 81.2837 81.5887C76.8227 82.9246 73.7081 82.9488 73.7276 79.0818C73.733 78.0311 75.1494 77.244 73.6026 77.2222C69.6395 77.1663 67.3346 72.5459 69.4236 71.13C70.5245 70.3836 67.8143 70.5256 63.6881 67.2895Z" fill="#F59797"/>
<path d="M53.8383 69.8735C49.7119 66.6374 52.4182 62.8585 52.7797 62.2145C56.0697 58.0897 65.068 54.3837 67.5721 55.1294C68.3115 55.3495 73.2935 61.7717 73.1238 64.3296C73.0006 66.1888 70.5769 69.0974 69.5538 70.6886C71.0147 69.6485 73.3504 68.2647 73.9583 72.0408C74.7329 76.8517 71.4313 75.848 74.3081 78.1858C75.1778 78.8925 76.9762 79.9605 76.1627 81.4094C74.6551 82.8801 73.542 83.5415 71.434 84.1727C66.973 85.5086 63.8584 85.5328 63.8779 81.6658C63.8832 80.6151 65.2997 79.8279 63.7529 79.8061C59.7897 79.7503 57.4849 75.1299 59.5738 73.7139C60.6748 72.9676 57.9646 73.1096 53.8383 69.8735Z" fill="#F59797"/>
<path d="M36.0762 71.1655C31.9498 67.9294 34.6561 64.1504 35.0176 63.5065C38.3076 59.3817 47.3059 55.6757 49.81 56.4214C50.5494 56.6415 55.5315 63.0637 55.3617 65.6216C55.2385 67.4808 52.8148 70.3894 51.7917 71.9806C53.2526 70.9405 55.5883 69.5567 56.1962 73.3328C56.9708 78.1437 53.6692 77.14 56.546 79.4778C57.4157 80.1845 59.2142 81.2525 58.4007 82.7014C56.893 84.1721 55.78 84.8335 53.6719 85.4647C49.2109 86.8005 46.0963 86.8248 46.1158 82.9578C46.1211 81.9071 47.5376 81.1199 45.9908 81.0981C42.0276 81.0423 39.7228 76.4219 41.8118 75.0059C42.9127 74.2596 40.2025 74.4015 36.0762 71.1655Z" fill="#F59797"/>
<path d="M17.1839 67.2895C13.0575 64.0534 15.7638 60.2745 16.1253 59.6305C19.4153 55.5057 28.4135 51.7997 30.9177 52.5454C31.657 52.7655 36.6391 59.1878 36.4694 61.7456C36.3462 63.6048 33.9225 66.5135 32.8994 68.1046C34.3603 67.0646 36.696 65.6807 37.3039 69.4568C38.0785 74.2677 34.7769 73.264 37.6537 75.6018C38.5233 76.3085 40.3218 77.3765 39.5083 78.8254C38.0007 80.2961 36.8876 80.9575 34.7796 81.5887C30.3186 82.9246 27.2039 82.9488 27.2235 79.0818C27.2288 78.0311 28.6453 77.244 27.0985 77.2222C23.1353 77.1663 20.8305 72.5459 22.9194 71.13C24.0203 70.3836 21.3102 70.5256 17.1839 67.2895Z" fill="#F59797"/>
<path d="M49.629 81.3553C60.5597 81.3553 69.4209 72.4942 69.4209 61.5634C69.4209 50.6326 60.5597 41.7715 49.629 41.7715C38.6982 41.7715 29.837 50.6326 29.837 61.5634C29.837 72.4942 38.6982 81.3553 49.629 81.3553Z" fill="#F8B788"/>
<path d="M29.837 61.123H69.4207V92.3502H29.837V61.123Z" fill="#F8B788"/>
<path d="M29.837 89.1309H69.3578V92.397H29.837V89.1309Z" fill="black" fill-opacity="0.19"/>
<path d="M55.0727 80.2797C55.0727 83.0747 52.807 85.3406 50.0118 85.3406C47.2167 85.3406 44.9508 83.0747 44.9508 80.2797C44.9508 77.4845 47.2167 75.2188 50.0118 75.2188C52.807 75.2188 55.0727 77.4847 55.0727 80.2797Z" fill="#F9F9F9"/>
<path d="M67.7249 60.5664C67.7249 58.6431 69.284 57.084 71.2073 57.084H77.2853C79.2086 57.084 80.7677 58.6431 80.7677 60.5664V66.6608C80.7677 68.584 79.2086 70.1432 77.2853 70.1432H71.2073C69.284 70.1432 67.7249 68.584 67.7249 66.6608V60.5664Z" fill="#F8B788"/>
<path d="M69.1741 63.6136C69.1741 60.8123 71.445 58.5352 74.2463 58.5352C77.0477 58.5352 79.3187 60.8123 79.3187 63.6137C79.3187 66.415 77.0477 68.6923 74.2463 68.6923C71.445 68.6923 69.1741 66.4148 69.1741 63.6136Z" fill="black" fill-opacity="0.19"/>
<path d="M32.7767 60.5664C32.7767 58.6431 31.2176 57.084 29.2943 57.084H23.2163C21.293 57.084 19.7339 58.6431 19.7339 60.5664V66.6608C19.7339 68.584 21.293 70.1432 23.2163 70.1432H29.2943C31.2176 70.1432 32.7767 68.584 32.7767 66.6608V60.5664Z" fill="#F8B788"/>
<path d="M31.3275 63.6136C31.3275 60.8123 29.0565 58.5352 26.2553 58.5352C23.4539 58.5352 21.1829 60.8123 21.1829 63.6137C21.1829 66.415 23.4539 68.6923 26.2553 68.6923C29.0565 68.6923 31.3275 66.4148 31.3275 63.6136Z" fill="black" fill-opacity="0.19"/>
<path d="M62.3444 56.9824C61.6429 57.5341 60.5637 58.6372 58.4593 58.6372C56.6714 58.6372 55.168 57.4238 54.8982 56.9824" stroke="black" stroke-width="1.35138" stroke-linecap="round"/>
<path d="M62.3444 63.5146C61.6429 64.0663 60.5637 65.1693 58.4593 65.1695C56.6714 65.1695 55.168 63.9561 54.8982 63.5146" stroke="black" stroke-width="0.675773" stroke-linecap="round"/>
<path d="M44.1423 56.9824C43.4409 57.5339 42.3617 58.6371 40.2572 58.6372C38.4696 58.6372 36.966 57.4237 36.696 56.9824" stroke="black" stroke-width="1.35138" stroke-linecap="round"/>
<path d="M44.1423 63.5146C43.4409 64.0663 42.3617 65.1693 40.2572 65.1695C38.4696 65.1695 36.966 63.9561 36.696 63.5146" stroke="black" stroke-width="0.675773" stroke-linecap="round"/>
<path d="M49.9123 65.7773V70.1749C49.3174 70.3026 48.1277 70.8252 48.1277 71.8959C48.1277 73.2342 49.3174 73.6167 49.9123 73.8079" stroke="black" stroke-opacity="0.5" stroke-width="0.653236" stroke-linecap="round" stroke-linejoin="round"/>
<path d="M29.2373 67.8573V56.5195H33.9861L29.2373 67.8573Z" fill="#F59797"/>
<path d="M70.433 67.8573V56.5195H65.6842L70.433 67.8573Z" fill="#F59797"/>
<path d="M57.4728 56.4101C57.4728 55.4201 57.2778 54.4398 56.8989 53.5252C56.5201 52.6105 55.9648 51.7794 55.2647 51.0794C54.5647 50.3793 53.7337 43.8287 52.8189 43.4498C51.9043 43.071 50.924 42.876 49.934 42.876C48.944 42.876 47.9637 43.071 47.0491 43.4498C46.1344 43.8285 45.3033 50.3793 44.6033 51.0794C43.9033 51.7794 43.3479 52.6105 42.9692 53.5252C42.5902 54.4398 42.3952 55.4201 42.3953 56.4101H57.4728Z" fill="#F59797"/>
<path d="M69.1074 48.7523C69.8847 50.6343 70.4726 52.8482 70.4726 57.0628C69.1667 57.0628 65.9019 58.3687 59.491 54.9258C52.9799 51.4291 51.312 47.8619 49.7559 45.5469C48.2126 48.7523 45.3633 51.6419 41.1487 54.2728C36.9341 56.9038 31.1366 56.766 29.2173 57.0628C29.2173 54.3188 29.4595 51.6017 30.5066 49.0667C31.5529 46.5327 33.0875 44.2294 35.0231 42.2879C36.9566 40.3484 39.2535 38.8093 41.7825 37.7585C44.3097 36.7086 47.0193 36.1681 49.7559 36.168C52.4925 36.1681 55.2021 36.7086 57.7293 37.7585C60.2583 38.8092 62.5553 40.3484 64.4888 42.2879C66.4236 44.2281 68.0602 46.2173 69.1074 48.7523Z" fill="#F59797"/>
</g>
</svg>
