<svg width="100" height="100" viewBox="0 0 100 100" fill="none" xmlns="http://www.w3.org/2000/svg">
<mask id="mask0_329_2133" style="mask-type:luminance" maskUnits="userSpaceOnUse" x="0" y="0" width="100" height="100">
<path d="M100 0H0V100H100V0Z" fill="white"/>
</mask>
<g mask="url(#mask0_329_2133)">
<path d="M46.3622 25.6702C58.7452 25.1984 63.2545 31.3416 64.207 34.6449C71.8274 34.6449 77.3199 40.2984 78.2724 47.8483C79.0346 53.8884 77.1034 56.9627 74.4287 60.3424C72.9676 62.1887 71.4281 62.8141 69.4833 63.3841C66.792 64.1727 66.5608 64.398 60.2666 64.398H49.364C41.0237 64.398 37.7757 63.2595 33.9656 61.5816C29.6792 59.6941 21.6018 56.3994 21.6018 44.4581C21.6018 34.9124 33.979 26.142 46.3622 25.6702Z" fill="#724133"/>
<path d="M29.837 52.4282C29.837 49.7894 31.9761 47.6504 34.6148 47.6504H64.9067C67.5454 47.6504 69.6845 49.7894 69.6845 52.4282V91.8653C69.6845 94.5041 67.5454 96.6431 64.9067 96.6431H34.6148C31.9761 96.6431 29.837 94.5041 29.837 91.8653V52.4282Z" fill="#F8B788"/>
<path d="M29.837 88.2734V91.8661C29.837 94.5048 31.9761 96.644 34.6148 96.644H64.9067C67.5454 96.644 69.6845 94.5048 69.6845 91.8661V88.2734C69.6845 90.9122 67.5454 93.0512 64.9067 93.0512H34.6148C31.9761 93.0512 29.837 90.9122 29.837 88.2734Z" fill="black" fill-opacity="0.19"/>
<path d="M54.8875 82.1889C54.8875 84.9839 52.6216 82.8637 49.8266 82.8637C47.0315 82.8637 44.7656 84.9839 44.7656 82.1889C44.7656 79.3938 47.0315 77.1279 49.8266 77.1279C52.6216 77.1279 54.8875 79.3938 54.8875 82.1889Z" fill="#DE8383"/>
<path fill-rule="evenodd" clip-rule="evenodd" d="M53.9647 79.4536H45.64C46.5039 78.0294 48.0451 77.0811 49.8023 77.0811C51.5595 77.0811 53.1006 78.0294 53.9647 79.4536Z" fill="#F9F9F9"/>
<path d="M67.7249 60.5674C67.7249 58.6441 69.284 57.085 71.2073 57.085H77.2853C79.2086 57.085 80.7677 58.6441 80.7677 60.5674V66.6617C80.7677 68.585 79.2086 70.1441 77.2853 70.1441H71.2073C69.284 70.1441 67.7249 68.585 67.7249 66.6617V60.5674Z" fill="#F8B788"/>
<path d="M69.1741 63.6146C69.1741 60.8133 71.445 58.5361 74.2463 58.5361C77.0477 58.5361 79.3187 60.8133 79.3187 63.6147C79.3187 66.416 77.0477 68.6933 74.2463 68.6933C71.445 68.6933 69.1741 66.4158 69.1741 63.6146Z" fill="black" fill-opacity="0.19"/>
<path d="M32.7767 60.5674C32.7767 58.6441 31.2176 57.085 29.2943 57.085H23.2163C21.293 57.085 19.7339 58.6441 19.7339 60.5674V66.6617C19.7339 68.585 21.293 70.1441 23.2163 70.1441H29.2943C31.2176 70.1441 32.7767 68.585 32.7767 66.6617V60.5674Z" fill="#F8B788"/>
<path d="M31.3275 63.6146C31.3275 60.8133 29.0565 58.5361 26.2553 58.5361C23.4539 58.5361 21.1829 60.8133 21.1829 63.6147C21.1829 66.416 23.4539 68.6933 26.2553 68.6933C29.0565 68.6933 31.3275 66.4158 31.3275 63.6146Z" fill="black" fill-opacity="0.19"/>
<path d="M38.4924 57.5414C39.0754 57.083 39.9725 56.166 41.7217 56.166C43.2078 56.166 44.4575 57.1746 44.6817 57.5414M55.4766 57.5414C56.0596 57.083 56.9566 56.166 58.7059 56.166C60.192 56.166 61.4416 57.1746 61.6658 57.5414" stroke="black" stroke-width="0.600324" stroke-linecap="round"/>
<path d="M43.4205 59.0205H40.0338C38.7316 59.0205 37.6759 60.0762 37.6759 61.3784V66.5656C37.6759 67.8678 38.7316 68.9234 40.0338 68.9234H43.4205C44.7227 68.9234 45.7783 67.8678 45.7783 66.5656V61.3784C45.7783 60.0762 44.7227 59.0205 43.4205 59.0205Z" fill="white"/>
<path d="M60.0752 59.0205H56.6885C55.3863 59.0205 54.3307 60.0762 54.3307 61.3784V66.5656C54.3307 67.8678 55.3863 68.9234 56.6885 68.9234H60.0752C61.3775 68.9234 62.4331 67.8678 62.4331 66.5656V61.3784C62.4331 60.0762 61.3775 59.0205 60.0752 59.0205Z" fill="white"/>
<path d="M42.8561 60.3701H41.0483C40.1802 60.3701 39.4764 61.0739 39.4764 61.942V66.4506C39.4764 67.3187 40.1802 68.0225 41.0483 68.0225H42.8561C43.7242 68.0225 44.428 67.3187 44.428 66.4506V61.942C44.428 61.0739 43.7242 60.3701 42.8561 60.3701Z" fill="black"/>
<path d="M59.061 60.3701H57.2531C56.385 60.3701 55.6813 61.0739 55.6813 61.942V66.4506C55.6813 67.3187 56.385 68.0225 57.2531 68.0225H59.061C59.9291 68.0225 60.6328 67.3187 60.6328 66.4506V61.942C60.6328 61.0739 59.9291 60.3701 59.061 60.3701Z" fill="black"/>
<path d="M39.5377 71.7714C39.5377 69.8142 37.9511 68.2275 35.9938 68.2275C34.0366 68.2275 32.45 69.8142 32.45 71.7714C32.45 73.7287 34.0366 75.3153 35.9938 75.3153C37.9511 75.3153 39.5377 73.7287 39.5377 71.7714Z" fill="#F88888"/>
<path d="M67.7902 71.7714C67.7902 69.8142 66.2035 68.2275 64.2463 68.2275C62.289 68.2275 60.7024 69.8142 60.7024 71.7714C60.7024 73.7287 62.289 75.3153 64.2463 75.3153C66.2035 75.3153 67.7902 73.7287 67.7902 71.7714Z" fill="#F88888"/>
<path d="M46.5909 71.0365C46.5268 71.2266 46.4943 71.4259 46.4945 71.6265C46.4945 72.6451 47.3202 73.4709 48.3389 73.4709C48.3928 73.4709 48.4459 73.4685 48.4986 73.464C48.7093 74.2505 49.4272 74.8298 50.2803 74.8298C51.1333 74.8298 51.8512 74.2505 52.062 73.464C52.1146 73.4685 52.1679 73.4707 52.2216 73.4707C53.2403 73.4707 54.066 72.6451 54.066 71.6265C54.066 71.4201 54.032 71.2215 53.9697 71.0363C53.7234 71.7655 53.0339 72.2905 52.2216 72.2905C52.1677 72.2905 52.1146 72.2881 52.0619 72.2835C51.8512 73.0701 51.1333 73.6494 50.2802 73.6494C49.4272 73.6494 48.7093 73.0701 48.4985 72.2835C48.4459 72.2881 48.3926 72.2903 48.3389 72.2903C47.5266 72.2903 46.8371 71.7655 46.591 71.0361L46.5909 71.0365Z" fill="black" fill-opacity="0.19"/>
<path d="M31.7941 66.0167C28.8956 66.0167 28.2364 59.4842 28.5249 56.1035H31.7941C31.0539 57.9952 31.4076 59.6426 31.6116 61.6834C31.8491 64.0578 34.1447 62.2936 34.6298 61.3571C34.6884 63.2207 33.2023 66.0167 31.7941 66.0167Z" fill="#724133"/>
<path d="M67.876 66.0167C70.7746 66.0167 71.4337 59.4842 71.1452 56.1035H67.876C68.6163 57.9952 68.2626 59.6426 68.0585 61.6834C67.8211 64.0578 65.5255 62.2936 65.0404 61.3571C64.9818 63.2207 66.4679 66.0167 67.876 66.0167Z" fill="#724133"/>
<path d="M41.7205 49.3118C41.2974 47.2806 44.5557 45.7995 46.3329 45.3762C48.1102 44.9531 48.4486 44.9531 50.7759 44.9531C53.1032 44.9531 58.3504 45.7572 58.1811 48.5501C58.0457 50.7844 55.5857 50.7225 54.3728 50.4121C54.9511 51.3571 55.9385 53.4844 55.2614 54.4322C54.5843 55.3802 53.0328 54.5733 52.3416 54.0514C52.2852 54.7003 51.7323 56.1842 49.972 56.9291C48.2117 57.6738 47.7434 55.1234 47.7293 53.7552C46.9395 54.0232 45.1311 54.2969 44.2171 53.2474C43.3032 52.1979 44.5979 50.9199 45.3596 50.4121C44.3864 50.8211 42.0441 50.8653 41.7205 49.3118Z" fill="#724133"/>
<path d="M69.1074 48.6332C69.8847 50.5152 70.4726 52.7291 70.4726 56.9436C69.1667 56.9436 65.9019 58.2496 59.491 54.8067C52.9799 51.31 51.312 47.7428 49.7559 45.4277C48.2126 48.6332 45.3633 51.5227 41.1487 54.1537C36.9341 56.7847 31.1366 56.6468 29.2173 56.9436C29.2173 54.1996 29.4595 51.4826 30.5066 48.9476C31.5529 46.4136 33.0875 44.1102 35.0231 42.1687C36.9566 40.2293 39.2535 38.6901 41.7825 37.6393C44.3097 36.5894 47.0193 36.0489 49.7559 36.0488C52.4925 36.0489 55.2021 36.5894 57.7293 37.6393C60.2583 38.6901 62.5553 40.2293 64.4888 42.1687C66.4236 44.109 68.0602 46.0982 69.1074 48.6332Z" fill="#724133"/>
</g>
</svg>
