<svg width="100" height="100" viewBox="0 0 100 100" fill="none" xmlns="http://www.w3.org/2000/svg">
<mask id="mask0_329_2405" style="mask-type:luminance" maskUnits="userSpaceOnUse" x="0" y="0" width="100" height="100">
<path d="M100 0H0V100H100V0Z" fill="white"/>
</mask>
<g mask="url(#mask0_329_2405)">
<path d="M75.0493 51.7221V50.4303C75.0493 36.563 63.8076 25.3213 49.9403 25.3213C36.073 25.3213 24.8313 36.563 24.8313 50.4303V51.7221C24.8313 65.5894 36.073 76.8311 49.9403 76.8311C63.8076 76.8311 75.0493 65.5894 75.0493 51.7221Z" fill="#B58143"/>
<path d="M49.5156 88.6406C61.5564 88.6406 71.3174 78.8797 71.3174 66.8389C71.3174 54.7981 61.5564 45.0371 49.5156 45.0371C37.4748 45.0371 27.7139 54.7981 27.7139 66.8389C27.7139 78.8797 37.4748 88.6406 49.5156 88.6406Z" fill="#F8B788"/>
<path d="M71.3682 65.6631C70.7736 77.1947 61.2352 86.3619 49.5556 86.3619C37.8763 86.3619 28.3379 77.1947 27.7433 65.6631C27.7237 66.0438 27.7138 66.425 27.7139 66.8062C27.7139 78.8692 37.4928 88.648 49.5556 88.648C61.6186 88.648 71.3976 78.8692 71.3976 66.8062C71.3976 66.4228 71.3876 66.0416 71.3682 65.6631Z" fill="black" fill-opacity="0.19"/>
<path d="M55.0953 79.4148C55.0953 82.2098 52.8294 84.4757 50.0343 84.4757C47.2393 84.4757 44.9734 82.2098 44.9734 79.4148C44.9734 76.6197 47.2393 78.74 50.0343 78.74C52.8294 78.74 55.0953 76.6197 55.0953 79.4148Z" fill="#DE8383"/>
<path d="M81.7882 63.7897C81.7882 59.816 78.5669 56.5947 74.5932 56.5947C70.6195 56.5947 67.3982 59.816 67.3982 63.7897C67.3982 67.7634 70.6195 70.9847 74.5932 70.9847C78.5669 70.9847 81.7882 67.7634 81.7882 63.7897Z" fill="#F8B788"/>
<path d="M76.7067 59.7793L70.3376 64.5153L77.4416 67.6998" stroke="black" stroke-opacity="0.19" stroke-width="0.816545" stroke-linecap="round" stroke-linejoin="round"/>
<path d="M18.7133 63.7897C18.7133 59.816 21.9346 56.5947 25.9083 56.5947C29.882 56.5947 33.1033 59.816 33.1033 63.7897C33.1033 67.7634 29.882 70.9847 25.9083 70.9847C21.9346 70.9847 18.7133 67.7634 18.7133 63.7897Z" fill="#F8B788"/>
<path d="M23.7948 59.7793L30.1638 64.5153L23.0599 67.6998" stroke="black" stroke-opacity="0.19" stroke-width="0.816545" stroke-linecap="round" stroke-linejoin="round"/>
<path d="M38.3384 61.2363C37.7001 61.9505 37.3479 62.8751 37.3494 63.8329C37.3494 65.9881 39.0965 67.7352 41.2518 67.7352C43.0183 67.7352 44.5106 66.5615 44.9914 64.9513L38.3382 61.2367L38.3384 61.2363ZM60.5571 61.2363C61.1953 61.9504 61.5475 62.875 61.5461 63.8328C61.5461 65.988 59.799 67.7351 57.6438 67.7351C55.8773 67.7351 54.3848 66.5613 53.904 64.9511L60.5571 61.2363Z" fill="white"/>
<path d="M38.2476 57.5537C39.4724 58.3703 44.7799 61.7997 46.2497 62.6979M60.8659 57.6354C59.6411 58.4519 54.3335 61.8814 52.8637 62.7796" stroke="black" stroke-width="0.600324" stroke-linecap="round"/>
<path d="M38.3293 57.6357C39.5542 58.4523 44.8617 61.8818 46.3315 62.78M60.9477 57.7174C59.7228 58.5339 54.4153 61.9634 52.9455 62.8616" stroke="black" stroke-width="0.600324" stroke-linecap="round"/>
<path d="M36.5098 72.9456C36.5098 72.3656 36.0397 71.8955 35.4597 71.8955C34.8798 71.8955 34.4097 72.3656 34.4097 72.9456C34.4097 73.5255 34.8798 73.9957 35.4597 73.9957C36.0397 73.9957 36.5098 73.5255 36.5098 72.9456Z" fill="black" fill-opacity="0.4"/>
<path d="M40.4476 70.5833C40.4476 70.0033 39.9774 69.5332 39.3975 69.5332C38.8175 69.5332 38.3474 70.0033 38.3474 70.5833V70.8457C38.3474 71.4257 38.8175 71.8958 39.3975 71.8958C39.9774 71.8958 40.4476 71.4257 40.4476 70.8457V70.5833Z" fill="black" fill-opacity="0.4"/>
<path d="M43.5977 72.9456C43.5977 72.3656 43.1276 71.8955 42.5476 71.8955C41.9677 71.8955 41.4976 72.3656 41.4976 72.9456C41.4976 73.5255 41.9677 73.9957 42.5476 73.9957C43.1276 73.9957 43.5977 73.5255 43.5977 72.9456Z" fill="black" fill-opacity="0.4"/>
<path d="M58.2984 72.9456C58.2984 72.3656 57.8283 71.8955 57.2483 71.8955C56.6684 71.8955 56.1982 72.3656 56.1982 72.9456C56.1982 73.5255 56.6684 73.9957 57.2483 73.9957C57.8283 73.9957 58.2984 73.5255 58.2984 72.9456Z" fill="black" fill-opacity="0.4"/>
<path d="M62.2361 70.5833C62.2361 70.0033 61.766 69.5332 61.1861 69.5332C60.6061 69.5332 60.136 70.0033 60.136 70.5833V70.8457C60.136 71.4257 60.6061 71.8958 61.1861 71.8958C61.766 71.8958 62.2361 71.4257 62.2361 70.8457V70.5833Z" fill="black" fill-opacity="0.4"/>
<path d="M65.3863 72.9456C65.3863 72.3656 64.9162 71.8955 64.3362 71.8955C63.7563 71.8955 63.2861 72.3656 63.2861 72.9456C63.2861 73.5255 63.7563 73.9957 64.3362 73.9957C64.9162 73.9957 65.3863 73.5255 65.3863 72.9456Z" fill="black" fill-opacity="0.4"/>
<path d="M46.6857 69.1213C46.6672 69.2515 46.6579 69.3829 46.658 69.5145V70.0516C46.658 71.5742 47.8922 72.8086 49.4149 72.8086H51.0866C52.6093 72.8086 53.8436 71.5742 53.8436 70.0515V69.5142C53.8436 69.3808 53.8341 69.2496 53.8158 69.1211C53.6247 70.4575 52.4757 71.4847 51.0866 71.4847H49.4149C48.0258 71.4847 46.8766 70.4576 46.6857 69.1213Z" fill="black" fill-opacity="0.19"/>
<path d="M33.0537 60.9737C33.0209 59.408 32.8566 55.7462 30.9681 55.6289C28.887 55.6289 28.9622 59.624 28.8515 60.9737C28.7535 62.1702 28.4371 63.0248 28.8515 65.2928C29.0952 66.626 30.0135 66.7895 30.9682 66.7886C31.8754 66.7878 32.8206 66.6827 33.0538 65.6437C33.5323 63.5111 33.0862 62.5394 33.0537 60.9737Z" fill="#B58143"/>
<path d="M66.6165 60.9737C66.6492 59.408 66.8136 55.7462 68.702 55.6289C70.7832 55.6289 70.7079 59.624 70.8187 60.9737C70.9166 62.1702 71.233 63.0248 70.8187 65.2928C70.575 66.626 69.6567 66.7895 68.7019 66.7886C67.7948 66.7878 66.8495 66.6827 66.6164 65.6437C66.1379 63.5111 66.5839 62.5394 66.6165 60.9737Z" fill="#B58143"/>
<path d="M69.1074 48.8705C69.8847 50.7525 70.4726 52.9664 70.4726 57.1809C69.1667 57.1809 65.9019 58.4869 59.491 55.044C52.9799 51.5473 51.312 47.9801 49.7559 45.665C48.2126 48.8705 45.3633 51.76 41.1487 54.391C36.9341 57.022 31.1366 56.8841 29.2173 57.1809C29.2173 54.4369 29.4595 51.7199 30.5066 49.1849C31.5529 46.6509 33.0875 44.3475 35.0231 42.4061C36.9566 40.4666 39.2535 38.9274 41.7825 37.8766C44.3097 36.8267 47.0193 36.2862 49.7559 36.2861C52.4925 36.2862 55.2021 36.8267 57.7293 37.8766C60.2583 38.9274 62.5553 40.4666 64.4888 42.4061C66.4236 44.3463 68.0602 46.3355 69.1074 48.8705Z" fill="#B58143"/>
<path d="M49.6371 50.6512C50.8718 47.9919 51.0618 45.9617 51.0618 45.012C50.5275 42.044 48.628 43.3499 48.4499 44.1216C48.2718 44.8933 48.5093 46.1398 48.2718 49.2266C48.0819 51.6959 45.6205 54.6877 44.2354 55.6375C45.4819 55.2615 48.4024 53.3105 49.6371 50.6512Z" fill="#B58143"/>
</g>
</svg>
