<svg width="100" height="100" viewBox="0 0 100 100" fill="none" xmlns="http://www.w3.org/2000/svg">
<mask id="mask0_329_1147" style="mask-type:luminance" maskUnits="userSpaceOnUse" x="0" y="0" width="100" height="100">
<path d="M100 0H0V100H100V0Z" fill="white"/>
</mask>
<g mask="url(#mask0_329_1147)">
<path d="M17.8169 37.6566C20.0016 18.3897 36.4395 8.76203 51.4229 9.36238C74.3688 10.2816 82.9209 26.727 83.9448 37.6566C84.821 47.0091 94.1573 56.5836 87.7992 65.7464C77.3801 80.7617 45.949 78.9198 33.8909 72.391C21.6188 65.7464 16.3116 50.9355 17.8172 37.6566H17.8169Z" fill="#4A312C"/>
<path d="M88.8719 73.7633C93.4351 61.323 87.7051 47.9543 83.1004 41.7094C80.6633 38.2046 71.2367 60.1203 53.8922 65.8575C36.5478 71.5947 36.8809 86.6198 48.4232 90.9602C59.9652 95.3004 84.3114 86.1967 88.8719 73.7633Z" fill="#4A312C"/>
<path d="M66.4407 48.7439C60.6956 40.5833 46.5929 38.4064 38.2119 43.7526C29.8308 49.0989 27.9639 57.9778 29.2054 67.7109C29.7075 71.6471 30.3389 74.7366 30.6841 78.0678C31.7553 88.4045 45.8568 93.5409 50.041 93.5409C56.6277 93.5409 67.7256 86.3035 69.1099 78.0678C70.3713 70.5634 70.2415 71.1564 70.339 67.7109C70.4363 64.2652 72.1857 56.9044 66.4407 48.7439Z" fill="#89532C"/>
<path d="M31.0144 79.9391C34.6991 87.7146 46.1425 91.5814 49.8866 91.5814C56.2475 91.5814 66.6876 85.2347 69.1614 77.665L69.085 78.1207C67.7016 86.3679 56.6107 93.6154 50.028 93.6154C46.0989 93.6154 33.4195 89.0743 31.0144 79.9391Z" fill="black" fill-opacity="0.19"/>
<path d="M58.7066 81.535C58.7066 84.2915 54.7422 82.2005 49.8521 82.2005C44.962 82.2005 40.9978 84.2915 40.9978 81.535C40.9978 78.7783 44.962 76.5439 49.8521 76.5439C54.7424 76.5439 58.7066 78.7785 58.7066 81.535Z" fill="#DE8383"/>
<path fill-rule="evenodd" clip-rule="evenodd" d="M41.4993 82.6982C42.713 80.7578 45.9945 79.3672 49.852 79.3672C53.7097 79.3672 56.9913 80.7578 58.205 82.6982C57.5245 83.1489 56.1941 82.9378 54.4766 82.6654C53.1308 82.4519 51.547 82.2006 49.852 82.2006C48.1572 82.2006 46.5734 82.4519 45.2275 82.6654C43.5101 82.9378 42.1798 83.1488 41.4993 82.6982Z" fill="#C06E6E"/>
<path fill-rule="evenodd" clip-rule="evenodd" d="M57.5582 79.0751H42.1462C43.668 77.5636 46.5489 76.5439 49.8521 76.5439C53.1556 76.5439 56.0363 77.5636 57.5582 79.0751Z" fill="#F9F9F9"/>
<path d="M78.2816 57.248H72.1872C70.264 57.248 68.7048 58.8072 68.7048 60.7305V66.8248C68.7048 68.7481 70.264 70.3072 72.1872 70.3072H78.2816C80.2049 70.3072 81.764 68.7481 81.764 66.8248V60.7305C81.764 58.8072 80.2049 57.248 78.2816 57.248Z" fill="#89532C"/>
<path d="M75.0893 58.6992H72.1872C71.0653 58.6992 70.1558 59.6087 70.1558 60.7306V66.825C70.1558 67.9469 71.0653 68.8564 72.1872 68.8564H75.0893C76.2112 68.8564 77.1207 67.9469 77.1207 66.825V60.7306C77.1207 59.6087 76.2112 58.6992 75.0893 58.6992Z" fill="black" fill-opacity="0.19"/>
<path d="M71.6068 62.4715C71.6068 61.6701 70.9572 61.0205 70.1558 61.0205C69.3545 61.0205 68.7048 61.6701 68.7048 62.4715V65.3737C68.7048 66.175 69.3545 66.8247 70.1558 66.8247C70.9572 66.8247 71.6068 66.175 71.6068 65.3737V62.4715Z" fill="#89532C"/>
<path d="M22.2201 57.248H28.3145C30.2377 57.248 31.7969 58.8072 31.7969 60.7305V66.8248C31.7969 68.7481 30.2377 70.3072 28.3145 70.3072H22.2201C20.2968 70.3072 18.7377 68.7481 18.7377 66.8248V60.7305C18.7377 58.8072 20.2968 57.248 22.2201 57.248Z" fill="#89532C"/>
<path d="M25.4124 58.6992H28.3145C29.4365 58.6992 30.3459 59.6087 30.3459 60.7306V66.825C30.3459 67.9469 29.4365 68.8564 28.3145 68.8564H25.4124C24.2905 68.8564 23.381 67.9469 23.381 66.825V60.7306C23.381 59.6087 24.2905 58.6992 25.4124 58.6992Z" fill="black" fill-opacity="0.19"/>
<path d="M28.8949 62.4715C28.8949 61.6701 29.5445 61.0205 30.3459 61.0205C31.1472 61.0205 31.7969 61.6701 31.7969 62.4715V65.3737C31.7969 66.175 31.1472 66.8247 30.3459 66.8247C29.5445 66.8247 28.8949 66.175 28.8949 65.3737V62.4715Z" fill="#89532C"/>
<path d="M34.4097 59.862C35.5316 59.5011 37.2576 58.7793 40.6233 58.7793C43.483 58.7793 45.8877 59.5733 46.3191 59.862M52.8636 59.862C53.9855 59.5011 55.7115 58.7793 59.0772 58.7793C61.9369 58.7793 64.3416 59.5733 64.7731 59.862" stroke="black" stroke-width="0.600324" stroke-linecap="round"/>
<path d="M45.7778 64.4631C45.7778 64.4631 41.8468 66.3578 39.9911 66.3578C38.1353 66.3578 34.9509 64.4631 34.9509 64.4631C34.9509 64.4631 38.5088 62.5684 40.3646 62.5684C42.2205 62.5684 45.778 64.4631 45.778 64.4631H45.7778ZM64.2319 64.4631C64.2319 64.4631 60.3009 66.3578 58.4452 66.3578C56.5894 66.3578 53.405 64.4631 53.405 64.4631C53.405 64.4631 56.9629 62.5684 58.8186 62.5684C60.6742 62.5684 64.2319 64.4631 64.2319 64.4631Z" fill="white"/>
<path d="M40.6349 66.3578C41.6814 66.3578 42.5297 65.5095 42.5297 64.4631C42.5297 63.4167 41.6814 62.5684 40.6349 62.5684C39.5885 62.5684 38.7402 63.4167 38.7402 64.4631C38.7402 65.5095 39.5885 66.3578 40.6349 66.3578Z" fill="black"/>
<path d="M58.5478 66.3578C59.5942 66.3578 60.4425 65.5095 60.4425 64.4631C60.4425 63.4167 59.5942 62.5684 58.5478 62.5684C57.5014 62.5684 56.6531 63.4167 56.6531 64.4631C56.6531 65.5095 57.5014 66.3578 58.5478 66.3578Z" fill="black"/>
<path d="M36.4609 68.2275H34.3609C32.4036 68.2275 30.8169 69.8142 30.8169 71.7714C30.8169 73.7287 32.4036 75.3153 34.3609 75.3153H36.4609C38.4181 75.3153 40.0048 73.7287 40.0048 71.7714C40.0048 69.8142 38.4181 68.2275 36.4609 68.2275Z" fill="#FFC6C6"/>
<path d="M65.8566 68.2275H63.7566C61.7993 68.2275 60.2126 69.8142 60.2126 71.7714C60.2126 73.7287 61.7993 75.3153 63.7566 75.3153H65.8566C67.8139 75.3153 69.4006 73.7287 69.4006 71.7714C69.4006 69.8142 67.8139 68.2275 65.8566 68.2275Z" fill="#FFC6C6"/>
<path d="M50.239 68.0645C49.6441 68.1918 48.4543 68.7144 48.4543 69.7852C48.4543 71.1237 49.6441 71.5062 50.239 71.6973" stroke="black" stroke-opacity="0.5" stroke-width="0.653236" stroke-linecap="round" stroke-linejoin="round"/>
<path d="M33.0537 60.9737C33.0209 59.408 32.8566 55.7462 30.9681 55.6289C28.887 55.6289 28.9622 59.624 28.8515 60.9737C28.7535 62.1702 28.4371 63.0248 28.8515 65.2928C29.0952 66.626 30.0135 66.7895 30.9682 66.7886C31.8754 66.7878 32.8206 66.6827 33.0538 65.6437C33.5323 63.5111 33.0862 62.5394 33.0537 60.9737Z" fill="#4A312C"/>
<path d="M66.6165 60.9737C66.6492 59.408 66.8136 55.7462 68.702 55.6289C70.7832 55.6289 70.7079 59.624 70.8187 60.9737C70.9166 62.1702 71.233 63.0248 70.8187 65.2928C70.575 66.626 69.6567 66.7895 68.7019 66.7886C67.7948 66.7878 66.8495 66.6827 66.6164 65.6437C66.1379 63.5111 66.5839 62.5394 66.6165 60.9737Z" fill="#4A312C"/>
<path d="M72.0753 57.2406C72.0752 51.3998 69.755 45.7983 65.625 41.6682C62.5451 38.5882 58.6211 36.4907 54.3491 35.6409C50.0771 34.7912 45.649 35.2273 41.6249 36.8943C37.6008 38.5611 34.1613 41.3838 31.7414 45.0054C29.3216 48.627 28.03 52.8849 28.03 57.2406H72.0753Z" fill="#4A312C"/>
</g>
</svg>
