<svg width="100" height="100" viewBox="0 0 100 100" fill="none" xmlns="http://www.w3.org/2000/svg">
<mask id="mask0_329_1224" style="mask-type:luminance" maskUnits="userSpaceOnUse" x="0" y="0" width="100" height="100">
<path d="M100 0H0V100H100V0Z" fill="white"/>
</mask>
<g mask="url(#mask0_329_1224)">
<path d="M19.0255 58.0197C20.8432 69.8879 23.4298 73.1456 28.2294 79.0919C35.8632 90.7462 64.1435 96.1644 74.9154 76.6415C92.4956 44.7789 70.0872 23.3838 51.4008 23.3838C35.8923 23.3838 33.6927 29.1968 31.0552 34.3639C21.844 32.3455 17.653 49.058 19.0255 58.0197Z" fill="#A55728"/>
<path d="M69.1944 54.3662H30.4558V81.531H30.4583C30.4566 81.5795 30.456 81.6282 30.456 81.677C30.456 86.7586 39.1279 94.8471 49.8251 94.8471C60.5225 94.8471 69.1944 86.7586 69.1944 81.677C69.1944 81.6282 69.1935 81.5795 69.1919 81.531H69.1944V54.3662Z" fill="#DA9969"/>
<path d="M30.4558 78.335V78.4656C30.4561 78.422 30.457 78.3784 30.4583 78.335H30.4558ZM30.4558 78.4965V81.5309H30.4583C30.4566 81.5794 30.456 81.6283 30.456 81.6771C30.456 86.7586 39.1279 94.847 49.8251 94.847C60.5225 94.847 69.1944 86.7586 69.1944 81.6771C69.1944 81.6283 69.1935 81.5794 69.1919 81.5309H69.1944V78.335H69.1919C69.1935 78.3836 69.1944 78.4323 69.1944 78.481C69.1944 83.5625 60.5225 91.651 49.8251 91.651C39.1386 91.651 30.4733 83.579 30.4558 78.4965Z" fill="black" fill-opacity="0.19"/>
<path d="M49.679 72.4736C60.4571 72.4736 69.1944 64.7964 69.1944 55.3262C69.1944 45.8559 60.4571 38.1787 49.679 38.1787C38.9009 38.1787 30.1636 45.8559 30.1636 55.3262C30.1636 64.7964 38.9009 72.4736 49.679 72.4736Z" fill="#DA9969"/>
<path d="M54.9835 78.8874C54.9835 81.6497 52.6854 83.889 49.8507 83.889C47.0156 83.889 44.7175 81.6497 44.7175 78.8874C44.7175 76.125 45.4018 76.459 49.8507 76.459C53.9571 76.459 54.9835 76.125 54.9835 78.8874Z" fill="#DE8383"/>
<path fill-rule="evenodd" clip-rule="evenodd" d="M54.9497 78.6584H44.7168C44.7516 76.3525 45.3841 76.3579 48.5588 76.3865C48.9478 76.39 49.3754 76.3938 49.845 76.3938C50.2742 76.3938 50.6697 76.39 51.0338 76.3866C54.0375 76.3579 54.899 76.3497 54.9497 78.6584Z" fill="#F9F9F9"/>
<path fill-rule="evenodd" clip-rule="evenodd" d="M54.1298 81.5973C53.2065 82.9185 51.6449 83.7868 49.874 83.7868C48.0711 83.7868 46.4853 82.8868 45.5688 81.525C46.4937 80.7829 48.0462 80.2959 49.8059 80.2959C51.6219 80.2959 53.2174 80.8146 54.1298 81.5973Z" fill="#C06E6E"/>
<path d="M74.2576 57.085H74.2575C70.2888 57.085 67.0715 60.3022 67.0715 64.2709V64.289C67.0715 68.2577 70.2888 71.4749 74.2575 71.4749H74.2576C78.2263 71.4749 81.4435 68.2577 81.4435 64.289V64.2709C81.4435 60.3022 78.2263 57.085 74.2576 57.085Z" fill="#DA9969"/>
<path d="M79.8466 64.2727C79.8466 61.1859 77.3443 58.6836 74.2575 58.6836C71.1708 58.6836 68.6685 61.1859 68.6685 64.2727V64.2867C68.6685 67.3735 71.1708 69.8758 74.2575 69.8758C77.3443 69.8758 79.8466 67.3735 79.8466 64.2867V64.2727Z" fill="black" fill-opacity="0.19"/>
<path d="M73.7784 64.5956C73.7784 62.9199 72.42 61.5615 70.7443 61.5615C69.0686 61.5615 67.7102 62.9199 67.7102 64.5956V64.6032C67.7102 66.2789 69.0686 67.6373 70.7443 67.6373C72.42 67.6373 73.7784 66.2789 73.7784 64.6032V64.5956Z" fill="#DA9969"/>
<path d="M26.2438 57.085H26.244C30.2127 57.085 33.4299 60.3022 33.4299 64.2709V64.289C33.4299 68.2577 30.2127 71.4749 26.244 71.4749H26.2438C22.2752 71.4749 19.0579 68.2577 19.0579 64.289V64.2709C19.0579 60.3022 22.2752 57.085 26.2438 57.085Z" fill="#DA9969"/>
<path d="M20.6548 64.2727C20.6548 61.1859 23.1571 58.6836 26.2439 58.6836C29.3307 58.6836 31.833 61.1859 31.833 64.2727V64.2867C31.833 67.3735 29.3307 69.8758 26.2439 69.8758C23.1571 69.8758 20.6548 67.3735 20.6548 64.2867V64.2727Z" fill="black" fill-opacity="0.19"/>
<path d="M26.723 64.5956C26.723 62.9199 28.0814 61.5615 29.7571 61.5615C31.4328 61.5615 32.7913 62.9199 32.7913 64.5956V64.6032C32.7913 66.2789 31.4328 67.6373 29.7571 67.6373C28.0814 67.6373 26.723 66.2789 26.723 64.6032V64.5956Z" fill="#DA9969"/>
<path d="M38.5015 61.3174C37.8632 62.0315 37.511 62.9562 37.5125 63.914C37.5125 66.0692 39.2595 67.8164 41.4149 67.8164C43.1814 67.8164 44.6737 66.6426 45.1547 65.0323L38.5015 61.3177V61.3174ZM60.7201 61.3174C61.3584 62.0315 61.7106 62.9561 61.7091 63.9138C61.7091 66.069 59.9621 67.8163 57.8067 67.8163C56.0402 67.8163 54.5479 66.6424 54.0671 65.0322L60.7201 61.3174Z" fill="white"/>
<path d="M38.2473 57.5537C39.4721 58.3703 44.7797 61.7997 46.2495 62.6979M60.8656 57.6354C59.6408 58.4519 54.3333 61.8814 52.8635 62.7796" stroke="black" stroke-width="0.600324" stroke-linecap="round"/>
<path d="M40.1482 62.2373C39.8886 62.433 39.6781 62.6864 39.5333 62.9774C39.3884 63.2684 39.3132 63.5891 39.3135 63.9142C39.3135 65.0746 40.2541 66.0155 41.4148 66.0155C42.5083 66.0155 43.4068 65.18 43.5068 64.1126L40.1482 62.2373ZM59.0731 62.2373C59.3326 62.433 59.5431 62.6864 59.688 62.9774C59.8329 63.2684 59.9082 63.5891 59.9079 63.9142C59.9079 65.0746 58.9671 66.0155 57.8066 66.0155C56.7129 66.0155 55.8146 65.18 55.7144 64.1126L59.0731 62.2373Z" fill="black"/>
<path d="M50.2387 68.0645C49.6438 68.1918 48.4541 68.7144 48.4541 69.7852C48.4541 71.1237 49.6438 71.5062 50.2387 71.6973" stroke="black" stroke-opacity="0.5" stroke-width="0.653236" stroke-linecap="round" stroke-linejoin="round"/>
<path d="M33.0537 60.9737C33.0209 59.408 32.8566 55.7462 30.9681 55.6289C28.887 55.6289 28.9622 59.624 28.8515 60.9737C28.7535 62.1702 28.4371 63.0248 28.8515 65.2928C29.0952 66.626 30.0135 66.7895 30.9682 66.7886C31.8754 66.7878 32.8206 66.6827 33.0538 65.6437C33.5323 63.5111 33.0862 62.5394 33.0537 60.9737Z" fill="#A55728"/>
<path d="M66.6165 60.9737C66.6492 59.408 66.8136 55.7462 68.702 55.6289C70.7832 55.6289 70.7079 59.624 70.8187 60.9737C70.9166 62.1702 71.233 63.0248 70.8187 65.2928C70.575 66.626 69.6567 66.7895 68.7019 66.7886C67.7948 66.7878 66.8495 66.6827 66.6164 65.6437C66.1379 63.5111 66.5839 62.5394 66.6165 60.9737Z" fill="#A55728"/>
<path d="M69.1074 48.6332C69.8847 50.5152 70.4726 52.7291 70.4726 56.9436C69.1667 56.9436 65.9019 58.2496 59.491 54.8067C52.9799 51.31 51.312 47.7428 49.7559 45.4277C48.2126 48.6332 45.3633 51.5227 41.1487 54.1537C36.9341 56.7847 31.1366 56.6468 29.2173 56.9436C29.2173 54.1996 29.4595 51.4826 30.5066 48.9476C31.5529 46.4136 33.0875 44.1102 35.0231 42.1687C36.9566 40.2293 39.2535 38.6901 41.7825 37.6393C44.3097 36.5894 47.0193 36.0489 49.7559 36.0488C52.4925 36.0489 55.2021 36.5894 57.7293 37.6393C60.2583 38.6901 62.5553 40.2293 64.4888 42.1687C66.4236 44.109 68.0602 46.0982 69.1074 48.6332Z" fill="#A55728"/>
<path d="M60.5613 42.2225C59.1875 38.8246 55.6636 36.7293 50.2284 37.5221C46.6448 37.959 44.4945 40.4102 42.225 42.2223C39.9553 44.0346 36.9689 48.1121 39.358 52.1328C41.7471 56.1536 58.7695 60.7407 64.6228 52.9256C67.7803 48.7099 61.9351 45.6202 60.5613 42.2225Z" fill="#A55728"/>
</g>
</svg>
