<svg width="100" height="100" viewBox="0 0 100 100" fill="none" xmlns="http://www.w3.org/2000/svg">
<mask id="mask0_329_2203" style="mask-type:luminance" maskUnits="userSpaceOnUse" x="0" y="0" width="100" height="100">
<path d="M100 0H0V100H100V0Z" fill="white"/>
</mask>
<g mask="url(#mask0_329_2203)">
<path d="M87.163 65.4893C93.5613 48.0125 85.0051 42.0196 79.6196 32.8473C74.234 23.6751 65.5891 20.2852 64.2356 22.789C61.2497 16.7774 56.7593 15.166 48.7729 15.166C38.9621 15.166 26.8181 20.8176 24.7189 28.2453C21.9338 38.1 19.3879 39.2085 15.4614 46.2495C12.8536 50.9258 11.8836 61.1131 15.4614 67.3217C20.9241 76.8016 31.8237 84.9222 51.3732 84.9222C62.9644 84.9222 82.0036 79.582 87.163 65.4893Z" fill="#F59797"/>
<path d="M66.4408 48.7429C60.6957 40.5823 46.593 38.4054 38.212 43.7517C29.831 49.0979 27.964 57.9769 29.2055 67.7099C29.7077 71.6462 30.339 74.7356 30.6842 78.0668C31.7554 88.4035 45.857 93.5399 50.0411 93.5399C56.6279 93.5399 67.7257 86.3025 69.1101 78.0668C70.3715 70.5624 70.2416 71.1554 70.3391 67.7099C70.4365 64.2643 72.1858 56.9034 66.4408 48.7429Z" fill="#89532C"/>
<path d="M31.0144 79.9381C34.6991 87.7136 46.1425 91.5804 49.8866 91.5804C56.2475 91.5804 66.6876 85.2338 69.1614 77.6641L69.085 78.1197C67.7016 86.367 56.6107 93.6145 50.028 93.6145C46.0989 93.6145 33.4195 89.0733 31.0144 79.9381Z" fill="black" fill-opacity="0.19"/>
<path d="M55.0987 78.7795C55.0987 81.5747 52.8328 83.8405 50.0378 83.8405C47.2427 83.8405 44.9768 81.5747 44.9768 78.7795C44.9768 75.9845 45.6516 76.3224 50.0378 76.3224C54.0865 76.3224 55.0987 75.9845 55.0987 78.7795Z" fill="#DE8383"/>
<path d="M75.3826 56.1045C71.0608 56.1045 69.2389 59.515 68.868 61.2203V71.2922C72.8404 70.7594 79.9172 67.2954 80.9439 63.9381C81.9707 60.5808 80.785 56.1045 75.3826 56.1045Z" fill="#89532C"/>
<path d="M75.1275 58.0225C72.0291 58.0225 70.7228 60.4639 70.4569 61.6843V68.8938C73.305 68.5123 78.3784 66.0329 79.1144 63.6298C79.8504 61.2267 79.0006 58.0225 75.1275 58.0225Z" fill="black" fill-opacity="0.19"/>
<path d="M72.3637 63.7293C72.3637 61.8896 71.0926 61.2903 70.457 61.2207V66.6561C71.0926 66.4471 72.3637 65.5691 72.3637 63.7293Z" fill="#89532C"/>
<path d="M25.119 56.1045C29.4408 56.1045 31.2627 59.515 31.6335 61.2203V71.2922C27.6612 70.7594 20.5844 67.2954 19.5577 63.9381C18.5309 60.5808 19.7166 56.1045 25.119 56.1045Z" fill="#89532C"/>
<path d="M25.374 58.0225C28.4725 58.0225 29.7788 60.4639 30.0447 61.6843V68.8938C27.1966 68.5123 22.1232 66.0329 21.3872 63.6298C20.6511 61.2267 21.501 58.0225 25.374 58.0225Z" fill="black" fill-opacity="0.19"/>
<path d="M28.1379 63.7293C28.1379 61.8896 29.409 61.2903 30.0446 61.2207V66.6561C29.409 66.4471 28.1379 65.5691 28.1379 63.7293Z" fill="#89532C"/>
<path d="M45.8233 65.3873C45.8233 65.3873 41.859 67.298 39.9876 67.298C38.1161 67.298 34.9048 65.3873 34.9048 65.3873C34.9048 65.3873 38.4927 63.4766 40.364 63.4766C42.2356 63.4766 45.8233 65.3873 45.8233 65.3873ZM64.5054 65.3873C64.5054 65.3873 60.5409 67.298 58.6695 67.298C56.7982 67.298 53.5867 65.3873 53.5867 65.3873C53.5867 65.3873 57.1746 63.4766 59.046 63.4766C60.9175 63.4766 64.5054 65.3873 64.5054 65.3873Z" fill="white"/>
<path d="M40.6369 67.298C41.6922 67.298 42.5476 66.4425 42.5476 65.3873C42.5476 64.332 41.6922 63.4766 40.6369 63.4766C39.5817 63.4766 38.7262 64.332 38.7262 65.3873C38.7262 66.4425 39.5817 67.298 40.6369 67.298Z" fill="black"/>
<path d="M58.773 67.298C59.8283 67.298 60.6837 66.4425 60.6837 65.3873C60.6837 64.332 59.8283 63.4766 58.773 63.4766C57.7178 63.4766 56.8623 64.332 56.8623 65.3873C56.8623 66.4425 57.7178 67.298 58.773 67.298Z" fill="black"/>
<path d="M34.0831 57.4717H46.6395V60.7473H34.0831V57.4717ZM52.4438 57.4717H65.0002V60.7473H52.4438V57.4717Z" fill="#403E3E"/>
<path d="M44.7945 69.1152C44.7303 69.3517 44.6979 69.5958 44.6981 69.8408C44.6981 71.3633 45.9324 72.5978 47.4551 72.5978H52.9689C54.4916 72.5978 55.7259 71.3633 55.7259 69.8408C55.7259 69.5896 55.6924 69.3465 55.6295 69.1152C55.3111 70.2858 54.2404 71.1468 52.9689 71.1468H47.4551C46.1836 71.1468 45.1129 70.2858 44.7945 69.1152Z" fill="black" fill-opacity="0.19"/>
<path d="M29.2373 67.8564V56.5186H33.9861L29.2373 67.8564Z" fill="#F59797"/>
<path d="M70.433 67.8564V56.5186H65.6842L70.433 67.8564Z" fill="#F59797"/>
<path d="M69.1074 48.8705C69.8847 50.7525 70.4726 52.9664 70.4726 57.1809C69.1667 57.1809 65.9019 58.4869 59.491 55.044C52.9799 51.5473 51.312 47.9801 49.7559 45.665C48.2126 48.8705 45.3633 51.76 41.1487 54.391C36.9341 57.022 31.1366 56.8841 29.2173 57.1809C29.2173 54.4369 29.4595 51.7199 30.5066 49.1849C31.5529 46.6509 33.0875 44.3475 35.0231 42.4061C36.9566 40.4666 39.2535 38.9274 41.7825 37.8766C44.3097 36.8267 47.0193 36.2862 49.7559 36.2861C52.4925 36.2862 55.2021 36.8267 57.7293 37.8766C60.2583 38.9274 62.5553 40.4666 64.4888 42.4061C66.4236 44.3463 68.0602 46.3355 69.1074 48.8705Z" fill="#F59797"/>
</g>
</svg>
