<svg width="100" height="100" viewBox="0 0 100 100" fill="none" xmlns="http://www.w3.org/2000/svg">
<mask id="mask0_329_1740" style="mask-type:luminance" maskUnits="userSpaceOnUse" x="0" y="0" width="100" height="100">
<path d="M100 0H0V100H100V0Z" fill="white"/>
</mask>
<g mask="url(#mask0_329_1740)">
<path d="M18.9456 54.9065C20.7633 66.7748 23.3498 70.0325 28.1495 75.9787C35.7832 87.633 64.0635 93.0512 74.8354 73.5284C92.4157 41.6658 70.8147 43.9264 52.1282 43.9264C36.6198 43.9264 30.7869 38.7593 28.1495 43.9264C22.0136 39.4051 17.5731 45.9448 18.9456 54.9065Z" fill="#4A312C"/>
<path d="M21.5784 40.006C20.1586 47.4829 20.9868 50.5983 21.5784 51.2215C29.1621 62.4369 65.7086 72.0945 75.8738 54.0253C84.006 39.5699 74.798 25.5713 69.1777 20.379C69.5003 20.7943 70.4011 22.3869 69.9266 25.1559C69.606 27.0252 68.9853 27.9598 67.7483 28.9983C67.9634 27.0944 68.7391 22.4559 67.2642 19.3406C65.3974 15.3976 63.4186 13.9752 61.3748 13.006C62.3428 16.0175 62.7028 17.4712 62.4236 19.3406C62.1442 21.2098 60.4646 24.4636 59.1738 25.1559C59.7901 22.8182 59.9516 19.3406 58.8213 16.1979C56.996 11.1229 53.7415 8.74815 51.5902 8.0212C51.7515 8.47122 52.5518 11.951 52.2816 14.9791C51.8555 19.7559 50.1018 21.365 49.4559 22.1723C50.1018 20.6384 50.4247 18.1355 50.1018 15.229C49.5421 10.1924 44.5941 6.77511 43.0612 5.94434C43.3033 7.01748 43.4013 11.9287 42.4158 16.2251C41.463 20.379 39.5253 22.576 37.4261 25.1559C37.9913 23.6219 37.7491 21.2842 36.7803 18.5392C35.9508 16.189 35.0246 15.7406 34.3254 14.9789C34.3522 16.1213 33.9703 19.4236 32.2277 23.4943C30.0494 28.5828 29.2427 32.6329 29.2427 30.4522V23.4943C27.2795 25.8828 22.9984 32.529 21.5784 40.006Z" fill="#4A312C"/>
<path d="M49.679 40.3008C38.2696 40.3008 29.0204 50.9384 29.0204 64.0605C29.0204 64.1411 29.0207 64.2218 29.0214 64.3025C29.0207 64.383 29.0204 64.4635 29.0204 64.5442C29.0204 77.6692 38.2696 93.2129 49.679 93.2129C61.0884 93.2129 70.3376 77.6692 70.3376 64.5442C70.3376 64.4635 70.3373 64.383 70.3366 64.3025C70.3373 64.2218 70.3376 64.1411 70.3376 64.0605C70.3376 50.9384 61.0884 40.3008 49.679 40.3008Z" fill="#C07F50"/>
<path d="M29.0279 63.8984C29.023 64.1129 29.0204 64.3281 29.0204 64.544C29.0204 77.669 38.2696 93.2127 49.679 93.2127C61.0884 93.2127 70.3376 77.669 70.3376 64.544C70.3376 64.3281 70.3352 64.1129 70.3301 63.8984C70.0329 76.881 60.9008 91.9179 49.679 91.9179C38.4572 91.9179 29.3253 76.881 29.0279 63.8984Z" fill="black" fill-opacity="0.19"/>
<path fill-rule="evenodd" clip-rule="evenodd" d="M55.0235 77.8809C55.2623 77.6719 55.5102 77.4547 55.7607 77.2584C55.8144 77.2162 55.8759 77.1851 55.9417 77.1667C56.0074 77.1483 56.0762 77.1431 56.144 77.1513C56.2117 77.1595 56.2772 77.1809 56.3367 77.2144C56.3962 77.2479 56.4485 77.2928 56.4907 77.3466C56.5328 77.4003 56.564 77.4618 56.5824 77.5275C56.6007 77.5933 56.606 77.662 56.5978 77.7298C56.5896 77.7976 56.5681 77.8631 56.5346 77.9226C56.5011 77.9821 56.4562 78.0344 56.4025 78.0766C56.1734 78.2562 55.9627 78.4407 55.7373 78.6382C55.6143 78.7465 55.4905 78.8539 55.366 78.9605C54.9972 79.2749 54.5881 79.5997 54.0956 79.8894C53.0973 80.4769 51.8076 80.8905 49.8597 80.8905C46.6701 80.8905 44.3813 78.9764 43.6105 77.9869C43.5685 77.933 43.5376 77.8714 43.5194 77.8056C43.5013 77.7398 43.4963 77.671 43.5047 77.6033C43.5217 77.4665 43.5924 77.342 43.7011 77.2572C43.8099 77.1725 43.9479 77.1344 44.0847 77.1514C44.2216 77.1684 44.3461 77.2391 44.4308 77.3479C45.0638 78.1607 47.0761 79.8509 49.8595 79.8509C51.6447 79.8509 52.7481 79.4759 53.5683 78.9934C53.9854 78.7481 54.3419 78.4675 54.6912 78.1695C54.7995 78.077 54.9105 77.98 55.0235 77.8809Z" fill="black"/>
<path d="M77.7916 56.9209H71.6972C69.7739 56.9209 68.2148 58.48 68.2148 60.4033V66.4977C68.2148 68.4209 69.7739 69.9801 71.6972 69.9801H77.7916C79.7149 69.9801 81.274 68.4209 81.274 66.4977V60.4033C81.274 58.48 79.7149 56.9209 77.7916 56.9209Z" fill="#C07F50"/>
<path d="M77.7916 58.3721H71.6972C70.5753 58.3721 69.6658 59.2816 69.6658 60.4035V66.4978C69.6658 67.6198 70.5753 68.5292 71.6972 68.5292H77.7916C78.9135 68.5292 79.823 67.6198 79.823 66.4978V60.4035C79.823 59.2816 78.9135 58.3721 77.7916 58.3721Z" fill="black" fill-opacity="0.19"/>
<path d="M70.5364 60.6934H69.3756C68.8948 60.6934 68.505 61.0831 68.505 61.564V65.6269C68.505 66.1077 68.8948 66.4975 69.3756 66.4975H70.5364C71.0172 66.4975 71.407 66.1077 71.407 65.6269V61.564C71.407 61.0831 71.0172 60.6934 70.5364 60.6934Z" fill="#C07F50"/>
<path d="M22.71 56.9209H28.8044C30.7277 56.9209 32.2868 58.48 32.2868 60.4033V66.4977C32.2868 68.4209 30.7277 69.9801 28.8044 69.9801H22.71C20.7868 69.9801 19.2276 68.4209 19.2276 66.4977V60.4033C19.2276 58.48 20.7868 56.9209 22.71 56.9209Z" fill="#C07F50"/>
<path d="M22.71 58.3721H28.8044C29.9263 58.3721 30.8358 59.2816 30.8358 60.4035V66.4978C30.8358 67.6198 29.9263 68.5292 28.8044 68.5292H22.71C21.5881 68.5292 20.6786 67.6198 20.6786 66.4978V60.4035C20.6786 59.2816 21.5881 58.3721 22.71 58.3721Z" fill="black" fill-opacity="0.19"/>
<path d="M29.9652 60.6934H31.126C31.6068 60.6934 31.9966 61.0831 31.9966 61.564V65.6269C31.9966 66.1077 31.6068 66.4975 31.126 66.4975H29.9652C29.4844 66.4975 29.0946 66.1077 29.0946 65.6269V61.564C29.0946 61.0831 29.4844 60.6934 29.9652 60.6934Z" fill="#C07F50"/>
<path d="M62.3444 56.9824C61.6428 57.5341 60.5637 58.6372 58.4593 58.6372C56.6713 58.6372 55.1679 57.4238 54.8981 56.9824" stroke="black" stroke-width="1.35138" stroke-linecap="round"/>
<path d="M62.3444 63.5146C61.6428 64.0663 60.5637 65.1693 58.4593 65.1695C56.6713 65.1695 55.1679 63.9561 54.8981 63.5146" stroke="black" stroke-width="0.675773" stroke-linecap="round"/>
<path d="M44.1423 56.9824C43.4408 57.5339 42.3617 58.6371 40.2571 58.6372C38.4696 58.6372 36.966 57.4237 36.696 56.9824" stroke="black" stroke-width="1.35138" stroke-linecap="round"/>
<path d="M44.1423 63.5146C43.4408 64.0663 42.3617 65.1693 40.2571 65.1695C38.4696 65.1695 36.966 63.9561 36.696 63.5146" stroke="black" stroke-width="0.675773" stroke-linecap="round"/>
<path d="M36.4608 68.2266H34.3608C32.4036 68.2266 30.8169 69.8132 30.8169 71.7705C30.8169 73.7277 32.4036 75.3143 34.3608 75.3143H36.4608C38.4181 75.3143 40.0048 73.7277 40.0048 71.7705C40.0048 69.8132 38.4181 68.2266 36.4608 68.2266Z" fill="#FFC6C6"/>
<path d="M65.8565 68.2266H63.7565C61.7992 68.2266 60.2125 69.8132 60.2125 71.7705C60.2125 73.7277 61.7992 75.3143 63.7565 75.3143H65.8565C67.8137 75.3143 69.4004 73.7277 69.4004 71.7705C69.4004 69.8132 67.8137 68.2266 65.8565 68.2266Z" fill="#FFC6C6"/>
<path d="M49.3301 67.084C48.1719 68.6292 47.3637 72.2256 48.0584 72.5627C48.7533 72.8999 49.7643 72.5627 50.85 72.5627" stroke="black" stroke-opacity="0.5" stroke-width="0.653236" stroke-linecap="round" stroke-linejoin="round"/>
<path d="M30.0763 59.4048C29.9761 57.0806 29.6956 55.9029 31.7253 55.6279C34.0561 56.0528 33.4007 58.3051 33.15 59.4048C32.8995 60.5044 34.2866 61.6541 34.036 64.0782C33.7854 66.5025 31.0639 67.6392 29.7666 65.6004C28.1045 62.9886 30.1766 61.729 30.0764 59.4048H30.0763Z" fill="#4A312C"/>
<path d="M69.594 59.4048C69.6942 57.0806 69.9747 55.9029 67.9449 55.6279C65.6142 56.0528 66.2695 58.3051 66.5203 59.4048C66.7708 60.5044 65.3837 61.6541 65.6343 64.0782C65.8849 66.5025 68.6063 67.6392 69.9037 65.6004C71.5658 62.9886 69.4936 61.729 69.5938 59.4048H69.594Z" fill="#4A312C"/>
<path d="M69.1074 48.5141C69.8847 50.396 70.4726 52.6099 70.4726 56.8245C69.1667 56.8245 61.7276 57.5368 56.8792 55.6373C52.0307 53.7378 51.312 52.2537 49.7559 49.9387C48.2126 53.1442 45.3633 54.4501 41.03 55.6373C36.6967 56.8245 31.1366 56.5277 29.2173 56.8245C29.2173 54.0805 29.4595 51.3635 30.5066 48.8284C31.5529 46.2944 33.0875 43.9911 35.0231 42.0496C36.9566 40.1101 39.2535 38.571 41.7825 37.5202C44.3097 36.4703 47.0193 35.9298 49.7559 35.9297C52.4925 35.9298 55.2021 36.4703 57.7293 37.5202C60.2583 38.571 62.5553 40.1101 64.4888 42.0496C66.4236 43.9899 68.0602 45.979 69.1074 48.5141Z" fill="#4A312C"/>
</g>
</svg>
