<svg  fill="none" xmlns="http://www.w3.org/2000/svg">
<path d="M439.623 565.261L1006.85 826.228C1010.87 828.074 1015.55 826.576 1014.8 822.222C1012.11 806.55 979.55 764.067 751.608 685.702C453.374 583.17 292.292 420.409 418.425 267.598C513.338 152.611 234.411 59.1534 90.5171 19.9333C79.1171 16.8261 74.0817 30.9483 84.707 36.1172L371.351 175.561C375.236 177.451 377.468 181.623 376.885 185.905L344.093 426.317C343.754 428.809 344.365 431.336 345.805 433.397L435.605 561.905C436.623 563.36 438.009 564.519 439.623 565.261Z" fill="url(#paint0_linear_77_3364)"/>
<path d="M0 832H1003.15C1003.15 832 1039.38 790.895 741.145 688.363C442.91 585.831 281.829 423.07 407.962 270.259C534.095 117.448 0 2.66101 0 2.66101V832Z" fill="url(#paint1_linear_77_3364)"/>
<path d="M0 829.339H772.005C772.005 829.339 717.234 724.919 487.719 631.709C258.204 538.498 216.889 457.584 313.959 318.665C411.028 179.746 0 75.3943 0 75.3943V829.339Z" fill="url(#paint2_linear_77_3364)"/>
<path d="M772.005 832C772.005 832 717.234 727.58 487.719 634.37C258.204 541.159 216.889 460.245 313.959 321.326C411.028 182.408 0 78.0554 0 78.0554L234.276 194.252L287.751 257.76C289.559 259.907 290.109 262.844 289.202 265.5L235.149 423.646C234.582 425.303 234.575 427.1 235.129 428.761L270.318 534.414L456.343 634.37L629.579 722.013L772.005 832Z" fill="url(#paint3_linear_77_3364)"/>
<path d="M0 829.339H581.329C581.329 829.339 540.086 732.413 367.258 645.891C194.431 559.37 163.32 484.263 236.415 355.314C309.509 226.364 0 129.501 0 129.501V829.339Z" fill="url(#paint4_linear_77_3364)"/>
<path d="M195.296 554.694L552.381 815.126C558.921 819.896 565.733 813.967 561.201 807.26C537.995 772.913 482.41 708.256 365.299 648.553C195.583 562.031 165.032 486.924 236.811 357.975C291.177 260.307 130.004 181.046 48.6077 148.338C40.2546 144.982 34.9342 155.002 42.1215 160.422L204.561 282.935C207.078 284.834 208.245 288.033 207.543 291.106L178.764 416.926C178.569 417.781 178.515 418.663 178.606 419.536L192.053 549.057C192.287 551.31 193.466 553.359 195.296 554.694Z" fill="url(#paint5_linear_77_3364)"/>
<path d="M0 829.339H387.165C387.165 829.339 359.697 753.665 244.594 686.115C129.491 618.565 108.771 559.926 157.452 459.251C206.133 358.575 0 282.951 0 282.951V829.339Z" fill="url(#paint6_linear_77_3364)"/>
<path d="M369.522 800.75C349.74 773.109 311.428 729.364 245.32 687.421C137.273 618.869 112.567 564.034 158.264 461.866C192.182 386.032 94.3222 324.204 41.6206 297.37C32.7013 292.828 24.7777 302.695 30.6527 310.798L105.044 413.403C106.544 415.471 107.195 418.034 106.864 420.567L91.5426 537.97C91.3348 539.562 91.5135 541.181 92.0637 542.69L129.477 645.282C130.116 647.033 131.231 648.57 132.696 649.721L257.528 747.736L358.665 811.4C367.085 816.7 375.313 808.841 369.522 800.75Z" fill="url(#paint7_linear_77_3364)"/>
<defs>
<linearGradient id="paint0_linear_77_3364" x1="132.468" y1="768.339" x2="242.24" y2="377.218" gradientUnits="userSpaceOnUse">
<stop stop-color="white"/>
<stop offset="1" stop-color="#E0786C" stop-opacity="0.15"/>
</linearGradient>
<linearGradient id="paint1_linear_77_3364" x1="122.005" y1="771" x2="231.776" y2="379.879" gradientUnits="userSpaceOnUse">
<stop stop-color="#F8DABB"/>
<stop offset="1" stop-color="#E0786C" stop-opacity="0.71"/>
</linearGradient>
<linearGradient id="paint2_linear_77_3364" x1="93.8925" y1="773.884" x2="208.467" y2="428.298" gradientUnits="userSpaceOnUse">
<stop stop-color="#FDFCDF"/>
<stop offset="1" stop-color="#F8DABB" stop-opacity="0.61"/>
</linearGradient>
<linearGradient id="paint3_linear_77_3364" x1="681.318" y1="832" x2="134.314" y2="320.165" gradientUnits="userSpaceOnUse">
<stop stop-color="#FFFED5" stop-opacity="0.08"/>
<stop offset="1" stop-color="#F8DABB" stop-opacity="0.19"/>
</linearGradient>
<linearGradient id="paint4_linear_77_3364" x1="70.7022" y1="777.864" x2="195.387" y2="472.776" gradientUnits="userSpaceOnUse">
<stop stop-color="#4EACB7"/>
<stop offset="1" stop-color="#4EACB7" stop-opacity="0.33"/>
</linearGradient>
<linearGradient id="paint5_linear_77_3364" x1="476.69" y1="832" x2="19.226" y2="148.077" gradientUnits="userSpaceOnUse">
<stop stop-color="#4EACB7" stop-opacity="0.18"/>
<stop offset="0.9999" stop-color="#92CED4" stop-opacity="0.24"/>
<stop offset="1" stop-color="#4EACB7" stop-opacity="0.33"/>
</linearGradient>
<linearGradient id="paint6_linear_77_3364" x1="47.0876" y1="789.151" x2="155.402" y2="563.066" gradientUnits="userSpaceOnUse">
<stop stop-color="#387FA3"/>
<stop offset="1" stop-color="#4EACB7" stop-opacity="0.72"/>
</linearGradient>
<linearGradient id="paint7_linear_77_3364" x1="387.165" y1="854.176" x2="123.848" y2="296.546" gradientUnits="userSpaceOnUse">
<stop stop-color="#528CAA"/>
<stop offset="1" stop-color="#6DB2B6" stop-opacity="0.03"/>
</linearGradient>
</defs>
</svg>
